<svg width="20" height="20" viewBox="0 0 20 20" fill="none" xmlns="http://www.w3.org/2000/svg">
<path d="M10 18.9596C5.05834 18.9596 1.04167 14.943 1.04167 10.0013C1.04167 5.05964 5.05834 1.04297 10 1.04297C14.9417 1.04297 18.9583 5.05964 18.9583 10.0013C18.9583 14.943 14.9417 18.9596 10 18.9596ZM10 2.29297C5.75001 2.29297 2.29167 5.7513 2.29167 10.0013C2.29167 14.2513 5.75001 17.7096 10 17.7096C14.25 17.7096 17.7083 14.2513 17.7083 10.0013C17.7083 5.7513 14.25 2.29297 10 2.29297Z" fill="#00D778"/>
<path d="M13.3333 10.625H6.66667C6.32501 10.625 6.04167 10.3417 6.04167 10C6.04167 9.65833 6.32501 9.375 6.66667 9.375H13.3333C13.675 9.375 13.9583 9.65833 13.9583 10C13.9583 10.3417 13.675 10.625 13.3333 10.625Z" fill="#00D778"/>
<path d="M10 13.9596C9.65833 13.9596 9.375 13.6763 9.375 13.3346V6.66797C9.375 6.3263 9.65833 6.04297 10 6.04297C10.3417 6.04297 10.625 6.3263 10.625 6.66797V13.3346C10.625 13.6763 10.3417 13.9596 10 13.9596Z" fill="#00D778"/>
</svg>
