<svg width="20" height="20" viewBox="0 0 20 20" fill="none" xmlns="http://www.w3.org/2000/svg">
<path d="M10.0001 18.4584C5.33456 18.4584 1.54175 14.6656 1.54175 10.0001C1.54175 5.33456 5.33456 1.54175 10.0001 1.54175C14.6656 1.54175 18.4584 5.33456 18.4584 10.0001C18.4584 14.6656 14.6656 18.4584 10.0001 18.4584ZM10.0001 1.79175C5.47394 1.79175 1.79175 5.47394 1.79175 10.0001C1.79175 14.5262 5.47394 18.2084 10.0001 18.2084C14.5262 18.2084 18.2084 14.5262 18.2084 10.0001C18.2084 5.47394 14.5262 1.79175 10.0001 1.79175Z" fill="#292D32" stroke="#FF5353"/>
<path d="M7.72983 12.4465L7.72373 12.4526L7.71785 12.4589C7.71458 12.4624 7.7075 12.4684 7.69358 12.4739C7.67897 12.4797 7.66063 12.4834 7.64172 12.4834C7.62403 12.4834 7.60851 12.4802 7.59519 12.4748C7.58233 12.4696 7.56828 12.4612 7.5536 12.4465C7.53208 12.425 7.5188 12.3942 7.5188 12.3584C7.5188 12.3225 7.53208 12.2918 7.5536 12.2703L12.2703 7.5536C12.2918 7.53208 12.3225 7.5188 12.3584 7.5188C12.3942 7.5188 12.425 7.53208 12.4465 7.5536C12.468 7.57513 12.4813 7.60586 12.4813 7.64172C12.4813 7.67757 12.468 7.7083 12.4465 7.72983L7.72983 12.4465Z" fill="white" stroke="#FF5353"/>
<path d="M12.3584 12.4834C12.3407 12.4834 12.3252 12.4802 12.3119 12.4748C12.299 12.4696 12.285 12.4612 12.2703 12.4465L7.5536 7.72983C7.53208 7.7083 7.5188 7.67757 7.5188 7.64172C7.5188 7.60586 7.53208 7.57513 7.5536 7.5536C7.57513 7.53208 7.60586 7.5188 7.64172 7.5188C7.67757 7.5188 7.7083 7.53208 7.72983 7.5536L12.4465 12.2703C12.468 12.2918 12.4813 12.3225 12.4813 12.3584C12.4813 12.3942 12.468 12.425 12.4465 12.4465C12.4318 12.4612 12.4178 12.4696 12.4049 12.4748C12.3916 12.4802 12.3761 12.4834 12.3584 12.4834Z" fill="#292D32" stroke="#FF5353"/>
</svg>
