<svg width="24" height="24" viewBox="0 0 24 24" fill="none" xmlns="http://www.w3.org/2000/svg">
<path d="M21 11.2496V19.4996C21 19.8974 20.842 20.279 20.5607 20.5603C20.2794 20.8416 19.8978 20.9996 19.5 20.9996H4.5C4.10218 20.9996 3.72064 20.8416 3.43934 20.5603C3.15804 20.279 3 19.8974 3 19.4996V4.49961C3 4.10179 3.15804 3.72026 3.43934 3.43895C3.72064 3.15765 4.10218 2.99961 4.5 2.99961H12.75C12.9489 2.99961 13.1397 3.07863 13.2803 3.21928C13.421 3.35994 13.5 3.5507 13.5 3.74961C13.5 3.94853 13.421 4.13929 13.2803 4.27994C13.1397 4.4206 12.9489 4.49961 12.75 4.49961H4.5V19.4996H19.5V11.2496C19.5 11.0507 19.579 10.8599 19.7197 10.7193C19.8603 10.5786 20.0511 10.4996 20.25 10.4996C20.4489 10.4996 20.6397 10.5786 20.7803 10.7193C20.921 10.8599 21 11.0507 21 11.2496ZM21.5306 6.53024L12.5306 15.5302C12.4609 15.5999 12.3782 15.6551 12.2871 15.6927C12.1961 15.7304 12.0985 15.7497 12 15.7496H9C8.80109 15.7496 8.61032 15.6706 8.46967 15.5299C8.32902 15.3893 8.25 15.1985 8.25 14.9996V11.9996C8.24992 11.9011 8.26926 11.8035 8.3069 11.7125C8.34454 11.6214 8.39975 11.5387 8.46937 11.469L17.4694 2.46899C17.539 2.39926 17.6217 2.34394 17.7128 2.30619C17.8038 2.26845 17.9014 2.24902 18 2.24902C18.0986 2.24902 18.1962 2.26845 18.2872 2.30619C18.3783 2.34394 18.461 2.39926 18.5306 2.46899L21.5306 5.46899C21.6004 5.53864 21.6557 5.62136 21.6934 5.71241C21.7312 5.80346 21.7506 5.90105 21.7506 5.99961C21.7506 6.09818 21.7312 6.19577 21.6934 6.28682C21.6557 6.37787 21.6004 6.46058 21.5306 6.53024ZM19.9369 5.99961L18 4.05993L16.8103 5.24961L18.75 7.1893L19.9369 5.99961Z" fill="#E108B1"/>
</svg>
