<svg width="24" height="24" viewBox="0 0 24 24" fill="none" xmlns="http://www.w3.org/2000/svg">
<path d="M6.01125 13.8559C6.0138 13.9067 6.00598 13.9575 5.98827 14.0052C5.97057 14.0529 5.94335 14.0964 5.90827 14.1333C5.87319 14.1701 5.83099 14.1994 5.78423 14.2194C5.73746 14.2394 5.68712 14.2497 5.63625 14.2497H1.5C1.33072 14.2499 1.16634 14.1929 1.03357 14.0879C0.900807 13.9829 0.807475 13.836 0.768753 13.6712C0.744641 13.5584 0.745753 13.4417 0.772008 13.3294C0.798263 13.2171 0.849013 13.1119 0.920628 13.0215C1.58232 12.144 2.46027 11.4531 3.46875 11.0162C3.026 10.6125 2.68641 10.1086 2.47845 9.54672C2.27048 8.98481 2.20019 8.38124 2.27345 7.78658C2.34672 7.19191 2.56141 6.62346 2.89954 6.12883C3.23767 5.63419 3.68941 5.22779 4.2169 4.94364C4.7444 4.65949 5.33231 4.50588 5.93138 4.49566C6.53046 4.48545 7.12326 4.61893 7.66014 4.88493C8.19702 5.15093 8.66234 5.5417 9.01714 6.02452C9.37194 6.50734 9.60588 7.06814 9.69938 7.65997C9.71145 7.73955 9.69719 7.8209 9.65878 7.89164C9.62036 7.96238 9.55989 8.01863 9.48656 8.05184C8.44631 8.53276 7.56531 9.30119 6.94754 10.2665C6.32976 11.2318 6.00099 12.3536 6 13.4997C6 13.6197 6 13.7378 6.01125 13.8559ZM23.0737 13.0206C22.4136 12.1441 21.5376 11.4535 20.5312 11.0162C20.974 10.6125 21.3136 10.1086 21.5216 9.54672C21.7295 8.98481 21.7998 8.38124 21.7266 7.78658C21.6533 7.19191 21.4386 6.62346 21.1005 6.12883C20.7623 5.63419 20.3106 5.22779 19.7831 4.94364C19.2556 4.65949 18.6677 4.50588 18.0686 4.49566C17.4695 4.48545 16.8767 4.61893 16.3399 4.88493C15.803 5.15093 15.3377 5.5417 14.9829 6.02452C14.6281 6.50734 14.3941 7.06814 14.3006 7.65997C14.2886 7.73955 14.3028 7.8209 14.3412 7.89164C14.3796 7.96238 14.4401 8.01863 14.5134 8.05184C15.5537 8.53276 16.4347 9.30119 17.0525 10.2665C17.6702 11.2318 17.999 12.3536 18 13.4997C18 13.6197 18 13.7378 17.9888 13.8559C17.9862 13.9067 17.994 13.9575 18.0117 14.0052C18.0294 14.0529 18.0567 14.0964 18.0917 14.1333C18.1268 14.1701 18.169 14.1994 18.2158 14.2194C18.2625 14.2394 18.3129 14.2497 18.3638 14.2497H22.5C22.6693 14.2499 22.8337 14.1929 22.9664 14.0879C23.0992 13.9829 23.1925 13.836 23.2313 13.6712C23.2555 13.5582 23.2544 13.4412 23.228 13.3287C23.2015 13.2162 23.1505 13.111 23.0784 13.0206H23.0737ZM14.73 17.0687C15.4768 16.4968 16.0255 15.7053 16.2992 14.8054C16.5729 13.9055 16.5577 12.9424 16.2558 12.0516C15.9538 11.1608 15.3803 10.3869 14.6159 9.83887C13.8515 9.29081 12.9345 8.99607 11.9939 8.99607C11.0533 8.99607 10.1363 9.29081 9.37191 9.83887C8.60747 10.3869 8.03398 11.1608 7.73205 12.0516C7.43012 12.9424 7.41492 13.9055 7.68859 14.8054C7.96226 15.7053 8.51105 16.4968 9.25781 17.0687C7.93269 17.6429 6.82619 18.6262 6.10031 19.8747C6.03448 19.9887 5.99983 20.118 5.99983 20.2497C5.99984 20.3814 6.03451 20.5107 6.10036 20.6247C6.1662 20.7387 6.26091 20.8334 6.37494 20.8992C6.48898 20.9651 6.61834 20.9997 6.75 20.9997H17.25C17.3817 20.9997 17.511 20.9651 17.6251 20.8992C17.7391 20.8334 17.8338 20.7387 17.8996 20.6247C17.9655 20.5107 18.0002 20.3814 18.0002 20.2497C18.0002 20.118 17.9655 19.9887 17.8997 19.8747C17.1723 18.6254 16.0637 17.642 14.7366 17.0687H14.73Z" fill="#fff"/>
</svg>
