<svg width="24" height="24" viewBox="0 0 24 24" fill="none" xmlns="http://www.w3.org/2000/svg">
<path d="M17.0306 12.5307L9.53063 20.0307C9.42573 20.1357 9.29204 20.2073 9.14648 20.2362C9.00092 20.2652 8.85002 20.2504 8.71291 20.1936C8.57579 20.1368 8.45861 20.0405 8.37621 19.9171C8.29381 19.7936 8.24988 19.6485 8.25 19.5001V4.5001C8.24988 4.35168 8.29381 4.20656 8.37621 4.08312C8.45861 3.95967 8.57579 3.86345 8.71291 3.80664C8.85002 3.74982 9.00092 3.73497 9.14648 3.76396C9.29204 3.79294 9.42573 3.86447 9.53063 3.96948L17.0306 11.4695C17.1004 11.5391 17.1557 11.6218 17.1934 11.7129C17.2312 11.8039 17.2506 11.9015 17.2506 12.0001C17.2506 12.0987 17.2312 12.1963 17.1934 12.2873C17.1557 12.3784 17.1004 12.4611 17.0306 12.5307Z" fill="#4584AD"/>
</svg>
