<svg width="24" height="24" viewBox="0 0 24 24" fill="none" xmlns="http://www.w3.org/2000/svg">
<path d="M15.75 4.5001V19.5001C15.7501 19.6485 15.7062 19.7936 15.6238 19.9171C15.5414 20.0405 15.4242 20.1368 15.2871 20.1936C15.15 20.2504 14.9991 20.2652 14.8535 20.2362C14.7079 20.2073 14.5742 20.1357 14.4694 20.0307L6.96935 12.5307C6.89962 12.4611 6.8443 12.3784 6.80656 12.2873C6.76882 12.1963 6.74939 12.0987 6.74939 12.0001C6.74939 11.9015 6.76882 11.8039 6.80656 11.7129C6.8443 11.6218 6.89962 11.5391 6.96935 11.4695L14.4694 3.96948C14.5742 3.86447 14.7079 3.79294 14.8535 3.76396C14.9991 3.73497 15.15 3.74982 15.2871 3.80664C15.4242 3.86345 15.5414 3.95967 15.6238 4.08312C15.7062 4.20656 15.7501 4.35168 15.75 4.5001Z" fill="#B1B1B1"/>
</svg>
