<svg width="24" height="24" viewBox="0 0 24 24" fill="none" xmlns="http://www.w3.org/2000/svg">
<path d="M15.75 4.49961V19.4996C15.7501 19.648 15.7062 19.7932 15.6238 19.9166C15.5414 20.04 15.4242 20.1363 15.2871 20.1931C15.15 20.2499 14.9991 20.2648 14.8535 20.2358C14.7079 20.2068 14.5742 20.1352 14.4694 20.0302L6.96935 12.5302C6.89962 12.4606 6.8443 12.3779 6.80656 12.2868C6.76882 12.1958 6.74939 12.0982 6.74939 11.9996C6.74939 11.9011 6.76882 11.8035 6.80656 11.7124C6.8443 11.6214 6.89962 11.5386 6.96935 11.469L14.4694 3.96899C14.5742 3.86398 14.7079 3.79245 14.8535 3.76347C14.9991 3.73448 15.15 3.74933 15.2871 3.80615C15.4242 3.86296 15.5414 3.95918 15.6238 4.08263C15.7062 4.20607 15.7501 4.35119 15.75 4.49961Z" fill="#4584AD"/>
</svg>
