<svg xmlns="http://www.w3.org/2000/svg" width="1000" height="1000" viewBox="0 0 1000 1000">
  <g id="adf0dad7-d167-4c35-ab72-057fb1a478f3" data-name="illustration">
    <g id="a5a78681-d746-4f2a-b27b-6574eefa43b7" data-name="Annual Report">
      <g id="ab197743-a74e-44ab-ba00-1a67e8d8e8ee" data-name="calendar">
        <g>
          <g>
            <rect x="98.74" y="268.98" width="620.32" height="425.24" rx="51.66" style="fill: #fff"/>
            <path d="M667.41,695.72h-517a53.23,53.23,0,0,1-53.17-53.17V320.64a53.23,53.23,0,0,1,53.17-53.16h517a53.22,53.22,0,0,1,53.16,53.16V642.55A53.23,53.23,0,0,1,667.41,695.72Zm-517-425.24a50.22,50.22,0,0,0-50.17,50.16V642.55a50.23,50.23,0,0,0,50.17,50.17h517a50.22,50.22,0,0,0,50.16-50.17V320.64a50.21,50.21,0,0,0-50.16-50.16Z"/>
          </g>
          <g>
            <rect x="110.43" y="284.26" width="620.32" height="425.24" rx="51.66" style="fill: #fff"/>
            <path d="M679.09,711h-517a53.22,53.22,0,0,1-53.16-53.16V335.93a53.23,53.23,0,0,1,53.16-53.17h517a53.23,53.23,0,0,1,53.17,53.17V657.84A53.23,53.23,0,0,1,679.09,711Zm-517-425.24a50.22,50.22,0,0,0-50.16,50.17V657.84A50.21,50.21,0,0,0,162.09,708h517a50.22,50.22,0,0,0,50.17-50.16V335.93a50.23,50.23,0,0,0-50.17-50.17Z"/>
          </g>
          <rect x="145.49" y="374.17" width="68.33" height="68.33" rx="21.93" style="fill: #acf9b0"/>
          <rect x="265.06" y="374.17" width="68.33" height="68.33" rx="21.93" style="fill: #acf9b0"/>
          <rect x="386.43" y="374.17" width="68.33" height="68.33" rx="21.93" style="fill: #acf9b0"/>
          <rect x="500.61" y="374.17" width="68.33" height="68.33" rx="21.93" style="fill: #acf9b0"/>
          <rect x="613.88" y="374.17" width="68.33" height="68.33" rx="21.93" style="fill: #acf9b0"/>
          <rect x="146.39" y="482.05" width="68.33" height="68.33" rx="21.93" style="fill: #acf9b0"/>
          <rect x="265.96" y="482.05" width="68.33" height="68.33" rx="21.93" style="fill: #acf9b0"/>
          <rect x="387.33" y="482.05" width="68.33" height="68.33" rx="21.93" style="fill: #acf9b0"/>
          <rect x="501.51" y="482.05" width="68.33" height="68.33" rx="21.93" style="fill: #acf9b0"/>
          <rect x="614.78" y="482.05" width="68.33" height="68.33" rx="21.93" style="fill: #acf9b0"/>
          <rect x="146.39" y="583.64" width="68.33" height="68.33" rx="21.93" style="fill: #acf9b0"/>
          <rect x="265.96" y="583.64" width="68.33" height="68.33" rx="21.93" style="fill: #acf9b0"/>
          <rect x="387.33" y="583.64" width="68.33" height="68.33" rx="21.93" style="fill: #acf9b0"/>
          <rect x="501.51" y="583.64" width="68.33" height="68.33" rx="21.93" style="fill: #acf9b0"/>
          <rect x="614.78" y="583.64" width="68.33" height="68.33" rx="21.93" style="fill: #acf9b0"/>
          <g>
            <rect x="179.66" y="253.7" width="13.07" height="62.93" rx="6.41" style="fill: #382256"/>
            <path d="M186.32,318.13h-.25a7.92,7.92,0,0,1-7.91-7.92v-50.1a7.92,7.92,0,0,1,7.91-7.91h.25a7.92,7.92,0,0,1,7.91,7.91v50.1A7.92,7.92,0,0,1,186.32,318.13Zm-.25-62.93a4.91,4.91,0,0,0-4.91,4.91v50.1a4.92,4.92,0,0,0,4.91,4.92h.25a4.92,4.92,0,0,0,4.91-4.92v-50.1a4.91,4.91,0,0,0-4.91-4.91Z" style="fill: #1d1e1b"/>
          </g>
          <g>
            <rect x="245.02" y="252.8" width="13.07" height="62.93" rx="6.41" style="fill: #382256"/>
            <path d="M251.68,317.23h-.24a7.92,7.92,0,0,1-7.92-7.91V259.21a7.92,7.92,0,0,1,7.92-7.91h.24a7.92,7.92,0,0,1,7.92,7.91v50.11A7.92,7.92,0,0,1,251.68,317.23Zm-.24-62.93a4.92,4.92,0,0,0-4.92,4.91v50.11a4.92,4.92,0,0,0,4.92,4.91h.24a4.92,4.92,0,0,0,4.92-4.91V259.21a4.92,4.92,0,0,0-4.92-4.91Z" style="fill: #1d1e1b"/>
          </g>
          <g>
            <rect x="310.39" y="251.9" width="13.07" height="62.93" rx="6.41" style="fill: #382256"/>
            <path d="M317.05,316.33h-.25a7.92,7.92,0,0,1-7.91-7.91V258.31a7.92,7.92,0,0,1,7.91-7.91h.25a7.92,7.92,0,0,1,7.91,7.91v50.11A7.92,7.92,0,0,1,317.05,316.33Zm-.25-62.93a4.91,4.91,0,0,0-4.91,4.91v50.11a4.91,4.91,0,0,0,4.91,4.91h.25a4.91,4.91,0,0,0,4.91-4.91V258.31a4.91,4.91,0,0,0-4.91-4.91Z" style="fill: #1d1e1b"/>
          </g>
          <g>
            <rect x="375.76" y="251" width="13.07" height="62.93" rx="6.41" style="fill: #382256"/>
            <path d="M382.41,315.43h-.24a7.92,7.92,0,0,1-7.92-7.91V257.41a7.92,7.92,0,0,1,7.92-7.91h.24a7.92,7.92,0,0,1,7.92,7.91v50.11A7.92,7.92,0,0,1,382.41,315.43Zm-.24-62.93a4.92,4.92,0,0,0-4.92,4.91v50.11a4.92,4.92,0,0,0,4.92,4.91h.24a4.92,4.92,0,0,0,4.92-4.91V257.41a4.92,4.92,0,0,0-4.92-4.91Z" style="fill: #1d1e1b"/>
          </g>
          <g>
            <rect x="441.12" y="251.9" width="13.07" height="62.93" rx="6.41" style="fill: #382256"/>
            <path d="M447.78,316.33h-.24a7.92,7.92,0,0,1-7.92-7.91V258.31a7.92,7.92,0,0,1,7.92-7.91h.24a7.92,7.92,0,0,1,7.91,7.91v50.11A7.92,7.92,0,0,1,447.78,316.33Zm-.24-62.93a4.92,4.92,0,0,0-4.92,4.91v50.11a4.92,4.92,0,0,0,4.92,4.91h.24a4.91,4.91,0,0,0,4.91-4.91V258.31a4.91,4.91,0,0,0-4.91-4.91Z" style="fill: #1d1e1b"/>
          </g>
          <g>
            <rect x="506.49" y="251.9" width="13.07" height="62.93" rx="6.41" style="fill: #382256"/>
            <path d="M513.15,316.33h-.25a7.92,7.92,0,0,1-7.91-7.91V258.31a7.92,7.92,0,0,1,7.91-7.91h.25a7.92,7.92,0,0,1,7.91,7.91v50.11A7.92,7.92,0,0,1,513.15,316.33Zm-.25-62.93a4.91,4.91,0,0,0-4.91,4.91v50.11a4.91,4.91,0,0,0,4.91,4.91h.25a4.91,4.91,0,0,0,4.91-4.91V258.31a4.91,4.91,0,0,0-4.91-4.91Z" style="fill: #1d1e1b"/>
          </g>
          <g>
            <rect x="571.85" y="251" width="13.07" height="62.93" rx="6.41" style="fill: #382256"/>
            <path d="M578.51,315.43h-.24a7.92,7.92,0,0,1-7.92-7.91V257.41a7.92,7.92,0,0,1,7.92-7.91h.24a7.92,7.92,0,0,1,7.92,7.91v50.11A7.92,7.92,0,0,1,578.51,315.43Zm-.24-62.93a4.92,4.92,0,0,0-4.92,4.91v50.11a4.92,4.92,0,0,0,4.92,4.91h.24a4.92,4.92,0,0,0,4.92-4.91V257.41a4.92,4.92,0,0,0-4.92-4.91Z" style="fill: #1d1e1b"/>
          </g>
          <g>
            <rect x="637.22" y="251.9" width="13.07" height="62.93" rx="6.41" style="fill: #382256"/>
            <path d="M643.88,316.33h-.25a7.92,7.92,0,0,1-7.91-7.91V258.31a7.92,7.92,0,0,1,7.91-7.91h.25a7.92,7.92,0,0,1,7.91,7.91v50.11A7.92,7.92,0,0,1,643.88,316.33Zm-.25-62.93a4.91,4.91,0,0,0-4.91,4.91v50.11a4.91,4.91,0,0,0,4.91,4.91h.25a4.91,4.91,0,0,0,4.91-4.91V258.31a4.91,4.91,0,0,0-4.91-4.91Z" style="fill: #1d1e1b"/>
          </g>
        </g>
        <rect x="73" y="339.5" width="3" height="210" style="fill: #1d1d1b"/>
      </g>
      <g id="f8064101-24ea-4be4-8a57-e0f464a10f6e" data-name="sheets">
        <g>
          <g>
            <g>
              <g>
                <path d="M654,166.09c-5.35-13.05-12.35-24.32-21.37-33.42a42.31,42.31,0,0,0-53.82-5.07c-17.46,11.9-30.6,28.64-40,49.54C560.41,187.32,575,194,586.16,217.91,602.29,187.32,623,154.43,654,166.09Z" style="fill: #fff"/>
                <path d="M586.16,219.41h0a1.5,1.5,0,0,1-1.33-.87c-10.75-23.14-24.67-29.7-45.75-39.63l-.87-.41a1.51,1.51,0,0,1-.73-2c9.7-21.57,23.33-38.45,40.52-50.16a43.75,43.75,0,0,1,55.73,5.26c8.82,8.9,16.11,20.3,21.69,33.9a1.5,1.5,0,0,1-1.92,2c-28.63-10.78-48.63,18.2-66,51.12A1.51,1.51,0,0,1,586.16,219.41Zm-45.36-43c19.85,9.36,34.44,16.37,45.43,38.19,17-31.84,36.81-59.18,65.09-51a98.54,98.54,0,0,0-19.75-29.89,40.75,40.75,0,0,0-51.91-4.89C563.29,140,550.22,156,540.8,176.41Z" style="fill: #1d1d1b"/>
              </g>
              <g>
                <path d="M587,123.26s17.24.47,22.13,12.52c0,0,11.91-13.53,21.43-5.09C630.52,130.69,612.64,113,587,123.26Z" style="fill: #4bd657"/>
                <path d="M608.61,138.59l-.91-2.24c-4.46-11-20.62-11.59-20.78-11.59l-7.21-.21,6.69-2.68c26.3-10.56,45,7.57,45.18,7.75l-2.05,2.19a8.74,8.74,0,0,0-6.59-2.37c-6.53.4-12.66,7.27-12.73,7.34Zm-15-15.9c5.25,1.22,12.3,4,15.95,10.52,2.37-2.23,7.19-6.11,12.59-6.71A38.88,38.88,0,0,0,593.57,122.69Z"/>
              </g>
            </g>
            <g>
              <path d="M584.91,137.85s18.9,4.29,24.05,21.46" style="fill: #fff"/>
              <path d="M609,160.82a1.5,1.5,0,0,1-1.44-1.07c-4.83-16.11-22.76-20.4-22.94-20.44a1.5,1.5,0,1,1,.67-2.93c.8.19,19.8,4.7,25.14,22.5a1.5,1.5,0,0,1-1,1.87A1.68,1.68,0,0,1,609,160.82Z" style="fill: #1d1d1b"/>
            </g>
            <g>
              <path d="M570.32,154.16s19.75,1.72,22.32,19.75" style="fill: #fff"/>
              <path d="M592.64,175.41a1.5,1.5,0,0,1-1.48-1.29c-2.38-16.61-20.22-18.4-21-18.46a1.5,1.5,0,1,1,.27-3c.21,0,21,2,23.68,21a1.51,1.51,0,0,1-1.28,1.7Z" style="fill: #1d1d1b"/>
            </g>
          </g>
          <path d="M541.12,146.22a1.41,1.41,0,0,1-.6-.13,1.5,1.5,0,0,1-.77-2c.16-.36,16.2-36,52.65-42.09a1.5,1.5,0,0,1,.49,3c-34.82,5.8-50.24,40-50.4,40.34A1.49,1.49,0,0,1,541.12,146.22Z" style="fill: #1d1d1b"/>
        </g>
        <g>
          <g>
            <g>
              <g>
                <path d="M781,414.6c8.55,19,19.45,35.35,33.22,48.36a62.59,62.59,0,0,0,79.8,4.89c25.23-18.45,43.84-43.84,56.71-75.19-32.42-14-54.34-23.08-72-58C856.44,380.71,827.36,430.34,781,414.6Z" style="fill: #fff"/>
                <path d="M857,481.45a63.66,63.66,0,0,1-43.82-17.4c-13.41-12.66-24.69-29.09-33.56-48.83a1.52,1.52,0,0,1,.26-1.63,1.5,1.5,0,0,1,1.59-.41c43.38,14.73,71.74-29.33,95.93-79.14a1.5,1.5,0,0,1,1.34-.84h0a1.52,1.52,0,0,1,1.34.82c17.14,33.92,38.13,43,69.91,56.7l1.31.57a1.5,1.5,0,0,1,.8,1.94c-13.24,32.24-32.49,57.75-57.22,75.83A64.09,64.09,0,0,1,857,481.45ZM783.8,417c8.48,18,19.05,33.1,31.48,44.84a61,61,0,0,0,77.88,4.77c23.93-17.5,42.65-42.11,55.65-73.18-30.39-13.12-52.56-22.7-70-55.43C854.91,386.74,826.74,429.11,783.8,417Z" style="fill: #1d1d1b"/>
              </g>
              <g>
                <path d="M882.22,474.65s-25.51.15-33.33-17.43c0,0-16.94,20.58-31.43,8.57C817.46,465.79,844.76,491.14,882.22,474.65Z" style="fill: #4bd657"/>
                <path d="M856.89,481.68a64.42,64.42,0,0,1-40.45-14.79l2-2.25A13.77,13.77,0,0,0,828.81,468c9.92-.94,18.84-11.62,18.93-11.73l1.54-1.87,1,2.22c7.34,16.5,31.73,16.55,32,16.54l7.24,0L882.82,476A63.9,63.9,0,0,1,856.89,481.68Zm-29.06-10.63a59.17,59.17,0,0,0,47.71,4.57c-7.94-1.14-20.85-4.7-27-15.76-3.14,3.29-10.75,10.29-19.44,11.11C828.67,471,828.25,471,827.83,471.05Z"/>
              </g>
            </g>
            <g>
              <path d="M884.53,453S856.4,447.56,848,422.43" style="fill: #fff"/>
              <path d="M884.53,454.49a1.33,1.33,0,0,1-.28,0c-1.19-.22-29.09-5.88-37.73-31.55a1.5,1.5,0,0,1,2.85-1c8.08,24,35.17,29.52,35.45,29.57a1.5,1.5,0,0,1-.29,3Z" style="fill: #1d1d1b"/>
            </g>
            <g>
              <path d="M905.32,428.16s-29.28-1.57-34-28.11" style="fill: #fff"/>
              <path d="M905.32,429.66h-.08c-.31,0-30.53-2-35.37-29.34a1.5,1.5,0,0,1,3-.53c4.42,25,31.42,26.81,32.57,26.87a1.5,1.5,0,0,1-.08,3Z" style="fill: #1d1d1b"/>
            </g>
          </g>
          <path d="M821.07,390.57a1.5,1.5,0,0,1-.75-2.8c30.34-17.44,37.71-53,37.78-53.32a1.51,1.51,0,0,1,1.77-1.18A1.49,1.49,0,0,1,861,335c-.07.37-7.68,37.2-39.22,55.34A1.59,1.59,0,0,1,821.07,390.57Z" style="fill: #1d1d1b"/>
        </g>
      </g>
      <g id="ac36535e-b680-4f89-a610-91a1b99d18f0" data-name="woman">
        <ellipse cx="227.75" cy="715.75" rx="6.89" ry="6.9" transform="translate(-120.21 50.1) rotate(-9.95)" style="fill: #51cef4"/>
        <g>
          <g>
            <path d="M633.58,499.18s13.69,37.24,38.32,21.6,64.67-37.7,91.76-2.17,42,61.68,72,52.32,93.39,71.34,19.7,119.58C734.62,769.59,571.56,556.45,571.56,556.45l18-27.73Z" style="fill: #382256"/>
            <path d="M633.58,499.18s9.35,25.44,26.5,25.44a22,22,0,0,0,11.82-3.84c14.88-9.46,35.42-21.26,55.31-21.26,13,0,25.74,5,36.45,19.09C787,549.2,801.31,572.84,824,572.84a39.16,39.16,0,0,0,11.7-1.91,16.91,16.91,0,0,1,5.12-.75c31.31,0,84.3,74.69,14.58,120.33a105.65,105.65,0,0,1-59,17.6c-108.8,0-224.82-151.66-224.82-151.66l18-27.73,44.05-29.54m1.49-4.61-3.16,2.12-44,29.54-.51.34-.33.52-18,27.73-1.15,1.78,1.29,1.68a622.06,622.06,0,0,0,72,76.24c24.91,22.17,49.39,39.84,72.75,52.53,29.39,16,57.13,24.06,82.46,24.06A108.93,108.93,0,0,0,857,693c16.13-10.55,27-23.32,32.17-37.94,4.45-12.44,4.66-26.19.62-39.74a79.93,79.93,0,0,0-20.64-34c-9.29-9-19.63-14.18-28.37-14.18a20.43,20.43,0,0,0-6,.88,35.84,35.84,0,0,1-10.8,1.78c-18.28,0-31.33-17.48-49.4-41.68-2.73-3.67-5.56-7.45-8.55-11.37-10.25-13.45-23.32-20.27-38.83-20.27-20,0-40,11-56.92,21.73a19.25,19.25,0,0,1-10.21,3.37c-14.84,0-23.6-23.24-23.69-23.48l-1.32-3.57Z" style="fill: #1d1e1b"/>
          </g>
          <path d="M589.53,528.72l44.05-29.54s6.75,18.36,19.29,23.88c-4.53,15.87-16.1,26-32.87,31.94,0,0,58.55,26.47,83.68,53.85,16.9,18.41,85.27,103,51.63,92.68-29.89-9.15-59.15-26.9-85.23-46.93-33.7-44.91-72.57-96.75-86.91-116.06Z" style="fill: #050505"/>
        </g>
        <g>
          <g>
            <path d="M576.5,586.5S541,711.75,423.58,790.55C335.14,849.9,338.15,840.14,297,819.48c-36-18.09-97.7-102.31-92.11-131.72s26.92-30.85,26.92-30.85l-.26-22.71,77-17.77L312,631.34s30.54,4.27,33.66,31.84,13.76,64.11,7.83,79c0,0,25.11-123.83,189-176.71" style="fill: #07acee"/>
            <path d="M336.91,837c-9.94,0-18.05-4.32-29.83-10.57-3.2-1.7-6.82-3.63-10.78-5.61-17-8.54-41.44-32.91-62.22-62.08-21.86-30.71-33.34-57.35-30.69-71.26,4.89-25.76,21.85-30.89,26.88-31.85L230,633l79.6-18.38L313.25,630c5.47,1.09,31,7.51,33.92,33,1,8.72,2.75,18.5,4.47,28,2.34,12.93,4.6,25.42,5.06,35.6a227.68,227.68,0,0,1,28.63-53.77,267.48,267.48,0,0,1,57.6-58.59c28.23-21.16,61.57-38,99.11-50.15l.92,2.86c-84.19,27.16-130.81,73.45-155.1,107.49-20.11,28.19-28.65,52.87-31.59,63.09a24.08,24.08,0,0,1-1.37,5.25l-2.86-.85c0-.07.39-1.85,1.29-5,1.62-10.8-1.55-28.35-4.64-45.4-1.73-9.5-3.51-19.33-4.5-28.16C341.24,637.28,313,633,311.81,632.83l-1-.14-3.41-14.47L233,635.39l.27,22.92-1.42.1c-.82.06-20.26,1.78-25.55,29.63-2.45,12.93,9.12,39.35,30.2,69,20.51,28.8,44.5,52.8,61.11,61.14,4,2,7.63,3.93,10.84,5.64,30.43,16.16,35.1,18.64,114.26-34.47,60.41-40.53,98.59-93.61,120-131,23.2-40.55,32.23-71.91,32.32-72.22l2.88.82c-.09.31-9.18,32-32.55,72.81-21.57,37.69-60.06,91.21-121,132.08C374.33,825.41,353.18,837,336.91,837Z" style="fill: #1d1d1b"/>
          </g>
          <path d="M335,834h12.33c8.77-2.32,19.62-7.57,34.95-16.79L418.39,702.4C360.78,740.8,335,834,335,834Z" style="fill: #0598c6"/>
          <path d="M310.23,632.92s-12.61,36.92-77.86,25.34l.28-22.4,73.62-17.21Z" style="fill: #0598c6"/>
          <g>
            <path d="M424.33,694.64c-73.41,91.62-65.69,228.58-65.69,228.58l371.62,4S726.87,563.38,576.8,569.75" style="fill: #07acee"/>
            <path d="M730.26,928.72h0l-371.62-4a1.5,1.5,0,0,1-1.49-1.41c0-.34-1.85-34.93,5.34-80.26,6.64-41.87,22.56-101.76,60.68-149.35a1.5,1.5,0,0,1,2.34,1.88C387.8,742.63,372,802,365.45,843.45a428.29,428.29,0,0,0-5.37,78.29l368.66,4a1064.48,1064.48,0,0,0-11.91-133.53c-10.34-66.12-32-153.76-76.2-195.78-18.64-17.69-40.08-26.15-63.77-25.15a1.51,1.51,0,0,1-1.56-1.44,1.48,1.48,0,0,1,1.43-1.56c24.51-1,46.72,7.7,66,26,19.85,18.85,36.88,48.12,50.62,87,10.95,31,19.86,68.19,26.48,110.52a1054.16,1054.16,0,0,1,12,135.45,1.49,1.49,0,0,1-1.5,1.51Z" style="fill: #1d1d1b"/>
          </g>
          <g>
            <path d="M611.5,572.5s147.71,64.76,177.9,203c22.73,104,14.44,105.33-19.9,136-30,26.89-130.71,45.66-156,29.66s-18.8-36.37-18.8-36.37l-21.23-8.09,11.73-78.12,15.17,2.2s15.18-26.85,42-19.62S707,811.89,718.7,822.88" style="fill: #07acee"/>
            <path d="M644.93,948.56c-13.48,0-25.27-1.72-32.25-6.13-22.16-14-20.71-31.67-19.76-36.7l-21.13-8.06,12.13-80.79,15.67,2.27c3-4.69,18.38-26.12,43.12-19.44,8.48,2.28,18.23,4.23,27.65,6.1,21.13,4.21,41.08,8.19,49.37,16L717.67,824c-7.66-7.2-28.11-11.27-47.89-15.21-9.48-1.89-19.28-3.84-27.85-6.16-25.38-6.84-40.13,18.66-40.28,18.91l-.5.9-14.71-2.13-11.32,75.45,21.42,8.17-.44,1.35c-.24.79-5.78,19.5,18.18,34.64,11.27,7.13,40.77,7.54,75.15,1.05,35.11-6.63,65.41-18.34,79.07-30.56l4.63-4.12c30-26.6,36.28-32.14,14.8-130.49-15.49-70.93-62.76-122-99.69-152.4-40.08-33-77-49.33-77.34-49.5l1.2-2.74c.37.16,37.59,16.65,78,49.87,23.73,19.51,43.92,40.9,60,63.57,20.12,28.38,33.84,58.84,40.77,90.56,11.45,52.39,14.56,76.89,11.92,93.62-2.81,17.75-12.17,26-27.66,39.76l-4.62,4.11c-16.79,15-52.6,26-80.51,31.27C675.58,946.6,659.29,948.55,644.93,948.56Z" style="fill: #1d1d1b"/>
          </g>
          <path d="M601.16,823s29.7,25.28-5,81.72l-20.73-8.48,11-74.8Z" style="fill: #0598c6"/>
        </g>
        <g>
          <path d="M550.4,558.73a31.89,31.89,0,0,0-15.9,15.77c-6.13,13.47,2,35,34,24,0,0,11.27,24.82,42,13,26-10,24-25.87,4.23-35.06C597.6,568.48,550.4,558.73,550.4,558.73Z" style="fill: #fff"/>
          <path d="M594.94,616.18c-16.67,0-24.92-12-27.16-15.86-19,6.18-28.07.35-31.79-3.75-5.25-5.78-6.4-14.9-2.86-22.69a33.19,33.19,0,0,1,16.73-16.55l.42-.16.43.09c1.93.4,47.56,9.88,64.66,17.82,10.35,4.82,16.15,11.57,15.91,18.53C631,601.13,623.84,608,611,612.9A44.9,44.9,0,0,1,594.94,616.18ZM569.3,596.64l.57,1.24c.43,1,11.1,23.37,40.09,12.22,11.6-4.46,18.11-10.35,18.32-16.59.2-5.7-5-11.43-14.18-15.7-15.89-7.39-58.62-16.49-63.54-17.52a30.85,30.85,0,0,0-14.69,14.83c-3.06,6.72-2.12,14.53,2.34,19.44,5.7,6.27,16.28,7.17,29.8,2.52Z" style="fill: #1d1e1b"/>
        </g>
        <g>
          <ellipse cx="290.19" cy="674.96" rx="6.89" ry="6.9" transform="translate(-112.22 60.27) rotate(-9.95)" style="fill: #51cef4"/>
          <ellipse cx="316.23" cy="794.41" rx="6.89" ry="6.9" transform="translate(-132.46 66.56) rotate(-9.95)" style="fill: #51cef4"/>
          <ellipse cx="290.26" cy="733.68" rx="6.89" ry="6.9" transform="translate(-122.36 61.16) rotate(-9.95)" style="fill: #51cef4"/>
          <ellipse cx="769.95" cy="833.71" rx="6.89" ry="6.9" transform="translate(-201.46 1420.44) rotate(-78.41)" style="fill: #51cef4"/>
          <ellipse cx="653.27" cy="674.94" rx="6.89" ry="6.9" transform="translate(-68.33 1276.27) rotate(-85.74)" style="fill: #51cef4"/>
          <ellipse cx="647.92" cy="930.14" rx="6.89" ry="6.9" transform="translate(-393.44 1377.96) rotate(-78.41)" style="fill: #51cef4"/>
          <ellipse cx="710.7" cy="877.61" rx="6.89" ry="6.9" transform="translate(-291.82 1397.48) rotate(-78.41)" style="fill: #51cef4"/>
          <ellipse cx="733.78" cy="728.76" rx="6.89" ry="6.9" style="fill: #51cef4"/>
          <ellipse cx="397.8" cy="870.75" rx="6.89" ry="6.9" style="fill: #51cef4"/>
          <path d="M586.3,736.09a6.9,6.9,0,1,0-7.56,1.24A6.92,6.92,0,0,0,586.3,736.09Z" style="fill: #51cef4"/>
          <ellipse cx="501.53" cy="638.12" rx="6.89" ry="6.9" style="fill: #51cef4"/>
          <ellipse cx="632.9" cy="857.09" rx="6.89" ry="6.9" transform="translate(-333.87 1304.87) rotate(-78.41)" style="fill: #51cef4"/>
        </g>
        <g>
          <g>
            <g>
              <path d="M209.18,647.71c26.17,1.56,50.69-1.09,73.19-8.85a78.66,78.66,0,0,0,51.89-86.05C328.4,514,311,478.46,283.52,445.89c-34.45,27.95-57.34,47.09-106.45,46.43C215.31,544,253.67,605.26,209.18,647.71Z" style="fill: #fff"/>
              <path d="M223.11,649.63q-6.9,0-14-.42a1.53,1.53,0,0,1-1.32-1,1.51,1.51,0,0,1,.37-1.6c41.86-39.94,9.23-97.34-32.27-153.41a1.5,1.5,0,0,1-.13-1.58,1.45,1.45,0,0,1,1.35-.81c47.88.64,70.25-17.5,104.09-45l1.4-1.13a1.5,1.5,0,0,1,2.09.2c28.16,33.45,45.34,69.67,51.07,107.67a80,80,0,0,1-52.88,87.68C264.84,646.49,244.79,649.63,223.11,649.63Zm-10.48-3.24c25.4,1.16,48.68-1.85,69.25-8.95a77,77,0,0,0,50.9-84.4c-5.59-37-22.22-72.36-49.46-105.06l-.24.2c-33.64,27.3-56.1,45.53-103,45.65C220.71,549.15,251.91,605.59,212.63,646.39Z" style="fill: #1d1d1b"/>
            </g>
            <g>
              <path d="M335,570s-14.68,28.49-38.82,27c0,0,13.07,30.85-8.74,40C287.4,636.92,331.52,621.27,335,570Z" style="fill: #4bd657"/>
              <path d="M287.9,638.34l-1.08-2.8a17.72,17.72,0,0,0,10-9.83c4.79-11.76-2-28-2.05-28.21l-.94-2.23,2.42.15c22.83,1.44,37.25-25.88,37.39-26.16l3.31-6.41-.48,7.2C333,621.76,288.35,638.18,287.9,638.34Zm10.44-39.86c1.77,5,5.47,18,1.25,28.35a20.64,20.64,0,0,1-1.35,2.75c12.17-7.79,30.34-24,34.54-53.2C327.21,584.5,315.26,598.32,298.34,598.48Z"/>
            </g>
            <path d="M321.25,537.24a2.5,2.5,0,0,1-2.49-2.36c-1.23-22.29-33.43-67.6-33.76-68.05a2.5,2.5,0,0,1,4.07-2.91c1.36,1.9,33.37,46.95,34.68,70.68a2.5,2.5,0,0,1-2.36,2.64Z" style="fill: #fff"/>
          </g>
          <path d="M116.5,775a1.5,1.5,0,0,1-.54-2.9c69.83-27.21,102.83-66.78,118.22-95.19C250.81,646.22,251,621.74,251,621.5a1.5,1.5,0,0,1,3,0c0,1-.2,25.49-17.18,56.84-15.63,28.85-49.1,69-119.78,96.56A1.44,1.44,0,0,1,116.5,775Z" style="fill: #1d1e1b"/>
          <path d="M204.5,771a1.5,1.5,0,0,1-.79-2.77c41.89-26.06,58.71-62.94,65.44-89.29,7.31-28.63,4.65-51.4,4.62-51.62a1.5,1.5,0,0,1,1.31-1.67,1.49,1.49,0,0,1,1.67,1.3c0,.23,2.76,23.46-4.67,52.61-6.85,26.93-24,64.61-66.79,91.21A1.42,1.42,0,0,1,204.5,771Z" style="fill: #1d1e1b"/>
        </g>
        <line x1="526.33" y1="783.23" x2="508.49" y2="777.9" style="fill: #07acee"/>
        <g>
          <g>
            <path d="M219,633s-28.35,8-42.67-22.5-18.08-63.12-2.21-83.78,36.06-23.12,49.72-17.7,16.93,19.79,6.73,35.48c0,0,21.6,13.88,2,40.42,8.9,2.58,17.9,28.58-7.6,34.08A27.9,27.9,0,0,1,219,633Z" style="fill: #ffcdb2"/>
            <path d="M210.85,635.38c-9.91,0-26.14-3.52-35.88-24.24-16.06-34.18-16.83-66.08-2-85.34,16.77-21.83,38.2-23.44,51.46-18.17,6.43,2.55,10.82,7,12.68,12.85,2.21,6.93.61,15.28-4.49,23.64a26,26,0,0,1,9.32,15.28c1.43,7.75-.93,16.12-7,24.89,4.83,2.78,8.55,10.44,8.29,17.75-.31,9-6.44,15.62-16.85,18.19a29.65,29.65,0,0,1-6.16,13.69l-.3.39-.47.13A35.66,35.66,0,0,1,210.85,635.38ZM210.47,508c-11.16,0-24.06,5.17-35.16,19.62-14.09,18.35-13.2,49.09,2.38,82.23,12.77,27.16,36.67,22.71,40.44,21.81a26.54,26.54,0,0,0,5.38-12.85l.13-1.06,1-.23c13.13-2.83,15.35-11,15.52-15.6.25-7.38-4.1-14.43-8-15.57l-2.07-.6L231.4,584c6.35-8.62,8.89-16.71,7.56-24a23.38,23.38,0,0,0-9.2-14.22l-1.26-.82.81-1.26c5.2-8,6.94-15.9,4.9-22.29-1.58-5-5.36-8.77-10.92-11A34.8,34.8,0,0,0,210.47,508Z"/>
          </g>
          <path d="M183.55,558.51a1.5,1.5,0,0,1-1-.36,1.51,1.51,0,0,1-.17-2.12c.2-.22,19.76-22.56,51.72-12.49a1.5,1.5,0,1,1-.9,2.86c-30-9.46-47.8,10.72-48.54,11.58A1.47,1.47,0,0,1,183.55,558.51Z" style="fill: #1d1d1b"/>
          <path d="M192.22,589a1.5,1.5,0,0,1-.52-2.91c1-.36,24.35-8.78,41.72-2.37a1.5,1.5,0,1,1-1,2.81c-16.32-6-39.42,2.29-39.65,2.38A1.52,1.52,0,0,1,192.22,589Z" style="fill: #1d1d1b"/>
          <path d="M211.41,622.87a23.64,23.64,0,0,1-11.14-2.44,1.5,1.5,0,0,1,1.42-2.64c9.08,4.87,23.67-.37,23.81-.42a1.5,1.5,0,1,1,1,2.82A49,49,0,0,1,211.41,622.87Z" style="fill: #1d1d1b"/>
          <path d="M172.6,545.51a2.44,2.44,0,0,1-.71-.1,2.5,2.5,0,0,1-1.69-3.11c.22-.73,5.47-17.93,21.25-26.42,9.88-5.32,21.59-6,34.8-2a2.5,2.5,0,1,1-1.45,4.78c-11.89-3.61-22.32-3.08-31,1.59-14,7.52-18.78,23.28-18.83,23.44A2.49,2.49,0,0,1,172.6,545.51Z" style="fill: #fff"/>
          <path d="M184.5,572a2.46,2.46,0,0,1-1.37-.41,2.5,2.5,0,0,1-.72-3.46c.16-.24,16.35-24.44,45.78-16a2.5,2.5,0,0,1-1.38,4.8c-25.82-7.38-39.64,13.09-40.22,14A2.5,2.5,0,0,1,184.5,572Z" style="fill: #fff"/>
        </g>
        <g>
          <g>
            <g>
              <path d="M440.23,919.56c25.42-6.44,48-16.4,67.07-30.61a78.66,78.66,0,0,0,23.38-97.73c-17.36-35.24-44.75-63.78-80.75-86.52-24.37,37.08-40.38,62.25-87.38,76.5C414.64,818.85,469.76,865.63,440.23,919.56Z" style="fill: #fff"/>
              <path d="M437.26,921.86l1.66-3c27.79-50.75-20.71-95.56-77.25-136.42l-2.46-1.77,2.9-.88c45.85-13.9,61.65-38,85.58-74.4l1.79-2.73,1.25.79c37,23.34,64.32,52.66,81.29,87.13a80,80,0,0,1-23.82,99.59C489.66,904,466.91,914.34,440.6,921ZM365.85,781.74c55.5,40.4,102.34,84.74,77.27,135.52,24.55-6.6,45.83-16.52,63.29-29.52a77,77,0,0,0,22.92-95.85c-16.54-33.58-43.1-62.22-79-85.13l-.17.26C426.41,743.23,410.54,767.41,365.85,781.74Z"/>
            </g>
            <g>
              <path d="M536.54,807.34s-5.36,31.61-28.82,37.47c0,0,21.8,25.44,3.79,40.77C511.51,885.58,548.81,857.3,536.54,807.34Z" style="fill: #4bd657"/>
              <path d="M512.41,886.78l-1.88-2.34A17.68,17.68,0,0,0,517.07,872c1-12.67-10.38-26.11-10.49-26.25L505,843.94l2.35-.59c22.23-5.55,27.65-36,27.71-36.26l1.21-7.12,1.72,7C550.36,857.31,512.79,886.49,512.41,886.78Zm-2.13-41.15c3.22,4.28,10.66,15.47,9.78,26.64a21.26,21.26,0,0,1-.45,3c9.24-11.11,21.63-32.11,16.8-61.17C533.56,823.56,526.36,840.35,510.28,845.63Z"/>
            </g>
          </g>
          <g>
            <path d="M428.5,909a1.43,1.43,0,0,1-.64-.15,1.49,1.49,0,0,1-.71-2c7.64-16.1,7.38-31.93-.79-47.05a62.64,62.64,0,0,0-14.78-18.12,1.5,1.5,0,0,1,1.84-2.38c.36.28,35.73,28.21,16.43,68.83A1.49,1.49,0,0,1,428.5,909Z" style="fill: #1d1e1b"/>
            <path d="M598.85,928.72h0L198.48,923a1.5,1.5,0,0,1,0-3h0l400.36,5.73a1.5,1.5,0,0,1,0,3Z" style="fill: #1d1d1b"/>
            <path d="M242.5,944h-96a1.5,1.5,0,0,1,0-3h96a1.5,1.5,0,0,1,0,3Z" style="fill: #1d1d1b"/>
            <path d="M888.5,574a1.49,1.49,0,0,1-1.33-.82c-8-15.61-20.52-23.28-37.13-22.81a61.41,61.41,0,0,0-22.87,5.47,1.5,1.5,0,0,1-1.34-2.68c.43-.22,43.56-21.2,64,18.66a1.49,1.49,0,0,1-.65,2A1.37,1.37,0,0,1,888.5,574Z" style="fill: #1d1d1b"/>
            <path d="M802.5,917a1.52,1.52,0,0,1-1.11-.49,1.5,1.5,0,0,1,.1-2.12c17.86-16.23,25.77-37.14,23.53-62.15a101.19,101.19,0,0,0-8.86-33.06,1.5,1.5,0,1,1,2.68-1.36,102.15,102.15,0,0,1,9.15,34c1.63,17.91-1.3,43.67-24.48,64.75A1.51,1.51,0,0,1,802.5,917Z" style="fill: #1d1d1b"/>
            <path d="M643.5,384a1.5,1.5,0,0,1-1.5-1.41c-.52-8.93-3.69-15.92-9.4-20.78-11.23-9.53-28.77-7.84-28.94-7.82a1.5,1.5,0,0,1-.32-3c.77-.08,19-1.86,31.18,8.51,6.38,5.4,9.9,13.11,10.48,22.89a1.5,1.5,0,0,1-1.41,1.59Z" style="fill: #1d1e1b"/>
          </g>
        </g>
        <g>
          <g>
            <ellipse cx="603.92" cy="397.88" rx="35.62" ry="35.68" style="fill: #382256"/>
            <path d="M603.91,435.08a37.21,37.21,0,1,1,13.61-2.61A36.91,36.91,0,0,1,603.91,435.08Zm0-71.4a34.21,34.21,0,1,0,13.58,2.85A34,34,0,0,0,603.93,363.68Z" style="fill: #1d1e1b"/>
          </g>
          <g>
            <path d="M494.7,499.18S472,475.47,484.55,454.25s18.14-18.77,24-30.38,28.58-21.73,47.78-14.2c0,0,26.15-16.12,47.75-8.37s28.37,19,33.08,36.92,10.28,26.15,14,38.62,7.89,46.9-41.39,67.48S494.7,499.18,494.7,499.18Z" style="fill: #382256"/>
            <path d="M589.22,549.75c-16.59,0-35.64-6.4-56.23-19a240.48,240.48,0,0,1-39.35-30.49l0,0c-.24-.24-23.33-24.79-10.36-46.73,7.07-12,12-16.55,16-20.24,3.08-2.87,5.51-5.13,8-10.06,3.15-6.23,10.53-11.84,19.74-15a43.62,43.62,0,0,1,29.24-.16c4.28-2.5,28-15.44,48.4-8.13,22.19,8,29.28,19.94,34,37.95a161.42,161.42,0,0,0,8.44,23.82,140.28,140.28,0,0,1,5.57,14.76c3.23,10.77,9.74,47.59-42.25,69.29A54.62,54.62,0,0,1,589.22,549.75Zm-93.44-51.61c1.26,1.25,65.9,64.64,113.45,44.79,49.67-20.73,43.59-55.5,40.54-65.66a138.94,138.94,0,0,0-5.47-14.45,166.77,166.77,0,0,1-8.57-24.22c-4.6-17.46-11.08-28.35-32.13-35.89-20.66-7.41-46.21,8.08-46.46,8.24l-.64.39-.7-.27c-18.91-7.42-40.54,2.9-45.89,13.47-2.74,5.41-5.48,8-8.64,10.91-3.82,3.56-8.58,8-15.43,19.57C474.13,474.82,495.19,497.51,495.78,498.14Z" style="fill: #1d1e1b"/>
          </g>
          <path d="M585.38,484.22l.11,0c15.8,1.64,32.58-12.25,33.29-12.84a1.27,1.27,0,0,0-1.62-1.95c-.17.14-16.68,13.8-31.4,12.27a1.27,1.27,0,0,0-.38,2.5Z"/>
          <g>
            <path d="M554.5,563.5l-2,11.07s26,40.93,66,4.93c0,0-13.24-21.8-17.82-63,0,0,18-1.31,17.53-17.37s-12.72-20.55-20.75-17.38c0,0-32,16.09-52.86-48.87,0,0-32.72,8.25-43.71,39.31s-10,69,13,83.19S554.5,563.5,554.5,563.5Z" style="fill: #ffcdb2"/>
            <path d="M586.12,595.82a34.62,34.62,0,0,1-4.76-.33c-18.79-2.57-29.69-19.4-30.15-20.11l-.31-.5,1.7-9.34c-5.68,1.18-20.84,2.66-39.52-8.86-24.63-15.2-24.32-54.7-13.61-85,11.14-31.45,44.43-40.18,44.76-40.27l1.37-.34.43,1.34c8.22,25.56,19.49,42,32.57,47.53,10.2,4.31,18.11.5,18.19.46l.12-.06A16.09,16.09,0,0,1,611.43,482c5.09,3.35,8,9.43,8.28,17.14.46,14.38-12.78,17.91-17.38,18.7,4.64,39.39,17.32,60.71,17.45,60.92l.65,1.06-.93.83C608.28,590.72,597.07,595.82,586.12,595.82Zm-32-21.58c1.88,2.7,12,16.15,27.72,18.28,11.24,1.53,23-2.95,34.8-13.33-2.72-4.93-13.35-26.08-17.41-62.5l-.17-1.55,1.56-.12c.67,0,16.6-1.41,16.14-15.83-.27-8.58-3.92-12.75-6.93-14.72a13,13,0,0,0-11.72-1.33c-.92.45-9.46,4.27-20.53-.37-13.91-5.82-25.31-22-33.9-48-6.19,2-32,11.58-41.33,38-10.65,30.1-9.82,67.72,12.36,81.41s39.18,8,39.35,8l2.43-.83Z" style="fill: #1d1e1b"/>
          </g>
          <path d="M601.68,509.14a1.28,1.28,0,0,0,1.23-.45c4.3-5.3,5.81-10,4.48-13.89-1.92-5.65-9-7.37-9.28-7.44a1.27,1.27,0,0,0-.58,2.47c.08,0,6,1.49,7.47,5.8,1,3-.34,6.89-4.06,11.46a1.28,1.28,0,0,0,.74,2.05Z"/>
          <path d="M537.71,483.39c17.69,4.88,42.3-1.57,46.07,5.07s.12,15.06-9.71,16.61-19.45.7-39.08-2-38.65-6.84-35.78-17.26S511.68,476.23,537.71,483.39Z" style="fill: #ffb49f"/>
          <g>
            <ellipse cx="607.91" cy="516.96" rx="5.83" ry="5.84" style="fill: #07acee"/>
            <path d="M607.91,511.12a5.84,5.84,0,0,1,2.14,11.28,5.91,5.91,0,0,1-2.13.4,5.84,5.84,0,0,1-2.14-11.27,5.72,5.72,0,0,1,2.13-.41m0-3h0a8.75,8.75,0,0,0-3.23.62,8.81,8.81,0,1,0,3.23-.62Z" style="fill: #1d1d1b"/>
          </g>
          <ellipse cx="508.95" cy="487.29" rx="3.3" ry="3.31"/>
          <ellipse cx="550.85" cy="495.03" rx="3.3" ry="3.31"/>
          <path d="M545.13,543.46c-4.59,0-8.78-2.25-12.47-6.67a1.5,1.5,0,0,1,2.3-1.92c3.12,3.74,6.57,5.61,10.26,5.59,7.41-.06,13.61-7.63,13.67-7.71a1.5,1.5,0,0,1,2.33,1.89c-.28.35-7.16,8.74-16,8.82Z" style="fill: #1d1d1b"/>
          <path d="M523.22,514.41a1.36,1.36,0,0,1-.56-.11,1.5,1.5,0,0,1-.83-1.95l11-27.14a1.5,1.5,0,1,1,2.78,1.13l-11,27.14A1.49,1.49,0,0,1,523.22,514.41Z" style="fill: #1d1d1b"/>
          <path d="M508.23,467.06a1.47,1.47,0,0,1-1.1-.48,1.49,1.49,0,0,1,.08-2.12c.55-.51,13.59-12.37,22.16-3.79a1.5,1.5,0,0,1-2.12,2.12c-6.54-6.54-17.89,3.77-18,3.87A1.5,1.5,0,0,1,508.23,467.06Z"/>
          <path d="M574.69,476.16a1.5,1.5,0,0,1-1.19-.58c-8.48-11-15.76-5.71-16.07-5.48a1.5,1.5,0,1,1-1.83-2.37,11.89,11.89,0,0,1,8.34-2c4.24.54,8.26,3.25,11.94,8a1.5,1.5,0,0,1-.28,2.1A1.47,1.47,0,0,1,574.69,476.16Z"/>
          <g>
            <path d="M551.87,564.14s14.63-3.64,22.63-9.64" style="fill: #4bd657"/>
            <path d="M551.87,565.64a1.5,1.5,0,0,1-.36-3c.14,0,14.43-3.64,22.09-9.38a1.5,1.5,0,1,1,1.8,2.4c-8.15,6.11-22.56,9.74-23.17,9.89A1.49,1.49,0,0,1,551.87,565.64Z"/>
          </g>
          <path d="M505.5,511A22.5,22.5,0,1,1,528,488.5,22.52,22.52,0,0,1,505.5,511Zm0-42A19.5,19.5,0,1,0,525,488.5,19.53,19.53,0,0,0,505.5,469Z" style="fill: #1d1e1b"/>
          <path d="M556.5,519A22.5,22.5,0,1,1,579,496.5,22.52,22.52,0,0,1,556.5,519Zm0-42A19.5,19.5,0,1,0,576,496.5,19.53,19.53,0,0,0,556.5,477Z" style="fill: #1d1e1b"/>
          <path d="M577.5,498a1.53,1.53,0,0,1-1.18-.57,1.51,1.51,0,0,1,.25-2.11l19-15a1.5,1.5,0,0,1,1.86,2.36l-19,15A1.54,1.54,0,0,1,577.5,498Z" style="fill: #1d1e1b"/>
          <path d="M535.55,496.53a1.47,1.47,0,0,1-1.37-.9c-1.43-3.26-7.63-2.25-7.69-2.24a1.5,1.5,0,0,1-.54-2.95c.35-.06,8.58-1.5,11,4a1.51,1.51,0,0,1-.78,2A1.57,1.57,0,0,1,535.55,496.53Z" style="fill: #1d1e1b"/>
        </g>
        <g>
          <g>
            <path d="M543.91,763.71c-7.95-7.19-22.86-13.26-30.3-14.11a20.37,20.37,0,0,0-9.67,1.33s24.45,32.44,24.15,33.25l-74-17.39s-23.72,21.12,15.43,43.68c0,0-5.66,19.94,5.81,35.24,0,0-10.94,14,17,35.9S573,896,573,896l11.53-73.5S562.37,777.58,543.91,763.71Z" style="fill: #ffcdb2"/>
            <path d="M551.83,899.29c-18.08,0-43.64-2.74-60.7-16.11C466.48,863.86,470.74,850,473,845.8c-9.26-13.39-6.79-29.39-5.71-34.35-13.71-8.18-21.16-17.17-22.14-26.74-1.17-11.39,7.31-19.09,7.68-19.41l.77-.7,70.18,16.5c-4.64-6.57-14.65-20-21.39-29L500.77,750l2.44-1a22.38,22.38,0,0,1,10.63-1.46c8.22.95,23.34,7.36,31.35,14.56,18.61,14.05,40.22,57.6,41.14,59.45l.28.57-11.86,75.58-1.47.21A165.7,165.7,0,0,1,551.83,899.29ZM454.75,769c-1.81,2-6.46,7.77-5.66,15.35.9,8.5,8.12,16.71,21.46,24.4l1.35.78-.43,1.5c-.05.19-5.23,19.19,5.49,33.49l.92,1.23-.95,1.2c-.37.5-9.15,12.86,16.67,33.09,24.39,19.12,69,15.15,77.66,14.17l11.2-71.37c-2.63-5.21-23-44.93-39.75-57.52l-.14-.11c-7.94-7.18-22.59-12.86-29.18-13.61a18.06,18.06,0,0,0-6.15.39c2.24,3,6.4,8.54,10.5,14.08,12.78,17.28,12.71,17.49,12.23,18.8l-.6,1.67Z" style="fill: #1d1e1b"/>
          </g>
          <path d="M505.88,819.65c-20.7,0-43.66-12.26-44.75-12.85a1.5,1.5,0,1,1,1.43-2.63c.29.15,29.45,15.71,50.67,11.85a1.5,1.5,0,1,1,.54,3A44.7,44.7,0,0,1,505.88,819.65Z" style="fill: #1d1e1b"/>
          <g>
            <path d="M513.06,856.06c-19.43,0-39.4-10.77-40.28-11.24a1.5,1.5,0,0,1,1.44-2.64c.21.12,21.88,11.79,41.2,10.82a1.5,1.5,0,0,1,.16,3Q514.32,856.06,513.06,856.06Z" style="fill: #1d1e1b"/>
            <path d="M510.5,813h-.16c-48.13-3.07-56.86-27.65-57.21-28.7a2.5,2.5,0,0,1,4.74-1.59c.1.29,8.39,22.47,52.79,25.31a2.5,2.5,0,0,1-.16,5Z" style="fill: #fff"/>
            <path d="M517.5,852c-29.75,0-42.32-13.24-42.84-13.8a2.5,2.5,0,1,1,3.67-3.4c.16.17,11.84,12.2,39.17,12.2a2.5,2.5,0,0,1,0,5Z" style="fill: #fff"/>
          </g>
        </g>
        <g>
          <path d="M853.5,684a2.5,2.5,0,0,1-1.63-4.4c16.52-14.15,25-29.45,25.1-45.48.22-25.5-20.91-44.56-21.13-44.75a2.5,2.5,0,1,1,3.32-3.74c.94.83,23,20.69,22.81,48.49-.14,17.55-9.17,34.13-26.84,49.28A2.51,2.51,0,0,1,853.5,684Z" style="fill: #fff"/>
          <path d="M763.5,738a2.5,2.5,0,0,1-2.45-2c-9.71-48.53-80.41-106-81.12-106.54a2.5,2.5,0,1,1,3.14-3.9C686,627.94,755.89,684.7,766,735a2.5,2.5,0,0,1-2,2.94A2.72,2.72,0,0,1,763.5,738Z" style="fill: #fff"/>
          <path d="M594.5,473h-.09c-28.5-1.06-38.89-37.29-39.32-38.83a2.5,2.5,0,0,1,4.82-1.34c.09.34,9.85,34.25,34.68,35.17a2.5,2.5,0,0,1-.09,5Z" style="fill: #fff"/>
          <path d="M629.5,400a2.5,2.5,0,0,1-2.47-2.11c-1.38-8.87-4.91-15.14-10.48-18.67-9.2-5.82-21.22-2.36-21.34-2.32a2.5,2.5,0,0,1-1.43-4.79c.58-.18,14.26-4.16,25.41,2.86,6.86,4.33,11.16,11.78,12.78,22.14a2.5,2.5,0,0,1-2.08,2.86Z" style="fill: #fff"/>
        </g>
      </g>
    </g>
  </g>
</svg>
