<svg xmlns="http://www.w3.org/2000/svg" width="1000" height="1000" viewBox="0 0 1000 1000">
  <g id="ee8fcc26-de0d-4f11-aa21-7dc6a3468b35" data-name="illustration">
    <g id="bc81499b-1af9-4ad2-ac00-09c609e32fb2" data-name="basket">
      <g id="ad056bf8-23ec-432b-8878-03421867fdbf" data-name="line">
        <path d="M904.29,907.46H164.48a2,2,0,0,1,0-4H904.29a2,2,0,0,1,0,4Z" style="fill: #1d1d1b"/>
        <path d="M942,878.29H828.54a2,2,0,0,1,0-4H942a2,2,0,0,1,0,4Z" style="fill: #1d1d1b"/>
        <path d="M234.22,940.73H120.73a2,2,0,0,1,0-4H234.22a2,2,0,1,1,0,4Z" style="fill: #1d1d1b"/>
      </g>
      <g id="b0eccf68-4a15-40af-aecd-a331ed2408a6" data-name="woman">
        <g>
          <path d="M450.44,550.57s-6.7,25.07-23.69,16.35-53.2-27.73-68.74-3-13.76,30.65-33.88,26.34-66.85,52-15.9,79c83.51,44.32,186.1-85.11,186.1-85.11l-13.39-17Z" style="fill: #382256"/>
          <path d="M345.72,680a80.47,80.47,0,0,1-38.19-9.4c-20.75-11-28.43-28.92-21.06-49.12,6.84-18.76,26-35.25,38-32.7,15.29,3.28,16.6,1,25.11-13.66,2-3.45,4.26-7.36,7.18-12,16.07-25.6,52.52-6.88,70,2.11l.65.34c3.72,1.91,7.17,2.18,10.26.81,7.82-3.47,11.27-16.09,11.3-16.22l.5-1.84L481.93,566l14.31,18.17-.74.93c-.26.32-26.18,32.82-62,59.45-21.1,15.68-41.47,26.3-60.55,31.57A101.93,101.93,0,0,1,345.72,680Zm-23.86-88.48c-9.88,0-26.18,13.46-32.57,31-4,11-6.75,31.43,19.64,45.44,42.45,22.52,90.19-1.61,122.77-25.82,32.15-23.89,56.24-52.53,60.71-58L480,568.36l-28.62-15.6c-1.35,4-5.18,13.17-12.42,16.38-4,1.76-8.28,1.46-12.85-.88l-.65-.34c-16.72-8.59-51.52-26.46-66.13-3.18-2.89,4.6-5.14,8.49-7.13,11.92-8.6,14.84-10.91,18.82-28.33,15.09A8.86,8.86,0,0,0,321.86,591.55Z"/>
        </g>
        <g>
          <circle cx="497.63" cy="465.62" r="33.08" style="fill: #382256"/>
          <path d="M497.63,500.21a34.62,34.62,0,1,1,7.55-.84A34.63,34.63,0,0,1,497.63,500.21Zm.06-66.18a32.25,32.25,0,0,0-6.95.77,31.42,31.42,0,1,0,6.95-.77Z" style="fill: #1d1e1b"/>
        </g>
        <g>
          <path d="M532.87,471.6c-18.46-20.52-53.66-7.32-60.5,5.07-17,30.76-42.15,23.68-40,52.08C433.51,543,447,545.53,447,572.08c0,13.7,26.65,28.71,46.6,24.24s88.22-19,90.44-34.87,18.82-45.43-5.76-69.2C553.48,468.22,540.87,480.5,532.87,471.6Z" style="fill: #382256"/>
          <path d="M486.05,598.63c-11.81,0-23.77-5.18-31-11-6.11-4.87-9.48-10.4-9.5-15.58-.05-15.28-4.61-22.3-8.62-28.5-2.84-4.38-5.53-8.52-6-14.72-1.28-16.62,6.42-21.8,16.18-28.37,7.76-5.23,16.57-11.16,24-24.56,4.26-7.72,17.48-14.68,30.74-16.2S526.33,462.1,534,470.6c2.65,2.94,6,3.23,10.55,3.63,8,.71,19,1.67,34.83,16.94,20,19.38,13.64,42.28,9,59a97,97,0,0,0-2.76,11.5c-2,14.42-48.54,26.56-88.86,35.52l-2.73.61A36.37,36.37,0,0,1,486.05,598.63Zm21.18-136.21a44.18,44.18,0,0,0-5.08.3c-13.61,1.56-25.16,8.68-28.47,14.67-7.75,14-17.27,20.44-24.92,25.6-9.63,6.49-16,10.77-14.86,25.64.42,5.44,2.79,9.1,5.53,13.33,4,6.22,9.05,14,9.11,30.12,0,4.25,3,8.95,8.37,13.25,8.33,6.65,23.28,12.47,36.4,9.53l2.74-.61c56.11-12.47,85.23-23.58,86.54-33a100.62,100.62,0,0,1,2.84-11.89c4.48-16,10.6-37.88-8.16-56-15-14.54-25.42-15.45-33-16.11-4.87-.43-9.07-.8-12.51-4.61h0C525.77,466,517.19,462.42,507.23,462.42Z" style="fill: #1d1e1b"/>
        </g>
        <g>
          <path d="M694.63,603.72c59.3-29.65,30.67-180.8,24.37-202.12s-21.21-19.3-21.21-19.3l-1.69-17.13L641.25,363,640,374.74s-20.84,7.66-20.73,28.86-.46,28.08.54,42.91c0,0-4.88,85-20.15,109.25s-42.94,36.13-42.94,36.13" style="fill: #07acee"/>
          <path d="M694.63,605.22a1.5,1.5,0,0,1-.67-2.84c30.56-15.28,36.42-64.35,36-102.83-.54-44.32-9.24-87-12.35-97.53-5.87-19.85-19.44-18.25-19.58-18.23a1.53,1.53,0,0,1-1.13-.31,1.48,1.48,0,0,1-.56-1l-1.56-15.83-52.14-2.07-1.07,10.34a1.52,1.52,0,0,1-1,1.26c-.81.3-19.84,7.57-19.74,27.44,0,6.88,0,12.19,0,16.87-.06,9.62-.11,16,.57,26a.6.6,0,0,1,0,.19c-.2,3.48-5.08,85.64-20.38,110s-42.47,36.22-43.62,36.71a1.5,1.5,0,1,1-1.18-2.76c.27-.12,27.43-12,42.26-35.55,14.67-23.32,19.73-105.2,19.92-108.44-.68-10-.63-16.42-.57-26.07,0-4.68.07-10,0-16.84-.1-19.43,16.74-28.1,20.82-29.91l1.13-10.85a1.5,1.5,0,0,1,1.55-1.35l54.85,2.17A1.51,1.51,0,0,1,697.6,365l1.55,15.74c4.22.14,15.92,2.21,21.29,20.4C726.9,423,755.82,574.8,695.3,605.06A1.44,1.44,0,0,1,694.63,605.22Z" style="fill: #1d1d1b"/>
        </g>
        <path d="M697,382.69a12.25,12.25,0,0,1,2.51,0c-11.52,6.8-39,18.69-59.1-7,.48-.21.77-.32.77-.32L642.37,364l53,2.1Z" style="fill: #0598c6"/>
        <path d="M524.4,530.18c-15.82,6.48-39.31,3.27-42,9.83s1.57,13.92,10.83,14.25,18.07-1.53,35.92-6.23,35-10.64,31.17-19.94S547.66,520.65,524.4,530.18Z" style="fill: #ffb49f"/>
        <g>
          <path d="M504.27,484.94c-.68,27-23.8,44.46-37.56,48.89-1.33,8.48,2.59,18.65,4.64,27.81,7.53,33.63,31.31,53.85,63.1,44.43,31-9.2,43.54-30.93,34.88-67.9-2-8.72-3.64-17.48-8.14-24.36C534.4,519.68,504.27,484.94,504.27,484.94Z" style="fill: #ffcdb2"/>
          <path d="M519.3,609.87a43.55,43.55,0,0,1-22.31-6c-13.15-7.73-22.78-22.62-27.1-41.95-.51-2.26-1.12-4.55-1.77-7-1.93-7.23-3.94-14.72-2.89-21.39l.14-.91.88-.28c14.79-4.77,35.9-22.65,36.52-47.51l.09-3.87L505.4,484c.29.34,29.86,34,55.47,28.39l1-.22.57.87c4.11,6.29,5.9,14.13,7.63,21.72.23,1,.47,2.08.71,3.12,4.35,18.54,3.44,33.81-2.69,45.4-6,11.35-17.18,19.52-33.22,24.27A54.82,54.82,0,0,1,519.3,609.87ZM468.07,535c-.64,5.85,1.18,12.66,2.95,19.26.63,2.34,1.28,4.76,1.8,7.09,4.14,18.5,13.26,32.71,25.69,40,10.24,6,22.52,7.16,35.51,3.31,31.05-9.21,42.12-30.83,33.85-66.12l-.72-3.13c-1.66-7.3-3.24-14.21-6.68-19.9a31.54,31.54,0,0,1-5.64.5c-21.15,0-42.24-20.06-49.28-27.43C503.11,513.75,482,530.07,468.07,535Z" style="fill: #1d1d1b"/>
        </g>
        <path d="M521.5,532.92c-18.79,7.92-46.84,4.37-50,12.22s2,16.59,13.09,16.88,21.53-2,42.77-7.86,41.61-13.09,36.95-24.14S549.14,521.29,521.5,532.92Z" style="fill: #ffb49f"/>
        <path d="M484.73,535.11a1.5,1.5,0,0,1-.43-2.94c.1,0,9.89-3,10.5-9a1.5,1.5,0,1,1,3,.31c-.81,8-12.15,11.43-12.63,11.57A1.23,1.23,0,0,1,484.73,535.11Z"/>
        <path d="M537.71,522.71c-6.25,0-11.22-5.5-11.44-5.74a1.5,1.5,0,0,1,2.24-2h0c0,.06,4.72,5.22,9.91,4.71a1.5,1.5,0,0,1,.29,3C538.37,522.7,538,522.71,537.71,522.71Z"/>
        <circle cx="492.73" cy="541.83" r="3.76"/>
        <circle cx="540.42" cy="531.16" r="3.76"/>
        <path d="M522.12,564.49a1.52,1.52,0,0,1-1.47-1.17l-5.91-26.42a1.5,1.5,0,0,1,2.93-.65l5.91,26.41a1.5,1.5,0,0,1-1.14,1.79A1.22,1.22,0,0,1,522.12,564.49Z"/>
        <path d="M514.28,586.28a1.45,1.45,0,0,1-.94-.34,1.5,1.5,0,0,1-.23-2.11c.16-.19,3.83-4.65,8.66-4.65h.11c2.74,0,5.23,1.49,7.37,4.29a1.5,1.5,0,1,1-2.38,1.83c-1.56-2-3.25-3.09-5-3.12-3.38,0-6.36,3.51-6.38,3.54A1.5,1.5,0,0,1,514.28,586.28Z"/>
        <g>
          <path d="M645.26,361s-62.68-45.83-19.59-60.81l2.47-38.65s18.52-12.12,26.55,18.33c0,0,14.43-.19,22.63,10.32,0,0,15.58-4.21,21,18,5.9,24-5.81,55.82-5.81,55.82Z" style="fill: #ffcdb2"/>
          <path d="M693.55,365.55l-48.83-3.08-.35-.26c-1.56-1.14-38.14-28.14-35.15-48.16,1-6.58,6-11.61,15-14.94l2.45-38.41.63-.41c.29-.19,7-4.53,14.54-1.65,6.27,2.4,11,9.05,14,19.76,3.64.19,14.78,1.49,22.07,10.14a17,17,0,0,1,11,2.17c5.17,3.05,8.82,8.8,10.86,17.1,5.93,24.19-5.38,55.38-5.87,56.69Zm-47.76-6,45.69,2.89c1.92-5.67,10.53-33,5.4-53.9-1.82-7.45-5-12.56-9.41-15.19a13.89,13.89,0,0,0-9.77-1.69l-1,.25-.62-.78c-7.66-9.81-21.28-9.74-21.42-9.74h-1.17l-.3-1.13c-2.73-10.36-6.92-16.69-12.45-18.81-4.91-1.89-9.56.13-11.2,1l-2.49,38.84-.94.33c-8.43,2.93-13.13,7.26-14,12.88C609.61,331.77,642.06,356.72,645.79,359.53Z" style="fill: #1d1d1b"/>
        </g>
        <g>
          <path d="M699.87,312.57c1.06,11.1-10,23.65-18,16.24-6.63-6.15-6.22-11.79-6.22-11.79s-7.21,17.33-20,6.2-1.75-42.33-1.75-42.33" style="fill: #ffcdb2"/>
          <path d="M687.14,332.54a9.18,9.18,0,0,1-6.3-2.63,21.6,21.6,0,0,1-5.9-8.54c-1.78,2.65-4.68,5.88-8.69,6.81-3.76.88-7.66-.4-11.59-3.82-13.41-11.67-2.65-42.66-2.18-44a1.5,1.5,0,1,1,2.83,1c-.11.3-10.56,30.38,1.32,40.7,3.16,2.75,6.16,3.83,8.93,3.18,5.48-1.28,8.66-8.75,8.69-8.82a1.5,1.5,0,0,1,2.88.68c0,.19-.2,5.06,5.75,10.58a6.13,6.13,0,0,0,7.35,1c4.46-2.21,8.8-9.18,8.14-16a1.5,1.5,0,1,1,3-.29c.72,7.46-3.68,16-9.8,19A9.91,9.91,0,0,1,687.14,332.54Z" style="fill: #1d1d1b"/>
        </g>
        <g>
          <line x1="677.58" y1="290.25" x2="674.82" y2="318.68" style="fill: #ffcdb2"/>
          <path d="M674.82,320.18h-.15a1.5,1.5,0,0,1-1.35-1.64l2.76-28.42a1.5,1.5,0,1,1,3,.29l-2.76,28.42A1.51,1.51,0,0,1,674.82,320.18Z" style="fill: #1d1d1b"/>
        </g>
        <g>
          <path d="M625.71,300.16s21.11-11.57,29.09-.51S630,329,630,329" style="fill: #ffcdb2"/>
          <path d="M630,330.52a1.5,1.5,0,0,1-.73-2.81c.23-.13,22.91-12.91,25.11-22.86a5.09,5.09,0,0,0-.81-4.32c-7.11-9.86-27,.84-27.15.94a1.5,1.5,0,1,1-1.44-2.63c.91-.5,22.37-12.06,31-.07a8.08,8.08,0,0,1,1.3,6.73c-2.49,11.26-25.6,24.28-26.58,24.83A1.59,1.59,0,0,1,630,330.52Z" style="fill: #1d1d1b"/>
        </g>
        <circle cx="698.02" cy="571.5" r="5.19" style="fill: #51cef4"/>
        <circle cx="627.95" cy="573.32" r="5.19" style="fill: #51cef4"/>
        <circle cx="675.27" cy="502.33" r="5.19" style="fill: #51cef4"/>
        <circle cx="651.61" cy="455.92" r="5.19" style="fill: #51cef4"/>
        <circle cx="703.49" cy="411.32" r="5.19" style="fill: #51cef4"/>
        <path d="M756,544a2,2,0,0,1-.59-.09,2,2,0,0,1-1.32-2.5C771.58,485,741.63,438.56,741.33,438.1a2,2,0,1,1,3.34-2.2c.31.48,31.31,48.46,13.24,106.69A2,2,0,0,1,756,544Z"/>
        <path d="M714,549a3,3,0,0,1-1.15-.23,3,3,0,0,1-1.62-3.92c11.53-27.86-.07-96.65-.19-97.34a3,3,0,0,1,5.92-1c.49,2.9,12,71.2-.19,100.66A3,3,0,0,1,714,549Z" style="fill: #fff"/>
        <path d="M473,462.5a2.92,2.92,0,0,1-.5-.05,2.5,2.5,0,0,1-1.95-2.94c.13-.67,3.5-16.54,21.74-21.91a2.5,2.5,0,1,1,1.42,4.8c-15.27,4.49-18.15,17.55-18.26,18.1A2.52,2.52,0,0,1,473,462.5Z" style="fill: #fff"/>
      </g>
      <g id="f359001d-245f-4917-8b1e-ab34150fef52" data-name="basket">
        <path d="M793.86,722.16c-1.94,0-3.93-.06-6-.16a2,2,0,0,1-1.89-2.11,2,2,0,0,1,2.11-1.89c21.68,1.14,37.18-4,46.06-15.3,15.21-19.37,6-50.81,5.91-51.12a2,2,0,1,1,3.84-1.16c.41,1.37,9.89,33.72-6.6,54.74C828.46,716.45,813.86,722.16,793.86,722.16Z" style="fill: #1d1d1b"/>
        <path d="M507.58,608.36a1.15,1.15,0,0,1-.37.12c-14.67,2.27-30.51-6.23-31.18-6.59a1.24,1.24,0,0,1,1.18-2.18c.16.09,15.79,8.47,29.62,6.33a1.23,1.23,0,0,1,1.41,1A1.25,1.25,0,0,1,507.58,608.36Z"/>
        <path d="M458.75,650.71a1.21,1.21,0,0,1-.86.1,1.24,1.24,0,0,1-.91-1.5c4.63-18.62,1.86-52.11,1.84-52.45a1.23,1.23,0,1,1,2.46-.2c.12,1.38,2.83,34.23-1.89,53.25A1.23,1.23,0,0,1,458.75,650.71Z" style="fill: #fff"/>
        <g>
          <path d="M792.05,594H269A33,33,0,0,0,236,627v45.1A33,33,0,0,0,269,705h31.62L339,905H727l27.62-200h37.43a33,33,0,0,0,33-33V627A33,33,0,0,0,792.05,594Z" style="fill: #fff"/>
          <path d="M728.31,906.5H337.76l-38.43-200H269a34.48,34.48,0,0,1-34.45-34.45V627A34.48,34.48,0,0,1,269,592.5h523.1A34.48,34.48,0,0,1,826.5,627v45.1a34.48,34.48,0,0,1-34.45,34.45H755.92Zm-388.07-3H725.69l27.62-200h38.74a31.49,31.49,0,0,0,31.45-31.45V627a31.49,31.49,0,0,0-31.45-31.45H269A31.49,31.49,0,0,0,237.5,627v45.1A31.49,31.49,0,0,0,269,703.5h32.86Z" style="fill: #1d1e1b"/>
        </g>
        <path d="M469,863h-.08a469.89,469.89,0,0,1-143-28.29,465.49,465.49,0,0,1-103.06-53.44c-54.64-37.62-83.18-74.69-83.46-75.06a2,2,0,1,1,3.18-2.42c.28.36,28.52,37,82.68,74.28A463.23,463.23,0,0,0,469.08,859a2,2,0,0,1-.08,4Z"/>
        <path d="M346.57,875.28c-42.63,0-72.11-8.71-89.87-16.45-21.38-9.3-30.76-19-31.15-19.45a2,2,0,1,1,2.9-2.76c.17.17,9.46,9.72,30.11,18.66,19.17,8.3,52.31,17.77,101.36,15.72a2,2,0,0,1,2.08,1.92,2,2,0,0,1-1.92,2.08Q353.12,875.29,346.57,875.28Z"/>
        <path d="M752,707H305a2,2,0,0,1,0-4H752a2,2,0,0,1,0,4Z"/>
        <path d="M425.2,907a2,2,0,0,1-2-1.81L404,705.19a2,2,0,1,1,4-.38l19.26,200A2,2,0,0,1,425.4,907Z"/>
        <path d="M633.5,907h-.16a2,2,0,0,1-1.83-2.15l16-200a2,2,0,0,1,2.15-1.83,2,2,0,0,1,1.84,2.15l-16,200A2,2,0,0,1,633.5,907Z"/>
        <path d="M533,907a2,2,0,0,1-2-2l-2.26-200a2,2,0,0,1,2-2h0a2,2,0,0,1,2,2L535,905a2,2,0,0,1-2,2Z"/>
        <path d="M526.62,822.51c-32.24,0-60.89-1.36-84.92-3.21-75.55-5.79-122.93-17.47-123.4-17.59a2,2,0,1,1,1-3.88c.46.12,47.6,11.73,122.84,17.49,69.43,5.32,177.66,6.6,299-17.51a2,2,0,0,1,.78,3.92A1111,1111,0,0,1,526.62,822.51Z"/>
        <path d="M508,610.5H279a2.5,2.5,0,0,1,0-5H508a2.5,2.5,0,0,1,0,5Z" style="fill: #fff"/>
        <path d="M714.5,888h-.26a2.5,2.5,0,0,1-2.23-2.75l17-165a2.5,2.5,0,0,1,5,.52l-17,165A2.51,2.51,0,0,1,714.5,888Z" style="fill: #fff"/>
        <g>
          <circle cx="290.5" cy="650.5" r="11" style="fill: #382256"/>
          <path d="M290.5,663A12.5,12.5,0,1,1,303,650.5,12.52,12.52,0,0,1,290.5,663Zm0-22a9.5,9.5,0,1,0,9.5,9.5A9.51,9.51,0,0,0,290.5,641Z"/>
        </g>
        <g>
          <circle cx="777.5" cy="650.5" r="11" style="fill: #382256"/>
          <path d="M777.5,663A12.5,12.5,0,1,1,790,650.5,12.52,12.52,0,0,1,777.5,663Zm0-22a9.5,9.5,0,1,0,9.5,9.5A9.51,9.51,0,0,0,777.5,641Z"/>
        </g>
        <polygon points="620.02 776 431.94 776 289.51 651.63 291.49 649.37 433.06 773 618.98 773 776.57 649.32 778.43 651.68 620.02 776"/>
        <g>
          <rect x="432.5" y="762.5" width="187" height="24" rx="6.76" style="fill: #382256"/>
          <path d="M612.74,788H439.26a8.28,8.28,0,0,1-8.26-8.26V769.26a8.28,8.28,0,0,1,8.26-8.26H612.74a8.28,8.28,0,0,1,8.26,8.26v10.48A8.28,8.28,0,0,1,612.74,788ZM439.26,764a5.27,5.27,0,0,0-5.26,5.26v10.48a5.27,5.27,0,0,0,5.26,5.26H612.74a5.27,5.27,0,0,0,5.26-5.26V769.26a5.27,5.27,0,0,0-5.26-5.26Z"/>
        </g>
        <path d="M610.5,771h-80a2.5,2.5,0,0,1,0-5h80a2.5,2.5,0,0,1,0,5Z" style="fill: #fff"/>
      </g>
      <g id="a98b7801-3813-4a28-9ffa-80fea8bb813f" data-name="to leave">
        <g>
          <rect x="594.49" y="141.5" width="119.83" height="119.83" rx="19.31" style="fill: #4bd657"/>
          <path d="M695,262.83H613.8A20.83,20.83,0,0,1,593,242V160.81A20.83,20.83,0,0,1,613.8,140H695a20.83,20.83,0,0,1,20.81,20.81V242A20.83,20.83,0,0,1,695,262.83ZM613.8,143A17.83,17.83,0,0,0,596,160.81V242a17.83,17.83,0,0,0,17.81,17.81H695A17.83,17.83,0,0,0,712.82,242V160.81A17.83,17.83,0,0,0,695,143Z"/>
        </g>
        <path d="M677.5,231.5a3,3,0,0,1-2.22-1l-50-55a3,3,0,0,1,4.44-4l50,55a3,3,0,0,1-2.22,5Z" style="fill: #fff"/>
        <path d="M633.5,231.5a3,3,0,0,1-2.41-4.79l41-55a3,3,0,0,1,4.82,3.58l-41,55A3,3,0,0,1,633.5,231.5Z" style="fill: #fff"/>
        <path d="M731.5,166.5h0a2,2,0,0,1-2-2c.33-15.39-3.14-26.22-10.33-32.2-8.36-7-19.15-4.82-19.26-4.8a2,2,0,0,1-.83-3.92c.52-.1,12.73-2.58,22.61,5.61,8.2,6.79,12.17,18.7,11.81,35.39A2,2,0,0,1,731.5,166.5Z"/>
        <path d="M611,197h0c-57.87-.52-105.78-26.8-135.79-48.76-32.47-23.76-51.57-47.76-51.76-48a2,2,0,0,1,3.14-2.48c.19.24,19,23.88,51.08,47.32C507.16,166.66,554.26,192.49,611,193a2,2,0,0,1,0,4Z"/>
        <path d="M585.51,223.11c-35.65,0-76-13.5-78.15-14.22a2,2,0,1,1,1.28-3.78c.65.21,64.85,21.66,101.8,11a2,2,0,1,1,1.12,3.84A94.81,94.81,0,0,1,585.51,223.11Z"/>
      </g>
    </g>
  </g>
</svg>
