<svg xmlns="http://www.w3.org/2000/svg" width="1000" height="1000" viewBox="0 0 1000 1000">
  <g id="eb842ddd-4176-46db-85d9-dec48deef64f" data-name="illustration">
    <g id="a7b3d499-2a6b-478e-81a4-4778da5e187d" data-name="cart">
      <g id="e2bf2fbf-6a37-49fd-8745-6c43022263d7" data-name="arrow">
        <g>
          <path d="M344.35,392.29s28.79-101.05-74.08-104.75l-2.1-12-31.86,30.35,34.26,18.79,3.91-13.07s60.79,11.05,42.67,66.88Z" style="fill: #07acee"/>
          <path d="M344.35,393.79a1.48,1.48,0,0,1-.68-.16l-27.2-13.83a1.49,1.49,0,0,1-.74-1.8c5-15.53,4.28-28.95-2.24-39.88-10.34-17.33-32.38-23.46-38-24.77L272,325.09a1.49,1.49,0,0,1-.87,1,1.53,1.53,0,0,1-1.29-.07l-34.26-18.79a1.49,1.49,0,0,1-.31-2.4l31.86-30.36a1.48,1.48,0,0,1,1.5-.33,1.5,1.5,0,0,1,1,1.16l1.89,10.83c29.83,1.31,51.5,11,64.41,28.73,22.75,31.29,10.38,76,9.84,77.89a1.49,1.49,0,0,1-.84,1A1.53,1.53,0,0,1,344.35,393.79ZM319,377.71l24.39,12.4c2-8.64,9.57-46.86-9.84-73.54C321,299.36,299.7,290.1,270.22,289a1.48,1.48,0,0,1-1.42-1.24l-1.62-9.26-28.35,27,30.84,16.91L273,311.16a1.5,1.5,0,0,1,1.71-1.05c1.17.21,28.75,5.45,41.31,26.46C322.88,348,323.85,361.82,319,377.71Z"/>
        </g>
        <path d="M339,377.92a1.24,1.24,0,0,1-.27,0,1.5,1.5,0,0,1-1.21-1.74c3.71-20.54.65-37.95-9.07-51.76-16.24-23.06-45.84-28.23-46.14-28.28a1.5,1.5,0,0,1,.49-3c1.27.21,31.15,5.44,48.11,29.51,10.2,14.49,13.42,32.66,9.56,54A1.5,1.5,0,0,1,339,377.92Z" style="fill: #fff"/>
        <path d="M366.65,384.83a2,2,0,0,1-.34,0,1.5,1.5,0,0,1-1.12-1.81c8.78-36.85,1.33-59.16-6.46-71.39-8.42-13.21-19.05-17.83-19.15-17.88a1.5,1.5,0,1,1,1.16-2.76c.47.19,11.48,4.94,20.41,18.85,8.17,12.73,16,35.88,7,73.88A1.51,1.51,0,0,1,366.65,384.83Z"/>
      </g>
      <g id="eb121725-a232-4885-9247-ea438068eeff" data-name="cart">
        <g>
          <path d="M262.8,452.54H129.16c-6.83,0-12.36-6.51-12.36-14.53-2.28-22-2.11-45.37,0-69.81,0-8,5.53-14.53,12.36-14.53H262.8c6.82,0,12.36,6.51,12.36,14.53a270.09,270.09,0,0,1,0,69.81C275.16,446,269.62,452.54,262.8,452.54Z" style="fill: #4bd657"/>
          <path d="M262.79,454H129.16c-7.62,0-13.82-7.15-13.86-16-2.18-21.1-2.18-44.64,0-69.94,0-8.81,6.24-16,13.86-16H262.79c7.62,0,13.82,7.14,13.87,15.94a272.37,272.37,0,0,1,0,70C276.61,446.9,270.41,454,262.79,454ZM129.16,355.17c-6,0-10.86,5.85-10.86,13a.53.53,0,0,1,0,.13c-2.17,25.18-2.17,48.57,0,69.52a.81.81,0,0,1,0,.16c0,7.18,4.87,13,10.86,13H262.79c6,0,10.87-5.85,10.87-13a1.34,1.34,0,0,1,0-.2,269.67,269.67,0,0,0,0-69.41,1.34,1.34,0,0,1,0-.2c0-7.18-4.88-13-10.87-13Z"/>
        </g>
        <g>
          <path d="M115.19,409.39q.15,11.3,1,22.17c85.51,8.85,137.49,5.48,159.36,3q1.24-10.56,1.65-21.13A897.23,897.23,0,0,1,115.19,409.39Z" style="fill: #382256"/>
          <path d="M218.51,438.83c-26.37,0-60.34-1.42-102.45-5.78a1.5,1.5,0,0,1-1.34-1.37c-.59-7.18-.93-14.67-1-22.27a1.49,1.49,0,0,1,.5-1.13,1.51,1.51,0,0,1,1.18-.38A899,899,0,0,0,277.12,412a1.47,1.47,0,0,1,1.14.42,1.52,1.52,0,0,1,.46,1.13c-.27,7.06-.83,14.21-1.65,21.24a1.52,1.52,0,0,1-1.33,1.32A516.66,516.66,0,0,1,218.51,438.83Zm-100.9-8.64c82.2,8.43,133,5.59,156.61,3,.68-6,1.16-12.12,1.43-18.16a904,904,0,0,1-158.93-4C116.83,417.59,117.13,424,117.61,430.19Z"/>
        </g>
        <path d="M148.11,365.46a1.53,1.53,0,0,1-.91-.3c-29.46-22.45-43.86-60.53-50.76-88.51a283.5,283.5,0,0,1-8-55.81,1.5,1.5,0,0,1,3-.05c0,1,2.43,100,57.56,142a1.5,1.5,0,0,1-.91,2.69Z"/>
        <path d="M137.38,385.15a1.1,1.1,0,0,1-.31,0C101,377.62,80.24,357.54,69.17,342c-12-16.83-15.43-31.68-15.57-32.3a1.5,1.5,0,0,1,2.93-.66c0,.15,3.46,15,15.16,31.32,10.76,15.05,30.94,34.51,66,41.8a1.5,1.5,0,0,1-.3,3Z"/>
        <path d="M231,365.5H165a2.5,2.5,0,0,1,0-5h66a2.5,2.5,0,0,1,0,5Z" style="fill: #fff"/>
        <path d="M259.5,365h-18a2.5,2.5,0,0,1,0-5h18a2.5,2.5,0,0,1,0,5Z" style="fill: #fff"/>
      </g>
      <g id="a044f8fb-4cd0-4763-93db-18e58d873a78" data-name="line">
        <path d="M325.54,897.5a2,2,0,0,1,0-4l561.76-3.41L887,261.8a2,2,0,1,1,4,0l.25,630.27a2,2,0,0,1-2,2L325.55,897.5Z"/>
        <path d="M359.74,917H237.64a1.5,1.5,0,1,1,0-3h122.1a1.5,1.5,0,0,1,0,3Z"/>
        <path d="M921.86,300.74a1.5,1.5,0,0,1-1.5-1.5V214a1.5,1.5,0,0,1,3,0v85.24A1.5,1.5,0,0,1,921.86,300.74Z"/>
      </g>
      <g id="b161b621-8ebd-442e-8192-1412a75831b3" data-name="woman">
        <g>
          <path d="M508.5,677.5s12,118,92,82,15-127,15-127Z" style="fill: #07acee"/>
          <path d="M572.17,767.83a46.24,46.24,0,0,1-23.45-6.19c-34.84-20.11-41.45-81.39-41.71-84a1.49,1.49,0,0,1,.91-1.53l107-45a1.5,1.5,0,0,1,1.8.51c1.39,1.94,33.82,48,23,88-4.87,18-17.86,31.9-38.61,41.24C590.81,765.51,581.14,767.83,572.17,767.83Zm-62-89.39c1.07,8.42,9.07,62.7,40.11,80.6,13.85,8,30.56,7.68,49.65-.91,19.9-9,32.33-22.16,37-39.27,9.6-35.52-17.22-77.57-21.88-84.5Z" style="fill: #1d1d1b"/>
        </g>
        <g>
          <path d="M130.28,578.57s3.59-21.83,35.85-13.1c0,0,10.75-17.46,28.67-8.73s35.85,26.19,35.85,26.19l-50.19,26.19H141Z" style="fill: #ffcdb2"/>
          <path d="M180.46,610.62H141a1.5,1.5,0,0,1-1.42-1l-10.75-30.55a1.45,1.45,0,0,1-.07-.74,20,20,0,0,1,8.8-12.59c6.73-4.33,16.11-5,27.9-2,2.67-3.65,13.55-16.35,30-8.36,17.93,8.73,35.49,25.74,36.23,26.46a1.49,1.49,0,0,1-.35,2.4l-50.18,26.19A1.54,1.54,0,0,1,180.46,610.62Zm-38.36-3h38l48-25c-4.67-4.33-19.4-17.41-33.93-24.49-16.52-8-26.34,7.5-26.75,8.17a1.49,1.49,0,0,1-1.66.66c-11.38-3.08-20.29-2.64-26.47,1.31a17.47,17.47,0,0,0-7.43,10.24Z"/>
        </g>
        <g>
          <path d="M285.2,659.34s-4.26-3.69-47.48-11.08c-38.5-6.58-99.18-7.94-119.11-61.31A9.11,9.11,0,0,1,127,574.67c6.79-.08,17.1,2.55,32,12.63,32.26,21.82,90.49-7,73.44-28.89-9.37-12-23.74-13.57-26.67-25.31C202,518,220.5,511.5,236.5,516.5c16.95,5.3,40,16,69.42,62.07Z" style="fill: #ffcdb2"/>
          <path d="M286.05,662.06l-1.78-1.54c-.47-.3-6.68-3.92-46.8-10.78-4.87-.83-10.06-1.58-15.56-2.36-19-2.73-40.55-5.81-59.73-14.13-22.39-9.71-37.1-24.68-45-45.78a10.63,10.63,0,0,1,1.2-9.7,10.42,10.42,0,0,1,8.54-4.6h.35c8.93,0,19.86,4.34,32.5,12.89,22.52,15.23,56.43,5.07,69-8.34,4.17-4.45,8-11.26,2.44-18.38-4-5.09-8.79-8.2-13.47-11.2-6-3.87-11.69-7.51-13.47-14.68-1.41-5.64-.08-10.58,3.84-14.28,6.15-5.8,18-7.49,28.83-4.11,18.65,5.83,41.58,17.83,70.23,62.69l.35.55ZM127.28,576.17H127a7.62,7.62,0,0,0-7,10.25c17.08,45.77,64.34,52.54,102.32,58,5.52.79,10.73,1.53,15.63,2.37,31.22,5.34,42.35,8.79,46.23,10.4l20.1-78.35c-28-43.6-50.19-55.25-68.25-60.9-9.84-3.07-20.47-1.66-25.87,3.43-3.09,2.91-4.12,6.85-3,11.38,1.5,6,6.45,9.19,12.18,12.87,4.66,3,9.94,6.39,14.21,11.88,5.26,6.77,4.31,14.89-2.61,22.28-8.54,9.13-26.47,16.82-44.5,16.82-9.93,0-19.9-2.33-28.35-8.05C146.15,580.44,135.5,576.17,127.28,576.17Z"/>
        </g>
        <g>
          <circle cx="763.95" cy="296.07" r="39.09" style="fill: #382256"/>
          <path d="M764,257a39.09,39.09,0,0,1,1,78.16h-1.05a39.08,39.08,0,0,1-1-78.15l1.05,0m0-3h0l-1.13,0a42.08,42.08,0,0,0,1.09,84.15h1.13A42.09,42.09,0,0,0,764,254Z"/>
        </g>
        <g>
          <path d="M750.44,421.39s1,40,29.61,33.09,89.8-22.32,104.14,20.41,9.52,50.94,41.25,51.75,86.27,57.57,15.55,111.55S693.22,459.46,693.22,459.46l5.48-24.2Z" style="fill: #382256"/>
          <path d="M750.44,421.39s.82,33.89,23.28,33.89a27,27,0,0,0,6.33-.8c13.57-3.29,34.44-8.47,54.17-8.47,21.92,0,42.42,6.39,50,28.88,14.33,42.74,9.52,50.94,41.25,51.75s86.27,57.57,15.55,111.55c-7.35,5.61-15.86,8.12-25.18,8.12-80.43,0-222.59-186.85-222.59-186.85l5.48-24.2,51.74-13.87m0-3a2.86,2.86,0,0,0-.77.1l-51.74,13.88a3,3,0,0,0-2.15,2.23l-5.49,24.2a3,3,0,0,0,.54,2.48A1151.22,1151.22,0,0,0,772.21,555c26.59,27.25,51.21,49,73.15,64.58,27.77,19.74,51.47,29.75,70.45,29.75,10.32,0,19.4-2.94,27-8.74,15.9-12.13,26.65-25.23,32-38.93a52.55,52.55,0,0,0,1.22-36c-7.94-24.53-32.5-41.5-50.47-42-23.61-.6-24.74-4.4-32-29.08-1.75-5.89-3.73-12.58-6.43-20.62C880.15,453.42,862.38,443,834.22,443c-19.56,0-40.15,5-53.77,8.28l-1.1.27a24,24,0,0,1-5.63.72c-19.3,0-20.27-30.66-20.28-31a3,3,0,0,0-3-2.92Z"/>
        </g>
        <path d="M948.46,632.05c-6.62-65.78-111.75-133.31-145.32-143.26s-74.09-26.1-80.19-40.27,17.71-20.73,17.71-20.73l-7.14-1.86-34.82,9.33-5.48,24.2S870.27,692.17,941,638.19C943.66,636.15,946.14,634.1,948.46,632.05Z" style="fill: #050505"/>
        <g>
          <path d="M613.4,359.42s-14.52-32.93,6.35-50.06,25.74-12.53,36.14-22.29,37.61-11.65,54.59,3.3c0,0,33-6.79,52.38,9.28s22.12,30.22,20.29,50.41.81,30.79,0,45-9.42,51.24-67.94,54S613.4,359.42,613.4,359.42Z" style="fill: #382256"/>
          <path d="M679.85,279.45c10.47,0,21.9,3.23,30.63,10.92A89.81,89.81,0,0,1,726.77,289c11.09,0,25.59,2,36.09,10.7,19.38,16.08,22.12,30.22,20.29,50.41s.81,30.79,0,45-9.42,51.24-67.94,54c-.84,0-1.69.06-2.53.06-57.24,0-99.28-89.68-99.28-89.68s-14.52-32.93,6.35-50.06,25.74-12.53,36.14-22.29c5.06-4.73,14.08-7.62,24-7.62m0-3c-10.65,0-20.38,3.15-26,8.44-4.24,4-7.34,5.28-11.62,7.09-5.55,2.35-12.46,5.27-24.37,15.06-9.35,7.67-13.53,19.45-12.09,34.07a70,70,0,0,0,4.9,19.52l0,.07a260.38,260.38,0,0,0,28.53,45.42c10.44,13.24,21.23,23.82,32.08,31.42,13.78,9.66,27.7,14.56,41.38,14.56.89,0,1.79,0,2.67-.06,26.1-1.21,45.54-9.19,57.77-23.72a56.82,56.82,0,0,0,13-33.06,154.63,154.63,0,0,0-.23-17.43,175.78,175.78,0,0,1,.21-27.5c1.89-20.77-1-36.1-21.36-53-11.35-9.42-26.93-11.39-38-11.39a96.93,96.93,0,0,0-15.44,1.22c-8.42-6.92-19.54-10.72-31.49-10.72Z"/>
        </g>
        <g>
          <path d="M666,445.57l-17.78,44.31s2,28.25,71.18-13c0,0-7.28-16.83-3.2-59.92,0,0,19.1,5.42,24.58-11.32s-5.43-25.92-14.9-25.67c0,0-39,4.59-36.21-70.13,0,0-36.83-3.77-59.79,24.09s-36.14,67.3-17.75,90.52S666,445.57,666,445.57Z" style="fill: #ffcdb2"/>
          <path d="M685.15,309.71c2.85,0,4.52.17,4.52.17-2.46,66.55,28.19,70.19,34.92,70.19a11.08,11.08,0,0,0,1.29-.06h.38c9.38,0,19.93,9.16,14.52,25.67-3.33,10.16-11.67,12.15-17.72,12.15a28,28,0,0,1-6.86-.83c-4.08,43.09,3.2,59.92,3.2,59.92-29.19,17.38-46.42,22.41-56.59,22.41-13.94,0-14.59-9.45-14.59-9.45L666,445.57s-.84.05-2.35.05c-8.21,0-36-1.51-51.52-21.13-18.39-23.22-5.21-62.66,17.75-90.52C648,312,674.62,309.71,685.15,309.71m0-3c-11,0-38.73,2.47-57.59,25.35-12.24,14.86-21.12,32-25,48.22-4.43,18.6-1.94,34.53,7.2,46.07,15.21,19.21,41.34,21.95,51.78,22.24l-16.13,40.17a3,3,0,0,0-.21,1.33c.3,4.23,4.35,12.24,17.59,12.24s32.68-7.68,58.12-22.83a3,3,0,0,0,1.22-3.77c-.06-.15-6.53-16-3.26-55.17a33.42,33.42,0,0,0,4.17.27c10.26,0,17.57-5,20.57-14.21,2.73-8.34,2-16.07-2.17-21.77a18.87,18.87,0,0,0-15.2-7.84h-.46l-.27,0h0a9.17,9.17,0,0,1-.94,0c-3,0-10.67-.8-17.78-8.18-10.28-10.67-15.17-31-14.14-58.9a3,3,0,0,0-2.7-3.1c-.07,0-1.85-.18-4.82-.18Z"/>
        </g>
        <path d="M663.94,448.24c-.75,0-1.51,0-2.25-.08a1.5,1.5,0,1,1,.21-3c10.67.76,23.39-5,23.51-5a1.5,1.5,0,1,1,1.25,2.72C686.15,443.09,674.77,448.24,663.94,448.24Z"/>
        <path d="M720.71,410.08a1.51,1.51,0,0,1-1.29-.73,1.5,1.5,0,0,1,.52-2.05c5.51-3.3,8.34-6.73,8.42-10.2.11-4.93-5.43-8.63-5.48-8.67a1.5,1.5,0,0,1,1.64-2.51c.29.19,7,4.64,6.84,11.23-.1,4.58-3.42,8.86-9.88,12.72A1.42,1.42,0,0,1,720.71,410.08Z"/>
        <path d="M663.75,355.82c16.42,11.65,44.21,14.24,45.62,22.49s-5.52,15.55-16.23,13.47-20.32-6.58-39.55-16.73-37.29-21.53-30.44-31.19S639.6,338.69,663.75,355.82Z" style="fill: #ffb49f"/>
        <path d="M651.23,336.09a1.5,1.5,0,0,1-.68-2.84,24.51,24.51,0,0,1,13.91-1.87,1.49,1.49,0,0,1,1.23,1.73,1.52,1.52,0,0,1-1.73,1.23,22,22,0,0,0-12.07,1.59A1.43,1.43,0,0,1,651.23,336.09Z"/>
        <path d="M697.67,360.08a1.5,1.5,0,0,1-1.45-1.12h0c-.1-.36-2.38-8.69-9.8-8.69h-.19a1.5,1.5,0,0,1,0-3h.22c7.8,0,11.71,7.13,12.7,10.93a1.5,1.5,0,0,1-1.07,1.83A1.73,1.73,0,0,1,697.67,360.08Z"/>
        <path d="M667.75,416.19a20.63,20.63,0,0,1-13.19-4.8,1.5,1.5,0,0,1,2.06-2.18c.42.39,10.27,9.35,24.13-.8a1.5,1.5,0,1,1,1.78,2.42C677,414.86,672,416.19,667.75,416.19Z"/>
        <path d="M728.17,380.05a37.36,37.36,0,0,1-16.25-3.28,1.5,1.5,0,1,1,1.31-2.7c14.57,7.08,36.66-.78,36.88-.86a1.5,1.5,0,0,1,1,2.82A75.26,75.26,0,0,1,728.17,380.05Z"/>
        <path d="M816.92,284.32l-.3,0a1.49,1.49,0,0,1-1.17-1.77c1.73-8.53.58-15.88-3.41-21.87-7.14-10.7-21.14-13.56-21.28-13.59a1.5,1.5,0,1,1,.58-2.94c.62.12,15.33,3.1,23.18,14.85,4.46,6.67,5.76,14.8,3.86,24.15A1.49,1.49,0,0,1,816.92,284.32Z"/>
        <path d="M644.15,385.89a1.52,1.52,0,0,1-1-.39,1.49,1.49,0,0,1-.08-2.12l22.09-23.9a1.5,1.5,0,1,1,2.2,2l-22.09,23.9A1.5,1.5,0,0,1,644.15,385.89Z"/>
        <circle cx="642.03" cy="353.95" r="4.18"/>
        <circle cx="683.03" cy="376.95" r="4.18"/>
        <g>
          <path d="M544.22,552.91s3.55-100.22-97.83-138.76A14.75,14.75,0,0,0,426.47,429c.73,9.57,5.65,22.19,20.79,36.95,0,0-23.27,11.34-15.51,30.24,0,0-15.52,18.91,0,30.25S451,552.12,476.26,562,544.22,552.91,544.22,552.91Z" style="fill: #ffcdb2"/>
          <path d="M493.75,566.33a50,50,0,0,1-18-3c-16.48-6.42-24-14.75-31.31-22.8-4.15-4.58-8.07-8.9-13.55-12.91-4.29-3.14-6.77-7.12-7.37-11.83C422.38,507,428.18,498.45,430,496c-6-16.24,9.33-27.1,14.75-30.34C432.54,453.27,425.88,441,425,429.13a16.25,16.25,0,0,1,21.94-16.38c52.88,20.1,76.93,57.15,87.8,84.68,11.76,29.82,11,55.28,11,55.54l0,.94-.86.38C543.44,554.9,517.3,566.33,493.75,566.33ZM441.18,414.69A13.27,13.27,0,0,0,428,428.9c.88,11.58,7.72,23.68,20.34,36l1.52,1.49-1.91.93c-.9.44-21.91,11-14.78,28.33l.34.83-.57.69c-.08.1-7.58,9.39-6.44,18.31a14.18,14.18,0,0,0,6.16,9.78c5.73,4.19,9.94,8.83,14,13.32,7.06,7.79,14.35,15.85,30.18,22,22.46,8.75,59.74-6.06,65.92-8.65a153.5,153.5,0,0,0-10.85-53.5c-10.65-26.93-34.22-63.17-86-82.87A13.17,13.17,0,0,0,441.18,414.69Z"/>
        </g>
        <path d="M213,590.65h-.08c-20.27-1.15-46.47-22.86-47.58-23.79a1.5,1.5,0,1,1,1.93-2.3c.26.22,26.54,22,45.81,23.1a1.5,1.5,0,0,1-.08,3Z"/>
        <path d="M459.77,522.29a1.48,1.48,0,0,1-1.42-1h0c-.05-.14-4.92-14.32-27.65-24.07a1.5,1.5,0,0,1,1.18-2.76C456,504.75,461,519.7,461.2,520.33a1.5,1.5,0,0,1-1,1.89A1.43,1.43,0,0,1,459.77,522.29Z"/>
        <path d="M484.46,494.52a1.5,1.5,0,0,1-1.37-.9c-8.15-18.53-35.76-25.92-36-26a1.5,1.5,0,0,1,.76-2.91c1.19.31,29.29,7.82,38,27.7a1.49,1.49,0,0,1-.77,2A1.46,1.46,0,0,1,484.46,494.52Z"/>
        <g>
          <path d="M568.76,521.78c68.76-39.2,153.64-71.46,218.8-24.42S890.19,625.28,890.19,625.28V893.44l-297.78.17s-19.68-104.79-11-217.7c0,0-36.51,15.83-79.95,30s-167.27,46.44-189-38.24l-34.75-9.41s21.72-51.75,26.06-89.38l34.75,9.4s4.34-42.34,52.12-23.52S486.23,568.83,568.76,521.78Z" style="fill: #07acee"/>
          <path d="M592.41,895.11a1.51,1.51,0,0,1-1.48-1.22c-.19-1-19.33-104.74-11.19-215.64-8.67,3.67-40.92,17-77.81,29-20.56,6.69-61,18-99.62,18-20.74,0-40.94-3.25-57.26-12.22-17.12-9.42-28.49-24.28-33.8-44.18l-33.91-9.18a1.49,1.49,0,0,1-1-2c.21-.51,21.68-52,25.95-89a1.49,1.49,0,0,1,1.88-1.27l33.13,9c.83-4.59,4-17,15-23.7,9.7-5.9,22.79-5.68,38.89.67a137.57,137.57,0,0,0,51.23,10c35.43,0,74.49-13.78,125.57-42.89,42.06-24,78.44-38.6,111.22-44.72,42.69-8,79.43-1.11,109.2,20.39,64.73,46.73,102.74,127.69,103.12,128.5a1.52,1.52,0,0,1,.14.63V893.44a1.5,1.5,0,0,1-1.5,1.5Zm-11-220.7a1.46,1.46,0,0,1,.87.28,1.48,1.48,0,0,1,.62,1.33c-8.07,104.91,8.61,204,10.75,216.09l295-.17V625.62c-2.57-5.4-39.9-82.19-102-127C735,461.24,663.93,469.26,569.5,523.08l-.75-1.3.75,1.3c-41,23.38-73.61,36.52-102.57,41.34-26.7,4.45-51.11,1.81-76.81-8.31-15.19-6-27.39-6.29-36.24-.9-12.09,7.36-13.83,23-13.85,23.18a1.49,1.49,0,0,1-1.88,1.29l-33.08-8.95c-4.29,33.53-21.71,77.63-25.31,86.48l33.11,9a1.52,1.52,0,0,1,1.06,1.08c5,19.49,16,34,32.57,43.14,45.64,25.1,123.26,4.19,154.51-6,42.86-13.93,79.45-29.74,79.81-29.9A1.57,1.57,0,0,1,581.42,674.41Z"/>
        </g>
        <path d="M338.57,579.6,305,570.51c-4.22,36.55-25.31,86.82-25.31,86.82l33,8.92c.16-.23.33-.45.49-.69,18.59-28,25.82-85,25.82-85Z" style="fill: #0598c6"/>
        <g>
          <path d="M486.05,481.08s-37,5.15-43.38,28.22a14.18,14.18,0,0,0,16.87,17.56c6.53-1.51,15.24-4.89,26.51-11.75" style="fill: #ffcdb2"/>
          <path d="M456.29,528.74a15.69,15.69,0,0,1-15.06-19.83c6.55-23.75,43.06-29.1,44.61-29.32l.41,3c-.36.05-36.1,5.29-42.13,27.13a12.68,12.68,0,0,0,15.08,15.7c7.58-1.76,16.34-5.65,26.07-11.57l1.56,2.56c-10,6.09-19.06,10.1-26.95,11.93A15.78,15.78,0,0,1,456.29,528.74Z"/>
        </g>
        <circle cx="566.95" cy="550.86" r="8.76" style="fill: #51cef4"/>
        <ellipse cx="504.54" cy="608.46" rx="8.08" ry="8.76" style="fill: #51cef4"/>
        <circle cx="580.77" cy="641.86" r="8.76" style="fill: #51cef4"/>
        <ellipse cx="424.78" cy="682.18" rx="8.08" ry="8.76" style="fill: #51cef4"/>
        <ellipse cx="386.49" cy="600.39" rx="8.08" ry="8.76" style="fill: #51cef4"/>
        <circle cx="707.48" cy="545.1" r="8.76" style="fill: #51cef4"/>
        <circle cx="829.58" cy="609.61" r="8.76" style="fill: #51cef4"/>
        <circle cx="732.82" cy="757.05" r="8.76" style="fill: #51cef4"/>
        <circle cx="829.58" cy="814.64" r="8.76" style="fill: #51cef4"/>
        <circle cx="645.28" cy="851.5" r="8.76" style="fill: #51cef4"/>
        <circle cx="713.24" cy="649.92" r="8.76" style="fill: #51cef4"/>
        <path d="M192.16,657.93c-39.87,0-64.78-19.78-78.83-36.79a119.4,119.4,0,0,1-21.69-39.28,1.5,1.5,0,1,1,2.88-.82,119.1,119.1,0,0,0,21.19,38.27c20.67,25,48.13,36.94,81.53,35.52a1.5,1.5,0,1,1,.13,3C195.61,657.9,193.87,657.93,192.16,657.93Z"/>
        <path d="M580.9,677.41a1.5,1.5,0,0,1-.41-2.94c.35-.11,36-10.47,65.63-19.58a1.5,1.5,0,1,1,.88,2.87c-29.61,9.11-65.32,19.48-65.68,19.59A1.52,1.52,0,0,1,580.9,677.41Z"/>
        <path d="M540,457.5a1.5,1.5,0,0,1-1.46-1.14c-15.61-62.45-107-90.65-108-90.92a1.5,1.5,0,0,1,.86-2.88,248.14,248.14,0,0,1,48.84,22.15c23.28,13.83,52.79,37.36,61.19,70.93a1.51,1.51,0,0,1-1.1,1.82A1.47,1.47,0,0,1,540,457.5Z"/>
        <g>
          <g>
            <g>
              <path d="M472.91,78.76l130.32,22.55C620.18,104.25,631.78,118,630,133l-6.09,50.37c-1.8,14.85-16.14,26.12-33.23,26.12H580.19l-22.76,32.66-24.2-32.66H472.49c-17.52,0-32.06-11.81-33.33-27.07l-6.07-72.93C431.49,90.29,451.27,75,472.91,78.76Z" style="fill: #07acee"/>
              <path d="M557.43,243.66a1.48,1.48,0,0,1-1.21-.61L532.48,211h-60c-18.2,0-33.49-12.49-34.82-28.44l-6.07-72.93c-.74-8.8,2.68-17.13,9.61-23.48,8.28-7.58,20.22-10.9,32-8.87L603.48,99.83c17.87,3.1,29.9,17.43,28,33.36l-6.09,50.37C623.46,199.2,608.54,211,590.64,211H581l-22.31,32a1.51,1.51,0,0,1-1.21.64Zm-91.08-164a34.24,34.24,0,0,0-23.12,8.67c-6.23,5.7-9.3,13.16-8.64,21l6.07,72.93c1.2,14.4,15.18,25.69,31.83,25.69h60.74a1.51,1.51,0,0,1,1.21.61l22.95,31,21.57-31a1.5,1.5,0,0,1,1.23-.64h10.45c16.38,0,30-10.66,31.74-24.8l6.09-50.37c1.73-14.31-9.23-27.23-25.5-30L472.65,80.24A36.3,36.3,0,0,0,466.35,79.7Z"/>
            </g>
            <path d="M573.73,148.85h-.1l-98.76-3.35a3,3,0,0,1,.21-6l98.75,3.34a3,3,0,0,1-.1,6Z" style="fill: #fff"/>
            <path d="M569.89,174h-.14l-70-3.35a3,3,0,0,1,.28-6L570,168a3,3,0,0,1-.14,6Z" style="fill: #fff"/>
            <path d="M581.85,114.56a145.16,145.16,0,0,1-26.61-2.41,1.49,1.49,0,1,1,.54-2.94C631,123.15,699.64,70.67,700.32,70.13a1.52,1.52,0,0,1,2.11.27,1.5,1.5,0,0,1-.27,2.1c-.17.14-17.71,13.65-44.43,25.21C638.62,106,611.63,114.56,581.85,114.56Z"/>
            <path d="M616.43,165.86a79.77,79.77,0,0,1-25.93-4.35,1.5,1.5,0,0,1,1-2.84c42.75,14.61,76.82-13.67,77.16-14a1.5,1.5,0,1,1,1.94,2.29C670.29,147.23,647.91,165.86,616.43,165.86Z"/>
          </g>
          <path d="M442.76,122.14a2.5,2.5,0,0,1-2.49-2.3l-.79-10.15a25.28,25.28,0,0,1,30.16-26.76l9.85,2a2.5,2.5,0,0,1-1,4.9l-9.85-2a20.29,20.29,0,0,0-24.2,21.47l.8,10.15a2.51,2.51,0,0,1-2.3,2.69Z" style="fill: #fff"/>
        </g>
        <g>
          <ellipse cx="718.12" cy="420.63" rx="5.39" ry="5.9" style="fill: #07acee"/>
          <path d="M718.12,414.73a5,5,0,0,1,2.9.93,6.23,6.23,0,0,1,1.64,8.14,5.28,5.28,0,0,1-4.55,2.73,5,5,0,0,1-2.89-.93,6.22,6.22,0,0,1-1.64-8.14,5.25,5.25,0,0,1,4.54-2.73m0-2.73a7.71,7.71,0,0,0-6.65,4,9.13,9.13,0,0,0,2.4,11.91,7.37,7.37,0,0,0,4.24,1.36,7.7,7.7,0,0,0,6.65-4,9.13,9.13,0,0,0-2.4-11.91,7.37,7.37,0,0,0-4.24-1.36Z"/>
        </g>
        <polygon points="891.91 657.48 891.91 467.42 994.43 560.72 965.63 656.33 891.91 657.48" style="fill: #fff"/>
        <polygon points="891.91 657.48 891.91 467.42 994.43 560.72 965.63 656.33 891.91 657.48" style="fill: #fff"/>
        <polygon points="891.91 657.48 891.91 467.42 994.43 560.72 965.63 656.33 891.91 657.48" style="fill: #fff"/>
        <path d="M410.64,716.76c-19.19,0-33.93-2.92-44.66-6.38-23.67-7.64-33.5-19.3-33.91-19.79a2.5,2.5,0,0,1,3.85-3.19c.12.15,9.59,11.22,32,18.36,20.84,6.63,57.43,11.11,113.36-5.16a2.5,2.5,0,0,1,1.4,4.8C453.86,713.79,430,716.76,410.64,716.76Z" style="fill: #fff"/>
        <path d="M285,562.5a2.5,2.5,0,0,1-2-1c-26-35.59-59.71-37-60.05-37a2.5,2.5,0,0,1,.07-5h.07c1.48,0,36.54,1.47,63.95,39a2.5,2.5,0,0,1-2,4Z" style="fill: #fff"/>
        <path d="M527.5,505a2.5,2.5,0,0,1-2.39-1.77c-14.5-47.35-62.23-71.25-62.71-71.49a2.5,2.5,0,0,1,2.2-4.49c2,1,50.15,25.05,65.29,74.52a2.5,2.5,0,0,1-1.66,3.12A2.31,2.31,0,0,1,527.5,505Z" style="fill: #fff"/>
        <path d="M581,524.5a2.5,2.5,0,0,1-1.16-4.72c3.79-2,93.42-48.27,152.54-39.25a2.5,2.5,0,0,1-.76,4.94c-57.49-8.77-148.55,38.27-149.46,38.75A2.54,2.54,0,0,1,581,524.5Z" style="fill: #fff"/>
        <path d="M786.5,511a2.48,2.48,0,0,1-1.72-.69C765.55,492,749.23,489,749.07,489a2.5,2.5,0,1,1,.86-4.92c.73.13,18,3.35,38.29,22.65A2.5,2.5,0,0,1,786.5,511Z" style="fill: #fff"/>
        <path d="M798.5,303a2.49,2.49,0,0,1-2.49-2.32c-1-13-5-22.49-12-28.12-9-7.17-20-5.61-20.08-5.59a2.5,2.5,0,0,1-.77-4.94c.54-.08,13.19-1.94,23.91,6.58,8.21,6.52,12.91,17.19,14,31.71a2.5,2.5,0,0,1-2.31,2.67Z" style="fill: #fff"/>
        <path d="M725.5,375a2.48,2.48,0,0,1-.54-.06c-28.69-6.37-28-41.17-28-41.52a2.5,2.5,0,0,1,2.5-2.42h.08a2.49,2.49,0,0,1,2.42,2.57c0,1.28-.58,31,24,36.49a2.5,2.5,0,0,1-.54,4.94Z" style="fill: #fff"/>
      </g>
    </g>
  </g>
</svg>
