<svg xmlns="http://www.w3.org/2000/svg" width="1000" height="1000" viewBox="0 0 1000 1000">
  <g id="e31610fe-4df3-4492-b00d-d466af6c52d8" data-name="illustration">
    <g id="f81a0079-86ee-49e9-bae1-a4e7e3724996" data-name="goods">
      <g id="a4f3c848-3a31-4255-89c6-f4d761ea847c" data-name="line">
        <path d="M924.41,853.17H184.6a2,2,0,0,1,0-4H924.41a2,2,0,0,1,0,4Z" style="fill: #1d1d1b"/>
        <path d="M981.16,891H867.66a2,2,0,1,1,0-4h113.5a2,2,0,0,1,0,4Z" style="fill: #1d1d1b"/>
        <path d="M241.34,817.44H127.85a2,2,0,0,1,0-4H241.34a2,2,0,0,1,0,4Z" style="fill: #1d1d1b"/>
      </g>
      <g id="a51777c3-5155-4509-a092-9f27d2056a21" data-name="woman">
        <g>
          <path d="M876.07,851.69V256.92A53.09,53.09,0,0,0,823,203.83H513a53.09,53.09,0,0,0-53.09,53.09V851.69Z" style="fill: #4bd657"/>
          <path d="M877.57,853.19H458.42V256.92A54.65,54.65,0,0,1,513,202.33H823a54.65,54.65,0,0,1,54.59,54.59Zm-416.15-3H874.57V256.92A51.65,51.65,0,0,0,823,205.33H513a51.66,51.66,0,0,0-51.59,51.59Z" style="fill: #1d1e1b"/>
        </g>
        <g>
          <path d="M860.89,851.69a49.38,49.38,0,0,0,.47-6.7V278.32a49.27,49.27,0,0,0-49.27-49.27H756.26c0,.18,0,.35,0,.53a25.75,25.75,0,0,1-25.75,25.75H607.57a25.75,25.75,0,0,1-25.75-25.75c0-.18,0-.35,0-.53H523.9a49.26,49.26,0,0,0-49.26,49.27V845a49.38,49.38,0,0,0,.46,6.7Z" style="fill: #fff"/>
          <path d="M862.2,853.19H473.79l-.17-1.29a51.37,51.37,0,0,1-.48-6.91V278.32a50.83,50.83,0,0,1,50.77-50.77h59.45l0,2a24.27,24.27,0,0,0,24.24,24.25H730.52a24.28,24.28,0,0,0,24.25-24.25l0-2h57.36a50.83,50.83,0,0,1,50.77,50.77V845a53,53,0,0,1-.48,6.91Zm-385.77-3H859.56a46.26,46.26,0,0,0,.3-5.2V278.32a47.82,47.82,0,0,0-47.77-47.77H757.75a27.28,27.28,0,0,1-27.23,26.28H607.57a27.28,27.28,0,0,1-27.23-26.28H523.91a47.82,47.82,0,0,0-47.77,47.77V845A46.21,46.21,0,0,0,476.43,850.19Z" style="fill: #1d1e1b"/>
        </g>
        <g>
          <path d="M687.49,850.64H859.85a50.29,50.29,0,0,0,.46-6.65V637.5c-13.43-13.13-50.25-40.56-128.87-48-104.5-9.92-143.12,54-123.81,108C607.63,697.52,651.26,788.18,687.49,850.64Z" style="fill: #382256"/>
          <path d="M861.17,852.14H686.63l-.43-.74c-35.85-61.8-79.48-152.32-79.92-153.23l-.06-.15c-9.31-26-5.33-52.95,10.91-73.84,22-28.26,62.63-41.11,114.45-36.19,80.22,7.61,117.48,36.41,129.77,48.44l.45.44V844a52.08,52.08,0,0,1-.46,6.85Zm-172.81-3H858.52a47.86,47.86,0,0,0,.28-5.15V638.14c-12.51-12.06-49.2-39.73-127.5-47.17-50.77-4.82-90.47,7.63-111.8,35-15.58,20-19.4,45.89-10.48,70.92C610.46,699.93,653.08,788.21,688.36,849.14Z" style="fill: #1d1e1b"/>
        </g>
        <g>
          <path d="M475.71,491.82C505,446,638.37,370.4,696,382.08S820.24,474.3,820.24,474.3,773.65,511.11,786.35,535c12.48,23.49,23,43.46,31.39,75,0,0-144.35,128.15-181.63,144.5,0,0-87-37.36-110.7-128.42,0,0-39.54,77.14-74,87s-124.82-31-105.62-59l-19.2-12.84,20.33-54.87,16.94,3.5s0-25.68,18.08-22.18,50.83,14,50.83,14S431.65,560.69,475.71,491.82Z" style="fill: #07acee"/>
          <path d="M636.11,756a1.52,1.52,0,0,1-.59-.12c-.22-.1-22.23-9.67-46.83-30.29-22.12-18.55-50.83-50-63.73-95.44-8.17,15.22-42.21,75.53-73.13,84.39a46.14,46.14,0,0,1-12.57,1.53c-30,0-77.66-19.83-92.74-40.76-5.35-7.42-6.29-14.57-2.76-20.77l-18-12a1.5,1.5,0,0,1-.57-1.76l20.33-54.87a1.49,1.49,0,0,1,1.71-1l15.22,3.14c.27-4.13,1.55-14.14,7.68-19.19,3.24-2.68,7.31-3.56,12.1-2.63,15.5,3,42,11.21,49.17,13.47.77-6.81,6.21-31.11,43-88.69,14.31-22.37,53.59-52.57,100.08-76.94,50.09-26.25,95.61-38.76,121.76-33.46,57.47,11.64,124.44,91.93,125.11,92.74a1.49,1.49,0,0,1-.22,2.13c-.46.36-45.46,36.3-33.5,58.83,12.33,23.2,23,43.24,31.52,75.3a1.48,1.48,0,0,1-.45,1.51c-5.9,5.23-145,128.49-182,144.74A1.38,1.38,0,0,1,636.11,756ZM525.41,624.57h.16a1.51,1.51,0,0,1,1.29,1.11c12.14,46.62,41.33,78.77,63.68,97.52,22,18.49,41.93,28,45.57,29.64,36.21-16.54,169.1-133.77,179.95-143.36-8.43-31.21-18.91-51-31-73.78s25.58-55.44,33.07-61.61c-8.44-9.9-69.74-79.88-122.42-90.55-25.49-5.17-70.26,7.23-119.76,33.18C529.86,440.87,491,470.66,477,492.62l-1.26-.8,1.26.8c-43,67.25-42.7,88.81-42.69,89a1.51,1.51,0,0,1-.59,1.26,1.56,1.56,0,0,1-1.37.24c-.32-.11-32.88-10.52-50.66-14-3.92-.76-7.07-.1-9.62,2-6.59,5.44-6.67,18.58-6.67,18.71a1.5,1.5,0,0,1-1.8,1.47l-15.68-3.24-19.47,52.55,18.21,12.18a1.45,1.45,0,0,1,.64,1,1.51,1.51,0,0,1-.23,1.13c-3.72,5.42-3.08,11.69,1.91,18.61C365.88,697,425,719.11,451,711.65c33.43-9.59,72.67-85.5,73.06-86.26A1.5,1.5,0,0,1,525.41,624.57Z" style="fill: #1d1d1b"/>
        </g>
        <g>
          <path d="M817.58,358.48s-12.8-73.88,39.57-96.85l3.16,32.58s7.88-17.34,18.39-17.34,15.76,12.88,1.57,28.9-1.57,28.9-7.88,39.41S860.31,372,860.31,372Z" style="fill: #ffcdb2"/>
          <path d="M857.15,261.63l3.15,32.58s7.89-17.34,18.4-17.34,15.76,12.88,1.57,28.9-1.57,28.9-7.88,39.41S860.3,372,860.3,372l-42.72-13.49s-12.8-73.88,39.57-96.85m2.59-4.41L856,258.88c-22.4,9.83-36.64,30.34-41.19,59.33a137.84,137.84,0,0,0-.13,40.78l.31,1.8,1.74.55,42.72,13.49,2.76.88,1-2.73c.06-.16,5.76-16.14,11.83-26.26,3.1-5.16,2.43-10.65,1.79-16-.86-7.13-1.76-14.51,5.77-23,8.32-9.4,11.36-19.3,8.13-26.48a12.66,12.66,0,0,0-11.95-7.41c-7,0-12.59,5.65-16.3,10.83l-2.26-23.36-.4-4.12Z" style="fill: #1d1d1b"/>
        </g>
        <g>
          <path d="M783.07,529.08c67.25,38.88,95.49-91.29,95.3-113.79s-15.26-24.68-15.26-24.68l3.13-17.13-52.75-17.4L809,367.16s-22.4,1.64-28.2,22.3-8.28,27.17-11.44,41.89" style="fill: #07acee"/>
          <path d="M807.09,537.78c-8,0-16.24-2.47-24.77-7.4a1.5,1.5,0,0,1,1.5-2.6c14.93,8.64,29,9.26,41.69,1.84,19.18-11.17,31.84-38.05,39.08-58.62,8.49-24.13,12.35-47.5,12.28-55.7-.17-20.84-13.42-23.12-14-23.21a1.52,1.52,0,0,1-1-.61,1.49,1.49,0,0,1-.25-1.14l2.89-15.85-50.17-16.55-3.93,9.77a1.48,1.48,0,0,1-1.28.94c-.87.07-21.43,1.84-26.87,21.21-1.88,6.7-3.4,11.85-4.73,16.4-2.75,9.34-4.56,15.51-6.68,25.4a1.5,1.5,0,1,1-2.93-.63c2.14-10,4-16.21,6.73-25.61,1.33-4.54,2.85-9.69,4.72-16.37,5.32-18.93,24.13-22.66,28.59-23.28l4.12-10.25a1.51,1.51,0,0,1,1.86-.87l52.75,17.4a1.5,1.5,0,0,1,1,1.7l-2.88,15.76c4,1.3,14.87,6.57,15,25.77C880,432.86,864,510.7,827,532.22A39.09,39.09,0,0,1,807.09,537.78Z" style="fill: #1d1d1b"/>
        </g>
        <path d="M862.25,390.78a11.47,11.47,0,0,1,2.43.73c-13.09,3.4-43.11,7.32-55.53-23.31.53-.07.84-.09.84-.09l4.3-10.71,51,16.82Z" style="fill: #0598c6"/>
        <path d="M380,364.52h-.18c-.38,0-38.89-3.6-85.49-27a287.63,287.63,0,0,1-73.67-52.86c-26.9-26.66-48.75-59-64.95-96.06a2,2,0,0,1,3.67-1.6c36.17,82.82,94.24,125.58,136.59,146.87,45.94,23.09,83.82,26.62,84.2,26.66a2,2,0,0,1-.17,4Z" style="fill: #1d1d1b"/>
        <g>
          <path d="M507.6,334s-18.29,25.37-33.7,8.25-48-54.05-76.14-32.83-28.63,28.63-49.45,15.14-97.59,29.88-51.79,82.19c75.05,85.72,246.1-16.07,246.1-16.07l-7.79-24.88Z" style="fill: #382256"/>
          <path d="M381.56,442.59q-7.77,0-15.07-.69c-29.8-2.81-53.72-14.31-71.1-34.16-18.54-21.16-19.51-44.47-2.66-63.94,15.66-18.1,44.12-28.44,56.4-20.49,16,10.37,18.83,8.08,34.5-4.64,3.73-3,7.95-6.45,13.23-10.44,28.85-21.77,61.76,14.8,77.57,32.37l.59.66c3.44,3.82,7.3,5.65,11.45,5.41,10.44-.56,19.82-13.41,19.92-13.54l1.11-1.55,28.67,33.49,8.23,26.3-1,.61c-.42.25-43.53,25.71-95.26,40.33C423.92,439.15,401.6,442.59,381.56,442.59Zm-43.24-119c-12.48,0-31.13,8-43.32,22.13-9.26,10.7-21.24,32.73,2.64,60,38.26,43.69,102.5,37,149.66,23.65,47-13.26,86.73-35.51,93.53-39.43l-7.34-23.44-25.83-30.17c-3,3.67-11.37,12.77-21,13.29-5.11.28-9.77-1.88-13.84-6.4l-.59-.66c-15.21-16.91-46.87-52.1-73.54-32-5.23,3.95-9.43,7.36-13.14,10.37-15.91,12.92-20.19,16.39-38,4.83A17,17,0,0,0,338.32,323.63Z"/>
        </g>
        <path d="M355.14,438.83c79.71-63.13,170.93-59,170.93-59a38.57,38.57,0,0,1,7.6,15.81C506.5,410.26,422.6,451.06,355.14,438.83Z" style="fill: #050505"/>
        <g>
          <circle cx="567.12" cy="262.11" r="29.25" style="fill: #382256"/>
          <path d="M565,232.94a29.24,29.24,0,1,1-15.33,5.73A29.23,29.23,0,0,1,565,232.94m-.16-2.22a31.47,31.47,0,1,0,27.54,12.56,31.41,31.41,0,0,0-27.54-12.56Z"/>
        </g>
        <g>
          <path d="M502.46,365.82S479.37,352,484.73,332.48s10.32-18.76,12.47-29.22S515.15,279.9,532,281.71c0,0,17.24-18.4,36-16.94s26.57,8.92,34.17,22.05,13.79,18.46,19.44,27.51,16.37,35.39-18.23,62.31S502.46,365.82,502.46,365.82Z" style="fill: #382256"/>
          <path d="M571.15,387.78a114.44,114.44,0,0,1-31.62-5,198.32,198.32,0,0,1-37.81-15.64l0,0c-1-.59-24-14.67-18.41-35,3-11,6-15.74,8.31-19.53a25.76,25.76,0,0,0,4.14-9.6c2.39-11.64,18.73-24.23,35.68-22.81,3.1-3.14,19-18.27,36.71-16.88,19.41,1.51,27.66,9.5,35.35,22.8a130.76,130.76,0,0,0,11.8,17,115.34,115.34,0,0,1,7.61,10.49c4.91,7.87,18.09,35.75-18.58,64.29C595.78,384.45,584.57,387.78,571.15,387.78Zm-67.93-23.25c1.36.76,66,36.77,99.24,10.93,34.69-27,22.45-53,17.88-60.33a113.53,113.53,0,0,0-7.43-10.22,137.62,137.62,0,0,1-12-17.34c-7.36-12.73-14.8-19.9-33-21.31-17.85-1.37-34.64,16.3-34.81,16.47l-.51.55-.75-.08c-16.45-1.77-31.22,10.94-33.15,20.36a28.57,28.57,0,0,1-4.53,10.58c-2.25,3.63-5.05,8.14-8,18.74C481.23,350.88,502.58,364.13,503.22,364.53Z"/>
        </g>
        <path d="M570.06,333.89h.1c12.9-2.12,23.21-16.76,23.64-17.38a1.11,1.11,0,1,0-1.82-1.26c-.1.14-10.21,14.49-22.18,16.45a1.11,1.11,0,0,0,.26,2.2Z"/>
        <g>
          <path d="M558.26,418.14s-13.54,15.24,5.49,23.46,29.16-7.6,29.16-7.6,60.9,6.8,29.37-37.33Z" style="fill: #fff"/>
          <path d="M574.32,445.46A28.09,28.09,0,0,1,563.16,443c-6.14-2.65-9.76-6.32-10.78-10.9-1.68-7.58,4.49-14.64,4.76-14.94l.26-.29.38-.13,65.08-21.83.64.91c9,12.62,11.52,22.56,7.42,29.53-7.19,12.26-32.19,10.7-37.3,10.24C591.74,438,585.13,445.46,574.32,445.46Zm-15.18-26c-1,1.29-5,6.69-3.83,12,.8,3.58,3.84,6.54,9,8.78,17.58,7.6,26.91-6.43,27.3-7l.51-.77.92.09c.28,0,28.39,3,35.26-8.69,3.35-5.7,1.11-14.24-6.64-25.36Z" style="fill: #1d1d1b"/>
        </g>
        <g>
          <path d="M569.72,325.49a33.31,33.31,0,0,0,8.64-1.87,1.11,1.11,0,0,0-.74-2.09c-24.13,8.54-36.21-15.34-36.71-16.36a1.11,1.11,0,0,0-1.49-.51,1.1,1.1,0,0,0-.5,1.48C539,306.38,549.41,327,569.72,325.49Z" style="fill: #fff"/>
          <path d="M567.63,326.07c-19.25,0-29.06-19.5-29.16-19.71a1.61,1.61,0,1,1,2.89-1.41c.49,1,12.4,24.51,36.09,16.11a1.59,1.59,0,0,1,2,1,1.6,1.6,0,0,1-1,2,33.69,33.69,0,0,1-8.77,1.9h0C569,326,568.32,326.07,567.63,326.07Zm-27.72-21a.66.66,0,0,0-.27.06.61.61,0,0,0-.28.81c.1.21,10.33,20.56,30.32,19.07h0a32.6,32.6,0,0,0,8.51-1.84.62.62,0,0,0,.37-.78.67.67,0,0,0-.31-.35.59.59,0,0,0-.47,0c-24.52,8.69-36.81-15.58-37.32-16.61A.6.6,0,0,0,539.91,305.05Z" style="fill: #fff"/>
        </g>
        <g>
          <path d="M585.84,252.62a1.08,1.08,0,0,0,.51-.18,1.1,1.1,0,0,0,.34-1.53c-4.07-6.38-9.06-10.1-14.85-11-9.36-1.53-17.28,4.77-17.61,5a1.11,1.11,0,0,0,1.39,1.73c.08-.06,7.51-5.95,15.88-4.58,5.13.85,9.61,4.22,13.32,10.05A1.15,1.15,0,0,0,585.84,252.62Z" style="fill: #fff"/>
          <path d="M585.76,253.12a1.62,1.62,0,0,1-1.36-.74c-3.63-5.7-8-9-13-9.82C563.31,241.23,556,247,555.93,247a1.61,1.61,0,0,1-2-2.51c.34-.27,8.45-6.71,18-5.14,5.92,1,11,4.76,15.18,11.26a1.61,1.61,0,0,1-.49,2.23,1.62,1.62,0,0,1-.74.24Zm-16.83-11.76a16,16,0,0,1,2.65.21c5.28.87,9.87,4.32,13.66,10.27a.62.62,0,0,0,.56.28h0a.64.64,0,0,0,.55-.48.58.58,0,0,0-.08-.46c-4-6.26-8.87-9.9-14.51-10.82-9.12-1.48-16.89,4.68-17.22,4.94a.61.61,0,0,0,.77.95C555.38,246.19,561.5,241.36,568.93,241.36Z" style="fill: #fff"/>
        </g>
        <g>
          <path d="M563.64,401.37l-4,16s34.78,30.23,56.84-20.22c0,0-13.83-9-26.35-40.56,0,0,14-4.93,10.14-17.52s-14.51-13.51-20.19-9.26c0,0-21.85,19.63-52.41-27.23,0,0-24.14,13.59-26.14,40.53s7,56.74,28.23,63S563.64,401.37,563.64,401.37Z" style="fill: #ffcdb2"/>
          <path d="M527.69,302.62c16.63,25.49,30.68,31.31,40,31.31a19.5,19.5,0,0,0,12.38-4.08,11.8,11.8,0,0,1,7-2.29c5.08,0,10.6,3.22,13.16,11.54,3.87,12.6-10.14,17.53-10.14,17.53,12.52,31.58,26.35,40.56,26.35,40.56-10,22.95-22.7,29.2-33.53,29.2-13,0-23.31-9-23.31-9l4-16s-7.65,6.69-21.08,6.69a45.17,45.17,0,0,1-12.78-1.92c-21.26-6.25-30.24-36.05-28.23-63s26.14-40.53,26.14-40.53m1-4L526.21,300c-1,.59-25.55,14.71-27.66,42.93-1.07,14.48.91,28.9,5.6,40.59,5.42,13.51,14,22.32,24.78,25.5a48.5,48.5,0,0,0,13.63,2A39.89,39.89,0,0,0,559,407.62l-2.25,9.07-.45,1.78,1.39,1.21c.46.39,11.34,9.71,25.28,9.71a30.48,30.48,0,0,0,18.89-6.61c6.72-5.16,12.57-13.36,17.39-24.38l1-2.34-2.13-1.38c-.12-.08-12.51-8.56-24.13-36.5,5.64-3,12.31-9.67,9.14-20-2.63-8.55-8.62-13.66-16-13.66a14.81,14.81,0,0,0-8.83,2.88l-.11.08-.1.09a16.51,16.51,0,0,1-10.37,3.32c-8.2,0-21.37-5.2-37.52-29.95l-1.54-2.36Z" style="fill: #1d1d1b"/>
        </g>
        <path d="M563.42,403.66a1.05,1.05,0,0,0,.35-.08c11.52-4.8,19.16-17.85,19.48-18.4a1.11,1.11,0,1,0-1.92-1.11c-.08.13-7.6,12.95-18.41,17.46a1.11,1.11,0,0,0,.5,2.13Z"/>
        <path d="M589.36,350.65a1.11,1.11,0,0,0,.93-.66c2.28-5.15,2.46-9.19.54-12-2.76-4.08-8.76-3.91-9-3.9a1.1,1.1,0,0,0-1.07,1.15,1.11,1.11,0,0,0,1.15,1.07c.08,0,5-.12,7.1,2.93,1.46,2.16,1.21,5.49-.74,9.88a1.1,1.1,0,0,0,.57,1.46A1.09,1.09,0,0,0,589.36,350.65Z"/>
        <path d="M531.68,341.89c15.07,0,33.17-10.39,37.59-5.95s3.35,11.88-4.11,15.23-15.25,4.76-31.38,6.85-32.09,3-32.08-5.91S509.52,341.84,531.68,341.89Z" style="fill: #ffb49f"/>
        <path d="M513,336.06a1.14,1.14,0,0,0,.82-.45h0c0-.06,4-5.32,9.38-5.31a1.11,1.11,0,1,0,0-2.21c-6.54,0-11,6-11.17,6.2a1.12,1.12,0,0,0,1,1.77Z"/>
        <path d="M532.12,368.92a1.12,1.12,0,0,0,1-1l3.18-24.15a1.11,1.11,0,0,0-2.2-.29l-3.18,24.15a1.1,1.1,0,0,0,.95,1.24Z"/>
        <g>
          <circle cx="595.98" cy="355.42" r="4.79" style="fill: #07acee"/>
          <path d="M595.62,350.64a4.79,4.79,0,0,1,3.22,8.61,4.7,4.7,0,0,1-2.51.94,4.79,4.79,0,0,1-3.22-8.61,4.87,4.87,0,0,1,2.51-.94m-.16-2.21a7,7,0,0,0,1,14,7,7,0,0,0,5.1-11.18,7,7,0,0,0-6.13-2.8Z"/>
        </g>
        <path d="M540.48,327.45a1.1,1.1,0,0,0,.77-.4h0c.66-.81,2.91-3,4.54-2.55a1.12,1.12,0,0,0,1.36-.79,1.11,1.11,0,0,0-.78-1.36c-3.3-.88-6.48,2.86-6.83,3.29a1.11,1.11,0,0,0,.94,1.81Z"/>
        <path d="M325.8,393.06c-8.13,0-29.07-.85-56-8.32a237.73,237.73,0,0,1-116.15-73.58,2,2,0,0,1,3-2.62,233.65,233.65,0,0,0,114.05,72.3c33.5,9.33,58.25,8.17,58.49,8.16a2,2,0,1,1,.21,4C329.22,393,328,393.06,325.8,393.06Z" style="fill: #1d1d1b"/>
        <path d="M808.29,852.14a1.53,1.53,0,0,1-1.1-.47c-.3-.33-30.43-32.81-51.29-79.22l-36.69,6.11a1.5,1.5,0,1,1-.49-3l37.83-6.3a1.51,1.51,0,0,1,1.62.87c20.66,46.49,50.91,79.12,51.21,79.45a1.49,1.49,0,0,1-1.09,2.52Z" style="fill: #1d1d1b"/>
        <circle cx="695.44" cy="570.4" r="5.7" style="fill: #51cef4"/>
        <circle cx="553.57" cy="561.99" r="5.7" style="fill: #51cef4"/>
        <circle cx="583" cy="663.93" r="5.7" style="fill: #51cef4"/>
        <circle cx="618.73" cy="610.33" r="5.7" style="fill: #51cef4"/>
        <circle cx="653.4" cy="702.81" r="5.7" style="fill: #51cef4"/>
        <circle cx="766.9" cy="610.33" r="5.7" style="fill: #51cef4"/>
        <circle cx="700.69" cy="651.32" r="5.7" style="fill: #51cef4"/>
        <circle cx="678.63" cy="476.87" r="5.7" style="fill: #51cef4"/>
        <circle cx="641.84" cy="532.57" r="5.7" style="fill: #51cef4"/>
        <circle cx="533.61" cy="487.38" r="5.7" style="fill: #51cef4"/>
        <circle cx="468.45" cy="651.32" r="5.7" style="fill: #51cef4"/>
        <circle cx="401.2" cy="610.33" r="5.7" style="fill: #51cef4"/>
        <circle cx="383.33" cy="656.57" r="5.7" style="fill: #51cef4"/>
        <circle cx="815.24" cy="498.94" r="5.7" style="fill: #51cef4"/>
        <circle cx="817.34" cy="443.24" r="5.7" style="fill: #51cef4"/>
        <circle cx="683.88" cy="415.92" r="5.7" style="fill: #51cef4"/>
        <path d="M329.09,640.47,348,587.93l16.81,3.15s10.51,33.63-17.86,62Z" style="fill: #0598c6"/>
        <g>
          <path d="M852.42,320s-1-8.4,9.46-31.52" style="fill: #ffcdb2"/>
          <path d="M852.42,321.45a1.48,1.48,0,0,1-1.48-1.31c-.05-.36-1-9.09,9.58-32.33a1.5,1.5,0,1,1,2.73,1.24c-10.1,22.22-9.34,30.65-9.34,30.73a1.51,1.51,0,0,1-1.31,1.66Z" style="fill: #1d1d1b"/>
        </g>
        <g>
          <path d="M345.6,586.36s-21.46-88.76-57.2-48.73l-43.09-14.77S223.79,537.5,253.23,560c0,0-6.71,15.59,1,29.23,0,0-11.61,15,10,30.95,23.43,17.26,63.24,18.9,63.24,18.9Z" style="fill: #ffcdb2"/>
          <path d="M328.55,640.59l-1.12-.05c-1.64-.06-40.54-1.85-64.07-19.18-8-5.91-12.59-12.41-13.56-19.33a19.64,19.64,0,0,1,2.67-12.91c-6.26-12-2.42-24.84-1-28.65-10.3-8.09-15.42-16.16-15.2-24,.25-9.3,7.91-14.61,8.24-14.84l.62-.42L288,535.89c7.64-8.26,15.33-11.5,22.86-9.61,22.94,5.76,35.7,57.53,36.24,59.73l.1.42-.14.42Zm-83-116.05c-1.63,1.34-6.2,5.63-6.36,12-.18,7,4.84,14.52,14.91,22.21l.93.71-.46,1.07c-.06.15-6.32,15.09.92,27.9l.49.87-.61.79a16.59,16.59,0,0,0-2.63,11.55c.87,6.07,5,11.88,12.36,17.28,20.64,15.19,54.74,18.11,61.31,18.53L344,586.29c-1.27-5-13.78-52-34-57.1-6.58-1.65-13.5,1.53-20.57,9.44l-.66.75Z" style="fill: #1d1d1b"/>
        </g>
        <g>
          <path d="M268.34,623.8c11.58,6.17,30.2-.18,25.77-12.22-3.68-10-10-12.08-10-12.08s22.07,0,15.77-18.92-45.19-21-45.19-21" style="fill: #ffcdb2"/>
          <path d="M278.55,627.69a23.46,23.46,0,0,1-10.92-2.57,1.5,1.5,0,0,1,1.41-2.64c7.25,3.86,16.92,2.27,21.41-1.64a7.47,7.47,0,0,0,2.25-8.74c-3.39-9.2-9-11.16-9.05-11.18a1.5,1.5,0,0,1,.47-2.92c.1,0,9.77-.09,13.72-5.57,2-2.78,2.21-6.61.62-11.37-5.91-17.73-43.46-20-43.84-20a1.5,1.5,0,1,1,.16-3c1.63.08,40,2.38,46.53,22,1.91,5.73,1.56,10.47-1,14.08-2.92,4-8,5.69-11.69,6.35a24.7,24.7,0,0,1,6.93,10.52,10.37,10.37,0,0,1-3.09,12C289,626.11,283.78,627.69,278.55,627.69Z" style="fill: #1d1d1b"/>
        </g>
        <g>
          <line x1="254.17" y1="589.51" x2="286.29" y2="599.35" style="fill: #ffcdb2"/>
          <path d="M286.29,600.85a1.61,1.61,0,0,1-.44-.06L253.73,591a1.5,1.5,0,0,1,.88-2.87l32.12,9.84a1.5,1.5,0,0,1-.44,2.93Z" style="fill: #1d1d1b"/>
        </g>
        <g>
          <path d="M288.35,537.66s-22.09,17.7-13.69,31.36,43.09-13.66,43.09-13.66" style="fill: #ffcdb2"/>
          <path d="M282.33,574.34a13.44,13.44,0,0,1-2.41-.2,9.21,9.21,0,0,1-6.53-4.33c-9-14.62,13.08-32.57,14-33.32a1.5,1.5,0,0,1,1.88,2.34c-.21.17-21,17-13.35,29.41a6.28,6.28,0,0,0,4.51,3,11.54,11.54,0,0,0,2,.16c12.43,0,34.15-17,34.38-17.17a1.5,1.5,0,1,1,1.86,2.36C317.7,557.31,295.92,574.34,282.33,574.34Z" style="fill: #1d1d1b"/>
        </g>
        <g>
          <rect x="504.59" y="759.22" width="192.31" height="73.56" rx="24.46" style="fill: #4bd657"/>
          <path d="M672.43,834.28H529.05a26,26,0,0,1-26-26V783.68a26,26,0,0,1,26-26H672.43a26,26,0,0,1,26,26v24.64A26,26,0,0,1,672.43,834.28ZM529.05,760.72a23,23,0,0,0-23,23v24.64a23,23,0,0,0,23,23H672.43a23,23,0,0,0,23-23V783.68a23,23,0,0,0-23-23Z" style="fill: #1d1d1b"/>
        </g>
        <g>
          <rect x="606.52" y="685.66" width="245.9" height="44.14" rx="21.43" style="fill: #fff"/>
          <path d="M831,731.29H628A23,23,0,0,1,605,708.37v-1.29A23,23,0,0,1,628,684.16H831a22.94,22.94,0,0,1,22.92,22.92v1.29A22.94,22.94,0,0,1,831,731.29ZM628,687.16A20,20,0,0,0,608,707.08v1.29A20,20,0,0,0,628,728.29H831a20,20,0,0,0,19.92-19.92v-1.29A20,20,0,0,0,831,687.16Z" style="fill: #1d1e1b"/>
        </g>
        <g>
          <rect x="606.52" y="625.76" width="245.9" height="44.14" rx="21.43" style="fill: #fff"/>
          <path d="M831,671.39H628A23,23,0,0,1,605,648.47v-1.29A23,23,0,0,1,628,624.26H831a22.94,22.94,0,0,1,22.92,22.92v1.29A22.94,22.94,0,0,1,831,671.39ZM628,627.26A20,20,0,0,0,608,647.18v1.29A20,20,0,0,0,628,668.39H831a20,20,0,0,0,19.92-19.92v-1.29A20,20,0,0,0,831,627.26Z" style="fill: #1d1e1b"/>
        </g>
        <path d="M733.15,224.7h0l-134.51-1a3,3,0,0,1,0-6h0l134.51,1a3,3,0,0,1,0,6Z" style="fill: #fff"/>
        <path d="M529.33,640.55a1.49,1.49,0,0,1-1.37-.89c-11-24.48-17.25-81.72-17.51-84.15a1.5,1.5,0,0,1,3-.32c.07.59,6.5,59.2,17.27,83.24a1.51,1.51,0,0,1-.76,2A1.67,1.67,0,0,1,529.33,640.55Z" style="fill: #1d1e1b"/>
        <g>
          <path d="M738.93,466s31.53,39.93,47.29,70.4" style="fill: #07acee"/>
          <path d="M786.22,537.93a1.48,1.48,0,0,1-1.33-.81c-15.52-30-46.82-69.77-47.14-70.16a1.5,1.5,0,0,1,2.36-1.86c.31.4,31.79,40.39,47.44,70.64a1.51,1.51,0,0,1-.64,2A1.55,1.55,0,0,1,786.22,537.93Z" style="fill: #1d1d1b"/>
        </g>
        <circle cx="515.62" cy="350.96" r="5.78" style="fill: #1d1d1b"/>
        <circle cx="553.98" cy="345.18" r="5.78" style="fill: #1d1d1b"/>
        <circle cx="516.15" cy="348.33" r="1.58" style="fill: #fff"/>
        <circle cx="518.77" cy="352.01" r="1.05" style="fill: #fff"/>
        <circle cx="552.93" cy="343.07" r="1.58" style="fill: #fff"/>
        <circle cx="555.55" cy="346.75" r="1.05" style="fill: #fff"/>
        <path d="M562.23,387.34a1.5,1.5,0,0,1-.69-2.83c2.71-1.42,3.33-6,3.3-9.63-7.72,7.62-21.44,6-22.08,5.94a1.5,1.5,0,1,1,.37-3c.16,0,15.92,1.85,21.65-7.69a1.49,1.49,0,0,1,2.76.55c.09.53,1.89,13.07-4.61,16.47A1.45,1.45,0,0,1,562.23,387.34Z"/>
        <path d="M909.17,254.2H909a1.49,1.49,0,0,1-1.35-1.63c2.87-30.22-4-53.46-20.41-69.05-31.36-29.79-87.66-21.89-88.22-21.8a1.51,1.51,0,0,1-1.7-1.27,1.49,1.49,0,0,1,1.26-1.7c.58-.09,58.29-8.21,90.72,22.59,17.13,16.26,24.3,40.32,21.33,71.51A1.49,1.49,0,0,1,909.17,254.2Z"/>
        <path d="M658.13,787.44H549.77a3,3,0,0,1,0-6H658.13a3,3,0,1,1,0,6Z" style="fill: #fff"/>
        <path d="M613.35,810H550.18a3,3,0,0,1,0-6h63.17a3,3,0,1,1,0,6Z" style="fill: #fff"/>
        <path d="M410.62,749.14c-44.54,0-70.33-17.78-84.18-32.84-15.28-16.6-19.6-33.13-19.78-33.83a2,2,0,0,1,3.88-1c0,.17,4.32,16.4,19,32.26,13.3,14.4,38.12,31.4,81.11,31.4h2a2,2,0,0,1,0,4Z" style="fill: #1d1d1b"/>
        <path d="M823.52,355a3,3,0,0,1-2.94-2.45c-7.51-39.68,13.28-69.36,14.16-70.6a3,3,0,0,1,4.89,3.48c-.23.32-20.17,28.94-13.16,66a3,3,0,0,1-2.39,3.5A2.67,2.67,0,0,1,823.52,355Z" style="fill: #fff"/>
        <path d="M453.62,575.69a3.34,3.34,0,0,1-.7-.08A3,3,0,0,1,450.7,572c11-45.79,33.72-74.17,50.8-89.91,18.6-17.14,34.45-23.33,35.11-23.58a3,3,0,1,1,2.15,5.6c-.25.1-15.69,6.2-33.41,22.59-16.39,15.17-38.17,42.52-48.81,86.7A3,3,0,0,1,453.62,575.69Z" style="fill: #fff"/>
      </g>
      <g id="efa7570f-6085-4afe-93ed-9717b07a1ccc" data-name="ball">
        <g>
          <rect x="358.52" y="80.36" width="108.24" height="108.24" rx="17.44" style="fill: #4bd657"/>
          <path d="M449.31,190.1H376A19,19,0,0,1,357,171.16V97.8A19,19,0,0,1,376,78.86h73.35A19,19,0,0,1,468.25,97.8v73.36A19,19,0,0,1,449.31,190.1ZM376,81.86A16,16,0,0,0,360,97.8v73.36A16,16,0,0,0,376,187.1h73.35a16,16,0,0,0,15.94-15.94V97.8a16,16,0,0,0-15.94-15.94Z" style="fill: #1d1e1b"/>
        </g>
        <g>
          <circle cx="412.11" cy="133.95" r="37.83" style="fill: #fff"/>
          <path d="M412.11,173.28A39.33,39.33,0,1,1,451.44,134,39.37,39.37,0,0,1,412.11,173.28Zm0-75.66A36.33,36.33,0,1,0,448.44,134,36.37,36.37,0,0,0,412.11,97.62Z"/>
        </g>
        <path d="M409.19,172.79c-10.57-10.65-15.83-22.52-15.65-35.26.35-23.6,19.07-41.66,19.86-42.42l2.07,2.17c-.18.18-18.61,18-18.93,40.32-.16,11.89,4.81,23,14.78,33.08Z"/>
        <path d="M413.49,151a71.46,71.46,0,0,1-10.86-.87A99.44,99.44,0,0,1,374,140.91l1.41-2.65c.49.26,49.18,25.6,73.34-6.95l2.4,1.79C442.38,144.91,429.5,151,413.49,151Z"/>
        <path d="M485.07,104.6l-3-.15c.95-19.4-3.46-33-13.12-40.43-14.78-11.36-37.24-4.38-37.47-4.3l-.91-2.86c1-.31,24.15-7.55,40.2,4.77C481.26,69.69,486.07,84.14,485.07,104.6Z"/>
        <path d="M379.53,206.91c-21.66,0-36.91-5-45.33-14.83a27.16,27.16,0,0,1-6.59-20.53l3,.46-1.48-.23,1.48.23a24.62,24.62,0,0,0,5.95,18.17c7.83,9.11,22.31,13.73,43,13.73Z"/>
      </g>
      <g id="b5a89781-5996-462d-a56e-9438572d6ded" data-name="t-shirt">
        <g>
          <rect x="56.92" y="386.16" width="163.94" height="163.94" rx="26.42" style="fill: #4bd657"/>
          <path d="M194.44,551.59H83.33a27.94,27.94,0,0,1-27.91-27.91V412.58a27.94,27.94,0,0,1,27.91-27.92H194.44a27.94,27.94,0,0,1,27.91,27.92v111.1A27.94,27.94,0,0,1,194.44,551.59ZM83.33,387.66a24.94,24.94,0,0,0-24.91,24.92v111.1a24.93,24.93,0,0,0,24.91,24.91H194.44a24.94,24.94,0,0,0,24.91-24.91V412.58a25,25,0,0,0-24.91-24.92Z" style="fill: #1d1e1b"/>
        </g>
        <g>
          <path d="M150.25,411.21a12.47,12.47,0,0,1,1.24,5.42,12.61,12.61,0,0,1-25.22,0,12.42,12.42,0,0,1,1.32-5.57C99.94,414.78,79,432.56,79,453.94c0,24.09,27.11,26.8,59.9,26.8s58.85-2.71,58.85-26.8C197.73,432.85,177.34,415.25,150.25,411.21Z" style="fill: #07acee"/>
          <path d="M138.88,482.24c-31.06,0-61.4-2.19-61.4-28.3,0-21.81,21-40.47,49.91-44.37a1.5,1.5,0,0,1,1.54,2.15,11,11,0,0,0-1.16,4.91,11.11,11.11,0,1,0,22.22,0,11,11,0,0,0-1.09-4.78,1.5,1.5,0,0,1,1.57-2.13c28.26,4.22,48.76,22.82,48.76,44.22C199.23,480.07,170.69,482.24,138.88,482.24Zm-13.61-69.31c-26.1,4.38-44.79,21.34-44.79,41,0,21.16,21.42,25.3,58.4,25.3,36.33,0,57.35-4.14,57.35-25.3,0-19.28-18.22-36.15-43.69-40.83a13.93,13.93,0,0,1,.45,3.52,14.11,14.11,0,1,1-28.22,0A13.93,13.93,0,0,1,125.27,412.93Z" style="fill: #1d1d1b"/>
        </g>
        <g>
          <polyline points="165.16 434.5 178.82 514.37 98.95 514.37 109.46 434.5" style="fill: #07acee"/>
          <path d="M178.82,515.87H99a1.51,1.51,0,0,1-1.13-.52,1.52,1.52,0,0,1-.36-1.18L108,434.3a1.5,1.5,0,0,1,3,.39l-10.29,78.18H177l-13.36-78.12a1.5,1.5,0,1,1,2.95-.5l13.66,79.86a1.46,1.46,0,0,1-.33,1.22A1.48,1.48,0,0,1,178.82,515.87Z" style="fill: #1d1d1b"/>
        </g>
        <path d="M81.49,575.44c-23.25,0-39.95-5.92-49.7-17.64-13.34-16-8.55-36.72-8.34-37.6a2,2,0,1,1,3.88.94c-.06.28-4.48,19.71,7.56,34.13,10,12,28.36,17.36,54.49,16a2,2,0,1,1,.22,4Q85.42,575.43,81.49,575.44Z" style="fill: #1d1d1b"/>
        <path d="M211.92,437h-.16a3,3,0,0,1-2.84-3.15c.57-10.7-2.11-19.1-7.95-25-10.39-10.44-27.6-9.73-27.78-9.72a3,3,0,0,1-.31-6c.81,0,20-.88,32.31,11.44,7.11,7.12,10.38,17.06,9.73,29.54A3,3,0,0,1,211.92,437Z" style="fill: #fff"/>
      </g>
    </g>
  </g>
</svg>
