<svg xmlns="http://www.w3.org/2000/svg" width="1000" height="1000" viewBox="0 0 1000 1000">
  <g id="a555f1af-2bf1-48ee-afe1-8995062882d5" data-name="illustration">
    <g id="a01fb9c1-b39a-471c-a21e-5169474b2cf6" data-name="image">
      <g id="a5156acd-34d9-46e0-80dd-344d01ae3360" data-name="video">
        <g>
          <rect x="611.29" y="531.36" width="258.78" height="170.42" rx="40.79" style="fill: #fff"/>
          <path d="M829.29,703.28H652.08A42.34,42.34,0,0,1,609.79,661V572.15a42.34,42.34,0,0,1,42.29-42.29H829.29a42.34,42.34,0,0,1,42.29,42.29V661A42.34,42.34,0,0,1,829.29,703.28ZM652.08,532.86a39.34,39.34,0,0,0-39.29,39.29V661a39.34,39.34,0,0,0,39.29,39.29H829.29A39.34,39.34,0,0,0,868.58,661V572.15a39.34,39.34,0,0,0-39.29-39.29Z" style="fill: #1d1f1c"/>
        </g>
        <path d="M635.81,725.6h-.11a51.14,51.14,0,0,1-47.13-50.81V559.6a1.5,1.5,0,0,1,3,0V674.78a48.13,48.13,0,0,0,44.35,47.82,1.5,1.5,0,0,1-.11,3Z" style="fill: #1d1d1b"/>
        <path d="M843.53,725.75h-3a1.5,1.5,0,0,1,0-3h3a48,48,0,0,0,48-48V559.6a48,48,0,0,0-48-48H667.65a1.5,1.5,0,0,1,0-3H843.53a51,51,0,0,1,51,51V674.78A51,51,0,0,1,843.53,725.75Z" style="fill: #1d1d1b"/>
        <g>
          <path d="M756.9,569.93l-68.75,45.42a6.85,6.85,0,0,0,.22,11.56l68.75,41.73a6.84,6.84,0,0,0,10.39-5.85V575.64A6.84,6.84,0,0,0,756.9,569.93Z" style="fill: #4bd657"/>
          <path d="M760.66,671.15a8.34,8.34,0,0,1-4.32-1.22L687.6,628.19a8.33,8.33,0,0,1-.27-14.09l68.74-45.42a8.34,8.34,0,0,1,12.94,7v87.15a8.26,8.26,0,0,1-4.25,7.28A8.41,8.41,0,0,1,760.66,671.15Zm-2.94-100L689,616.6a5.35,5.35,0,0,0,.17,9l68.74,41.73a5.34,5.34,0,0,0,8.12-4.57V575.64a5.35,5.35,0,0,0-8.29-4.46Z" style="fill: #1d1e1b"/>
        </g>
      </g>
      <g id="b63ffd30-2480-4e45-9645-62a2f57d307f" data-name="image">
        <g>
          <rect x="239.82" y="317.4" width="421.07" height="328.34" rx="59.65" style="fill: #4bd657"/>
          <path d="M601.24,317.4a59.65,59.65,0,0,1,59.65,59.65v209a59.65,59.65,0,0,1-59.65,59.65H299.48a59.66,59.66,0,0,1-59.66-59.65v-209a59.66,59.66,0,0,1,59.66-59.65H601.24m0-3H299.48a62.72,62.72,0,0,0-62.66,62.65v209a62.73,62.73,0,0,0,62.66,62.65H601.24a62.72,62.72,0,0,0,62.65-62.65v-209a62.71,62.71,0,0,0-62.65-62.65Z" style="fill: #1d1e1b"/>
        </g>
        <g>
          <path d="M239.82,586.09V544L343,463.12l71.92,44.47,88-109.76,158,126.07v62.19a59.65,59.65,0,0,1-59.65,59.65H299.48A59.66,59.66,0,0,1,239.82,586.09Z" style="fill: #fff"/>
          <path d="M601.24,647.24H299.48a61.23,61.23,0,0,1-61.16-61.15V543.26l.58-.45,104-81.52,71.68,44.33,88.1-109.9,1.17.93L662.39,523.17v62.92A61.22,61.22,0,0,1,601.24,647.24ZM241.32,544.72v41.37a58.22,58.22,0,0,0,58.16,58.15H601.24a58.21,58.21,0,0,0,58.15-58.15V524.62L503.11,399.93l-87.9,109.63-72.15-44.62Z" style="fill: #1d1f1c"/>
        </g>
        <g>
          <circle cx="380.81" cy="388.37" r="24.6" style="fill: #fff"/>
          <path d="M380.81,414.47a26.11,26.11,0,1,1,26.1-26.1A26.13,26.13,0,0,1,380.81,414.47Zm0-49.21a23.11,23.11,0,1,0,23.1,23.11A23.13,23.13,0,0,0,380.81,365.26Z" style="fill: #1d1f1c"/>
        </g>
        <path d="M333.93,368.4a1.5,1.5,0,0,1-1.35-.84c-33.91-69.67-100-117.92-149.47-146.13-53.65-30.6-99.83-44.85-100.29-45a1.5,1.5,0,1,1,.88-2.86c.46.14,47,14.49,100.9,45.25,31.69,18.08,59.73,38.2,83.34,59.81,29.55,27.05,52.21,56.53,67.34,87.61a1.51,1.51,0,0,1-1.35,2.16Z" style="fill: #1d1e1b"/>
        <path d="M299.15,375.6a1.51,1.51,0,0,1-1.33-.81c-23.44-44.53-108.67-75.73-109.53-76a1.5,1.5,0,0,1,1-2.83c3.55,1.29,87.18,31.91,111.16,77.48a1.48,1.48,0,0,1-.63,2A1.45,1.45,0,0,1,299.15,375.6Z" style="fill: #1d1e1b"/>
        <path d="M640.12,486.94a4,4,0,0,1-4-4l-.6-100.15a4,4,0,0,1,4-4h0a4,4,0,0,1,4,4l.6,100.14a4,4,0,0,1-4,4Z" style="fill: #fff"/>
      </g>
      <g id="a1c3cbed-1fee-4152-b279-eb2814755f1a" data-name="hand">
        <g>
          <g>
            <path d="M595.06,890.57C617.61,860,590,715,519.4,723.82l-5-22-88.13,8.87,3.05,17.41s-28.32,3-38.2,39.19c-15.36,56.28,0,118,4.54,124.57Z" style="fill: #07acee"/>
            <path d="M514.43,701.85l5,22a51,51,0,0,1,6.11-.38c66.1,0,91.44,137.47,69.55,167.14l-199.37,1.32c-4.55-6.54-19.9-68.29-4.54-124.57,9.88-36.2,38.2-39.19,38.2-39.19l-3.05-17.41,88.13-8.87m0-3h-.3L426,707.73a3,3,0,0,0-2.65,3.51l2.54,14.51a46,46,0,0,0-13.54,5.87c-8,5.09-18.74,15.29-24.1,34.92-8.34,30.57-7.47,61.48-5.28,82,2.49,23.33,7.55,41.14,10.25,45a3,3,0,0,0,2.47,1.29h0l199.37-1.32a3,3,0,0,0,2.39-1.22c7.1-9.62,9.82-29.3,7.46-54-2.39-24.93-9.66-50.89-19.93-71.25C577.89,753,569.57,741.9,560.28,734c-10.63-9-22.33-13.59-34.77-13.59-1.25,0-2.51.05-3.77.14l-4.39-19.39a3,3,0,0,0-2.92-2.33Z" style="fill: #1d1e1b"/>
          </g>
          <path d="M514.86,704.33l-88.56,6.39L430,728c20,12,64,11,89-4Z" style="fill: #0598c6"/>
        </g>
        <circle cx="560.16" cy="850.64" r="7.9" style="fill: #51cef4"/>
        <circle cx="427.87" cy="770.53" r="7.9" style="fill: #51cef4"/>
        <circle cx="464.87" cy="846.53" r="7.9" style="fill: #51cef4"/>
        <circle cx="540.88" cy="766.4" r="7.9" style="fill: #51cef4"/>
        <g>
          <g>
            <path d="M427.16,711.69s-107.76-59.42-40.18-94l-4.76-64.25s27.74-24.21,47.93,24.13c0,0,23.73-3.6,39.64,11.83,0,0,17.68-10.53,38.76,24.82s5.17,87.31,5.17,87.31Z" style="fill: #ffcdb2"/>
            <path d="M426.75,713.75l-.56-.31c-2.61-1.44-64-35.67-63.48-68.28.17-11.25,7.64-20.87,22.18-28.6l-4.74-63.93.76-.66c.41-.37,10.37-8.91,23.14-5.93,10.8,2.51,20,12.41,27.36,29.41,5.57-.52,24.63-1.22,38.78,11.62a19.23,19.23,0,0,1,11.57-.41c9.89,2.5,19.48,11.44,28.51,26.58,21.28,35.7,6,86.76,5.37,88.91l-.39,1.25ZM384.29,554.39l4.78,64.51-1.18.61c-13.9,7.1-21,15.75-21.18,25.71-.46,28.68,54.71,60.9,60.86,64.41l84.59-9.89c2.2-8.06,13.26-53.27-5.33-84.45-19.66-33-35.37-24.5-36-24.12l-1.3.75-1.1-1c-15-14.54-37.72-11.33-37.95-11.29l-1.54.23-.6-1.44c-6.93-16.58-15.38-26.15-25.13-28.44C394.25,547.84,386.66,552.66,384.29,554.39Z" style="fill: #1d1e1b"/>
          </g>
          <g>
            <line x1="390.55" y1="638.97" x2="387.03" y2="617.67" style="fill: #07acee"/>
            <path d="M392.05,639.07a1.5,1.5,0,0,1-3,.15l-3.52-21.31a1.5,1.5,0,0,1,3-.49L392,638.73A1.94,1.94,0,0,1,392.05,639.07Z"/>
          </g>
          <path d="M443.08,627.41a55.51,55.51,0,0,1-.79,6.78,1.5,1.5,0,1,1-2.94-.58c0-.28,5.21-27.77-10.81-54.81a1.5,1.5,0,0,1,2.59-1.53A88.45,88.45,0,0,1,443.08,627.41Z"/>
          <path d="M481.37,634.31c-.21,3.23-.51,5.29-.56,5.6a1.5,1.5,0,0,1-1.7,1.26,1.52,1.52,0,0,1-1.26-1.71c0-.31,4.5-31-10.27-50a1.5,1.5,0,1,1,2.37-1.84C481.75,602.77,482,624.23,481.37,634.31Z"/>
          <path d="M513.3,656.78c-.82,12.8-5.28,20.51-5.47,20.84a1.5,1.5,0,0,1-2.59-1.52c.2-.35,17.82-31.62-13.65-72a1.5,1.5,0,1,1,2.37-1.84c17.1,21.95,20,41.23,19.4,53.53Z" style="fill: #fff"/>
          <path d="M473.36,635.38c-.09,1.39-.17,2.27-.19,2.49a1.52,1.52,0,0,1-1.64,1.35,1.49,1.49,0,0,1-1.35-1.64c0-.41,3.78-40.52-12.35-49.24a1.5,1.5,0,0,1,1.43-2.64C474.82,594.12,474,626.09,473.36,635.38Z" style="fill: #fff"/>
          <path d="M433.73,626.08a1.48,1.48,0,0,1-1.4,1.4,1.5,1.5,0,0,1-1.59-1.4c0-.51-3.36-50.87-24.66-65.75a1.5,1.5,0,1,1,1.71-2.46c22.49,15.71,25.81,65.9,25.95,68A1.15,1.15,0,0,1,433.73,626.08Z" style="fill: #fff"/>
        </g>
      </g>
      <g id="a4a7b141-46e8-431d-82ab-5394f2f38f7e" data-name="line">
        <path d="M829,894H125a2,2,0,0,1,0-4H829a2,2,0,0,1,0,4Z" style="fill: #1d1d1b"/>
        <path d="M211,919H74a2,2,0,0,1,0-4H211a2,2,0,0,1,0,4Z" style="fill: #1d1d1b"/>
        <path d="M883,930H775a2,2,0,0,1,0-4H883a2,2,0,0,1,0,4Z" style="fill: #1d1d1b"/>
      </g>
      <g id="f7e986f8-0fff-4c37-9b6a-daf3220f8969" data-name="okey">
        <g>
          <rect x="671.18" y="179.08" width="128.63" height="119.86" rx="29.84" style="fill: #07acee"/>
          <path d="M770,300.74H701a31.67,31.67,0,0,1-31.63-31.63V208.92A31.67,31.67,0,0,1,701,177.29h69a31.67,31.67,0,0,1,31.63,31.63v60.19A31.67,31.67,0,0,1,770,300.74ZM701,180.88a28.07,28.07,0,0,0-28,28v60.19a28.07,28.07,0,0,0,28,28h69a28.07,28.07,0,0,0,28-28V208.92a28.07,28.07,0,0,0-28-28Z"/>
        </g>
        <path d="M736,275h-.26a4.22,4.22,0,0,1-3.41-2.16l-32.65-59A4.2,4.2,0,1,1,707,209.7L736.47,263l23.82-32.73a4.19,4.19,0,1,1,6.78,4.94l-27.69,38.05A4.21,4.21,0,0,1,736,275Z" style="fill: #fff"/>
        <path d="M658.12,212.28h0a1.81,1.81,0,0,1-1.77-1.84c.44-22.53,6.52-38.1,18.09-46.27,15.1-10.66,33.73-4.64,34.51-4.37a1.8,1.8,0,1,1-1.13,3.41c-.17-.06-17.73-5.71-31.33,3.91-10.57,7.48-16.13,22.08-16.54,43.39A1.81,1.81,0,0,1,658.12,212.28Z"/>
        <path d="M768,210a2,2,0,0,1-.49-3.94c50.44-12.74,81.32-48.29,98.35-75.88,18.52-30,25.13-57.37,25.19-57.64a2,2,0,0,1,3.9.92c-.07.28-6.8,28.17-25.62,58.71-17.42,28.26-49.05,64.69-100.84,77.77A2.05,2.05,0,0,1,768,210Z" style="fill: #1d1d1b"/>
        <path d="M791,221.31q-4.92,0-10.09-.31a2,2,0,0,1,.24-4c41.15,2.55,68.88-11.16,84.9-23.11,17.39-13,25.15-26.72,25.23-26.86a2,2,0,0,1,3.5,1.94c-.33.59-8.17,14.53-26.18,28C853.35,208.37,827.91,221.31,791,221.31Z" style="fill: #1d1d1b"/>
      </g>
    </g>
  </g>
</svg>
