<svg xmlns="http://www.w3.org/2000/svg" width="1000" height="1000" viewBox="0 0 1000 1000">
  <g id="a0cd5719-ca5d-478e-9c70-6c74d0d6fac7" data-name="illustration">
    <g id="a3071f6f-406f-4f83-bc56-528bdad837d9" data-name="moneybox">
      <g id="bfd8b211-f732-4593-b015-704f152af0cb" data-name="line">
        <path d="M222.9,890.88a2,2,0,0,1,0-4l548.71-3.33h0a2,2,0,0,1,0,4l-548.71,3.33Z"/>
        <path d="M239.56,909.49H157.37a1.5,1.5,0,0,1,0-3h82.19a1.5,1.5,0,0,1,0,3Z"/>
        <path d="M822.49,861H743.63a1.5,1.5,0,0,1,0-3h78.86a1.5,1.5,0,0,1,0,3Z"/>
      </g>
      <g id="a3702439-d17f-4578-9944-5382d6d809cf" data-name="money 1">
        <g>
          <circle cx="672.5" cy="388.5" r="24" style="fill: #fff"/>
          <path d="M672.5,414A25.5,25.5,0,1,1,698,388.5,25.53,25.53,0,0,1,672.5,414Zm0-48A22.5,22.5,0,1,0,695,388.5,22.52,22.52,0,0,0,672.5,366Z"/>
        </g>
        <path d="M655.32,380.89A14.8,14.8,0,0,0,660.57,400a1.5,1.5,0,0,0,1.52-2.59,11.75,11.75,0,0,1-4.18-14.95,1.54,1.54,0,0,0-.54-2.05,1.5,1.5,0,0,0-2,.53Z"/>
        <path d="M681.12,377.18a13.17,13.17,0,0,1,5.68,7.41,13.39,13.39,0,0,1,.64,4.73,12.83,12.83,0,0,1-1.07,4.58,1.54,1.54,0,0,0,.54,2.05,1.51,1.51,0,0,0,2.05-.54,16.73,16.73,0,0,0-2.44-17.49,14.61,14.61,0,0,0-3.89-3.33,1.5,1.5,0,0,0-1.51,2.59Z"/>
        <path d="M668.33,378.18l-5,12.94a1.52,1.52,0,0,0,1,1.85l13.68,3.47a1.52,1.52,0,0,0,1.7-2.2l-8-15.57a1.5,1.5,0,0,0-2.59,1.51l8,15.57,1.69-2.2-13.68-3.47,1.05,1.84,5-12.94a1.51,1.51,0,0,0-1.05-1.84,1.53,1.53,0,0,0-1.84,1Z"/>
        <path d="M662.19,350.64a28.83,28.83,0,0,1,22.36.74,27.61,27.61,0,0,1,5.54,3.39,1.55,1.55,0,0,0,2.12,0,1.52,1.52,0,0,0,0-2.12A31.87,31.87,0,0,0,668.35,346a29.83,29.83,0,0,0-7,1.74,1.54,1.54,0,0,0-1,1.84,1.51,1.51,0,0,0,1.85,1.05Z"/>
      </g>
      <g id="e7c47a4d-ade4-40dc-b96b-ebfee6b573ee" data-name="woman">
        <g>
          <path d="M552.5,501.5s79.46-6.56,148,32S872.7,632.31,847,688s-72.5,70.5-109.67,70.49c-23.94,0-59.83-21-59.83-21s21.56,51.35,0,144l-372.84,7.65s-23.17-280.22,84.8-361.8" style="fill: #07acee"/>
          <path d="M304.66,890.65a1.5,1.5,0,0,1-1.5-1.38,957.91,957.91,0,0,1,1.92-150.57c4.48-46.71,12.61-87.39,24.16-120.89,14.49-42,34.45-72.87,59.32-91.66a1.5,1.5,0,0,1,1.81,2.39c-24.39,18.43-44,48.78-58.29,90.22-11.47,33.28-19.55,73.71-24,120.18-7,73-2.78,138.37-2,148.68L676.3,880c20.75-90.31,0-141.43-.18-141.94a1.49,1.49,0,0,1,2.14-1.87c.35.2,35.81,20.77,59.07,20.78h0c28.45,0,80.31-9,108.26-69.62,11.05-24-1.22-50.74-37.52-81.91-30.27-26-71.8-50.09-108.36-70.65C632.43,496.93,553.41,502.93,552.62,503a1.5,1.5,0,0,1-.24-3c.79-.06,80.7-6.15,148.86,32.19,36.67,20.63,78.36,44.84,108.83,71,17.1,14.68,29.17,28.78,35.86,41.92,7.84,15.39,8.66,30,2.43,43.52-28.65,62.08-81.81,71.36-111,71.36h0c-20,0-47.43-14-57.1-19.24,4.38,13.63,16.88,63.11-1.27,141.09a1.49,1.49,0,0,1-1.43,1.16l-372.84,7.65Z"/>
        </g>
        <g>
          <path d="M549.39,724.2s28.49,3.15,43,4.73,12.72-25.26-21.8-30" style="fill: #ffcdb2"/>
          <path d="M593.57,730.5a12,12,0,0,1-1.32-.08c-14.54-1.57-43-4.73-43-4.73l.33-3s28.49,3.15,43,4.73c3.86.42,6.43-1.45,6.87-5,.9-7.36-7.51-19.06-29-22a1.5,1.5,0,0,1-1.29-1.69,1.52,1.52,0,0,1,1.69-1.28c23.55,3.23,32.66,16.78,31.61,25.36A8.44,8.44,0,0,1,593.57,730.5Z"/>
        </g>
        <g>
          <path d="M443.42,694.87s60.34-34.71,74.08-43.37c27.42-17.28,87,22.09,55.54,48.16,0,0,2.46,5.84-5.54,11.84-1.69,1.27-8,4-8,4s2.18,21.54-34.35,17.69c0,0-12.65,15.31-43.6,30.81l-31.44,26.07Z" style="fill: #ffcdb2"/>
          <path d="M450.12,791.57a1.48,1.48,0,0,1-.59-.12,1.51,1.51,0,0,1-.91-1.28l-6.7-95.2a1.49,1.49,0,0,1,.75-1.4c.6-.35,60.47-34.79,74-43.34,17.92-11.3,48.68.27,61.29,17.65,8.33,11.49,7.13,23.21-3.26,32.3.44,2.22.5,7.4-6.33,12.52a55.32,55.32,0,0,1-7.38,3.77A16.9,16.9,0,0,1,556,728c-5.86,5.84-16,8.1-30.23,6.72-2.72,3.06-15.72,16.62-43.39,30.5l-31.31,26A1.47,1.47,0,0,1,450.12,791.57ZM445,695.7l6.43,91.35,29.19-24.21a1.34,1.34,0,0,1,.28-.18c30.25-15.15,43-30.27,43.12-30.42a1.53,1.53,0,0,1,1.31-.54c13.43,1.42,23.3-.57,28.53-5.74A13.69,13.69,0,0,0,558,715.64a1.51,1.51,0,0,1,.89-1.52,64.22,64.22,0,0,0,7.7-3.82c6.87-5.16,5.13-9.88,5-10.08a1.51,1.51,0,0,1,.43-1.72c13.26-11,7.87-22.8,3.48-28.85-11.62-16-40.91-27.19-57.26-16.88C505.56,660.8,452.24,691.52,445,695.7Z"/>
        </g>
        <g>
          <path d="M683.26,391.43c13.52-16.89,45.53-9.48,56.91,9.49s13.28,55-3.79,85.36l-17.07,30.35,11.38,7.59-64.5,43.63s-19-22.76-22.76-49.32-7.52-45.85.07-61,7.31-50,13-50,26,16,23,28c0,0,21-8,32.22-.44,0,0,5.69-19-3.8-26.56S675.68,400.92,683.26,391.43Z" style="fill: #ffcdb2"/>
          <path d="M666.19,569.35a1.47,1.47,0,0,1-1.15-.54c-.79-.94-19.29-23.39-23.1-50.07q-.48-3.36-1-6.56c-3.48-23.82-6-41,1.17-55.35,3.62-7.25,5.41-19.17,7-29.69,2.14-14.28,3.34-21.14,7.35-21.14,4.35,0,13.72,6.74,19.28,13.87,3.74,4.78,5.61,9.37,5.52,13.43,5.57-1.77,19.81-5.46,29.45-.54,1.09-4.8,3.16-17.54-3.76-23.08-3.4-2.72-8.9-4.5-13.74-6.06-6.29-2-11.72-3.79-12.82-7.43-.52-1.75,0-3.66,1.66-5.7,5.69-7.11,14.78-10.62,25.58-9.9,13.75.93,27.33,8.78,33.79,19.55,11.28,18.81,13.79,55.65-3.77,86.88L721.3,516.16,731.52,523a1.5,1.5,0,0,1,0,2.49L667,569.09A1.46,1.46,0,0,1,666.19,569.35ZM656.5,409c-1.7.68-3.25,11-4.39,18.58-1.61,10.74-3.43,22.92-7.27,30.59-6.74,13.48-4.28,30.29-.88,53.57.31,2.14.63,4.34.95,6.58,3.24,22.65,17.9,42.76,21.59,47.51l61.5-41.6-9.53-6.35a1.49,1.49,0,0,1-.47-2l17.07-30.35c17-30.25,14.67-65.78,3.82-83.86-6-10-18.61-17.24-31.42-18.11-9.8-.66-18,2.46-23,8.79-1,1.21-1.35,2.21-1.12,3,.64,2.13,5.83,3.81,10.86,5.43s10.86,3.51,14.69,6.57c10.16,8.13,4.54,27.35,4.3,28.16a1.51,1.51,0,0,1-.94,1,1.49,1.49,0,0,1-1.34-.16c-10.43-7-30.64.51-30.85.59a1.5,1.5,0,0,1-1.53-.28,1.52,1.52,0,0,1-.46-1.48c1.18-4.7-1.86-9.89-4.62-13.42C667.75,414.46,659.25,409,656.5,409Z"/>
        </g>
        <g>
          <path d="M446.73,449.88s-.84,34.74-25.7,28.73-78-19.38-90.4,17.72-8.27,44.22-35.81,44.93-74.9,50-13.5,96.84S496.41,482.94,496.41,482.94l-4.76-21Z" style="fill: #382256"/>
          <path d="M446.73,449.88l44.92,12.05,4.76,21S373,645.15,303.17,645.15a35,35,0,0,1-21.85-7c-61.4-46.87-14.05-96.13,13.5-96.84s23.36-7.82,35.81-44.93c6.55-19.52,24.35-25.07,43.37-25.07,17.13,0,35.25,4.5,47,7.35a23.34,23.34,0,0,0,5.5.7c19.49,0,20.2-29.43,20.2-29.43m0-3a3,3,0,0,0-3,2.93c0,.41-.93,26.5-17.21,26.5a20.47,20.47,0,0,1-4.8-.62l-.94-.23c-11.85-2.86-29.75-7.2-46.79-7.2-24.63,0-40.18,9.13-46.22,27.12-2.34,7-4.06,12.79-5.58,17.92-6.42,21.66-7.25,24.44-27.46,25-15.73.41-37.24,15.25-44.18,36.71-4.21,13-6.05,38.81,28.94,65.51a38,38,0,0,0,23.67,7.67c16.57,0,37.22-8.71,61.39-25.9,19.07-13.56,40.46-32.44,63.56-56.11a999.94,999.94,0,0,0,70.68-81.38,3,3,0,0,0,.54-2.48l-4.76-21a3,3,0,0,0-2.15-2.24l-44.92-12a2.94,2.94,0,0,0-.78-.11Z"/>
        </g>
        <path d="M274.83,632.77C280.58,575.66,371.84,517,401,508.4s64.33-22.66,69.62-35-15.37-18-15.37-18l6.2-1.62,30.22,8.11,4.76,21S342.71,685,281.32,638.1C279,636.32,276.85,634.55,274.83,632.77Z" style="fill: #050505"/>
        <g>
          <path d="M685.16,434.44s-20.87,10.11-7.59,23.39c0,0-20.86,15.17-7.59,28.45,0,0,7.59,9.49,15.18,1.9l11.38,5.69" style="fill: #ffcdb2"/>
          <path d="M696.54,495.37a1.5,1.5,0,0,1-.67-.16L685.42,490a9.85,9.85,0,0,1-7.1,2.63c-5.09-.29-8.92-4.68-9.45-5.32-3.5-3.53-5.1-7.51-4.76-11.84.64-8.2,8.14-15.22,11.25-17.79-3-3.43-4.16-7-3.56-10.61,1.42-8.4,12.25-13.73,12.71-14a1.5,1.5,0,0,1,1.31,2.7c-.1,0-9.9,4.89-11.06,11.77-.51,3,.8,6.13,3.87,9.21a1.51,1.51,0,0,1,.44,1.17,1.54,1.54,0,0,1-.61,1.1c-.11.08-10.68,7.88-11.36,16.66-.27,3.43,1.06,6.63,3.94,9.52l.12.12s3.31,4.06,7.34,4.27a7.35,7.35,0,0,0,5.6-2.49,1.49,1.49,0,0,1,1.73-.28l11.38,5.69a1.5,1.5,0,0,1-.67,2.84Z"/>
        </g>
        <g>
          <path d="M723.1,469.21S700.34,454,677.57,457.83" style="fill: #ffcdb2"/>
          <path d="M723.1,470.71a1.47,1.47,0,0,1-.83-.25c-.23-.15-22.55-14.8-44.45-11.15a1.5,1.5,0,1,1-.49-3c23.08-3.85,45.65,11,46.6,11.61a1.5,1.5,0,0,1,.42,2.08A1.52,1.52,0,0,1,723.1,470.71Z"/>
        </g>
        <g>
          <path d="M495,507.88s-81.5.62-147.5,58.62c-55.05,48.38-115.92,168.43-111.37,219.83s36.33,70.69,104.45,60,122.63-25.7,113.55-62.12l18.16-10.71-29.52-79.25-11.35,4.28s-13.63-25.7-52.23-8.57-68.13,27.85-68.13,27.85" style="fill: #07acee"/>
          <path d="M307.77,850.65c-21.72,0-38.24-4.58-50.07-13.83-13.46-10.52-21-27-23.07-50.36-2.15-24.4,10.37-66.21,33.5-111.86s52.38-86.38,78.38-109.23c34.32-30.15,72.84-44.59,99.11-51.38,28.48-7.37,49.16-7.61,49.37-7.61a1.49,1.49,0,0,1,1.51,1.49,1.5,1.5,0,0,1-1.49,1.51c-.81,0-81.72,1.31-146.52,58.25-25.72,22.6-54.77,63.1-77.69,108.33s-35.29,86.37-33.18,110.24c2,22.49,9.16,38.28,21.93,48.26,16.54,12.92,43,16.32,80.8,10.37,45.88-7.22,94.72-17.5,109-39.09,4.2-6.33,5.28-13.26,3.3-21.19a1.5,1.5,0,0,1,.69-1.65l17.09-10.07-28.56-76.67L432,699.92a1.52,1.52,0,0,1-1.86-.71c-.53-1-13.51-24.22-50.29-7.89-38.21,17-67.93,27.77-68.22,27.88a1.5,1.5,0,1,1-1-2.82c.3-.11,29.92-10.89,68-27.81,34.63-15.37,50.11,3.19,53.45,8.11l10.21-3.85a1.48,1.48,0,0,1,1.15,0,1.5,1.5,0,0,1,.79.85L473.7,773a1.5,1.5,0,0,1-.65,1.81l-17.21,10.15a28.36,28.36,0,0,1-4,22.47c-15,22.57-64.54,33.09-111.06,40.4A213.93,213.93,0,0,1,307.77,850.65Z"/>
        </g>
        <g>
          <path d="M709.49,698.51c-12.85-17.13-42.84-25.7-68.54-62.11s21.42-68.55,21.42-68.55L655.94,555s37.71-1.94,65.56-40.5l15.83,12.65s47.13-2.14,60,34.28,57.83,57.83,53.55,107.1" style="fill: #07acee"/>
          <path d="M709.49,700a1.46,1.46,0,0,1-1.2-.6c-5-6.65-12.82-12.1-21.89-18.42-13.85-9.64-31.09-21.64-46.68-43.73-6.76-9.57-9.22-19.73-7.33-30.19,3.75-20.73,23.2-36.13,28.06-39.69l-5.85-11.71a1.49,1.49,0,0,1,0-1.42,1.53,1.53,0,0,1,1.22-.75c.37,0,37.36-2.4,64.42-39.88a1.54,1.54,0,0,1,1-.61,1.52,1.52,0,0,1,1.14.32l15.4,12.31c5.49-.08,48.59.47,60.88,35.29,4.82,13.63,14.11,25,23.95,37,15.92,19.47,32.39,39.61,29.68,70.7a1.5,1.5,0,0,1-3-.26c2.6-29.88-13.47-49.53-29-68.54-9.57-11.7-19.47-23.8-24.45-37.93-12.34-35-58-33.3-58.5-33.28a1.47,1.47,0,0,1-1-.32l-14.61-11.68c-23.95,32.21-55,38.47-63.54,39.61l5.46,10.92a1.51,1.51,0,0,1-.5,1.91c-.24.16-23.9,16.55-27.87,38.52-1.74,9.64.56,19,6.83,27.92,15.29,21.66,32.28,33.49,45.94,43,9.28,6.46,17.3,12.05,22.58,19.08a1.5,1.5,0,0,1-.3,2.1A1.45,1.45,0,0,1,709.49,700Z"/>
        </g>
        <g>
          <path d="M520.86,709.79s-17.14-8.57-17.14,0,6.43,21.42,19.28,21.42" style="fill: #ffcdb2"/>
          <path d="M523,732.71c-13.56,0-20.78-13.31-20.78-22.92a4.83,4.83,0,0,1,2.22-4.41c4.76-2.94,15.84,2.44,17.09,3.07a1.5,1.5,0,1,1-1.34,2.68c-4.44-2.22-11.78-4.68-14.17-3.2-.34.21-.8.63-.8,1.86,0,8.35,6.18,19.92,17.78,19.92a1.5,1.5,0,0,1,0,3Z"/>
        </g>
        <g id="b984d861-fc0e-4001-b6d0-8375e94e47e6" data-name="money 2">
          <circle cx="608.5" cy="721.5" r="32" style="fill: #fff"/>
          <path d="M608.5,755A33.5,33.5,0,1,1,642,721.5,33.54,33.54,0,0,1,608.5,755Zm0-64A30.5,30.5,0,1,0,639,721.5,30.53,30.53,0,0,0,608.5,691Z"/>
        </g>
        <path d="M582,727.29c1.34,8.79,8.9,16,17.46,17.86a21,21,0,0,0,7.62.21,1.52,1.52,0,0,0,1-1.85,1.55,1.55,0,0,0-1.85-1,9.73,9.73,0,0,1-1.22.13c-.52,0-1,0-1.55,0a15.71,15.71,0,0,1-2.74-.27,19.38,19.38,0,0,1-5.46-1.88,20.35,20.35,0,0,1-8.28-7.83,17.37,17.37,0,0,1-2.14-6.16,1.51,1.51,0,0,0-1.85-1,1.53,1.53,0,0,0-1,1.84Z"/>
        <path d="M621.17,703.12a20.44,20.44,0,0,1,10.36,20.7,20.77,20.77,0,0,1-2.47,7.18,1.5,1.5,0,0,0,2.59,1.51,23.26,23.26,0,0,0-2.95-27.21,23.3,23.3,0,0,0-6-4.77c-1.7-.93-3.21,1.66-1.52,2.59Z"/>
        <path d="M602.31,706.54l-3.61,21.89a1.51,1.51,0,0,0,1.84,1.84l16.39-5a1.51,1.51,0,0,0,.89-2.2l-13-18.31a1.53,1.53,0,0,0-2.05-.54,1.51,1.51,0,0,0-.54,2l13,18.31.9-2.2-16.39,5,1.85,1.85,3.61-21.9a1.54,1.54,0,0,0-1.05-1.84,1.5,1.5,0,0,0-1.84,1Z"/>
        <path d="M560.54,714.64a39.67,39.67,0,0,0-11.32-22,39.45,39.45,0,0,0-38.56-9.5c-1.85.55-1.06,3.45.79,2.89a36.87,36.87,0,0,1,24.68,1.38,36.5,36.5,0,0,1,21.51,28,1.53,1.53,0,0,0,1.85,1,1.56,1.56,0,0,0,1-1.85Z"/>
        <g>
          <path d="M531.5,647.5c38.84-5.68,85.11,24.4,84.54,58.3a5.82,5.82,0,0,1-6.51,5.64,29.28,29.28,0,0,1-18-8.94C581,691.5,580.8,692,580.8,692S585,706.14,562,714" style="fill: #ffcdb2"/>
          <path d="M562,715.5a1.5,1.5,0,0,1-.49-2.92c21.29-7.26,18-19.64,17.9-20.16a1.58,1.58,0,0,1,.07-1,1.54,1.54,0,0,1,1.12-.87c.93-.17,1.39-.23,12,11A27.74,27.74,0,0,0,609.7,710a4.38,4.38,0,0,0,3.38-1.05,4.2,4.2,0,0,0,1.46-3.12c.21-12.72-6.48-25.71-18.85-36.58-17.52-15.4-42.63-23.34-64-20.22a1.5,1.5,0,1,1-.44-3c22.18-3.25,48.24,5,66.39,20.93,13,11.46,20.1,25.27,19.87,38.88a7.25,7.25,0,0,1-2.48,5.32,7.38,7.38,0,0,1-5.71,1.78,30.72,30.72,0,0,1-18.94-9.4c-3.92-4.12-6.37-6.58-7.88-8-.33,5.16-3.47,14.27-20.1,19.94A1.61,1.61,0,0,1,562,715.5Z"/>
        </g>
        <path d="M583,694.1c-1.26-7.4-6.53-13.12-12.74-17-6.57-4-14.2-6.36-21.75-7.64a74.05,74.05,0,0,0-11.88-1.11,1.5,1.5,0,0,0,0,3q2.38,0,4.77.21c.87.07,1.75.16,2.62.26l1.2.15c.28,0-.36,0,.1,0l.29,0,.72.11a74.1,74.1,0,0,1,10.9,2.48,50,50,0,0,1,10.12,4.26c.77.43,1.52.89,2.26,1.37l1.08.73.58.42.23.17s.37.28.15.12a27.3,27.3,0,0,1,3.78,3.51c.31.35.6.7.88,1s.06.07,0,0l.24.33c.15.2.29.4.43.61a19.79,19.79,0,0,1,1.42,2.39c.1.2.2.4.29.61s.09.2.14.31a1.42,1.42,0,0,1,.08.18c0-.13-.06-.14,0,0,.18.44.35.89.5,1.35a19.73,19.73,0,0,1,.69,2.85A1.52,1.52,0,0,0,581.9,696,1.56,1.56,0,0,0,583,694.1Z"/>
        <g>
          <path d="M476.73,507.86S463.5,534.5,494.5,541.5s37-9,37-9,21,20,40,3-4-35-4-35Z" style="fill: #fff"/>
          <path d="M509,544.79A67.59,67.59,0,0,1,494.17,543c-10-2.25-16.61-6.73-19.75-13.32-4.92-10.36.72-21.95,1-22.44a1.51,1.51,0,0,1,1.23-.83L567.38,499a1.5,1.5,0,0,1,1,.32c.48.37,11.71,9.29,12.09,20.89.2,6-2.5,11.48-8,16.41-16.83,15.06-35.27,2.47-40.55-1.77C529.84,538.17,523.79,544.79,509,544.79Zm-31.24-35.5c-1.09,2.6-4.24,11.44-.6,19.08,2.72,5.71,8.67,9.63,17.69,11.67,29.19,6.59,35-7.47,35.27-8.08a1.5,1.5,0,0,1,2.43-.55c.82.78,20.24,18.84,38,3,4.81-4.3,7.17-9,7-14.06-.29-9-8.49-16.56-10.5-18.28Z"/>
        </g>
        <g>
          <circle cx="435.92" cy="326.84" r="37.75" style="fill: #382256"/>
          <path d="M436,289.09a37.75,37.75,0,0,1,2.89,75.39q-1.49.12-3,.12A37.76,37.76,0,0,1,433,289.2c1-.08,2-.11,3-.11m0-3c-1.06,0-2.14,0-3.2.12a40.76,40.76,0,0,0,3.12,81.39c1.06,0,2.14-.05,3.21-.13A40.75,40.75,0,0,0,436,286.09Z"/>
        </g>
        <g>
          <path d="M586.91,372.59s10.65-33.09-11.12-47.46-26-9.45-37-17.78-37.3-7.42-52.11,8.65c0,0-32.38-3.22-49.39,14.17s-18.22,31.26-14.43,50.47,2.31,29.66,4.51,43.25,14.2,48.29,70.69,45S586.91,372.59,586.91,372.59Z" style="fill: #382256"/>
          <path d="M520,302.17c7.57,0,14.41,1.86,18.8,5.18,11,8.33,15.18,3.41,37,17.78s11.12,47.46,11.12,47.46-32.31,93-88.81,96.32c-2.53.14-5,.21-7.31.21-50.23,0-61.27-32.24-63.38-45.23-2.2-13.59-.72-24-4.51-43.25s-2.58-33.08,14.43-50.47c12.41-12.69,33-14.4,43.24-14.4,3.78,0,6.15.23,6.15.23,8.89-9.65,21.93-13.83,33.31-13.83m0-3c-13.17,0-25.95,5.11-34.5,13.74-1.12-.07-2.82-.14-5-.14-11.36,0-32.36,2-45.39,15.31-17.89,18.3-19.13,33.34-15.22,53.14a170.64,170.64,0,0,1,3,26.38,150.33,150.33,0,0,0,1.53,16.77c1.82,11.21,12,47.75,66.34,47.75,2.43,0,4.94-.07,7.49-.22,13.54-.78,26.82-6.55,39.46-17.13,9.94-8.32,19.52-19.63,28.48-33.63a251.17,251.17,0,0,0,23.52-47.56.25.25,0,0,0,0-.07,67.83,67.83,0,0,0,2.75-19.28c-.08-14.22-5.29-25.15-15.07-31.6-12.44-8.21-19.38-10.33-25-12-4.29-1.31-7.39-2.25-11.85-5.64-4.85-3.68-12.36-5.79-20.61-5.79Z"/>
        </g>
        <path d="M472.63,404.29a74.3,74.3,0,0,1-16.38-1.87,1.5,1.5,0,0,1,.72-2.91c.22.05,22.22,5.38,35.48-2.87a1.5,1.5,0,0,1,1.59,2.55C487.64,403.17,479.63,404.29,472.63,404.29Z"/>
        <path d="M476.79,396.31a1.5,1.5,0,0,1-.56-2.9c30.64-12.19,22.08-45.61,21.7-47a1.5,1.5,0,0,1,2.9-.78c.1.37,9.65,37.41-23.49,50.59A1.54,1.54,0,0,1,476.79,396.31Z" style="fill: #fff"/>
        <path d="M383.71,320.93a1.5,1.5,0,0,1-1.43-1.05c-2.77-8.8-2.34-16.75,1.29-23.63,6.37-12.09,20.22-16.44,20.81-16.62a1.5,1.5,0,0,1,.88,2.87c-.13,0-13.28,4.19-19.05,15.17C383,303.81,382.62,311,385.14,319a1.5,1.5,0,0,1-1,1.88A1.41,1.41,0,0,1,383.71,320.93Z"/>
        <path d="M408.81,333.89a1.5,1.5,0,0,1-1.48-1.27c-1.48-9.68.22-17.55,5.05-23.4,7.81-9.47,20.89-10.09,21.44-10.11a1.5,1.5,0,0,1,.12,3c-.12,0-12.32.6-19.26,9-4.25,5.16-5.73,12.23-4.38,21a1.51,1.51,0,0,1-1.26,1.71Z" style="fill: #fff"/>
        <g>
          <path d="M545,460.64l21.53,40.78s-22.77,46.52-84.49,5.43c0,0,26.56-27.31,11.87-68.63,0,0-17.81,7.13-24.75-8.4s2.6-25.45,11.73-26.16c0,0,37.91.49,27.75-71,0,0,35-7.31,59.86,17.14s41.47,61,26.14,85.18S545,460.64,545,460.64Z" style="fill: #ffcdb2"/>
          <path d="M521,331.63c12.44,0,32,2.86,47.52,18.16,24.85,24.46,41.47,61,26.14,85.18S545,460.64,545,460.64l21.53,40.78s-11,22.38-38.27,22.38c-12.06,0-27.31-4.36-46.22-16.95,0,0,26.56-27.31,11.87-68.63a27.22,27.22,0,0,1-9.09,1.63c-5.47,0-12-1.93-15.66-10-6.95-15.52,2.6-25.45,11.73-26.16h0c1,0,37.75-.47,27.73-71a66.74,66.74,0,0,1,12.34-1m0-3v0a68.63,68.63,0,0,0-13,1.09,3,3,0,0,0-2.35,3.35c5,34.93-2,51.43-8.63,59.12-7.27,8.38-15.77,8.47-16.13,8.47h-.25a18.53,18.53,0,0,0-14.22,8.94c-3.53,5.95-3.54,13.57,0,21.44,3.45,7.72,9.82,11.8,18.4,11.8a30,30,0,0,0,7.17-.91c11.85,37.6-11.85,62.56-12.1,62.82a3,3,0,0,0,.49,4.59c17.4,11.58,33.51,17.45,47.88,17.45a46.12,46.12,0,0,0,41-24.06,3,3,0,0,0,0-2.72l-19.44-36.83c10.22-1.34,34.71-6.58,47.43-26.61,7.63-12,8.43-27.61,2.3-45.08-5.35-15.21-15.6-30.79-28.87-43.84-16-15.73-35.8-19-49.61-19Z"/>
        </g>
        <path d="M543.36,463.24a65.27,65.27,0,0,1-18.47-3.09,1.5,1.5,0,0,1,1-2.85c.13.05,12.91,4.29,23.06,2.49a1.5,1.5,0,1,1,.53,2.95A35.14,35.14,0,0,1,543.36,463.24Z"/>
        <path d="M488.75,432.09a1.44,1.44,0,0,1-.63-.14c-6.61-3.07-10.24-6.86-10.79-11.27-.79-6.35,5.2-11.31,5.46-11.51a1.5,1.5,0,1,1,1.89,2.32c-.07.06-5,4.15-4.37,8.83.42,3.31,3.47,6.31,9.08,8.91a1.5,1.5,0,0,1-.64,2.86Z"/>
        <path d="M538.18,374.19c-14.61,12.84-41,18.11-41.57,26.18s6.86,14.39,16.95,11.31,18.86-8.36,36.31-20,33.67-24.43,26.11-33S559.66,355.3,538.18,374.19Z" style="fill: #ffb49f"/>
        <path d="M535.63,356.15a1.48,1.48,0,0,1-1.13-.51,1.49,1.49,0,0,1,.14-2.12c6.37-5.59,15.79-3.57,16.19-3.48a1.5,1.5,0,0,1-.65,2.92c-.14,0-8.37-1.74-13.56,2.82A1.51,1.51,0,0,1,535.63,356.15Z"/>
        <path d="M559.88,401.17a1.51,1.51,0,0,1-1-.37l-23.62-20.74a1.5,1.5,0,0,1,2-2.26l23.63,20.74a1.51,1.51,0,0,1,.14,2.12A1.49,1.49,0,0,1,559.88,401.17Z"/>
        <g>
          <circle cx="487.24" cy="442" r="6.18" style="fill: #07acee"/>
          <path d="M487.25,435.82a6.18,6.18,0,0,1,.47,12.34l-.48,0a6.18,6.18,0,0,1-.47-12.34l.48,0m0-3q-.36,0-.72,0a9.18,9.18,0,0,0,.71,18.33q.36,0,.72,0a9.18,9.18,0,0,0-.71-18.33Z"/>
        </g>
        <circle cx="516.5" cy="398.5" r="3.5"/>
        <circle cx="559.5" cy="370.5" r="3.5"/>
        <path d="M552.35,434.62a28.81,28.81,0,0,1-11.52-2.78,1.5,1.5,0,1,1,1.34-2.68c.13.06,13,6.33,19.15-1.58a1.5,1.5,0,1,1,2.36,1.84A13.65,13.65,0,0,1,552.35,434.62Z"/>
        <path d="M508.5,370a1.47,1.47,0,0,1-.83-.25,1.5,1.5,0,0,1-.42-2.08c2.47-3.7,8.78-2.77,9.5-2.65a1.5,1.5,0,0,1-.49,3h0c-1.32-.22-5.33-.43-6.51,1.35A1.49,1.49,0,0,1,508.5,370Z"/>
        <path d="M736.5,528.5c.07-.12-15-12-15-12-27.85,38.56-63.56,39.5-63.56,39.5L664,569l-.5-.5S706.5,584.5,736.5,528.5Z" style="fill: #0598c6"/>
        <path d="M430.5,700.5s-12,38,22,82l18-10-29-76Z" style="fill: #0598c6"/>
        <circle cx="427.97" cy="558.49" r="8.14" style="fill: #51cef4"/>
        <circle cx="323.97" cy="646.49" r="8.14" style="fill: #51cef4"/>
        <circle cx="449.97" cy="649.49" r="8.14" style="fill: #51cef4"/>
        <circle cx="619.97" cy="566.49" r="8.14" style="fill: #51cef4"/>
        <circle cx="550.97" cy="611.49" r="8.14" style="fill: #51cef4"/>
        <circle cx="302.97" cy="753.49" r="8.14" style="fill: #51cef4"/>
        <circle cx="339.97" cy="808.49" r="8.14" style="fill: #51cef4"/>
        <circle cx="397.97" cy="742.49" r="8.14" style="fill: #51cef4"/>
        <circle cx="683.97" cy="627.49" r="8.14" style="fill: #51cef4"/>
        <circle cx="756.97" cy="586.49" r="8.14" style="fill: #51cef4"/>
        <circle cx="811.97" cy="649.49" r="8.14" style="fill: #51cef4"/>
        <circle cx="764.97" cy="723.49" r="8.14" style="fill: #51cef4"/>
        <circle cx="503.97" cy="852.49" r="8.14" style="fill: #51cef4"/>
        <path d="M845.14,610.7a91.86,91.86,0,0,1,13.55,19,93.27,93.27,0,0,1,8.36,21.68,90.71,90.71,0,0,1,2.65,23.55,93.21,93.21,0,0,1-3.65,23.93,92.15,92.15,0,0,1-9.76,22.28c-.52.86-1.06,1.71-1.61,2.55a1.5,1.5,0,1,0,2.59,1.51,94.68,94.68,0,0,0,10.79-22.66A96.64,96.64,0,0,0,872.59,678a93.29,93.29,0,0,0-2-24.44,96.18,96.18,0,0,0-8-22.75,94.86,94.86,0,0,0-13.35-20c-.65-.76-1.32-1.5-2-2.23-1.32-1.42-3.44.7-2.12,2.12Z"/>
        <path d="M93.51,407.18a205.52,205.52,0,0,0,29.37,35,219.67,219.67,0,0,0,36,27.73,224.91,224.91,0,0,0,41,19.91,218.15,218.15,0,0,0,44.08,11.15,207.25,207.25,0,0,0,45.35,1.58q2.85-.22,5.7-.53a1.54,1.54,0,0,0,1.5-1.5A1.52,1.52,0,0,0,295,499a204.46,204.46,0,0,1-45-.27,215,215,0,0,1-43.81-9.87,221.57,221.57,0,0,1-40.95-18.62A216.74,216.74,0,0,1,129,443.71a203.71,203.71,0,0,1-29.72-33.45q-1.6-2.28-3.14-4.6c-1.07-1.6-3.67-.1-2.59,1.52Z"/>
        <path d="M157,532a212,212,0,0,0,24.65,5.65,219.49,219.49,0,0,0,25.44,2.73,215.72,215.72,0,0,0,25.3-.26,219,219,0,0,0,25.38-3.24,211.6,211.6,0,0,0,24.54-6.14l3-1a1.54,1.54,0,0,0,1-1.85,1.51,1.51,0,0,0-1.84-1,211.79,211.79,0,0,1-49.1,10,218,218,0,0,1-25.17.62,211.1,211.1,0,0,1-49.42-7.54q-1.51-.42-3-.87c-1.85-.54-2.65,2.35-.79,2.9Z"/>
        <path d="M250.2,752.69a61.85,61.85,0,0,0-4.93,23.7,62.9,62.9,0,0,0,4.3,23.42,60,60,0,0,0,12.72,19.78,62.83,62.83,0,0,0,18.58,13.13,62.18,62.18,0,0,0,22.27,5.69c.93.06,1.85.09,2.77.1a2,2,0,1,0,0-4c-1.81,0-3.63-.13-5.43-.32l-.67-.08-.37,0-.12,0-.2,0-.29,0-.75-.11q-1.36-.23-2.73-.51a60.34,60.34,0,0,1-10.4-3.19l-.31-.13-.62-.26-1.3-.59c-.81-.38-1.61-.77-2.41-1.19q-2.46-1.28-4.8-2.77a54.42,54.42,0,0,1-8.34-6.47q-2-1.89-3.87-4c-.59-.67-1.17-1.35-1.73-2l-.42-.52c0-.08-.11-.15-.17-.23.19.25,0,0,0,0-.29-.38-.58-.76-.86-1.15a56.55,56.55,0,0,1-5.67-9.76q-.3-.64-.57-1.29c-.09-.21,0,0,0,0,0-.12-.11-.24-.16-.37s-.2-.49-.29-.74c-.36-.91-.69-1.82-1-2.74-.61-1.81-1.14-3.65-1.57-5.51s-.79-3.74-1.05-5.63c-.05-.34,0,.27,0-.07l0-.29-.09-.7-.15-1.51c-.08-.93-.14-1.87-.18-2.81-.08-1.94-.06-3.88,0-5.83,0-.93.12-1.87.22-2.8,0-.47.1-.93.15-1.4,0-.13,0-.27.05-.4,0,0,0,.27,0,0s.07-.53.12-.8A57.94,57.94,0,0,1,252.75,757c.15-.41.3-.82.46-1.23.09-.21.17-.43.26-.65l.15-.37s.15-.35,0-.08a2.06,2.06,0,0,0-.72-2.74,2,2,0,0,0-2.74.72Z" style="fill: #fff"/>
      </g>
      <g id="f8d64f67-4a68-4663-8a68-57c3ac5279a5" data-name="moneybox">
        <g>
          <path d="M658.31,775.68s12.62-17.19,25.47-15c0,0-12.43,16.47-6.21,25.37" style="fill: #4bd657"/>
          <path d="M677.57,787.5a1.49,1.49,0,0,1-1.23-.64C671,779.15,677.77,767,681,762c-10.94.41-21.41,14.46-21.52,14.62a1.5,1.5,0,1,1-2.42-1.78c.54-.73,13.34-17.91,26.93-15.64a1.53,1.53,0,0,1,1.15.92,1.5,1.5,0,0,1-.2,1.46c-.11.16-11.7,15.71-6.18,23.61a1.5,1.5,0,0,1-.37,2.09A1.44,1.44,0,0,1,677.57,787.5Z"/>
        </g>
        <g>
          <rect x="666.5" y="868.5" width="23" height="33" rx="7.63" transform="translate(-332.59 414.23) rotate(-27.57)" style="fill: #4bd657"/>
          <path d="M678.69,903.78a9.14,9.14,0,0,1-8.11-4.9l-8.21-15.72a9.13,9.13,0,0,1,3.87-12.33l6.86-3.58a9.15,9.15,0,0,1,12.32,3.87l8.21,15.72a9.13,9.13,0,0,1-3.87,12.33l-6.86,3.58A9.09,9.09,0,0,1,678.69,903.78Zm-1.38-34.56a6.08,6.08,0,0,0-2.82.69l-6.86,3.58a6.15,6.15,0,0,0-2.6,8.28l8.21,15.72a6.14,6.14,0,0,0,8.27,2.6l6.86-3.58h0a6.15,6.15,0,0,0,2.6-8.28l-8.21-15.72A6.14,6.14,0,0,0,677.31,869.22Z"/>
        </g>
        <g>
          <rect x="576.5" y="876.5" width="23" height="33" rx="7.53" transform="translate(134.44 -75.23) rotate(8.26)" style="fill: #4bd657"/>
          <path d="M590.65,911.48a8.35,8.35,0,0,1-1.31-.1h0l-7.86-1.14A9,9,0,0,1,573.85,900l2.57-17.76a9,9,0,0,1,10.24-7.63l7.86,1.14A9,9,0,0,1,602.15,886l-2.57,17.76A9,9,0,0,1,590.65,911.48Zm-.88-3.06a6.06,6.06,0,0,0,6.84-5.1l2.58-17.76a6,6,0,0,0-5.1-6.83l-7.86-1.15a6.06,6.06,0,0,0-6.84,5.1l-2.58,17.76a6,6,0,0,0,5.1,6.83Z"/>
        </g>
        <g>
          <path d="M697.6,807.75C684.52,785,655.93,769.2,622.74,769.2c-45.55,0-82.47,29.73-82.47,66.4,0,14,5.41,27,14.62,37.73L544.45,885a7.53,7.53,0,0,0,.6,10.63L551,901a7.54,7.54,0,0,0,10.63-.61l10.83-12.15c13.93,8.65,31.36,13.8,50.3,13.8a101.46,101.46,0,0,0,19.94-2l1.57,8.82a7.53,7.53,0,0,0,8.73,6.09l7.82-1.39a7.53,7.53,0,0,0,6.09-8.73l-2.15-12.09c21.32-10.19,36.45-27.88,39.76-48.56h9.27V807.75Z" style="fill: #4bd657"/>
          <path d="M651.64,916.56a9,9,0,0,1-8.87-7.45l-1.3-7.32a102.93,102.93,0,0,1-18.73,1.71,96.89,96.89,0,0,1-50-13.36l-10,11.21a9,9,0,0,1-12.75.73l-5.93-5.29a9,9,0,0,1-.72-12.75l9.58-10.74c-9.26-11.18-14.14-24.19-14.14-37.7,0-37.44,37.67-67.9,84-67.9,32.2,0,61.81,15.1,75.72,38.55h15.31a1.5,1.5,0,0,1,1.5,1.5v36.42a1.5,1.5,0,0,1-1.5,1.5h-8c-3.66,20-17.91,37.34-39.34,47.91l2,11A9,9,0,0,1,661.06,915l-7.82,1.39A9.61,9.61,0,0,1,651.64,916.56Zm-9-18a1.49,1.49,0,0,1,1.48,1.24l1.56,8.81a6,6,0,0,0,7,4.88l7.82-1.39a6,6,0,0,0,4.88-7L663.27,893a1.49,1.49,0,0,1,.83-1.61c21.55-10.31,35.74-27.6,38.92-47.45a1.49,1.49,0,0,1,1.48-1.26h7.77V809.25H697.6a1.49,1.49,0,0,1-1.3-.75c-13.2-23-42.07-37.8-73.56-37.8-44.65,0-81,29.11-81,64.9,0,13.19,4.93,25.9,14.26,36.75a1.51,1.51,0,0,1,0,2L545.57,886a6,6,0,0,0,.48,8.51l5.93,5.29a6,6,0,0,0,8.51-.49l10.83-12.14a1.49,1.49,0,0,1,1.91-.28c14.31,8.88,31.42,13.57,49.51,13.57a100.1,100.1,0,0,0,19.65-1.94A1.36,1.36,0,0,1,642.68,898.53Z"/>
        </g>
        <g>
          <path d="M580.34,779.85s-4,2-5.39,8.15c0,0,29.06-12.07,57-7.23,0,0-2.24-7.13,9.72-8.33C641.64,772.44,612,765,580.34,779.85Z" style="fill: #382256"/>
          <path d="M622.84,770.57a84.6,84.6,0,0,1,18.8,1.87c-12,1.2-9.72,8.33-9.72,8.33A81.51,81.51,0,0,0,618,779.62c-22.86,0-43,8.38-43,8.38,1.43-6.12,5.39-8.15,5.39-8.15a100.32,100.32,0,0,1,42.5-9.28m0-3a104,104,0,0,0-43.78,9.57l-.09,0c-.53.28-5.25,2.88-6.94,10.14A3,3,0,0,0,575,791a2.88,2.88,0,0,0,1.15-.23c.2-.08,19.92-8.15,41.88-8.15a79,79,0,0,1,13.43,1.1,2.84,2.84,0,0,0,.58,0,2.91,2.91,0,0,0,2.81-3.87,2.45,2.45,0,0,1,.4-1.89c.54-.77,2.13-2.13,6.74-2.59a3,3,0,0,0,.43-5.89,87,87,0,0,0-19.53-2Z"/>
        </g>
        <g>
          <ellipse cx="712.7" cy="826.5" rx="6.87" ry="16.5" style="fill: #382256"/>
          <path d="M712.7,810c3.8,0,6.87,7.39,6.87,16.5S716.5,843,712.7,843s-6.87-7.39-6.87-16.5,3.08-16.5,6.87-16.5m0-3c-6.48,0-9.87,9.81-9.87,19.5s3.39,19.5,9.87,19.5,9.87-9.81,9.87-19.5S719.18,807,712.7,807Z"/>
        </g>
        <g>
          <path d="M653.8,794.9s-12.85-10.71-23.56-15c0,0-6.43,17.13,0,32.13" style="fill: #4bd657"/>
          <path d="M630.24,813.54a1.49,1.49,0,0,1-1.38-.91c-6.59-15.37-.3-32.53,0-33.25a1.47,1.47,0,0,1,.8-.84,1.51,1.51,0,0,1,1.16,0c10.81,4.33,23.43,14.8,24,15.24a1.5,1.5,0,1,1-1.92,2.3c-.12-.1-11.64-9.64-21.69-14.12-1.32,4.4-4.57,17.76.46,29.52a1.5,1.5,0,0,1-.78,2A1.59,1.59,0,0,1,630.24,813.54Z"/>
        </g>
        <g>
          <circle cx="668.79" cy="824.89" r="6.43" style="fill: #382256"/>
          <path d="M668.79,818.46a6.43,6.43,0,1,1-6.43,6.43,6.43,6.43,0,0,1,6.43-6.43m0-3a9.43,9.43,0,1,0,9.43,9.43,9.44,9.44,0,0,0-9.43-9.43Z"/>
        </g>
        <path d="M550,805.12a7.54,7.54,0,0,0,1-6.33,10.58,10.58,0,0,0-3.6-5.35,21.12,21.12,0,0,0-11.22-4.58,23.11,23.11,0,0,0-11.53,1.67c-3.68,1.54-7.27,4.1-9.18,7.7a8.87,8.87,0,0,0-1,6.25,6.6,6.6,0,0,0,3.77,4.37,7.58,7.58,0,0,0,5.71.22,8,8,0,0,0,4.36-4.11,10.1,10.1,0,0,0-2.65-11.67c-3.39-3.11-8.26-4.08-12.72-3.57a22.34,22.34,0,0,0-12.38,5.49,22,22,0,0,0-6.57,11,23.68,23.68,0,0,0-.55,3.37,1.5,1.5,0,0,0,3,0,19,19,0,0,1,12.87-16.08,16.81,16.81,0,0,1,11.22,0c3,1.19,5.65,4,5.7,7.29a6.16,6.16,0,0,1-1.37,4,4.86,4.86,0,0,1-1.76,1.35,4.4,4.4,0,0,1-1.79.33A4.33,4.33,0,0,1,518,805a4.28,4.28,0,0,1-.48-4c1-3.16,3.87-5.49,6.68-7a20.19,20.19,0,0,1,9.28-2.32,19.22,19.22,0,0,1,9.29,2.2c2.85,1.54,6,4.19,5.47,7.71a4.36,4.36,0,0,1-.85,2,1.51,1.51,0,0,0,.54,2,1.53,1.53,0,0,0,2-.54Z"/>
        <path d="M550.27,836.66a64.11,64.11,0,0,0,14.34,29.13,63.57,63.57,0,0,0,47,21.74,2,2,0,0,0,2-2,2,2,0,0,0-2-2,56.89,56.89,0,0,1-16-2.44c-1.31-.38-2.61-.81-3.89-1.28q-.93-.34-1.86-.72l-.69-.29-1-.42a61.78,61.78,0,0,1-7.32-3.89c-1.16-.72-2.29-1.48-3.4-2.27s-1.93-1.43-3.07-2.39a61,61,0,0,1-5.64-5.38,60,60,0,0,1-14.63-28.85,2,2,0,0,0-2.46-1.4,2.05,2.05,0,0,0-1.4,2.46Z" style="fill: #fff"/>
      </g>
      <g id="b977f571-8902-4ab1-ac26-b92d3e08d819" data-name="message">
        <g>
          <path d="M549.16,173.88c0-46,49.73-83.38,111.09-83.38s111.09,37.33,111.09,83.38-49.73,83.38-111.09,83.38a148,148,0,0,1-22.42-1.7L612.64,280l-5.9-33C572.41,232.77,549.16,205.37,549.16,173.88Z" style="fill: #fff"/>
          <path d="M660.25,90.5c61.36,0,111.09,37.33,111.09,83.38s-49.73,83.38-111.09,83.38a148,148,0,0,1-22.42-1.7L612.64,280l-5.9-33c-34.33-14.19-57.58-41.59-57.58-73.08,0-46,49.73-83.38,111.09-83.38m0-3c-30.32,0-58.86,8.89-80.36,25-21.75,16.33-33.73,38.12-33.73,61.36,0,31.19,22.14,59.89,57.91,75.21l5.62,31.44a3,3,0,0,0,2,2.33,3.21,3.21,0,0,0,.92.14,3,3,0,0,0,2.09-.85l24.12-23.4a152.16,152.16,0,0,0,21.4,1.51c30.32,0,58.86-8.89,80.36-25,21.75-16.33,33.73-38.12,33.73-61.36s-12-45-33.73-61.36c-21.5-16.13-50-25-80.36-25Z"/>
        </g>
        <path d="M718.44,168.75h-109a1.5,1.5,0,0,1,0-3h109a1.5,1.5,0,0,1,0,3Z"/>
        <path d="M678.44,197H615a1.5,1.5,0,0,1,0-3h63.48a1.5,1.5,0,0,1,0,3Z"/>
        <path d="M584.32,213.67c-1.24-1.26-2.42-2.56-3.54-3.92q-.39-.47-.78-1l-.38-.48c-.14-.18,0,0,0,0l-.24-.33q-.78-1-1.5-2.07a60.32,60.32,0,0,1-5.09-8.86c-.17-.36-.34-.73-.5-1.1l-.24-.55s-.13-.3-.06-.13-.08-.19-.09-.22c-.33-.8-.65-1.61-.94-2.43q-.86-2.34-1.5-4.75t-1.11-4.93c-.07-.39-.13-.79-.2-1.18,0-.19-.06-.39-.08-.58s0-.2-.05-.3c0-.33,0,.28,0,0q-.16-1.23-.27-2.46a54.33,54.33,0,0,1,.06-10c0-.41.08-.82.13-1.22,0-.19,0-.38.08-.56,0,.36,0-.2,0-.31.12-.78.25-1.55.4-2.32.3-1.55.66-3.08,1.09-4.6s.94-3.08,1.51-4.59c.13-.36.27-.71.41-1.07l.21-.53c0-.09.26-.61.13-.31.33-.76.67-1.52,1-2.27a62.81,62.81,0,0,1,4.86-8.42c.46-.67.93-1.33,1.42-2,.12-.16.23-.32.35-.47s.34-.44.16-.22l.79-1q1.59-2,3.31-3.77a65.55,65.55,0,0,1,7.32-6.64l.36-.27.48-.36,1.07-.77a2,2,0,0,0,.71-2.74,2,2,0,0,0-2.73-.71,68.48,68.48,0,0,0-15.16,14.76,62.87,62.87,0,0,0-9.33,17.85,56.37,56.37,0,0,0-2.84,20,59.3,59.3,0,0,0,4.48,20.29,64,64,0,0,0,11.56,18.33c.6.67,1.22,1.33,1.85,2a2,2,0,0,0,2.83,0,2.05,2.05,0,0,0,0-2.83Z" style="fill: #fff"/>
        <path d="M697.67,126.42a1.5,1.5,0,0,1-.09-3c46.36-3.1,83.84-28.87,107.13-49.95a255.48,255.48,0,0,0,39.92-45.61,1.5,1.5,0,1,1,2.52,1.62c-.14.23-14.79,23-40.37,46.16-23.65,21.42-61.75,47.62-109,50.77Z"/>
        <path d="M753.29,162.67c-2.71,0-5.5-.13-8.36-.41a1.5,1.5,0,0,1,.29-3c53,5.15,80.77-41.77,81-42.24a1.5,1.5,0,1,1,2.59,1.5,98.21,98.21,0,0,1-21.1,23.89C796.23,152,777.81,162.67,753.29,162.67Z"/>
      </g>
    </g>
  </g>
</svg>
