<svg xmlns="http://www.w3.org/2000/svg" width="1000" height="1000" viewBox="0 0 1000 1000">
  <g id="f99bec2e-7a95-4440-930d-18628b36dbcf" data-name="illustration">
    <g id="f8905992-eb47-49c6-8893-9b54882c250d" data-name="New">
      <g id="abb95756-d506-42e2-b23b-f10ccd15ce08" data-name="line">
        <path d="M842.72,924.05h0L294,927.39a2,2,0,0,0,0,4h0l548.71-3.34a2,2,0,0,0,0-4Z"/>
        <path d="M918.25,900.34H839.38a1.5,1.5,0,0,0,0,3h78.87a1.5,1.5,0,0,0,0-3Z"/>
        <path d="M310.67,947h-82.2a1.5,1.5,0,0,0,0,3h82.2a1.5,1.5,0,1,0,0-3Z"/>
      </g>
      <g id="b7ad914b-8ae3-4dad-9612-40b3bd794301" data-name="woman">
        <path d="M746.53,599.52A69.78,69.78,0,0,1,737,599a1.5,1.5,0,1,1,.45-3c.18,0,18.41,2.64,43.1-4.58,22.78-6.67,55.89-23.31,84.28-64.76a1.5,1.5,0,0,1,2.48,1.69c-28.94,42.26-62.78,59.21-86.07,66A125,125,0,0,1,746.53,599.52Z"/>
        <path d="M806.09,622.18c-16.85,0-27.88-4.22-28.34-4.41a1.5,1.5,0,1,1,1.09-2.79c.45.17,45.33,17,90.72-18.67a1.5,1.5,0,0,1,1.85,2.36c-24.43,19.2-48.56,23.38-64.5,23.51Z"/>
        <g>
          <g>
            <circle cx="655" cy="418.66" r="36.65" style="fill: #382256"/>
            <path d="M655,382a36.66,36.66,0,1,1-36.66,36.65A36.65,36.65,0,0,1,655,382m0-3a39.66,39.66,0,1,0,39.65,39.65A39.7,39.7,0,0,0,655,379Z"/>
          </g>
          <g>
            <path d="M645,551.56s-1.12,33.72,23.32,29.27S745,566.39,755,603.05s5.55,43.32,32.21,45.54S857,701.2,794.87,743.2,595,580.83,595,580.83l5.78-20.1Z" style="fill: #382256"/>
            <path d="M645,551.56s-1,29.68,19.07,29.68a23.35,23.35,0,0,0,4.25-.41c10.18-1.85,25.2-4.67,40-4.67,20.66,0,40.84,5.51,46.67,26.89,10,36.65,5.55,43.32,32.21,45.54S857,701.2,794.87,743.2a33.38,33.38,0,0,1-19.16,5.69C708.28,748.89,595,580.83,595,580.83l5.78-20.1L645,551.56m0-3a3.15,3.15,0,0,0-.61.06l-44.21,9.18a3,3,0,0,0-2.27,2.1L592.14,580a3,3,0,0,0,.39,2.51,967.25,967.25,0,0,0,65.29,84.33c49.36,56.44,89,85,117.89,85a36.48,36.48,0,0,0,20.84-6.2c35.45-24,35.1-49.12,31.74-62-5.55-21.22-25.61-36.83-40.86-38.1-19.5-1.63-20.15-4.36-25.15-25.66-1.19-5.05-2.54-10.78-4.42-17.68-5.26-19.31-21.94-29.1-49.56-29.1-14.59,0-29.63,2.74-39.57,4.55l-.94.17a20.4,20.4,0,0,1-3.71.36,12.37,12.37,0,0,1-9.36-3.81c-7.14-7.37-6.72-22.62-6.71-22.77a3,3,0,0,0-3-3.1Z"/>
          </g>
          <path d="M801.46,738.4c-2.39-55.68-87.59-117.58-115.36-127.58S625,585.28,620.57,573.06s15.9-16.59,15.9-16.59l-5.92-1.91-29.75,6.17L595,580.83S732.75,785.21,794.87,743.2C797.22,741.61,799.4,740,801.46,738.4Z" style="fill: #050505"/>
          <g>
            <path d="M512.3,474.33s-12.81-31.23,7.19-46.78,24.43-11.11,34.43-20,35.54-10,51.1,4.45c0,0,31.1-5.56,48.87,10s20,28.88,17.77,47.77,0,28.88-1.11,42.21-10.1,47.81-65,48.89S512.3,474.33,512.3,474.33Z" style="fill: #382256"/>
            <path d="M575.32,401c10.15,0,21.36,3.28,29.7,11a81.16,81.16,0,0,1,13-1c10.62,0,25.52,1.89,35.89,11,17.77,15.56,20,28.88,17.77,47.77s0,28.88-1.11,42.21-10.1,47.81-65,48.89h-1c-54.4,0-92.21-86.54-92.21-86.54s-12.81-31.23,7.19-46.78,24.43-11.11,34.43-20c4.64-4.12,12.62-6.57,21.4-6.57m0-3c-9.49,0-18.23,2.74-23.39,7.33-4,3.6-7,4.75-11,6.34-5.27,2.06-11.83,4.64-23.26,13.53-9,7-13.24,18-12.25,31.8a66,66,0,0,0,4.12,18.48l0,.07a243.93,243.93,0,0,0,26.06,43.87c9.61,12.8,19.63,23,29.78,30.38,12.9,9.35,26.06,14.09,39.12,14.09h1.07c24.55-.48,43-7.5,54.88-20.86a53.44,53.44,0,0,0,13.08-30.79,147.51,147.51,0,0,0,.22-16.36,164.1,164.1,0,0,1,.88-25.74c2.29-19.49,0-34-18.78-50.37C644.81,410.06,629.17,408,618,408a89.81,89.81,0,0,0-12,.79c-8-6.9-19.09-10.84-30.64-10.84Z"/>
          </g>
          <g>
            <path d="M238.47,495.3v18.89S205.14,532,220.69,580.83s48.88,149.95,216.6,135.51c0,0-46.65,124.41-31.1,211l347.67-4.45s64.42-15.55,61.09-58.87S805,825.2,806.06,793,773.85,641.92,623.9,596.38c0,0-48.88,45.54-82.2,1.11,0,0-115.52,24.44-153.28,22.22s-38.88-10-36.66-42.21-8.88-61.09-44.43-74.42l-2.22-14.44S289.56,502,238.47,495.3Z" style="fill: #07acee"/>
            <path d="M305.11,488.64l2.22,14.44c35.55,13.33,46.65,42.21,44.43,74.42s-1.11,40,36.66,42.21c1.64.1,3.43.14,5.35.14,42.24,0,147.93-22.36,147.93-22.36C552.63,612.06,565.22,617,577.22,617c24.6,0,46.68-20.58,46.68-20.58,150,45.54,183.27,164.39,182.16,196.61s5.55,27.76,8.89,71.08-61.09,58.87-61.09,58.87l-347.67,4.45c-15.55-86.64,31.1-211,31.1-211-11,.95-21.43,1.4-31.32,1.4-140.68,0-170.75-91.24-185.28-136.91-15.55-48.87,17.78-66.64,17.78-66.64V495.3A204.59,204.59,0,0,0,265,497.17c30.14,0,40.09-8.53,40.09-8.53m0-3a3,3,0,0,0-1.93.7h0c-.09.08-9.87,7.83-38.16,7.83a204.53,204.53,0,0,1-26.17-1.84,2.34,2.34,0,0,0-.38,0,3,3,0,0,0-3,3v17.21a47.92,47.92,0,0,0-14.29,15.12c-6.15,10.16-11.72,27.79-3.34,54.11,6.81,21.43,18.23,57.3,46,86.73a154.51,154.51,0,0,0,54.75,37.08c24.83,10.08,54.23,15.19,87.38,15.19,8.65,0,17.69-.35,26.93-1a679.41,679.41,0,0,0-19.91,69c-8.93,38.53-17.88,94-9.75,139.22a3,3,0,0,0,2.95,2.47h0l347.66-4.45a3,3,0,0,0,.67-.08,131.42,131.42,0,0,0,32.62-13.53c21.58-12.79,32.21-29.56,30.76-48.49-1.59-20.6-3.94-30.62-5.83-38.66-2.1-9-3.63-15.43-3.05-32.09.5-14.46-6.17-53-34.95-95.1a247.15,247.15,0,0,0-56.54-58.61c-26.52-19.79-57.75-35.22-92.8-45.87a3.27,3.27,0,0,0-.87-.13,3,3,0,0,0-2,.81c-.21.19-21.53,19.77-44.63,19.77-12.89,0-24-6.15-33.12-18.27a3,3,0,0,0-2.4-1.2,2.68,2.68,0,0,0-.62.07c-1.05.22-105.86,22.29-147.31,22.29-1.88,0-3.62-.05-5.18-.14-17.84-1.05-26.41-3.29-30.55-8-4.69-5.33-4.37-15.27-3.28-31,2.59-37.65-12.86-64.17-44.73-76.8l-1.95-12.73a3,3,0,0,0-1.93-2.35,2.86,2.86,0,0,0-1-.19Z"/>
          </g>
          <path d="M412.77,717.66c7.84-.16,16-.58,24.52-1.32,0,0,10-28.88,48.87-67.75C486.16,648.59,433.12,676.47,412.77,717.66Z" style="fill: #0598c6"/>
          <path d="M691.65,883c-13.33-7.78-24.43-4.45-21.1-20s26.66-42.21,28.88-66.64-8.89-58.87-48.87-96.64c0,0,41.09,48.88,32.21,87.75s-37.77,72.2-15.55,91.08c0,0-20.2,31.44-13.43,45.71h0l47.43-.6C701.65,919.13,703.94,890.12,691.65,883Z" style="fill: #0598c6"/>
          <path d="M437.29,717.84a1.52,1.52,0,0,1-.59-.12,1.5,1.5,0,0,1-.78-2c14.38-33.19,52.12-72.26,52.5-72.65a1.5,1.5,0,1,1,2.15,2.09c-.37.39-37.74,39.07-51.9,71.75A1.5,1.5,0,0,1,437.29,717.84Z"/>
          <path d="M681,879.78a1.54,1.54,0,0,1-.77-.21c-17.58-10.59-12.48-19.23-2.32-36.46,2.74-4.66,5.86-9.94,9.13-16.2,15.38-29.44,13.18-42.44,3-72.08-10-29-40.09-53.74-40.39-54a1.5,1.5,0,0,1,1.89-2.33c1.27,1,31.07,25.52,41.33,55.33s12.69,44.1-3.16,74.45c-3.31,6.33-6.44,11.64-9.21,16.33C670.18,862.07,666.71,868,681.75,877a1.5,1.5,0,0,1-.78,2.78Z"/>
          <path d="M305.11,488.64S289.56,502,238.47,495.3v18.89S288,534,307.33,503.08Z" style="fill: #0598c6"/>
          <path d="M273.28,673.58c22.3,20.59,54.06,37.13,100.32,42.4C372.11,637.87,273.28,673.58,273.28,673.58Z" style="fill: #0598c6"/>
          <g>
            <circle cx="330.86" cy="584.41" r="8.14" style="fill: #51cef4"/>
            <circle cx="404.86" cy="666.41" r="8.14" style="fill: #51cef4"/>
            <circle cx="528.86" cy="693.41" r="8.14" style="fill: #51cef4"/>
            <circle cx="454.86" cy="784.41" r="8.14" style="fill: #51cef4"/>
            <circle cx="630.86" cy="740.41" r="8.14" style="fill: #51cef4"/>
            <circle cx="554.86" cy="772.41" r="8.14" style="fill: #51cef4"/>
            <circle cx="642.86" cy="828.41" r="8.14" style="fill: #51cef4"/>
            <circle cx="428.86" cy="907.41" r="8.14" style="fill: #51cef4"/>
            <circle cx="515.86" cy="856.41" r="8.14" style="fill: #51cef4"/>
            <circle cx="607.86" cy="904.41" r="8.14" style="fill: #51cef4"/>
            <circle cx="658.86" cy="638.41" r="8.14" style="fill: #51cef4"/>
            <circle cx="707.86" cy="725.41" r="8.14" style="fill: #51cef4"/>
            <circle cx="792.86" cy="844.41" r="8.14" style="fill: #51cef4"/>
            <circle cx="722.86" cy="820.41" r="8.14" style="fill: #51cef4"/>
            <circle cx="294.33" cy="631.86" r="8.14" style="fill: #51cef4"/>
            <circle cx="249.14" cy="554.14" r="8.14" style="fill: #51cef4"/>
          </g>
          <g>
            <path d="M541.7,597.49s-21.1,8.89-8.88,21.11,31,4.12,40.51-1.83c0,0-2.75,15.16,17.25,12.94s35.54-7.78,33.32-32.22Z" style="fill: #fff"/>
            <path d="M623.9,597.49c2.22,24.44-13.33,30-33.32,32.22a34.88,34.88,0,0,1-3.79.22c-15.85,0-13.46-13.16-13.46-13.16C567.46,620.46,558,625,548.77,625a21.75,21.75,0,0,1-15.95-6.36c-12.22-12.22,8.88-21.11,8.88-21.11h82.2m0-3H541.7a2.9,2.9,0,0,0-1.16.24c-1.29.54-12.65,5.55-14.33,14.11-.8,4.11.71,8.1,4.48,11.88A24.67,24.67,0,0,0,548.77,628c8.32,0,16.44-3.35,21.76-6.13a13.21,13.21,0,0,0,2.78,5.91c2.87,3.44,7.41,5.19,13.48,5.19a37.59,37.59,0,0,0,4.12-.24c9-1,19.25-2.79,26.49-8.39,7.51-5.8,10.61-14.66,9.49-27.08a3,3,0,0,0-3-2.73Z"/>
          </g>
          <g>
            <path d="M664.31,924.22s-8.2-35.71,27.34-51.26,73.31-18.88,96.64,0,25.55,42.21,18.88,57.76-23.32,18.88-41.1,6.66c0,0-16.66,24.44-46.65,1.11,0,0-38.87,26.66-40-15.55Z" style="fill: #ffcdb2"/>
            <path d="M747,860c15.85,0,30.23,4,41.33,12.94,23.32,18.88,25.55,42.21,18.88,57.76-3.92,9.16-11.32,14.08-20.37,14.08-6.31,0-13.42-2.39-20.73-7.42,0,0-7.63,11.2-21.87,11.2-6.79,0-15.09-2.55-24.78-10.09,0,0-12.11,8.31-23,8.31-8.63,0-16.49-5.2-17-23.86l-15.13,1.28s-8.2-35.71,27.34-51.26C710.28,864.81,729.52,860,747,860m0-3c-17.24,0-36.78,4.56-56.51,13.19-19.52,8.54-26.39,23-28.73,33.57a52.61,52.61,0,0,0-.33,21.11,3,3,0,0,0,2.92,2.33h.26l12-1c1.47,19.41,11.46,23.61,19.82,23.61,9.2,0,18.89-5.25,22.86-7.66,8.55,6.27,16.93,9.44,24.92,9.44a30.57,30.57,0,0,0,22.49-10.21c6.82,4.21,13.72,6.43,20.11,6.43,10.37,0,18.8-5.8,23.13-15.9a46,46,0,0,0,2-29.57c-3-11.71-10.55-22.68-21.7-31.7S764.48,857,747,857Z"/>
          </g>
          <path d="M719.42,940a1.64,1.64,0,0,1-.53-.09A1.51,1.51,0,0,1,718,938c8.54-22.43-2.06-45.25-2.17-45.47a1.5,1.5,0,1,1,2.71-1.29c.46,1,11.27,24.18,2.26,47.83A1.48,1.48,0,0,1,719.42,940Z"/>
          <path d="M766.08,940a1.4,1.4,0,0,1-.41,0,1.5,1.5,0,0,1-1-1.85c9.62-34.2-7.11-48.28-7.28-48.42a1.5,1.5,0,1,1,1.9-2.32c.75.61,18.42,15.47,8.27,51.55A1.5,1.5,0,0,1,766.08,940Z"/>
          <path d="M801.18,933.83a2.1,2.1,0,0,1-.56-.08,2,2,0,0,1-1.37-2.47c4.25-14.69,3.37-27.32-2.61-37.53-9.52-16.28-29-21-29.24-21.06a2,2,0,0,1,.91-3.9c.86.2,21.34,5.14,31.77,22.91,6.56,11.2,7.58,24.88,3,40.68A2,2,0,0,1,801.18,933.83Z" style="fill: #fff"/>
          <g>
            <path d="M182.93,416.44s-21.26,51.63,57.68,79.13c0,0,43.4,13.06,64.5-6.93v-5.55s31.1-18.89,25.55-40c0,0-22.22-7.78-47.76,17.77,0,0-13.33-38.88-54.43-38.88,0,0-16.66-10-23.33-1.11C205.14,420.88,197.37,410.89,182.93,416.44Z" style="fill: #ffcdb2"/>
            <path d="M191.39,414.76a18.14,18.14,0,0,1,13.75,6.12c2.06-2.73,5.05-3.68,8.22-3.68,7.12,0,15.11,4.79,15.11,4.79,41.1,0,54.43,38.88,54.43,38.88C298.78,445,313.37,442,322.14,442a28.25,28.25,0,0,1,8.52,1.11c5.55,21.1-25.55,40-25.55,40v5.55c-9.15,8.67-22.49,11.12-34.67,11.12a116.21,116.21,0,0,1-29.83-4.19c-78.94-27.5-57.68-79.13-57.68-79.13a23.42,23.42,0,0,1,8.46-1.68m0-3a26.56,26.56,0,0,0-9.54,1.88,3,3,0,0,0-1.69,1.66c-.31.74-7.34,18.32,1.89,38.86,8.56,19,27.93,33.92,57.57,44.25l.12,0a118.84,118.84,0,0,0,30.7,4.31c16,0,28.37-4,36.74-11.94a3,3,0,0,0,.93-2.18v-3.91c6.38-4.21,30.84-21.91,25.45-42.39a3,3,0,0,0-1.91-2.07,30.91,30.91,0,0,0-9.51-1.28c-9.21,0-23.06,3-38.17,16.71a71.36,71.36,0,0,0-10.61-16.24A58.08,58.08,0,0,0,229.27,419c-2.27-1.25-9.29-4.8-15.91-4.8a13.49,13.49,0,0,0-8.22,2.49,21.39,21.39,0,0,0-13.75-4.93Z"/>
          </g>
          <path d="M277.34,480.14h-.08a1.49,1.49,0,0,1-1.41-1.57c0-.2.09-4.11-3.9-8-4.37-4.21-14.28-8.86-36.7-7.13a1.54,1.54,0,0,1-1.4-.72c-.15-.25-15.64-25.6-29.81-40.86a1.5,1.5,0,0,1,2.2-2c13,14,26.94,36.13,29.69,40.56,18.51-1.31,31.36,1.43,38.2,8.13,4.95,4.84,4.72,10,4.71,10.18A1.5,1.5,0,0,1,277.34,480.14Z"/>
          <path d="M256.24,455.71a1.5,1.5,0,0,1-1.39-.95c-.07-.16-6.81-16.52-27.31-32.7a1.5,1.5,0,1,1,1.86-2.35c21.17,16.71,28,33.24,28.23,33.94a1.5,1.5,0,0,1-.83,2A1.59,1.59,0,0,1,256.24,455.71Z"/>
          <path d="M238.91,488.42l-.35,0c-31.69-5.66-48.48-36.38-49.18-37.68a2,2,0,0,1,3.53-1.89c.16.3,16.6,30.32,46.35,35.63a2,2,0,0,1-.35,4Z" style="fill: #fff"/>
          <g>
            <path d="M559.47,556.4,541.7,597.49s25.55,43.32,82.2-1.11c0,0-27.77-24.43-16.66-65.53,0,0,17.77,5.55,23.32-10s-4.44-24.44-13.33-24.44c0,0-36.65,3.34-32.21-66.64,0,0-34.43-4.44-56.65,21.1s-35.54,62.21-18.88,84.42S559.47,556.4,559.47,556.4Z" style="fill: #ffcdb2"/>
            <path d="M578.94,429.47a51.8,51.8,0,0,1,6.08.3c-4.06,63.9,26.15,66.67,31.43,66.67.51,0,.78,0,.78,0,8.89,0,18.89,8.89,13.33,24.44-3.24,9.07-10.63,11-16.24,11a26.32,26.32,0,0,1-7.08-1c-11.11,41.1,16.66,65.53,16.66,65.53-19.21,15.06-34.83,20-47.11,20-23.92,0-35.09-18.93-35.09-18.93l17.77-41.09h-.78c-5.14,0-34.05-.91-49.2-21.11-16.66-22.21-3.33-58.87,18.88-84.42,16.49-18.95,39.69-21.4,50.57-21.4m0-3c-12.44,0-35.86,2.92-52.83,22.44-11.87,13.65-20.63,29.5-24.66,44.65-4.62,17.39-2.67,32.45,5.64,43.53,13.71,18.28,37.72,21.62,47.86,22.2l-16,37a3,3,0,0,0,.17,2.72c.49.83,12.32,20.4,37.67,20.4,15,0,31.46-7,49-20.68a3,3,0,0,0,.13-4.61A58.41,58.41,0,0,1,614,577.47c-6.54-13.38-8.07-27.86-4.54-43.07a30.3,30.3,0,0,0,4.88.41c9.31,0,16.08-4.6,19.07-12.95,2.82-7.91,2.24-15.31-1.65-20.83a18.06,18.06,0,0,0-14.51-7.62l-.27,0h-.51c-2.14,0-9.66-.56-16.42-7.76-9.53-10.16-13.68-29.42-12-55.72a3,3,0,0,0-2.61-3.17,56.51,56.51,0,0,0-6.47-.32Z"/>
          </g>
          <path d="M558.35,559c-1,0-2-.05-3-.14a1.5,1.5,0,1,1,.29-3c10,1,22-4.08,22.12-4.14a1.5,1.5,0,0,1,1.18,2.76C578.47,554.64,568.25,559,558.35,559Z"/>
          <path d="M611.68,524.57a1.5,1.5,0,0,1-.74-2.8c5.23-2.94,7.95-6.06,8.1-9.29.21-4.59-4.83-8.13-4.88-8.17a1.5,1.5,0,1,1,1.71-2.46c.26.18,6.46,4.54,6.17,10.77-.21,4.33-3.44,8.28-9.62,11.76A1.54,1.54,0,0,1,611.68,524.57Z"/>
          <path d="M559.58,472.2c15.11,11.33,41.1,14.44,42.21,22.21s-5.55,14.44-15.55,12.22S567.36,500,549.59,490s-34.44-21.1-27.77-30S537.37,455.54,559.58,472.2Z" style="fill: #ffb49f"/>
          <path d="M550.59,476.14a1.49,1.49,0,0,1-1.49-1.31c-.56-4.44-2.36-7.83-5.36-10.07-6-4.51-15-3.09-15.12-3.08a1.5,1.5,0,1,1-.49-3c.41-.07,10.33-1.64,17.39,3.62,3.69,2.75,5.9,6.83,6.56,12.12a1.5,1.5,0,0,1-1.31,1.67Z"/>
          <path d="M591.46,499.58a1.51,1.51,0,0,1-1.4-1C584,482.36,569.15,486,568.52,486.2a1.5,1.5,0,0,1-.77-2.9c.18-.05,18.06-4.57,25.12,14.25a1.5,1.5,0,0,1-.88,1.93A1.39,1.39,0,0,1,591.46,499.58Z"/>
          <path d="M556.74,454.91a26,26,0,0,1-8.93-1.53,1.5,1.5,0,1,1,1.11-2.79,24,24,0,0,0,11.42,1,1.5,1.5,0,0,1,.49,3A25.67,25.67,0,0,1,556.74,454.91Z"/>
          <path d="M562.34,529a19.42,19.42,0,0,1-12.81-4.86,1.49,1.49,0,0,1,0-2.12,1.51,1.51,0,0,1,2.12,0c.38.38,9.35,9,22.52-.17a1.5,1.5,0,1,1,1.71,2.47C570.81,527.82,566.22,529,562.34,529Z"/>
          <path d="M620.76,496.62c-5.58,0-11.49-.87-16.58-3.51a1.5,1.5,0,0,1,1.38-2.66c13.45,7,34.32.17,34.52.1a1.5,1.5,0,1,1,.95,2.84A70.78,70.78,0,0,1,620.76,496.62Z"/>
          <path d="M705,409.06a1.86,1.86,0,0,1-.33,0,1.51,1.51,0,0,1-1.13-1.8c1.83-7.93.94-14.83-2.64-20.52-6.4-10.18-19.42-13.2-19.55-13.23a1.5,1.5,0,1,1,.65-2.92c.58.13,14.34,3.29,21.43,14.53,4,6.4,5.05,14.07,3,22.81A1.49,1.49,0,0,1,705,409.06Z"/>
          <path d="M540.5,500a1.48,1.48,0,0,1-1-.43,1.5,1.5,0,0,1,0-2.12l21.3-21.85a1.5,1.5,0,0,1,2.15,2.09l-21.31,21.86A1.48,1.48,0,0,1,540.5,500Z"/>
          <g>
            <circle cx="614" cy="534" r="6" style="fill: #07acee"/>
            <path d="M614,528a6,6,0,1,1-6,6,6,6,0,0,1,6-6m0-3a9,9,0,1,0,9,9,9,9,0,0,0-9-9Z"/>
          </g>
          <path d="M681.66,423.49h-.11a1.5,1.5,0,0,1-1.39-1.61c.64-8.6-1.32-15.33-5.83-20-7.37-7.63-19.15-7.27-19.27-7.27a1.5,1.5,0,1,1-.12-3c.54,0,13.26-.41,21.55,8.18,5.13,5.31,7.37,12.81,6.66,22.31A1.49,1.49,0,0,1,681.66,423.49Z" style="fill: #fff"/>
          <path d="M793,760a2,2,0,0,1-1.92-1.46c-19.56-69.41-93.4-116.38-94.14-116.85a2,2,0,0,1,2.12-3.38,274.9,274.9,0,0,1,40.33,32.63c19.57,19,45.08,49.41,55.53,86.52A2,2,0,0,1,793,760Z" style="fill: #fff"/>
          <path d="M624.63,491.55c-9,0-16.43-2.62-22-7.84C589.7,471.77,591,450.76,591,449.87a2,2,0,0,1,4,.26c0,.2-1.17,20,10.31,30.66,6.21,5.75,15.1,7.85,26.41,6.23a2,2,0,1,1,.56,4A54.13,54.13,0,0,1,624.63,491.55Z" style="fill: #fff"/>
          <path d="M394.6,625.36A192.13,192.13,0,0,1,369.71,624a2,2,0,0,1,.58-4c.34.05,34.18,4.84,76.3-4a2,2,0,0,1,.82,3.92A260.7,260.7,0,0,1,394.6,625.36Z" style="fill: #fff"/>
          <path d="M456,620a2,2,0,0,1-.33-4l24-4a2,2,0,0,1,.66,3.94l-24,4Z" style="fill: #fff"/>
        </g>
      </g>
      <g id="f771c5b9-41e6-4258-8bf8-3cf09e25fb83" data-name="plane">
        <path d="M668.67,331.9a166.66,166.66,0,0,1-60-11.25c-44-16.88-70-47.33-70.31-47.64a1.5,1.5,0,0,1,2.3-1.93c.25.3,25.88,30.23,69.21,46.82,39.91,15.27,103.51,22,179.8-32.64a1.5,1.5,0,1,1,1.74,2.44c-34.15,24.47-68.71,38.94-102.71,43A168.35,168.35,0,0,1,668.67,331.9Z"/>
        <path d="M707,301.45A111.63,111.63,0,0,1,659.08,291c-24-11.28-35.9-27.42-36.39-28.1a1.5,1.5,0,1,1,2.42-1.77c.12.16,12.08,16.29,35.39,27.22,21.49,10.09,57.34,17.7,106.09-3.28a1.5,1.5,0,0,1,1.19,2.76C744.64,297.81,724.32,301.45,707,301.45Z"/>
        <g>
          <g>
            <polygon points="764.96 269.82 869.37 208.73 836.05 207.62 762.74 232.06 764.96 269.82" style="fill: #fff"/>
            <path d="M836.05,207.62l33.32,1.11L765,269.82l-2.22-37.76,73.31-24.44m0-3a3.09,3.09,0,0,0-.95.15l-73.31,24.44a3,3,0,0,0-2,3L762,270a3,3,0,0,0,1.58,2.47,3,3,0,0,0,2.93-.06l104.41-61.09a3,3,0,0,0-1.42-5.59l-33.32-1.11Z"/>
          </g>
          <g>
            <polygon points="736.08 213.17 884.92 200.96 821.61 275.38 778.29 243.16 847.16 212.06 762.74 232.06 736.08 213.17" style="fill: #4bd657"/>
            <path d="M884.92,201l-63.31,74.43-43.32-32.22,68.87-31.1-84.42,20-26.66-18.89L884.92,201m0-3h-.25L735.84,210.18a3,3,0,0,0-1.49,5.44L761,234.5a3,3,0,0,0,1.73.56,3.25,3.25,0,0,0,.69-.08l54.05-12.8-40.42,18.25a3,3,0,0,0-.56,5.14l43.32,32.21a3,3,0,0,0,4.08-.46l63.31-74.42a3,3,0,0,0-2.28-5Zm0,6h0Z"/>
          </g>
          <path d="M817.17,265.66a2.51,2.51,0,0,1-1.77-4.27L849.83,227a2.5,2.5,0,0,1,3.54,3.53l-34.43,34.43A2.5,2.5,0,0,1,817.17,265.66Z" style="fill: #fff"/>
        </g>
      </g>
      <g id="fb53d2e5-0b34-460f-a48f-32d0a8e358de" data-name="new">
        <path d="M195.15,135.81a1.5,1.5,0,0,1-1.5-1.5c0-51.73-45.29-71.74-45.75-71.93a1.5,1.5,0,0,1,1.19-2.76,84.4,84.4,0,0,1,23.79,17,80,80,0,0,1,23.77,57.71A1.5,1.5,0,0,1,195.15,135.81Z"/>
        <path d="M184,146.92a1.49,1.49,0,0,1-1.22-.63c-25-35.2-62.24-50.06-89.09-56.34a198.87,198.87,0,0,0-52.87-5.24,1.5,1.5,0,0,1-.21-3A201.83,201.83,0,0,1,94.41,87c27.36,6.39,65.34,21.56,90.85,57.52a1.5,1.5,0,0,1-1.22,2.37Z"/>
        <path d="M455.06,200.23a1.44,1.44,0,0,1-.49-.08,1.5,1.5,0,0,1-.92-1.91c6.38-18.47,6-33.66-1.28-45.13-11.14-17.69-35-20.61-35.24-20.64a1.5,1.5,0,0,1-1.32-1.66,1.48,1.48,0,0,1,1.66-1.32c1,.11,25.5,3.09,37.43,22,7.75,12.28,8.28,28.34,1.58,47.73A1.49,1.49,0,0,1,455.06,200.23Z"/>
        <g>
          <g>
            <path d="M383.16,360l-44.55-3a37.21,37.21,0,0,0-22.16,5.57l-37.87,23.64a37.22,37.22,0,0,1-55.78-22.43l-11-43.28a37.14,37.14,0,0,0-12.14-19.36l-34.19-28.71a37.21,37.21,0,0,1,4.1-60l37.77-23.8A37.17,37.17,0,0,0,222,171.15l16.74-41.38a37.21,37.21,0,0,1,58.31-14.64L331.4,143.7a37.18,37.18,0,0,0,21.2,8.52l44.53,3.14a37.2,37.2,0,0,1,31.94,50.93L412.5,247.74a37.24,37.24,0,0,0-1.55,22.8l10.78,43.33A37.21,37.21,0,0,1,383.16,360Z" style="fill: #fff"/>
            <path d="M273.36,106.5a36.83,36.83,0,0,1,23.73,8.63L331.4,143.7a37.18,37.18,0,0,0,21.2,8.52l44.53,3.14a37.2,37.2,0,0,1,31.94,50.93L412.5,247.74a37.24,37.24,0,0,0-1.55,22.8l10.78,43.33a37.21,37.21,0,0,1-36,46.19c-.84,0-1.68,0-2.54-.08l-44.55-3c-.82,0-1.64-.08-2.45-.08a37.21,37.21,0,0,0-19.71,5.65l-37.87,23.64a37.17,37.17,0,0,1-55.78-22.43l-11-43.28a37.14,37.14,0,0,0-12.14-19.36l-34.19-28.71a37.21,37.21,0,0,1,4.1-60l37.77-23.8A37.17,37.17,0,0,0,222,171.15l16.74-41.38a37.16,37.16,0,0,1,34.58-23.27m0-3h0A40.12,40.12,0,0,0,236,128.64L219.26,170a34.06,34.06,0,0,1-13.48,16.12L168,209.94a40.22,40.22,0,0,0-4.43,64.82l34.19,28.71a34,34,0,0,1,11.16,17.8l11,43.28a40.16,40.16,0,0,0,60.27,24.23L318,365.14A34.13,34.13,0,0,1,336.16,360c.75,0,1.51,0,2.26.07L383,363c.91.06,1.83.09,2.74.09a40.21,40.21,0,0,0,38.94-49.92l-10.78-43.32a34,34,0,0,1,1.43-21l16.57-41.46a40.21,40.21,0,0,0-34.52-55l-44.53-3.13a34,34,0,0,1-19.49-7.84L299,112.82a39.61,39.61,0,0,0-25.64-9.32Z"/>
          </g>
          <path d="M241.8,161.25a2.54,2.54,0,0,1-2.46-3c.22-1.17,5.58-28.75,25.5-36,13.08-4.75,29,.51,47.41,15.64a2.5,2.5,0,1,1-3.17,3.86c-16.92-13.93-31.23-18.91-42.54-14.8-17.26,6.28-22.24,32-22.28,32.21A2.51,2.51,0,0,1,241.8,161.25Z" style="fill: #fff"/>
          <path d="M259.16,383.9a24.38,24.38,0,0,1-10.44-2.25c-16.67-7.79-19.3-32.77-19.41-33.83a2.5,2.5,0,0,1,5-.49c0,.23,2.47,23.22,16.56,29.8,8.59,4,20,1.22,34-8.3a2.5,2.5,0,0,1,2.82,4.14C277,380.25,267.42,383.9,259.16,383.9Z" style="fill: #fff"/>
          <g>
            <path d="M269.89,246.7a6.6,6.6,0,0,0-2.19,1.24,16.78,16.78,0,0,0-2.17,2.2c-.72.86-1.43,1.81-2.13,2.83s-1.38,2.08-2,3.15c-.34.54-.66,1-1,1.49a5.34,5.34,0,0,1-1,1.12,15,15,0,0,0-.34,2.18c-.08.89-.13,1.84-.16,2.87s0,2.07,0,3.12.07,2,.13,2.93c0,.47.08.93.15,1.36s.13.91.19,1.4.12,1,.17,1.62.1,1.22.14,1.94a2.17,2.17,0,0,1-.21,1.11,2.53,2.53,0,0,1-.55.77,2.22,2.22,0,0,1-.65.46,4.69,4.69,0,0,1-.52.21,3.26,3.26,0,0,1-2.11,0,2.72,2.72,0,0,1-1.43-2c-.09-.3-.18-.61-.25-.94a6.07,6.07,0,0,1-.15-1.14c-.15-2.12-.26-4.05-.32-5.77s-.08-3.32-.06-4.82.07-2.9.15-4.25.16-2.69.26-4.06.19-2.78.3-4.24.21-3.08.31-4.85a1.76,1.76,0,0,1,.71-1.2,4.24,4.24,0,0,1,1.6-.88,3.45,3.45,0,0,1,2.12-.07,1.83,1.83,0,0,1,1.24,1.29,2,2,0,0,1,0,.37,4,4,0,0,1,0,.59l-.37,3.68q1-1.44,2.1-2.91a31.49,31.49,0,0,1,2.35-2.77,21.09,21.09,0,0,1,2.61-2.28,10.15,10.15,0,0,1,2.84-1.44,6.84,6.84,0,0,1,5.19.17q2.19,1.1,3.24,4.48a17.72,17.72,0,0,1,.69,4.62q.09,2.69-.06,5.83c-.1,2.1-.21,4.31-.36,6.63s-.21,4.66-.22,7a10.61,10.61,0,0,1-.13,1.65,3.17,3.17,0,0,1-.41,1.18,2.54,2.54,0,0,1-.79.81,5,5,0,0,1-1.29.56,2.48,2.48,0,0,1-1.83.07,2.06,2.06,0,0,1-.92-1.31,11,11,0,0,1-.39-2.23,28.24,28.24,0,0,1-.11-3c0-1.11,0-2.31.13-3.59s.18-2.59.31-3.94c.1-1.08.2-2.17.29-3.24s.15-2.12.17-3.11,0-1.93-.05-2.8a10.51,10.51,0,0,0-.42-2.34,3.45,3.45,0,0,0-.95-1.58A1.74,1.74,0,0,0,269.89,246.7Z" style="fill: #382256"/>
            <path d="M286.85,256.4a3.78,3.78,0,0,1,0-2.51,3.55,3.55,0,0,1,1.52-1.84c.09-.53.25-1.26.49-2.19a29.66,29.66,0,0,1,1-3.11,34.15,34.15,0,0,1,1.57-3.52,22.47,22.47,0,0,1,2.23-3.47,16.93,16.93,0,0,1,3-2.95,11.53,11.53,0,0,1,3.8-2,10.4,10.4,0,0,1,3.3-.54,6.34,6.34,0,0,1,2.6.53,5.23,5.23,0,0,1,1.89,1.46,6.36,6.36,0,0,1,1.16,2.2,7.53,7.53,0,0,1,.35,2.13,7.38,7.38,0,0,1-.68,3.57,13.63,13.63,0,0,1-2.1,3.17,18.75,18.75,0,0,1-3,2.73,39.41,39.41,0,0,1-3.46,2.26c-1.17.68-2.32,1.28-3.44,1.8s-2.1,1-2.93,1.3a7.15,7.15,0,0,0,0,1.57,7.35,7.35,0,0,0,.31,1.74,3.38,3.38,0,0,0,2.31,2.38,7.16,7.16,0,0,0,4.29-.23,12.59,12.59,0,0,0,2.72-1.19,17.79,17.79,0,0,0,2.29-1.64,22.53,22.53,0,0,0,1.93-1.83c.58-.62,1.1-1.22,1.57-1.8a21.31,21.31,0,0,1,1.75-1.93,4.13,4.13,0,0,1,1.65-1.07c.52-.17.89-.14,1.12.08a1.68,1.68,0,0,1,.47.76c.06.17.1.33.14.49s.06.3.07.41a5.72,5.72,0,0,1-.12,1.82,5.51,5.51,0,0,1-.76,1.78,22.38,22.38,0,0,1-5.56,5.73,25.2,25.2,0,0,1-7,3.35q-.75.22-1.8.45a14,14,0,0,1-2.23.28,12.34,12.34,0,0,1-2.41-.15,7,7,0,0,1-4.35-2.57,8.66,8.66,0,0,1-1.47-2.95,15.9,15.9,0,0,1-.61-3.41,1.46,1.46,0,0,1-.9-.19A1.51,1.51,0,0,1,286.85,256.4Zm16.94-14.73a1,1,0,0,0,0-.3c0-.08-.06-.18-.09-.28a1.51,1.51,0,0,0-1-1.08,2.76,2.76,0,0,0-1.63,0,6,6,0,0,0-2.49,1.56,13,13,0,0,0-2,2.58,17.74,17.74,0,0,0-2.09,5.63,32.39,32.39,0,0,0,3.95-1.88,17,17,0,0,0,2.94-2.08,9.1,9.1,0,0,0,1.82-2.14A3.84,3.84,0,0,0,303.79,241.67Z" style="fill: #382256"/>
            <path d="M318.11,229.33a3.72,3.72,0,0,1,.77-2,3.4,3.4,0,0,1,1.53-.93,3.87,3.87,0,0,1,1.63-.19,2.75,2.75,0,0,1,1.23.44,3,3,0,0,1,.87.93,5.28,5.28,0,0,1,.57,1.3c.05.15.09.29.13.43a1.93,1.93,0,0,1,.1.43c0,.19.09.55.16,1.06s.15,1.13.24,1.84.18,1.44.27,2.23.19,1.52.28,2.23.17,1.32.23,1.85.1.9.11,1.1.07.54.13,1,.13.89.23,1.42.21,1.1.35,1.7.3,1.19.48,1.77.36,1.1.56,1.6a6.52,6.52,0,0,0,.65,1.27,2.81,2.81,0,0,0,.72.79.86.86,0,0,0,.78.14c.19-.06.42-.3.69-.71s.55-.9.83-1.44.54-1.11.79-1.71.46-1.08.61-1.47a65.44,65.44,0,0,0,2.18-6.25c.61-2.07,1.13-4.14,1.57-6.19a10.79,10.79,0,0,0,.22-2.37,12.15,12.15,0,0,1,.11-2.14,3.83,3.83,0,0,1,.71-1.77,3.87,3.87,0,0,1,2-1.23,3.12,3.12,0,0,1,1.76,0,2.93,2.93,0,0,1,1.6,1.19c.18.8.33,1.62.45,2.47s.27,1.72.43,2.6.32,1.75.49,2.61a23,23,0,0,0,.63,2.48,16,16,0,0,0,1.43,3.32,6.2,6.2,0,0,0,2.21,2.25,36.41,36.41,0,0,0,1.35-4.23c.41-1.54.78-3.13,1.12-4.77s.65-3.28.9-4.93.5-3.21.7-4.69a1.12,1.12,0,0,0,0-.32c0-.1-.05-.2-.08-.3l-.08-.28a4.41,4.41,0,0,1-.07-2.18,9.77,9.77,0,0,1,.72-2.28,8.34,8.34,0,0,1,1.12-1.86,2.77,2.77,0,0,1,1.17-.94,3,3,0,0,1,2.29.08,2.65,2.65,0,0,1,1.34,1.68,4,4,0,0,1,.15,1,4.61,4.61,0,0,1-.11,1.26l-4.82,21.87-.31,1.78c-.13.75-.27,1.48-.41,2.18a8.9,8.9,0,0,1-.57,1.93,4.81,4.81,0,0,1-.95,1.49,3.29,3.29,0,0,1-1.48.91,3.83,3.83,0,0,1-2.39,0,7.17,7.17,0,0,1-2.17-1.18,11.26,11.26,0,0,1-1.82-1.83,17.56,17.56,0,0,1-1.32-1.91l-2.71-4.65a2.83,2.83,0,0,0-.45.86c-.24.55-.54,1.26-.89,2.12s-.74,1.81-1.15,2.85-.82,2-1.22,3-.78,1.83-1.12,2.61a12.75,12.75,0,0,1-.84,1.68c-.21.34-.44.69-.69,1a11.25,11.25,0,0,1-.75.95,8.82,8.82,0,0,1-.75.75,2,2,0,0,1-.65.4,6,6,0,0,1-3.73.09,7.21,7.21,0,0,1-2.94-1.87,12.11,12.11,0,0,1-2.19-3.15,24.62,24.62,0,0,1-1.51-3.78c-.35-1.15-.65-2.32-.9-3.53s-.47-2.4-.66-3.59-.37-2.34-.52-3.46-.3-2.16-.46-3.12c0-.17-.08-.37-.13-.59s-.12-.45-.19-.68l-.26-.81-.27-.93A1.49,1.49,0,0,1,318.11,229.33Z" style="fill: #382256"/>
          </g>
        </g>
      </g>
      <g id="f79214b2-11f3-4e28-b796-6d1c24f3be07" data-name="message">
        <g>
          <g>
            <path d="M317.5,675.12,166.52,705a38.71,38.71,0,0,0-31,42l7.06,66.81a38.7,38.7,0,0,0,38.5,34.64h12.11l26.36,43.32,28-43.32H318a38.71,38.71,0,0,0,38.61-35.9l7-96.72A38.71,38.71,0,0,0,317.5,675.12Z" style="fill: #fff"/>
            <path d="M325.13,674.36a38.74,38.74,0,0,1,38.5,41.54l-7,96.72A38.71,38.71,0,0,1,318,848.52H247.61l-28,43.32-26.36-43.32H181.11a38.7,38.7,0,0,1-38.5-34.64l-7.06-66.81a38.71,38.71,0,0,1,31-42l151-29.91a39.17,39.17,0,0,1,7.63-.76m0-3a43,43,0,0,0-8.21.81l-151,29.92a41.71,41.71,0,0,0-33.37,45.29l7.06,66.82a41.62,41.62,0,0,0,41.48,37.32h10.42L217,893.4a3,3,0,0,0,2.52,1.44h0a3,3,0,0,0,2.52-1.37l27.15-42H318a41.71,41.71,0,0,0,41.6-38.68l7-96.73a41.23,41.23,0,0,0-11-31.39,41.78,41.78,0,0,0-30.47-13.36Z"/>
          </g>
          <path d="M200.7,765.61a1.5,1.5,0,0,1-.06-3l114.41-4.45a1.5,1.5,0,1,1,.12,3l-114.41,4.45Z"/>
          <path d="M205.14,798.93a1.5,1.5,0,0,1-.08-3l81.09-4.44a1.52,1.52,0,0,1,1.58,1.41,1.5,1.5,0,0,1-1.42,1.58l-81.08,4.45Z"/>
          <path d="M343.71,693.12c-9.12-7.58-20.84-4.67-21.33-4.54a2.5,2.5,0,1,0,1.24,4.84c.1,0,9.72-2.42,16.9,3.55,6.29,5.23,9,15.27,8,29.86-3,43.49-6,84.58-6,85a2.5,2.5,0,0,0,2.31,2.67H345a2.49,2.49,0,0,0,2.49-2.32c0-.41,3-41.51,6-85C354.6,710.89,351.31,699.43,343.71,693.12Z" style="fill: #fff"/>
        </g>
        <g>
          <path d="M223.27,717.14a1.49,1.49,0,0,0-1.78-1.15C176,725.65,133,711.06,104.81,697.13a255.35,255.35,0,0,1-50.84-33,1.5,1.5,0,1,0-2,2.24,258.68,258.68,0,0,0,51.43,33.41c22.14,11,53.39,22.33,87.88,22.33a148.3,148.3,0,0,0,30.84-3.19A1.49,1.49,0,0,0,223.27,717.14Z"/>
          <path d="M180.16,781.59C130.59,801,91.06,763.41,90.67,763a1.5,1.5,0,0,0-2.09,2.15,98.24,98.24,0,0,0,26.82,17.24,88.83,88.83,0,0,0,35.66,7.75,82.34,82.34,0,0,0,30.19-5.78,1.5,1.5,0,0,0-1.09-2.8Z"/>
        </g>
      </g>
    </g>
  </g>
</svg>
