<svg xmlns="http://www.w3.org/2000/svg" width="1000" height="1000" viewBox="0 0 1000 1000">
  <g id="a783bc08-6008-49e4-b12b-931d31caced4" data-name="illustration">
    <g id="b7b46f15-6b29-4de8-95db-361a9660bc21" data-name="online shop">
      <g id="feff159c-5064-4825-934d-281046d77353" data-name="line">
        <path d="M778.31,863.18h0l-548.71-3.33a2,2,0,0,1,0-4h0l548.71,3.33a2,2,0,0,1,0,4Z"/>
        <path d="M249.93,834.13H171.06a1.5,1.5,0,0,1,0-3h78.87a1.5,1.5,0,0,1,0,3Z"/>
      </g>
      <g id="e75ab4fc-3a03-4471-b6ed-40a79d5660bc" data-name="plane">
        <path d="M783.12,280.59a168.35,168.35,0,0,1-20-1.2c-34-4.06-68.56-18.53-102.71-43a1.5,1.5,0,0,1,1.74-2.44c76.35,54.7,140,47.91,179.92,32.59,43.29-16.61,68.84-46.48,69.09-46.78a1.5,1.5,0,0,1,2.3,1.94c-.26.3-26.31,30.76-70.31,47.64A166.84,166.84,0,0,1,783.12,280.59Z"/>
        <path d="M744.81,250.14c-17.34,0-37.66-3.64-60.8-13.59a1.5,1.5,0,0,1,1.19-2.76c48.75,21,84.6,13.36,106.09,3.28,23.31-10.94,35.27-27.06,35.39-27.22a1.5,1.5,0,1,1,2.42,1.77c-.49.68-12.44,16.82-36.39,28.1A111.67,111.67,0,0,1,744.81,250.14Z"/>
        <g>
          <g>
            <polygon points="686.83 218.51 582.42 157.42 615.74 156.31 689.05 180.74 686.83 218.51" style="fill: #fff"/>
            <path d="M615.74,156.31l73.31,24.43-2.22,37.77L582.42,157.42l33.32-1.11m0-3h-.1l-33.32,1.11A3,3,0,0,0,580.9,160L685.31,221.1a3,3,0,0,0,1.52.41,3,3,0,0,0,3-2.82L692,180.92a3,3,0,0,0-2-3l-73.31-24.44a3.09,3.09,0,0,0-1-.15Z"/>
          </g>
          <g>
            <polygon points="715.71 161.86 566.87 149.64 630.18 224.06 673.5 191.85 604.63 160.75 689.05 180.74 715.71 161.86" style="fill: #4bd657"/>
            <path d="M566.87,149.64l148.84,12.22-26.66,18.88-84.42-20,68.87,31.1-43.32,32.21-63.31-74.42m0-3a3,3,0,0,0-2.28,5L627.89,226a3,3,0,0,0,4.08.46l43.32-32.21a3,3,0,0,0,1.19-2.73,3,3,0,0,0-1.75-2.41l-40.42-18.26,54.05,12.8a2.71,2.71,0,0,0,.69.08,3,3,0,0,0,1.73-.55l26.66-18.88a3,3,0,0,0-1.49-5.44L567.11,146.65Z"/>
          </g>
          <path d="M634.62,214.34a2.49,2.49,0,0,1-1.77-.73l-34.43-34.43a2.5,2.5,0,0,1,3.54-3.54l34.43,34.44a2.5,2.5,0,0,1-1.77,4.26Z" style="fill: #fff"/>
        </g>
      </g>
      <g id="ad9b0447-ab8e-44a5-91b3-c328ca0d8c13" data-name="woman">
        <g>
          <path d="M388.88,369.44s-19.94,37-43.42,16.86-73.35-63.59-107.08-30.45-33.14,43.09-63.19,28.76-108,12.78-67.61,96.9,316.69-49.24,316.69-49.24L430.66,407Z" style="fill: #382256"/>
          <path d="M267.28,343.78c29,0,60.81,27.65,78.18,42.52,5,4.3,9.88,6,14.42,6,16.68,0,29-22.84,29-22.84L430.66,407l-6.39,25.23s-159.66,77.07-254,77.07c-29.75,0-53-7.66-62.7-27.83C73.92,411.49,122.31,381,156.82,381a43.3,43.3,0,0,1,18.37,3.64c8.93,4.26,15.15,6.37,20.37,6.37,12.35,0,19.11-11.84,42.82-35.13,8.79-8.64,18.67-12.07,28.9-12.07m0-3c-11.84,0-22.27,4.35-31,12.93-6.35,6.23-11.38,11.54-15.82,16.22-11.4,12-17.12,18.05-24.9,18.05-4.44,0-10.15-1.82-19.08-6.08A46.2,46.2,0,0,0,156.82,378c-17,0-41.67,7.53-55,28.77-8.66,13.77-15.16,38.15,3.08,76.07,9.42,19.6,31.43,29.53,65.4,29.53,39.48,0,94.46-13,163.42-38.72,51.24-19.1,91.48-38.46,91.88-38.65a3,3,0,0,0,1.6-2l6.39-25.24a3,3,0,0,0-.91-3l-41.77-37.6a3,3,0,0,0-2-.77,2.94,2.94,0,0,0-.51.05,3,3,0,0,0-2.13,1.53c-.11.21-11.69,21.26-26.36,21.26-4.19,0-8.39-1.77-12.47-5.26l-.9-.77c-17.33-14.84-49.59-42.47-79.23-42.47Z"/>
        </g>
        <g>
          <path d="M448.71,473.79s-79.46-6.55-148,32S128.5,604.6,154.21,660.29s72.5,70.5,109.66,70.49c23.95,0,59.84-21,59.84-21s-21.56,54.36,0,147L724.5,859.5s78-348-205-380" style="fill: #07acee"/>
          <path d="M724.5,861h0L323.7,858.29a1.48,1.48,0,0,1-1.45-1.16C304,778.68,316.74,726.92,321,713c-9.6,5.24-37.16,19.26-57.17,19.27h0c-29.17,0-82.33-9.28-111-71.36-6.22-13.49-5.4-28.13,2.44-43.52,6.69-13.13,18.75-27.24,35.86-41.92,30.47-26.16,72.15-50.36,108.83-71C368.13,466.15,448,472.23,448.83,472.3a1.49,1.49,0,0,1,1.37,1.62,1.52,1.52,0,0,1-1.62,1.37c-.79-.06-79.81-6.06-147.14,31.81-36.55,20.56-78.08,44.68-108.35,70.66-36.3,31.16-48.58,58-37.52,81.91,28,60.56,79.8,69.61,108.26,69.61h0c23.26,0,58.72-20.57,59.08-20.78a1.5,1.5,0,0,1,2.15,1.85c-.21.53-21,54.6-.2,144.95L723.29,858c1.54-7.43,9.67-49,9.56-101.56-.11-53.21-8.92-128.82-50.3-186.91-36-50.57-90.93-80.36-163.22-88.53a1.5,1.5,0,1,1,.34-3c73.17,8.27,128.8,38.48,165.33,89.78,41.84,58.75,50.75,135,50.85,188.7.11,58.07-9.79,102.89-9.89,103.34A1.5,1.5,0,0,1,724.5,861Z"/>
        </g>
        <g>
          <path d="M299.78,656.39c8-19.88,34.7-35.93,50.08-77.77S311.4,518,311.4,518l2.87-14.08s-36.93,7.91-73.82-22.11l-12,16.33s-46.07,10.16-49,48.66-40.85,70.85-23.93,117.32" style="fill: #07acee"/>
          <path d="M155.47,665.6a1.49,1.49,0,0,1-1.41-1c-10.68-29.32,0-53,10.33-76,6.38-14.17,12.41-27.56,13.52-42,2.84-36.81,44.3-48.51,49.64-49.87l11.69-15.89a1.49,1.49,0,0,1,2.15-.27c35.92,29.22,72.2,21.88,72.57,21.81a1.49,1.49,0,0,1,1.37.4,1.52,1.52,0,0,1,.41,1.36L313.12,517c5.63,2.18,28.4,12,37.4,31.05,4.54,9.62,4.79,20.07.75,31.06-9.33,25.38-22.86,41.44-33.74,54.34-7.12,8.46-13.27,15.75-16.36,23.47a1.5,1.5,0,1,1-2.79-1.11c3.28-8.17,9.57-15.64,16.86-24.29C326,618.82,339.31,603,348.45,578.11c3.76-10.21,3.54-19.88-.64-28.74-9.53-20.19-36.64-29.88-36.91-30a1.5,1.5,0,0,1-1-1.72l2.44-12c-8.51,1.11-40.16,3.12-71.64-21.78L229.65,499a1.54,1.54,0,0,1-.89.58c-.45.1-45,10.38-47.86,47.3-1.15,14.94-7.57,29.2-13.78,43-10.08,22.39-20.5,45.54-10.24,73.72a1.5,1.5,0,0,1-.9,1.92A1.52,1.52,0,0,1,155.47,665.6Z"/>
        </g>
        <g>
          <path d="M524.48,480.16s13.23,26.63-17.77,33.63-37-9-37-9-21,20-40,3,4-35,4-35Z" style="fill: #fff"/>
          <path d="M492.22,517.08c-14.81,0-20.86-6.62-23-9.94-5.28,4.24-23.71,16.84-40.55,1.77-5.51-4.93-8.21-10.45-8-16.41.38-11.6,11.6-20.51,12.08-20.89a1.52,1.52,0,0,1,1.05-.31l90.77,7.36a1.5,1.5,0,0,1,1.22.83c.25.49,5.89,12.09,1,22.44C523.65,508.52,517,513,507,515.26A67.59,67.59,0,0,1,492.22,517.08Zm-22.51-13.79a1.86,1.86,0,0,1,.33,0,1.53,1.53,0,0,1,1.07.94c.23.59,6.08,14.65,35.27,8.06,9-2,15-6,17.69-11.67,3.64-7.63.49-16.47-.6-19.08l-89.28-7.24c-2,1.71-10.21,9.28-10.49,18.28-.17,5,2.19,9.75,7,14.06,17.72,15.86,37.14-2.2,38-3A1.51,1.51,0,0,1,469.71,503.29Z"/>
        </g>
        <g>
          <circle cx="449.63" cy="280.05" r="37.75" style="fill: #382256"/>
          <path d="M449.6,242.29a37.75,37.75,0,1,1-20.28,5.93,37.74,37.74,0,0,1,20.28-5.93m0-3v0h0A40.77,40.77,0,1,0,484,258.12a40.66,40.66,0,0,0-34.38-18.83Z"/>
        </g>
        <g>
          <path d="M356.6,407.46s-28.43-20-19.69-44.6,15.06-23.18,18.82-36.44S381,298,402.55,302c0,0,23.92-22.06,48-18.41s33.36,14,41.9,31.62,16,25.07,22.42,37.26,17.73,47.1-29.35,78.49S356.6,407.46,356.6,407.46Z" style="fill: #382256"/>
          <path d="M445,283.15a36.54,36.54,0,0,1,5.5.4c24,3.65,33.36,14,41.9,31.62s16,25.07,22.42,37.26,17.73,47.1-29.35,78.49c-10.47,7-22.67,9.7-35.3,9.7-44.14,0-93.59-33.16-93.59-33.16s-28.43-20-19.69-44.6,15.06-23.18,18.82-36.44c3.34-11.8,20.81-25.09,39.78-25.09a39.2,39.2,0,0,1,7,.63S423,283.15,445,283.15m0-3h0c-20.25,0-38.7,14.61-43.39,18.62a42.91,42.91,0,0,0-6.12-.44c-20.6,0-39,14.38-42.67,27.27-1.53,5.39-3.43,8-6.07,11.64-3.42,4.71-7.69,10.57-12.68,24.62-3.93,11-1.51,22.9,7,34.31a67.57,67.57,0,0,0,13.8,13.74l.06,0a244.9,244.9,0,0,0,30.65,16.81c16.59,7.69,41.26,16.86,64.61,16.86,14.37,0,26.81-3.43,37-10.2,21-14,33.16-30.33,36-48.47A55,55,0,0,0,517.5,351a148.7,148.7,0,0,0-8.88-14.32,169.9,169.9,0,0,1-13.5-22.85c-8.8-18.16-18.85-29.43-44.15-33.27a39,39,0,0,0-6-.44Z"/>
        </g>
        <path d="M446.63,372.8a1.5,1.5,0,0,1-.13-3c15.56-1.39,29.92-18.89,30.06-19.06a1.5,1.5,0,0,1,2.33,1.89c-.61.76-15.29,18.65-32.12,20.16Z"/>
        <path d="M486.87,244.2a1.49,1.49,0,0,1-1.41-1c-2.81-7.9-7.42-13.41-13.68-16.37-11.23-5.3-24.22-.7-24.35-.65a1.5,1.5,0,1,1-1-2.82c.57-.21,14.26-5.08,26.62.74,7,3.31,12.16,9.4,15.25,18.1a1.49,1.49,0,0,1-.91,1.91A1.43,1.43,0,0,1,486.87,244.2Z"/>
        <g>
          <path d="M432,459v15s26,39,76,7c0,0-24.52-35.25-37.66-77.09,0,0,18.51-5,14.71-21.61s-17.4-18.75-25.11-13.82c0,0-30,23.2-64.9-40,0,0-32.36,15.23-37.48,49.72s3.61,73.7,30.39,83.75S432,459,432,459Z" style="fill: #ffcdb2"/>
          <path d="M395,328.47c20.14,36.45,38.63,44.17,50.68,44.17a24.71,24.71,0,0,0,14.22-4.16,15.19,15.19,0,0,1,8.12-2.32c6.88,0,14.34,4.55,17,16.14,3.8,16.58-14.71,21.61-14.71,21.61C483.48,445.75,508,481,508,481c-14.55,9.31-27.06,12.61-37.49,12.61C445.08,493.61,432,474,432,474V459s-9,6.76-24,6.76a56.83,56.83,0,0,1-20-3.82c-26.78-10.05-35.52-49.26-30.39-83.75S395,328.47,395,328.47m0-3a2.92,2.92,0,0,0-1.28.29,76.21,76.21,0,0,0-17.58,12.44c-11.93,11.09-19.39,24.76-21.59,39.55-2.74,18.41-1.55,37,3.34,52.39,5.61,17.64,15.63,29.6,29,34.61a60,60,0,0,0,21.08,4,48.89,48.89,0,0,0,21-4.59V474a3.05,3.05,0,0,0,.5,1.66c.57.86,14.28,20.95,41,20.95,12.38,0,25.54-4.4,39.11-13.08a3,3,0,0,0,1.32-1.94,3,3,0,0,0-.48-2.3c-.23-.34-23.35-33.84-36.38-73.55a29.67,29.67,0,0,0,6.92-4.08c6.39-5.12,8.81-12.05,7-20-3.12-13.62-12.34-18.47-19.92-18.47a18.24,18.24,0,0,0-9.73,2.79l-.23.15a22,22,0,0,1-12.38,3.54c-11.18,0-28.59-7.4-48.06-42.62a3,3,0,0,0-2.62-1.55Z"/>
        </g>
        <path d="M431.5,462a1.5,1.5,0,0,1-.47-2.92c14.33-4.78,25.21-20.56,25.31-20.72a1.5,1.5,0,1,1,2.49,1.69c-.47.68-11.55,16.77-26.86,21.87A1.26,1.26,0,0,1,431.5,462Z"/>
        <g>
          <path d="M315.53,441.42s13.51,34.88-6,70.08-56.86-16.81-56.86-16.81Z" style="fill: #ffcdb2"/>
          <path d="M292.16,525.23c-19.23,0-39.85-28.43-40.74-29.67a1.48,1.48,0,0,1,.25-2l62.89-53.27a1.5,1.5,0,0,1,2.37.6c.14.36,13.53,35.94-6.12,71.35-4.55,8.19-10.45,12.55-17.54,13C292.9,525.22,292.53,525.23,292.16,525.23Zm-37.47-30.31c4.09,5.35,22.54,28.21,38.4,27.28,6-.35,11.08-4.19,15.1-11.43,16.3-29.38,9.05-58.89,6.62-66.77Z"/>
        </g>
        <path d="M469.89,396.2a1.46,1.46,0,0,1-.7-.18,1.5,1.5,0,0,1-.62-2c2.91-5.45,3.54-9.68,1.89-12.58-2.35-4.1-8.75-4.41-8.81-4.42a1.5,1.5,0,0,1,.11-3c.33,0,8.1.36,11.29,5.91,2.22,3.85,1.6,9.06-1.83,15.49A1.5,1.5,0,0,1,469.89,396.2Z"/>
        <path d="M396.47,379.4c19.4,1.47,43.68-10.24,49-4.1s3.18,15.61-6.73,19.22-20.09,4.68-41.06,5.85-41.59.77-40.73-10.64S368,377.25,396.47,379.4Z" style="fill: #ffb49f"/>
        <path d="M373,370.2a1.52,1.52,0,0,1-1-.36,1.49,1.49,0,0,1-.16-2.11c.26-.31,6.57-7.57,15-7a1.5,1.5,0,1,1-.22,3c-6.93-.52-12.47,5.85-12.52,5.92A1.52,1.52,0,0,1,373,370.2Z"/>
        <path d="M394.48,414.31l-.31,0a1.49,1.49,0,0,1-1.16-1.77l6.38-30.78a1.5,1.5,0,1,1,2.94.6L396,413.12A1.5,1.5,0,0,1,394.48,414.31Z"/>
        <g>
          <circle cx="477.96" cy="402.9" r="6.18" style="fill: #07acee"/>
          <path d="M478,396.72a6.18,6.18,0,1,1-3.32,1,6.18,6.18,0,0,1,3.32-1m0-3h0a9.18,9.18,0,1,0,9,11.16,9.19,9.19,0,0,0-9-11.16Z"/>
        </g>
        <circle cx="428.42" cy="385.77" r="3.5"/>
        <circle cx="377.23" cy="389.29" r="3.5"/>
        <path d="M412.86,439.34a13.39,13.39,0,0,1-3.51-.48,1.5,1.5,0,1,1,.78-2.89c9.7,2.61,16.18-10.14,16.24-10.27a1.5,1.5,0,0,1,2.69,1.34C428.78,427.59,422.82,439.34,412.86,439.34Z"/>
        <path d="M409.16,361.71a1.49,1.49,0,0,1-1.09-2.53c.5-.52,5-5.07,9.18-3.6a1.5,1.5,0,1,1-1,2.83c-2-.71-5.09,1.88-6,2.84A1.48,1.48,0,0,1,409.16,361.71Z"/>
        <path d="M229.59,499.2c-.09-.1,11.38-15.47,11.38-15.47,36.89,30,71.63,21.66,71.63,21.66l-2.48,14.12.35-.61S273.09,545.51,229.59,499.2Z" style="fill: #0598c6"/>
        <circle cx="573.24" cy="530.78" r="8.14" style="fill: #51cef4"/>
        <circle cx="677.24" cy="618.78" r="8.14" style="fill: #51cef4"/>
        <circle cx="551.24" cy="621.78" r="8.14" style="fill: #51cef4"/>
        <circle cx="381.24" cy="538.78" r="8.14" style="fill: #51cef4"/>
        <circle cx="450.24" cy="583.78" r="8.14" style="fill: #51cef4"/>
        <circle cx="365.24" cy="756.78" r="8.14" style="fill: #51cef4"/>
        <circle cx="477.24" cy="730.78" r="8.14" style="fill: #51cef4"/>
        <circle cx="381.24" cy="648.78" r="8.14" style="fill: #51cef4"/>
        <circle cx="603.24" cy="714.78" r="8.14" style="fill: #51cef4"/>
        <circle cx="317.24" cy="599.78" r="8.14" style="fill: #51cef4"/>
        <circle cx="244.24" cy="558.78" r="8.14" style="fill: #51cef4"/>
        <circle cx="189.24" cy="621.78" r="8.14" style="fill: #51cef4"/>
        <circle cx="236.24" cy="695.78" r="8.14" style="fill: #51cef4"/>
        <path d="M154,580.87a94.58,94.58,0,0,0-14,19.61,96.18,96.18,0,0,0-8.67,22.4,93.81,93.81,0,0,0-2.75,24.24,96.09,96.09,0,0,0,13.76,47.73c.54.89,1.1,1.77,1.67,2.65a1.5,1.5,0,1,0,2.59-1.52A92,92,0,0,1,136,674a93.12,93.12,0,0,1-4.42-23.8,90.12,90.12,0,0,1,1.88-23.74,93.49,93.49,0,0,1,7.68-21.93,92.4,92.4,0,0,1,12.95-19.43c.64-.72,1.28-1.44,1.94-2.15,1.31-1.41-.8-3.54-2.12-2.12Z"/>
        <g>
          <path d="M307.07,467.68c11.6-17.6,10.74-37.48.76-53.66-16-25.88-8.1-36.22-12.76-54s-26.38-5.86-31.32,24.89c0,0-40.53-9-32.82,30.7,0,0-25.44,8.34-6.21,35.59,0,0-15.65,12.44-6.26,29.89s40.66,20.44,53.57,14.51" style="fill: #ffcdb2"/>
          <path d="M256.1,499.9c-14.47,0-32-5.13-39-18.08-8.37-15.55,2.12-27.48,5.6-30.83-6.1-9-8.06-17.06-5.81-23.86,2.51-7.57,9.45-11.23,12.3-12.45-2-11.45-.14-20,5.49-25.51,8.56-8.32,23-6.77,27.81-6,3.66-20.1,14.7-32.48,23.52-32.92,5-.23,8.83,3.18,10.47,9.4s1.77,11.74,1.89,17c.22,9.81.44,20,10.7,36.57,10.79,17.48,10.5,38.14-.78,55.27a1.5,1.5,0,0,1-2.51-1.65c10.78-16.37,11.05-35.34.73-52.05-10.68-17.3-10.91-27.86-11.14-38.07-.12-5.33-.23-10.36-1.79-16.32-1.26-4.79-3.88-7.34-7.42-7.16-7.68.38-17.88,12.68-21,31.91a1.51,1.51,0,0,1-.64,1,1.48,1.48,0,0,1-1.17.23c-.18,0-17.66-3.8-26.62,4.93-5.06,4.92-6.55,13-4.41,24a1.51,1.51,0,0,1-1,1.72c-.08,0-9,3.06-11.62,11-2,6.12.07,13.61,6.18,22.26a1.5,1.5,0,0,1-.29,2c-.6.48-14.55,11.9-5.88,28,9.21,17.09,39.82,19.28,51.63,13.86a1.5,1.5,0,0,1,1.25,2.73C268.6,498.85,262.66,499.9,256.1,499.9Z"/>
        </g>
        <g>
          <path d="M221.53,484.36s31.18,14.39,46-2.86c18-21-22-31.13-41.24-31" style="fill: #ffcdb2"/>
          <path d="M246.46,491.54c-12.72,0-24.75-5.45-25.56-5.82a1.5,1.5,0,1,1,1.26-2.72c.3.13,30.33,13.71,44.2-2.48,4-4.66,5.13-8.94,3.36-12.74-4.61-9.93-28.45-15.86-43.45-15.76h0a1.5,1.5,0,0,1,0-3c13.26-.13,40.36,4.93,46.2,17.5,2.31,5,1,10.32-3.8,16C262.72,489.39,254.45,491.54,246.46,491.54Z"/>
        </g>
        <g>
          <path d="M230,416.12s40.21-2.33,48.51,16.38-19,24-19,24" style="fill: #ffcdb2"/>
          <path d="M259.5,458a1.5,1.5,0,0,1-.29-3c.14,0,14-2.81,18.16-10.89,1.67-3.2,1.59-6.91-.24-11-7.78-17.54-46.67-15.51-47-15.49a1.5,1.5,0,1,1-.18-3c1.69-.1,41.35-2.17,50,17.26,2.22,5,2.27,9.59.15,13.65-4.88,9.36-19.61,12.31-20.23,12.43Z"/>
        </g>
        <g>
          <path d="M263.65,385.69s25.43,3.25,24.85,19.81c-.46,13-20,17-20,17" style="fill: #ffcdb2"/>
          <path d="M268.5,424a1.5,1.5,0,0,1-.3-3c.19,0,18.39-3.88,18.8-15.58.53-15-23.3-18.24-23.54-18.27a1.5,1.5,0,1,1,.38-3c1.09.14,26.78,3.63,26.16,21.35-.5,14.07-20.36,18.25-21.2,18.42Z"/>
        </g>
        <g>
          <path d="M277.4,447.41s28.52,9.53,19.84,26.9" style="fill: #ffcdb2"/>
          <path d="M297.24,475.81a1.5,1.5,0,0,1-1.34-2.17,11.55,11.55,0,0,0,.62-10.05c-3.89-9.4-19.44-14.7-19.6-14.75a1.5,1.5,0,0,1,.95-2.85c.7.23,17,5.78,21.42,16.45a14.58,14.58,0,0,1-.71,12.54A1.5,1.5,0,0,1,297.24,475.81Z"/>
        </g>
        <g>
          <path d="M345.5,629.5s-25.05,68.84-28,104.42" style="fill: #382256"/>
          <path d="M317.48,735.42h-.13A1.51,1.51,0,0,1,316,733.8c3-35.37,27.86-104.12,28.11-104.81a1.5,1.5,0,0,1,2.82,1c-.25.69-25,69.07-27.94,104A1.49,1.49,0,0,1,317.48,735.42Z"/>
        </g>
        <path d="M181.5,434a1.52,1.52,0,0,1-.51-.09A149.9,149.9,0,0,1,114.05,386c-14.14-17.65-25.23-39.12-33-63.83C67.89,280.19,69,242.82,69,242.45A1.52,1.52,0,0,1,70.55,241,1.5,1.5,0,0,1,72,242.55c0,.37-1.08,37.3,12,78.84,12,38.19,38.74,88.22,98.05,109.7a1.5,1.5,0,0,1-.51,2.91Z"/>
        <path d="M137.33,442.92h-.13c-30-2.67-51.85-21.26-64.86-36.38A146.81,146.81,0,0,1,51.13,374.1a1.5,1.5,0,0,1,2.74-1.2c.28.62,28,62.09,83.59,67a1.5,1.5,0,0,1-.13,3Z"/>
        <circle cx="402.24" cy="831.78" r="8.14" style="fill: #51cef4"/>
        <circle cx="698.24" cy="725.78" r="8.14" style="fill: #51cef4"/>
        <circle cx="661.24" cy="780.78" r="8.14" style="fill: #51cef4"/>
        <circle cx="497.24" cy="824.78" r="8.14" style="fill: #51cef4"/>
        <path d="M448.86,367a23.9,23.9,0,0,1-2.52-.13c-18.22-1.84-35-23.16-35.71-24.07a3,3,0,1,1,4.74-3.68c.15.2,15.92,20.21,31.59,21.78a16.62,16.62,0,0,0,13.09-4.22,3,3,0,1,1,3.9,4.56A22.66,22.66,0,0,1,448.86,367Z" style="fill: #fff"/>
        <path d="M480.86,270.28a3,3,0,0,1-2.76-1.81c-11.69-27-40-16.82-41.19-16.38a3,3,0,0,1-2.11-5.62c.35-.13,34.84-12.63,48.81,19.62a3,3,0,0,1-1.56,3.94A3,3,0,0,1,480.86,270.28Z" style="fill: #fff"/>
        <path d="M322,792h-.06a3,3,0,0,1-2.94-3.06c2-98.57,35-162.7,35.34-163.33a3,3,0,1,1,5.32,2.78C359.33,629,327,692,325,789.06A3,3,0,0,1,322,792Z" style="fill: #fff"/>
        <path d="M328,834a3,3,0,0,1-3-2.66l-3-26a3,3,0,0,1,6-.68l3,26a3,3,0,0,1-2.64,3.32Z" style="fill: #fff"/>
        <path d="M187,558a3.22,3.22,0,0,1-.81-.11,3,3,0,0,1-2.08-3.7c12.34-44.22,42.08-51.36,43.34-51.64a3,3,0,0,1,1.32,5.85c-1.15.27-27.56,6.86-38.88,47.41A3,3,0,0,1,187,558Z" style="fill: #fff"/>
        <path d="M282,404a3,3,0,0,1-2-.76c-16.48-14.64-36.78-7.49-37-7.42a3,3,0,0,1-2.06-5.64c1-.35,23.91-8.42,43,8.58a3,3,0,0,1-2,5.24Z" style="fill: #fff"/>
        <path d="M274,437a3,3,0,0,1-2.06-.82c-15.66-14.74-45.08-9.29-45.37-9.23a3,3,0,0,1-1.14-5.9c1.33-.25,32.71-6.09,50.63,10.77A3,3,0,0,1,274,437Z" style="fill: #fff"/>
      </g>
      <g id="e2242e6c-b156-4c94-85e7-e0c00e456958" data-name="phone">
        <g>
          <path d="M654.94,578.84c-27.77-40.89-53.68-68.49-75.83-52.71-35.61,25.37,24.39,93.37-9.24,153.5-19.29,34.48-13,91.55,20.34,114.66S688.23,627.85,654.94,578.84Z" style="fill: #ffcdb2"/>
          <path d="M596.17,797.73a11.85,11.85,0,0,1-6.82-2.2c-34.89-24.24-39.83-82.6-20.79-116.63,17.1-30.58,9.65-62.95,3.08-91.52-6.12-26.63-11.42-49.63,6.6-62.47a23.94,23.94,0,0,1,18.69-4.38c15.92,2.86,34.2,20.58,59.25,57.47,12.46,18.35,12.61,59.14.38,109.12-11.11,45.43-29.54,86.81-45.87,103C604.9,795.83,600.05,797.73,596.17,797.73Zm-3.71-274.61A21.09,21.09,0,0,0,580,527.35c-16.38,11.68-11.54,32.72-5.41,59.36,6.69,29.09,14.27,62.06-3.39,93.65-9.21,16.47-12.72,39.13-9.37,60.63,3.51,22.62,14.17,41.6,29.26,52.07,4.82,3.35,10.71,1.64,17.51-5.09,16-15.81,34.08-56.62,45.07-101.56,12-49.17,12-89.07.05-106.73-16.54-24.34-38-52.73-57.3-56.2A22.29,22.29,0,0,0,592.46,523.12Z"/>
        </g>
        <g>
          <path d="M740.45,931.81l-129.16-3c-38-.71-78.8-31.8-66.4-65.74L682.35,475.17c12.41-33.94,53.29-60.87,91.32-60.16l162.16,3c44.67,4.53,51.67,49.53,29.67,97.53L831.76,878.65C819.36,912.59,812.5,931.5,740.45,931.81Z" style="fill: #382256"/>
          <path d="M772.19,415h1.48l162.16,3c44.67,4.53,51.67,49.53,29.67,97.53L831.76,878.65c-12.4,33.94-19.26,52.85-91.31,53.16l-129.16-3c-38-.71-78.8-31.8-66.4-65.74L682.35,475.17C694.6,441.67,734.58,415,772.19,415m0-3c-18.8,0-38.72,6.4-56.1,18s-30.42,27.33-36.56,44.11l-137.46,388c-4.62,12.63-2.71,25.7,5.55,37.74,12.59,18.37,38.75,31.53,63.61,32l129.15,2.95h.08c34.74-.15,56.25-4.63,69.76-14.53,13-9.53,18-23.21,24.33-40.52l0-.08,133.7-363c14.33-31.33,16.27-60.25,5.33-79.36-7.36-12.85-20.32-20.57-37.48-22.31h-.25l-162.16-3Z"/>
        </g>
        <g>
          <path d="M735.59,906.73l-140.18-2.64c-34.77-.65-53.76-26.33-42.42-57.36L688.26,476.67c11.34-31,48.72-55.64,83.48-55l140.19,2.64c34.76.65,53.75,26.33,42.41,57.36L819.08,851.74C807.74,882.76,770.36,907.38,735.59,906.73Z" style="fill: #fff"/>
          <path d="M736.94,908.24h-1.38l-140.18-2.64c-17.92-.33-32.3-7.08-40.46-19-7.61-11.1-8.79-25.44-3.34-40.37L686.85,476.16c11.53-31.53,49.6-56.67,84.92-56L912,422.82c17.92.33,32.29,7.08,40.46,19,7.61,11.1,8.79,25.44,3.33,40.37L820.49,852.25C809.11,883.37,771.85,908.24,736.94,908.24Zm-1.32-3c34.11.68,70.93-23.59,82-54L952.93,481.16c5.12-14,4.06-27.37-3-37.65-7.6-11.09-21.11-17.38-38-17.69l-140.18-2.64h-1.33c-33.74,0-69.75,24-80.72,54L554.4,847.25c-5.11,14-4,27.37,3,37.65,7.61,11.09,21.12,17.38,38.05,17.69Z"/>
        </g>
        <g>
          <polygon points="858.94 618.9 685.53 615.64 731.83 488.99 905.24 492.25 858.94 618.9" style="fill: #fff"/>
          <path d="M731.83,489l173.41,3.26L858.94,618.9l-173.41-3.26L731.83,489m0-3a3,3,0,0,0-2.82,2L682.72,614.61a3,3,0,0,0,2.76,4l173.41,3.26h.05a3,3,0,0,0,2.82-2l46.3-126.65a3,3,0,0,0-2.77-4L731.88,486Z"/>
        </g>
        <path d="M775.14,542.17a1.59,1.59,0,0,1-.56-.11,1.51,1.51,0,0,1-.83-2c.58-1.42,14.33-34.81,30.2-40.41,6.26-2.21,10.09-.27,12.19,1.74,6.08,5.83,6.56,20.86,1.24,38.29a1.51,1.51,0,0,1-1.88,1,1.49,1.49,0,0,1-1-1.87c4.92-16.12,4.74-30.28-.45-35.25-2.17-2.09-5.24-2.45-9.11-1.09-14.61,5.16-28.28,38.39-28.42,38.72A1.48,1.48,0,0,1,775.14,542.17Z"/>
        <g>
          <polygon points="762.98 527.54 715.7 591.13 830.13 593.28 838.8 528.97 762.98 527.54" style="fill: #4bd657"/>
          <path d="M830.13,594.78h0l-114.44-2.15a1.5,1.5,0,0,1-1.18-2.39l47.28-63.59A1.53,1.53,0,0,1,763,526l75.83,1.43a1.5,1.5,0,0,1,1.46,1.7l-8.67,64.31A1.5,1.5,0,0,1,830.13,594.78Zm-111.49-5.09,110.19,2.07,8.26-61.32-73.37-1.38Z"/>
        </g>
        <path d="M811.36,566.79a1.36,1.36,0,0,1-.56-.11,1.5,1.5,0,0,1-.83-1.95c.39-1,9.56-23.22,20.26-27,4.38-1.55,7.08-.17,8.58,1.27,4.21,4,4.58,13.93,1,25.82a1.5,1.5,0,0,1-2.87-.88c3.2-10.47,3.13-19.62-.16-22.78-1.31-1.25-3.11-1.45-5.5-.6-9.44,3.33-18.39,25.08-18.48,25.3A1.48,1.48,0,0,1,811.36,566.79Z"/>
        <g>
          <polygon points="803.32 556.62 772.08 598.64 847.7 600.06 853.43 557.56 803.32 556.62" style="fill: #07acee"/>
          <path d="M847.7,601.56h0l-75.63-1.42a1.5,1.5,0,0,1-1.18-2.39l31.25-42a1.61,1.61,0,0,1,1.23-.6l50.11.94a1.52,1.52,0,0,1,1.11.52,1.54,1.54,0,0,1,.35,1.18l-5.73,42.5A1.5,1.5,0,0,1,847.7,601.56ZM775,597.2l71.38,1.34L851.72,559l-47.66-.9Z"/>
        </g>
        <g>
          <path d="M733.14,708.24l-67-1.26c-9.22-.18-14.25-7-11.24-15.21l11.22-30.7c3-8.22,12.91-14.75,22.13-14.57l67,1.26c9.22.17,14.25,7,11.24,15.2l-11.22,30.7C752.27,701.88,742.36,708.41,733.14,708.24Z" style="fill: #07acee"/>
          <path d="M687.87,646.49h.36l67,1.26c9.22.17,14.25,7,11.24,15.2l-11.22,30.7c-3,8.12-12.65,14.58-21.77,14.58h-.36l-67-1.26c-9.22-.18-14.25-7-11.24-15.21l11.22-30.7c3-8.11,12.66-14.58,21.77-14.58m0-3h0c-10.4,0-21.2,7.27-24.59,16.55l-11.22,30.7c-1.74,4.77-1.32,9.41,1.18,13.07,2.62,3.81,7.29,6.06,12.82,6.17l67,1.26h.41c10.4,0,21.2-7.27,24.59-16.55L769.31,664c1.74-4.77,1.33-9.41-1.18-13.07s-7.29-6.06-12.82-6.16l-67-1.26Z"/>
        </g>
        <g>
          <path d="M705.32,784.37l-67-1.26c-9.21-.17-14.25-7-11.24-15.2l11.22-30.7c3-8.23,12.91-14.75,22.13-14.58l67,1.26c9.22.17,14.25,7,11.24,15.2l-11.22,30.7C724.44,778,714.53,784.54,705.32,784.37Z" style="fill: #4bd657"/>
          <path d="M705.67,785.87h-.38l-67-1.26c-5-.1-9.27-2.11-11.61-5.52-2.22-3.24-2.58-7.4-1-11.7l11.22-30.7c3.2-8.76,13.78-15.69,23.57-15.56l67,1.26c5,.1,9.28,2.11,11.61,5.52,2.23,3.24,2.59,7.4,1,11.7l-11.22,30.7C725.69,779,715.35,785.87,705.67,785.87Zm-.33-3c8.62.17,17.9-5.94,20.69-13.59l11.23-30.7c1.23-3.37,1-6.55-.67-9-1.81-2.64-5.08-4.13-9.2-4.21l-67-1.26c-8.61-.12-17.89,5.94-20.69,13.59l-11.22,30.7c-1.23,3.37-1,6.55.66,9,1.81,2.64,5.08,4.13,9.2,4.21Z"/>
        </g>
        <g>
          <path d="M674.63,868.33l-67-1.26c-9.21-.17-14.25-7-11.24-15.2l11.22-30.7c3-8.23,12.91-14.75,22.13-14.58l67,1.26c9.22.17,14.25,7,11.25,15.2l-11.23,30.7C693.75,862,683.84,868.5,674.63,868.33Z" style="fill: #fff"/>
          <path d="M675,869.83h-.38l-67-1.26c-5-.1-9.27-2.11-11.61-5.52-2.22-3.24-2.58-7.4-1-11.7l11.22-30.7c3.21-8.76,13.75-15.71,23.57-15.56l67,1.26c5,.1,9.28,2.11,11.61,5.52,2.23,3.24,2.59,7.4,1,11.7l-11.22,30.7C695,862.92,684.66,869.83,675,869.83Zm-.33-3H675c8.51,0,17.59-6,20.35-13.59l11.23-30.7c1.23-3.37,1-6.55-.67-9-1.81-2.64-5.07-4.13-9.2-4.21l-67-1.26C621,807.93,611.79,814,609,821.68l-11.22,30.7c-1.23,3.37-1,6.55.66,9,1.81,2.64,5.08,4.13,9.2,4.21Z"/>
        </g>
        <g>
          <ellipse cx="811.28" cy="673.88" rx="31.21" ry="22.07" transform="translate(-243.24 690.66) rotate(-40.63)" style="fill: #07acee"/>
          <path d="M802.14,701.72h-.51c-7.07-.13-12.86-3-16.3-8-3.75-5.47-4.28-13.06-1.44-20.83,5.51-15.07,22.08-27.11,37-26.82,7.07.13,12.85,3,16.3,8,3.75,5.47,4.27,13.06,1.43,20.83C833.22,689.79,816.92,701.72,802.14,701.72Zm18.26-52.67c-13.61,0-28.65,11.06-33.69,24.86-2.5,6.85-2.1,13.44,1.09,18.11,2.88,4.2,7.81,6.58,13.88,6.69,13.72.27,29.06-10.89,34.16-24.85h0c2.51-6.85,2.11-13.44-1.09-18.11-2.88-4.2-7.81-6.58-13.88-6.69Z"/>
        </g>
        <g>
          <ellipse cx="781.37" cy="755.71" rx="31.21" ry="22.07" transform="translate(-303.73 690.91) rotate(-40.63)" style="fill: #07acee"/>
          <path d="M772.23,783.54h-.51c-7.07-.14-12.86-3-16.3-8-3.75-5.47-4.28-13.07-1.44-20.83,5.45-14.9,21.75-26.83,36.53-26.83H791c7.07.14,12.85,3,16.3,8,3.75,5.47,4.27,13.07,1.43,20.83h0C803.31,771.61,787,783.54,772.23,783.54Zm18.26-52.66c-13.61,0-28.65,11-33.69,24.86-2.5,6.84-2.1,13.44,1.09,18.1,2.88,4.21,7.81,6.58,13.88,6.7,13.71.28,29.06-10.89,34.16-24.86h0c2.51-6.84,2.11-13.44-1.09-18.1C802,733.38,797,731,791,730.88Zm16.85,25.32h0Z"/>
        </g>
        <g>
          <ellipse cx="750.68" cy="839.67" rx="31.21" ry="22.07" transform="translate(-365.79 691.17) rotate(-40.63)" style="fill: #07acee"/>
          <path d="M741.54,867.5H741c-7.07-.14-12.86-3-16.3-8-3.75-5.47-4.28-13.07-1.44-20.83,5.45-14.9,21.75-26.83,36.53-26.83h.51c7.07.14,12.86,3,16.3,8,3.75,5.48,4.27,13.07,1.43,20.83C772.62,855.57,756.32,867.5,741.54,867.5Zm18.26-52.66c-13.61,0-28.64,11-33.69,24.86-2.5,6.84-2.1,13.44,1.09,18.1,2.88,4.21,7.81,6.58,13.88,6.7,13.75.3,29.06-10.89,34.16-24.86h0c2.51-6.84,2.11-13.44-1.09-18.1-2.88-4.2-7.81-6.58-13.88-6.7Z"/>
        </g>
        <g>
          <line x1="686.31" y1="671.54" x2="734.75" y2="672.45" style="fill: #07acee"/>
          <path d="M734.75,674h0L686.28,673a1.5,1.5,0,1,1,.06-3l48.44.91a1.5,1.5,0,0,1,0,3Z"/>
        </g>
        <g>
          <line x1="683.84" y1="687.97" x2="714.73" y2="688.55" style="fill: #07acee"/>
          <path d="M714.73,690.05h0l-30.89-.58a1.5,1.5,0,0,1,0-3h0l30.89.58a1.5,1.5,0,0,1,0,3Z"/>
        </g>
        <g>
          <line x1="656.4" y1="753.36" x2="704.84" y2="754.27" style="fill: #07acee"/>
          <path d="M704.84,755.77h0l-48.44-.91a1.49,1.49,0,0,1-1.47-1.53,1.52,1.52,0,0,1,1.53-1.47l48.44.91a1.5,1.5,0,0,1,0,3Z"/>
        </g>
        <g>
          <line x1="622.33" y1="846.57" x2="653.92" y2="847.16" style="fill: #07acee"/>
          <path d="M653.92,848.67h0l-31.59-.6a1.5,1.5,0,0,1,.06-3l31.59.6a1.5,1.5,0,0,1,0,3Z"/>
        </g>
        <g>
          <line x1="628.05" y1="830.92" x2="676.49" y2="831.83" style="fill: #07acee"/>
          <path d="M676.49,833.33h0L628,832.42a1.5,1.5,0,0,1-1.47-1.53,1.52,1.52,0,0,1,1.53-1.47l48.44.91a1.5,1.5,0,0,1,0,3Z"/>
        </g>
        <g>
          <polyline points="742.49 833.07 741.68 848.82 764.75 826.32" style="fill: #07acee"/>
          <path d="M741.68,850.31a1.49,1.49,0,0,1-1.5-1.57L741,833a1.5,1.5,0,0,1,3,.16l-.62,11.92,20.33-19.82a1.5,1.5,0,0,1,2.09,2.15l-23.06,22.49A1.51,1.51,0,0,1,741.68,850.31Z"/>
        </g>
        <g>
          <polyline points="772.66 750.53 776.24 767.79 799.49 746.74" style="fill: #07acee"/>
          <path d="M776.24,769.29a1.47,1.47,0,0,1-.46-.07,1.51,1.51,0,0,1-1-1.12l-3.58-17.26a1.5,1.5,0,1,1,2.94-.61l3,14.69,21.3-19.29a1.5,1.5,0,1,1,2,2.22l-23.25,21A1.47,1.47,0,0,1,776.24,769.29Z"/>
        </g>
        <g>
          <polyline points="800.2 669.38 805.11 688.81 823.52 665.52" style="fill: #07acee"/>
          <path d="M805.11,690.31a1.63,1.63,0,0,1-.31,0,1.5,1.5,0,0,1-1.14-1.1l-4.91-19.43a1.5,1.5,0,1,1,2.9-.74l4.17,16.49,16.53-20.91a1.5,1.5,0,1,1,2.35,1.86l-18.41,23.29A1.48,1.48,0,0,1,805.11,690.31Z"/>
        </g>
        <g>
          <path d="M914.78,634.32s-54.56-63.8-5.55-95.24,91.54,21.27,74.9,71.2-62,56.41-86.92,69.35" style="fill: #ffcdb2"/>
          <path d="M897.21,681.13a1.5,1.5,0,0,1-.69-2.83c5.3-2.75,11.5-5.21,18.06-7.81,24.59-9.75,55.19-21.88,68.13-60.69,8.66-26,1.27-54.61-18-69.59-15.65-12.17-35.59-12.12-54.69.13-11.1,7.12-17.59,16.55-19.28,28-4.43,30,24.86,64.63,25.16,65a1.5,1.5,0,0,1-2.28,1.95c-1.25-1.46-30.47-36.06-25.85-67.36,1.82-12.38,8.76-22.51,20.63-30.12,20.24-13,41.43-13,58.15,0,20.24,15.74,28,45.72,19,72.9-13.38,40.13-44.7,52.55-69.86,62.53-6.49,2.57-12.63,5-17.79,7.68A1.44,1.44,0,0,1,897.21,681.13Z"/>
        </g>
        <g>
          <path d="M896.28,716.62s-54.55-63.8-5.54-95.24,91.54,21.26,74.9,71.2-62,56.4-86.93,69.35" style="fill: #ffcdb2"/>
          <path d="M878.71,763.43a1.5,1.5,0,0,1-.69-2.83c5.3-2.75,11.5-5.21,18.07-7.81,24.59-9.75,55.19-21.88,68.12-60.69,8.67-26,1.28-54.61-18-69.59-15.66-12.17-35.59-12.13-54.7.13-11.09,7.12-17.58,16.55-19.28,28-4.42,29.94,24.87,64.63,25.16,65a1.5,1.5,0,1,1-2.28,2c-1.24-1.45-30.47-36.05-25.85-67.35,1.83-12.38,8.77-22.52,20.64-30.13,20.23-13,41.43-13,58.15,0,20.23,15.74,28,45.73,19,72.91-13.38,40.13-44.7,52.55-69.87,62.53-6.49,2.57-12.62,5-17.79,7.68A1.41,1.41,0,0,1,878.71,763.43Z"/>
        </g>
        <g>
          <path d="M869.22,782.27s-54.56-63.8-5.55-95.24,91.55,21.27,74.9,71.2-62,56.41-86.92,69.35" style="fill: #ffcdb2"/>
          <path d="M851.65,829.08a1.5,1.5,0,0,1-.69-2.83c5.3-2.75,11.5-5.21,18.07-7.81,24.58-9.75,55.18-21.88,68.12-60.68,8.67-26,1.27-54.62-18-69.6-15.65-12.17-35.58-12.12-54.69.13-11.1,7.12-17.59,16.55-19.28,28-4.42,29.95,24.86,64.63,25.16,65a1.5,1.5,0,0,1-2.28,2c-1.25-1.46-30.47-36.06-25.85-67.36,1.83-12.38,8.77-22.51,20.63-30.12,20.24-13,41.44-13,58.15,0,20.24,15.74,28,45.72,19,72.91-13.38,40.12-44.7,52.54-69.87,62.52-6.49,2.57-12.62,5-17.79,7.68A1.44,1.44,0,0,1,851.65,829.08Z"/>
        </g>
        <path d="M853.5,449h-.07c-.37,0-36.73-2-76.52-19-23.4-10-43.41-23.22-59.47-39.23-20.1-20-34-44.57-41.39-72.89a1.5,1.5,0,1,1,2.9-.76c16.37,62.92,62.9,94.59,99,110.09C817.31,444.05,853.21,446,853.57,446a1.5,1.5,0,0,1-.07,3Z"/>
        <path d="M732.89,452.54a63,63,0,0,1-24-5c-16-6.6-39-23.13-57.8-64.39a1.5,1.5,0,0,1,2.74-1.24c18.33,40.24,40.57,56.35,56,62.78,16.66,6.94,29.19,4.4,29.32,4.37a1.5,1.5,0,0,1,.63,2.94A35.59,35.59,0,0,1,732.89,452.54Z"/>
        <path d="M551.5,758a1.49,1.49,0,0,1-1.37-.9c-17.06-39.12,3.11-91,4-93.15a1.49,1.49,0,1,1,2.78,1.1c-.2.53-20.56,52.88-4,90.85a1.51,1.51,0,0,1-.78,2A1.61,1.61,0,0,1,551.5,758Z"/>
        <path d="M997.5,485a1.5,1.5,0,0,1-1.43-2c9.92-31.07,9-55-2.71-71-15.14-20.74-43.58-21-43.86-21a1.5,1.5,0,0,1,0-3c1.23,0,30.21.25,46.26,22.22,12.33,16.88,13.4,41.69,3.17,73.74A1.5,1.5,0,0,1,997.5,485Z"/>
        <path d="M978,602a2.89,2.89,0,0,1-.5,0A3,3,0,0,1,975,598.5c8.38-49.36-37.88-58.15-39.86-58.5a3,3,0,0,1,1-5.91A66,66,0,0,1,962,545.76c11.33,8.59,23.82,24.88,18.92,53.74A3,3,0,0,1,978,602Z" style="fill: #fff"/>
        <path d="M963,676a3,3,0,0,1-3-2.94c-.93-46.43-38.48-48-40.08-48.06a3,3,0,0,1,.08-6h.07c.45,0,44.88,1.67,45.93,53.94a3,3,0,0,1-2.94,3.06Z" style="fill: #fff"/>
        <path d="M731,586a3,3,0,0,1-2.45-4.73l34-48a3,3,0,1,1,4.9,3.46l-34,48A3,3,0,0,1,731,586Z" style="fill: #fff"/>
        <path d="M785.08,595.44a3,3,0,0,1-2.4-4.79l21.91-29.44a3,3,0,0,1,4.82,3.58l-21.92,29.44A3,3,0,0,1,785.08,595.44Z" style="fill: #fff"/>
        <path d="M597,757a3,3,0,0,1-1-.18,3,3,0,0,1-1.8-3.84l72-199a3,3,0,0,1,5.64,2l-72,199A3,3,0,0,1,597,757Z" style="fill: #fff"/>
        <path d="M573,827a2.86,2.86,0,0,1-1.07-.2,3,3,0,0,1-1.73-3.87l21-55a3,3,0,0,1,5.6,2.14l-21,55A3,3,0,0,1,573,827Z" style="fill: #fff"/>
      </g>
    </g>
  </g>
</svg>
