<svg xmlns="http://www.w3.org/2000/svg" width="1000" height="1000" viewBox="0 0 1000 1000">
  <g id="aed5ae0a-9e04-45f6-aa7e-10bc9fd0e330" data-name="illustration">
    <g id="bf5e43ba-dd3c-41ae-9a19-36a67705e0e9" data-name="phone">
      <g id="ac96e5b3-3153-4f00-9f27-578598ec7690" data-name="line">
        <path d="M783.51,905.37H109.23a2,2,0,0,1,0-4H783.51a2,2,0,0,1,0,4Z" style="fill: #1d1d1b"/>
        <path d="M169.37,949.68H38.15a2,2,0,1,1,0-4H169.37a2,2,0,0,1,0,4Z" style="fill: #1d1d1b"/>
        <path d="M844.81,870.89H741.37a2,2,0,0,1,0-4H844.81a2,2,0,0,1,0,4Z" style="fill: #1d1d1b"/>
      </g>
      <g id="bfffd1c4-6bdd-413d-b092-b513c3edc6f8" data-name="woman">
        <g>
          <path d="M726.5,471.5s-49.59,20.39-53.14,54.22-8.51,66.45-8.51,66.45l52.43-2.25Z" style="fill: #ffcdb2"/>
          <path d="M663.09,593.74l.28-1.8c0-.32,5-33,8.49-66.38,3.61-34.32,52-54.6,54.07-55.45l2.25-.92-9.51,122.17ZM724.81,473.9c-9.65,4.47-47,23.52-50,52-3.05,29-7.17,57.41-8.25,64.72l49.28-2.12Z" style="fill: #1d1d1b"/>
        </g>
        <g>
          <path d="M424.25,530.15s31.91,153,161.42,210.31c97.52,43.17,92.86,34.08,129.91,6.62,32.42-24,78.68-117.65,68.08-145.66s-31.9-25.73-31.9-25.73l-3.67-22.41-79-4.21-.9,15.3s-29.39,9.48-27.69,37.17-2.49,65.53,5.94,79.19c0,0-29.31-109.84-200.13-133.62" style="fill: #07acee"/>
          <path d="M672.65,771.78c-15.89,0-39.43-8.63-87.59-29.95-67.29-29.79-107.83-85.68-130-127.32-24-45.08-32.21-83.67-32.29-84l2.94-.62c.07.38,8.23,38.62,32,83.34,21.94,41.19,62,96.47,128.52,125.9,87.28,38.65,91.47,35.39,118.68,14.22,2.88-2.24,6.13-4.77,9.72-7.43,15-11.08,34.47-38.87,49.72-70.78,15.67-32.8,22.52-60.82,17.85-73.14-10.07-26.61-30.14-24.79-30.33-24.76l-1.41.15-3.7-22.63-76.32-4.07-.87,14.84-1,.31c-1.16.38-28.27,9.48-26.67,35.66.55,8.86.49,18.85.44,28.51-.09,15-.17,30.41,2.06,41a77.37,77.37,0,0,1,3.4,9.4l2.63,9.85-5.35-8.68a31,31,0,0,1-3.52-9.45c-4.47-10.5-14.07-28.89-32.44-48.34-26-27.54-75.41-62.92-163.11-75.13l.41-3c39.13,5.44,74.06,15.89,103.82,31.06,23.83,12.14,44.42,27.33,61.19,45.12a176.17,176.17,0,0,1,28.61,39.86c-.83-9.31-.77-20.35-.7-31.72.05-9.61.11-19.55-.43-28.31-1.57-25.59,22.55-36.33,27.76-38.34l.92-15.81,81.71,4.36L753,574.17c5.12.07,22.75,2.2,32,26.72,5,13.25-1.7,41.47-17.95,75.49-15.45,32.33-35.33,60.55-50.64,71.9-3.56,2.64-6.8,5.16-9.66,7.39C694.06,765.58,686.1,771.78,672.65,771.78Z" style="fill: #1d1d1b"/>
        </g>
        <g>
          <path d="M348.81,467s-3.3,39.55-31.24,31-72.49-19.13-89.17,22.33S204.25,591,172.8,590,101.64,683.6,185.65,710.5C323.32,754.59,424,505.75,424,505.75L399.21,483.8Z" style="fill: #382256"/>
          <path d="M348.81,467l50.4,16.76L424,505.75S341.17,710.46,223,715.64a106.48,106.48,0,0,1-37.39-5.14C102.72,684,140.35,591.35,171.58,590c.41,0,.82,0,1.22,0,1.23,0,2.43,0,3.59,0,28.45-1.25,36-29.75,52-69.58,8.84-22,25.51-29.33,43.39-30.11,15.85-.69,32.65,3.78,45.78,7.78a24.92,24.92,0,0,0,8.37,1.19c20.26-.89,22.87-32.21,22.87-32.21m-.11-2.53a2.54,2.54,0,0,0-2.42,2.32c0,.39-2.7,29.11-20.46,29.88a22.45,22.45,0,0,1-7.51-1.07c-14.07-4.3-30.62-8.59-46.63-7.89-22.21,1-37.56,11.63-45.63,31.69-1.84,4.57-3.56,9-5.22,13.22-12.65,32.36-21,53.74-44.55,54.77-1.1.05-2.24.06-3.4,0-.46,0-.93,0-1.41,0-8.23.36-16.81,6.08-24.15,16.11a78,78,0,0,0-13.82,35.19c-2.07,15.5.66,30.16,7.91,42.39,8.66,14.62,23.28,25.3,43.46,31.77a109.65,109.65,0,0,0,38.28,5.25c27.51-1.2,55.34-13.16,82.73-35.55,21.75-17.77,43.28-42.14,64-72.43A619.12,619.12,0,0,0,426.3,506.7a2.52,2.52,0,0,0-.67-2.84l-24.74-21.95a2.45,2.45,0,0,0-.88-.51l-50.4-16.76a2.61,2.61,0,0,0-.91-.13Z"/>
        </g>
        <path d="M399.21,483.8,348.81,467s-1.63,19.5-12.26,28.16l35.72,34.3s-44.95,28.84-61.91,61.91c-11.41,22.24-54.88,122-25.15,103.09,26.41-16.78,49.94-41.68,69.77-67.92,20.58-52.26,44.29-112.58,53-135Z" style="fill: #050505"/>
        <g>
          <path d="M575.21,670.09C648.73,761.71,641,902.68,641,902.68H268.8s3.39-363.85,153.71-357.48" style="fill: #07acee"/>
          <path d="M641,904.18H268.8a1.49,1.49,0,0,1-1.07-.45,1.47,1.47,0,0,1-.43-1.07,1052.4,1052.4,0,0,1,12-135.39c6.62-42.31,15.54-79.49,26.5-110.5,13.75-38.88,30.8-68.16,50.66-87,19.3-18.32,41.57-27.06,66.14-26a1.5,1.5,0,0,1-.13,3c-23.74-1-45.26,7.48-63.94,25.22C314.21,614,292.59,701.59,282.24,767.69a1059.61,1059.61,0,0,0-11.92,133.49H639.57a449.28,449.28,0,0,0-5.38-80.28C627.59,778.5,611.8,718.08,574,671a1.5,1.5,0,0,1,2.34-1.88c38.19,47.59,54.13,108.58,60.78,151.36,7.2,46.31,5.36,81.89,5.34,82.25A1.5,1.5,0,0,1,641,904.18Z" style="fill: #1d1d1b"/>
        </g>
        <g>
          <circle cx="395.34" cy="373.33" r="35.68" style="fill: #382256"/>
          <path d="M388.52,338.31a35.68,35.68,0,1,1-26.38,21.95,35.49,35.49,0,0,1,26.38-21.95m-.48-2.49a38.2,38.2,0,1,0,21.3,1.95,38.07,38.07,0,0,0-21.3-1.95Z"/>
        </g>
        <g>
          <path d="M504.73,474.63s22.73-23.71,10.17-44.93-18.17-18.77-24.06-30.38-28.62-21.73-47.86-14.2c0,0-26.18-16.12-47.83-8.37s-28.4,19-33.12,36.92-10.3,26.15-14,38.62-7.9,46.9,41.46,67.48S504.73,474.63,504.73,474.63Z" style="fill: #382256"/>
          <path d="M400.18,375.37c20.46-4,42.8,9.75,42.8,9.75a37.22,37.22,0,0,1,6.42-1.86c17.59-3.44,36.2,5.72,41.44,16.06,5.89,11.61,11.5,9.17,24.06,30.38s-10.17,44.93-10.17,44.93-39.85,39.73-80.79,47.73c-11.71,2.29-23.52,2-34.5-2.59-49.36-20.58-45.21-55-41.46-67.48s9.32-20.73,14-38.62,11.48-29.18,33.12-36.92a33.85,33.85,0,0,1,5-1.38m-.48-2.49a36.37,36.37,0,0,0-5.4,1.48c-22.65,8.11-29.88,20.31-34.73,38.66a159.92,159.92,0,0,1-8.4,23.68,145,145,0,0,0-5.62,14.86,51.68,51.68,0,0,0,.86,32.3c5.94,16.23,20.09,29.09,42.06,38.25,10.59,4.41,22.68,5.33,35.95,2.74,21.6-4.22,42.79-17.18,56.75-27.3a231.21,231.21,0,0,0,25.35-21.12l0,0a63.88,63.88,0,0,0,10.25-15.17c5.77-12,5.86-23.37.27-32.81-7.15-12.08-12.16-16.73-16.18-20.47-3.12-2.9-5.38-5-7.79-9.77-5.68-11.2-25.23-21.11-44.2-17.4a40,40,0,0,0-5.68,1.55c-4.85-2.76-24.7-13.12-43.53-9.44Z"/>
        </g>
        <path d="M414.91,458.67l-.11,0c-15.83,1.65-32.63-12.25-33.34-12.84a1.27,1.27,0,0,1,1.62-2c.17.14,16.7,13.8,31.45,12.27a1.27,1.27,0,0,1,.38,2.5Z"/>
        <path d="M413.79,447.73a40.51,40.51,0,0,1-10.75.57,1.27,1.27,0,0,1-1.17-1.36,1.26,1.26,0,0,1,1.36-1.17c31.21,2.31,37.77-29.75,38-31.11a1.27,1.27,0,1,1,2.49.48C443.7,415.45,438.1,443,413.79,447.73Z" style="fill: #fff"/>
        <g>
          <path d="M448.94,534.18s65.16,47.92-18.53,49c0,0-13.42,29.34-44.39,18s-21.3-40.16-1.51-49.34C401.67,543.93,448.94,534.18,448.94,534.18Z" style="fill: #fff"/>
          <path d="M403.75,604.83a38.39,38.39,0,0,1-18.17-2.4c-12.92-4.72-20.28-13-20.72-23.39-.47-11.22,7.39-22.85,19.11-28.29,17.11-7.94,62.78-17.41,64.71-17.81a1.26,1.26,0,0,1,1,.22c1.19.87,29,21.52,24.1,36.73-3,9.25-17.3,14.15-42.6,14.58C429.35,587.94,420.61,602.69,403.75,604.83Zm44.89-69.29c-5.38,1.13-47.76,10.16-63.6,17.51C374.39,558,367,568.88,367.39,578.93c.4,9.28,7.16,16.78,19.06,21.12,12.4,4.52,23.35,3,32.57-4.56a40.45,40.45,0,0,0,10.23-12.8,1.25,1.25,0,0,1,1.14-.74c24.22-.33,38.39-4.76,41-12.83C475.39,556.6,452.18,538.24,448.64,535.54Z"/>
        </g>
        <path d="M354.27,346.69a1.24,1.24,0,0,1-.43,0,1.27,1.27,0,0,1-1.07-1.44c1.29-8.59,4.92-15.13,10.81-19.45,10.36-7.6,23.88-5.58,24.45-5.49a1.27,1.27,0,0,1,1.05,1.45,1.28,1.28,0,0,1-1.45,1.06c-.13,0-13.07-1.95-22.57,5-5.31,3.9-8.6,9.88-9.78,17.76A1.27,1.27,0,0,1,354.27,346.69Z"/>
        <path d="M670.22,565.61s18.83,34.18,81.2,11.51l-4.16-22-75.6-4.24Z" style="fill: #0598c6"/>
        <path d="M367.33,366.54a1.39,1.39,0,0,1-.64,0,1.34,1.34,0,0,1-.88-1.66c2.86-9.18,7.73-15.4,14.5-18.49,11-5,22.77.07,23.26.29a1.32,1.32,0,1,1-1.06,2.42c-.11-.05-11.26-4.81-21.12-.29-6,2.76-10.43,8.43-13.05,16.86A1.32,1.32,0,0,1,367.33,366.54Z" style="fill: #fff"/>
        <g>
          <path d="M444.14,536.11,446.86,550s-17,40.89-69.22,20.28c0,0,16.35-37.15,20.95-78.33,0,0-18.08-1.31-17.56-17.37s12.74-20.55,20.78-17.38c0,0,32,16.09,52.94-48.87,0,0,32.77,8.25,43.78,39.31s10,69-13,83.19S444.14,536.11,444.14,536.11Z" style="fill: #ffcdb2"/>
          <path d="M454.75,408.35s32.77,8.25,43.78,39.31,10,69-13,83.19A53.86,53.86,0,0,1,467.66,538c-14,2.73-23.52-1.91-23.52-1.91L446.86,550s-8.57,20.56-32.16,25.17c-9.67,1.9-21.88,1.1-37.06-4.89,0,0,16.35-37.15,20.95-78.33,0,0-18.08-1.31-17.56-17.37.36-11.24,6.45-16.81,12.83-18.06a14.4,14.4,0,0,1,7.95.68,23.39,23.39,0,0,0,13.95,1.28c11.17-2.19,26.92-12.69,39-50.15m-.48-2.49a2.52,2.52,0,0,0-1.93,1.71C440.63,443.91,425.72,454,415.27,456A21.25,21.25,0,0,1,402.94,455l-.2-.09a17,17,0,0,0-9.37-.81c-6.92,1.36-14.46,7.44-14.88,20.47a17.55,17.55,0,0,0,9.95,17,27.86,27.86,0,0,0,7.34,2.56c-4.85,39.34-20.3,74.81-20.46,75.17a2.52,2.52,0,0,0,0,2,2.55,2.55,0,0,0,1.41,1.4c14.1,5.57,27.05,7.26,38.48,5,24.63-4.81,33.64-25.79,34-26.68a2.52,2.52,0,0,0,.15-1.46L447.48,540a45.77,45.77,0,0,0,20.66.56,56.42,56.42,0,0,0,18.72-7.5c11.38-7,18.45-19.85,20.45-37.13,1.74-15.1-.52-32.52-6.39-49.07-4.69-13.24-14.05-24.52-27.07-32.61a72,72,0,0,0-18.48-8.31,2.41,2.41,0,0,0-1.1,0Z"/>
        </g>
        <path d="M445.12,538.66a1.4,1.4,0,0,1-.41,0c-15.07-1.95-28.23-14.83-28.78-15.38a1.27,1.27,0,1,1,1.78-1.8c.13.13,13.12,12.83,27.33,14.66a1.27,1.27,0,0,1,.08,2.51Z"/>
        <path d="M397.58,484.59a1.27,1.27,0,0,1-1.23-.45c-4.31-5.29-5.82-10-4.48-13.89,1.92-5.65,9-7.37,9.29-7.44a1.27,1.27,0,0,1,.58,2.47c-.08,0-6,1.49-7.48,5.8-1,3,.34,6.89,4.06,11.46a1.28,1.28,0,0,1-.18,1.79A1.37,1.37,0,0,1,397.58,484.59Z"/>
        <path d="M462.66,455.85c-17.72,4.87-42.37-1.58-46.15,5.06s-.12,15.06,9.73,16.62,19.48.69,39.14-2,38.71-6.84,35.84-17.26S488.72,448.68,462.66,455.85Z" style="fill: #ffb49f"/>
        <g>
          <circle cx="391.34" cy="492.41" r="5.84" style="fill: #07acee"/>
          <path d="M390.22,486.68a5.84,5.84,0,1,1-4.32,3.59,5.83,5.83,0,0,1,4.32-3.59m-.48-2.49a8.38,8.38,0,1,0,4.67.43,8.33,8.33,0,0,0-4.67-.43Z"/>
        </g>
        <circle cx="484.45" cy="464.74" r="3.31"/>
        <circle cx="438.48" cy="470.48" r="3.31"/>
        <path d="M385,566.39a1.27,1.27,0,0,1-.87-.15,1.25,1.25,0,0,1-.46-1.73c9.86-17,16.68-50.73,16.75-51.07a1.27,1.27,0,0,1,2.49.5c-.28,1.4-7,34.48-17.05,51.84A1.27,1.27,0,0,1,385,566.39Z" style="fill: #fff"/>
        <path d="M454.22,518.91h-.11c-8.83-.08-15.72-8.47-16-8.82a1.5,1.5,0,0,1,2.34-1.89c.06.08,6.3,7.65,13.7,7.71h.08c3.66,0,7.09-1.88,10.19-5.59a1.5,1.5,0,1,1,2.3,1.92C463,516.66,458.81,518.91,454.22,518.91Z" style="fill: #1d1d1b"/>
        <circle cx="319.36" cy="872.21" r="6.9" style="fill: #51cef4"/>
        <circle cx="307.49" cy="769.58" r="6.9" style="fill: #51cef4"/>
        <circle cx="451.67" cy="776.37" r="6.9" style="fill: #51cef4"/>
        <circle cx="416.9" cy="827.26" r="6.9" style="fill: #51cef4"/>
        <circle cx="534.12" cy="883.33" r="7.79" style="fill: #51cef4"/>
        <circle cx="601.79" cy="805.21" r="6.9" style="fill: #51cef4"/>
        <circle cx="552.6" cy="711.06" r="6.9" style="fill: #51cef4"/>
        <circle cx="646.74" cy="733.11" r="6.9" style="fill: #51cef4"/>
        <circle cx="570.11" cy="652.22" r="6.9" style="fill: #51cef4"/>
        <circle cx="650.69" cy="655.53" r="6.9" style="fill: #51cef4"/>
        <circle cx="456.76" cy="630.49" r="6.9" style="fill: #51cef4"/>
        <circle cx="697.26" cy="603.56" r="6.9" style="fill: #51cef4"/>
        <circle cx="765.91" cy="632.95" r="6.9" style="fill: #51cef4"/>
        <circle cx="708.33" cy="701.57" r="6.9" style="fill: #51cef4"/>
        <circle cx="719.9" cy="646.01" r="6.9" style="fill: #51cef4"/>
        <circle cx="345.65" cy="663.57" r="6.9" style="fill: #51cef4"/>
        <path d="M169.91,583.15q-7,0-14.08-.69c-21.14-2.07-43.14-8.72-65.39-19.79A275,275,0,0,1,26.52,518.2a2,2,0,0,1,2.82-2.84,270.22,270.22,0,0,0,63,43.78c34.2,17,85.65,31.78,136.57,5.89a2,2,0,0,1,1.81,3.57A132.63,132.63,0,0,1,169.91,583.15Z" style="fill: #1d1d1b"/>
        <path d="M145.8,635a152.34,152.34,0,0,1-29-3,217.85,217.85,0,0,1-43.06-13.29A2,2,0,0,1,75.4,615c.74.33,74.08,33.08,115,3.59a2,2,0,1,1,2.34,3.24C180.72,630.56,164.76,635,145.8,635Z" style="fill: #1d1d1b"/>
        <path d="M476.17,489.87a1.49,1.49,0,0,1-1.39-.94l-11-27.14a1.5,1.5,0,1,1,2.78-1.13l11,27.14a1.48,1.48,0,0,1-.82,1.95A1.45,1.45,0,0,1,476.17,489.87Z" style="fill: #1d1d1b"/>
        <g>
          <path d="M357,571.28C300.7,620.33,185,745.29,185,779.4s23.59,40.29,23.59,40.29L203.44,845l82.46,36.4L293,865.5s35.14,1.77,44.52-28.41,30.31-147.79,54.83-169.43" style="fill: #07acee"/>
          <path d="M285.9,882.94a1.49,1.49,0,0,1-.61-.13l-82.46-36.39a1.51,1.51,0,0,1-.86-1.67l4.88-24.08c-5.17-2-23.37-11.2-23.36-41.27,0-20.79,40.89-71.22,65.26-99.44C282.9,640.43,326,596.3,356,570.15a1.5,1.5,0,0,1,2,2.26c-29.9,26.06-72.87,70.07-106.93,109.51-41.6,48.17-64.52,82.79-64.53,97.48,0,32.47,21.56,38.59,22.47,38.84a1.5,1.5,0,0,1,1.09,1.75l-4.9,24.17,80,35.3,6.52-14.57a1.54,1.54,0,0,1,1.45-.89c1.39.07,34.09,1.34,43-27.36,2.38-7.66,5.58-21.29,9.29-37.08,10.9-46.43,27.37-116.6,46-133a1.5,1.5,0,0,1,2,2.25c-17.91,15.79-34.25,85.4-45.06,131.46-3.72,15.84-6.93,29.52-9.34,37.28-8.68,28-39,29.47-45,29.48l-6.73,15A1.5,1.5,0,0,1,285.9,882.94Z" style="fill: #1d1d1b"/>
        </g>
        <path d="M209.93,819.6a21.61,21.61,0,0,1-3.8-1.57c20.58-2.67,67.69-2.9,86.74,45.87-.84,0-1.31,0-1.31,0l-6.9,15.4L205,844.11Z" style="fill: #0598c6"/>
        <g>
          <path d="M309.71,900.87s7.82-34-26-48.86-69.88-18-92.11,0-24.35,40.23-18,55,22.23,18,39.17,6.35c0,0,15.88,23.29,44.47,1.06,0,0,37.05,25.41,38.11-14.82Z" style="fill: #ffcdb2"/>
          <path d="M230.94,839.67c16.63,0,35,4.57,52.72,12.34,33.87,14.82,26,48.86,26,48.86l-14.41-1.22c-.47,17.78-8,22.74-16.18,22.74-10.39,0-21.93-7.92-21.93-7.92-9.24,7.19-17.15,9.62-23.62,9.62-13.57,0-20.85-10.68-20.85-10.68-7,4.79-13.74,7.07-19.76,7.07-8.62,0-15.67-4.69-19.41-13.42-6.35-14.82-4.23-37,18-55,10.58-8.57,24.28-12.34,39.39-12.34m0-2.86c-16.7,0-30.56,4.37-41.19,13S172,868.84,169.06,880a43.84,43.84,0,0,0,1.86,28.18c4.13,9.63,12.16,15.15,22,15.15,6.09,0,12.68-2.11,19.18-6.13a29.09,29.09,0,0,0,21.43,9.73c7.62,0,15.6-3,23.76-9,3.78,2.3,13,7.3,21.79,7.3,8,0,17.48-4,18.89-22.5l11.46,1h.25a2.85,2.85,0,0,0,2.78-2.22,50,50,0,0,0-.32-20.13c-2.22-10.1-8.78-23.85-27.38-32-18.8-8.23-37.43-12.58-53.86-12.58Z"/>
        </g>
        <path d="M213.33,918.31a1.49,1.49,0,0,1-1.42-1c-12-34.68,11.94-56.72,12.18-56.93a1.5,1.5,0,1,1,2,2.23c-.23.2-22.65,21-11.36,53.72a1.5,1.5,0,0,1-.92,1.91A1.73,1.73,0,0,1,213.33,918.31Z" style="fill: #1d1d1b"/>
        <path d="M256.35,918.52a1.51,1.51,0,0,1-1.4-.95c-7.53-18.82,2-46.78,2.45-48a1.5,1.5,0,1,1,2.83,1c-.1.28-9.6,28.09-2.49,45.87a1.5,1.5,0,0,1-.84,1.95A1.54,1.54,0,0,1,256.35,918.52Z" style="fill: #1d1d1b"/>
        <path d="M296.3,904.42a1.61,1.61,0,0,1-.48-.08,1.5,1.5,0,0,1-.94-1.9c.05-.16,5.4-16.38-.24-26.25a1.5,1.5,0,1,1,2.6-1.49c6.32,11,.72,28,.48,28.7A1.5,1.5,0,0,1,296.3,904.42Z" style="fill: #1d1d1b"/>
        <circle cx="332.81" cy="653.56" r="5.8" style="fill: #51cef4"/>
        <circle cx="318.9" cy="778.7" r="5.8" style="fill: #51cef4"/>
        <circle cx="223.71" cy="776.56" r="5.8" style="fill: #51cef4"/>
        <path d="M181.6,911.7a3,3,0,0,1-2.85-2.05c-4.81-14.44-4.42-27.36,1.16-38.41,8.91-17.67,27.77-24,28.57-24.22a3,3,0,1,1,1.85,5.7c-.29.1-17.36,5.9-25.09,21.27-4.81,9.56-5.08,20.92-.8,33.76a3,3,0,0,1-1.9,3.79A2.81,2.81,0,0,1,181.6,911.7Z" style="fill: #fff"/>
        <path d="M223.31,741.63a2.94,2.94,0,0,1-1.53-.42,3,3,0,0,1-1.05-4.11c27.66-46.8,94.91-118.53,95.59-119.25a3,3,0,0,1,4.37,4.11c-.67.71-67.48,72-94.8,118.2A3,3,0,0,1,223.31,741.63Z" style="fill: #fff"/>
        <path d="M491.18,442.51a1.51,1.51,0,0,1-1-.39c-.12-.11-11.49-10.43-18-3.88a1.5,1.5,0,0,1-2.12-2.12c8.58-8.58,21.64,3.28,22.19,3.79a1.5,1.5,0,0,1-1,2.6Z"/>
        <path d="M424.62,451.61a1.52,1.52,0,0,1-.92-.31,1.5,1.5,0,0,1-.27-2.1c3.68-4.79,7.7-7.5,11.95-8a11.94,11.94,0,0,1,8.36,2,1.5,1.5,0,0,1-1.84,2.38c-.32-.25-7.61-5.56-16.09,5.47A1.51,1.51,0,0,1,424.62,451.61Z"/>
        <path d="M783,572.77c8.36,3.18,14.43,10.76,17.57,18.93,4.06,10.54,3.61,22.17,2.23,33.19a246.16,246.16,0,0,1-6.4,32.49,257.74,257.74,0,0,1-10.53,31.36,252.46,252.46,0,0,1-14.45,29.62c-.68,1.18-1.36,2.35-2,3.52a1.5,1.5,0,0,0,2.59,1.52,255.9,255.9,0,0,0,15.29-30.25,259.76,259.76,0,0,0,11.22-32,255,255,0,0,0,6.9-33.06c1.62-11.59,2.52-23.79-1.15-35.1-2.88-8.89-8.7-17.29-17.12-21.69a31.23,31.23,0,0,0-3.3-1.46,1.52,1.52,0,0,0-1.85,1,1.54,1.54,0,0,0,1.05,1.85Z"/>
        <g>
          <g>
            <path d="M466.49,893a5.9,5.9,0,0,1-5.9,5.9H448.31a5.9,5.9,0,0,1-5.91-5.9h0a5.9,5.9,0,0,1,5.91-5.9h12.28a5.9,5.9,0,0,1,5.9,5.9Z" style="fill: #4bd657"/>
            <path d="M460.59,887.1a5.9,5.9,0,1,1,0,11.8H448.31a5.9,5.9,0,1,1,0-11.8h12.28m0-3H448.31a8.9,8.9,0,1,0,0,17.8h12.28a8.9,8.9,0,1,0,0-17.8Z" style="fill: #1d1e1b"/>
          </g>
          <g>
            <path d="M663.12,893a5.91,5.91,0,0,1-5.91,5.9H644.93A5.9,5.9,0,0,1,639,893h0a5.9,5.9,0,0,1,5.9-5.9h12.28a5.91,5.91,0,0,1,5.91,5.9Z" style="fill: #4bd657"/>
            <path d="M657.21,887.1a5.9,5.9,0,1,1,0,11.8H644.93a5.9,5.9,0,0,1,0-11.8h12.28m0-3H644.93a8.9,8.9,0,0,0,0,17.8h12.28a8.9,8.9,0,1,0,0-17.8Z" style="fill: #1d1e1b"/>
          </g>
        </g>
      </g>
      <g id="b28f4111-ed0e-44e8-9e7d-060514e2c293" data-name="phone 2">
        <g>
          <g>
            <path d="M673.27,564.21A633.64,633.64,0,0,0,778.08,448.86c7.72-10.8,13-30.5,7.59-41.56a75.48,75.48,0,0,0-17.87-23.81c-3.48-3-8.66-1.59-11.08,2.37Q745.08,405,732,423.11c-2.7,3.76-1.47,8.31,2.06,11.25,6.39,5.25,13.46,15.56,1.25,30.49a607.82,607.82,0,0,1-50.25,55.31c-12.89,12.22-24,6.73-30.06,1.32-3.45-3-8.31-3.69-11.79-.64q-16.79,14.7-34.73,28.14c-3.71,2.78-4.62,8.07-1.29,11.25a75.13,75.13,0,0,0,25.4,15.51C644.16,580.05,663.26,572.93,673.27,564.21Z" style="fill: #4bd657"/>
            <path d="M763.48,381.88a6.51,6.51,0,0,1,4.32,1.61,75.48,75.48,0,0,1,17.87,23.81c5.39,11.06.13,30.76-7.59,41.56A633.64,633.64,0,0,1,673.27,564.21c-7.94,6.92-21.59,12.82-32.65,12.82a22.94,22.94,0,0,1-8-1.29,75.13,75.13,0,0,1-25.4-15.51c-3.33-3.18-2.42-8.47,1.29-11.25q17.93-13.41,34.73-28.14a7.83,7.83,0,0,1,5.25-2,10,10,0,0,1,6.54,2.63c3.4,3,8.32,6,14.25,6,4.72,0,10.09-1.94,15.81-7.36a607.82,607.82,0,0,0,50.25-55.31c12.21-14.93,5.14-25.24-1.25-30.49-3.53-2.94-4.76-7.49-2.06-11.25q13-18.12,24.68-37.25a8.09,8.09,0,0,1,6.76-4m0-3v0a11.09,11.09,0,0,0-9.32,5.42c-7.67,12.6-15.93,25.06-24.56,37.06-3.48,4.84-2.42,11.13,2.58,15.3,8.87,7.3,9.15,16.14.85,26.29A609.65,609.65,0,0,1,683,518c-4.55,4.31-9.18,6.51-13.72,6.51-5.2,0-9.54-2.88-12.26-5.29a13,13,0,0,0-8.53-3.38,10.82,10.82,0,0,0-7.22,2.73c-11.14,9.75-22.76,19.17-34.56,28a11.32,11.32,0,0,0-4.53,8.22,9.58,9.58,0,0,0,3,7.6,78.4,78.4,0,0,0,26.46,16.16,25.91,25.91,0,0,0,9,1.47c11,0,25.6-5.7,34.62-13.55a636.81,636.81,0,0,0,105.29-115.9C789,438.72,794.2,418,788.36,406a78.39,78.39,0,0,0-18.59-24.77,9.56,9.56,0,0,0-6.29-2.34Z" style="fill: #1d1e1b"/>
          </g>
          <path d="M710.41,492.67Z" style="fill: #fc611f"/>
        </g>
        <g>
          <g>
            <path d="M674.27,564.21A633.64,633.64,0,0,0,779.08,448.86c7.72-10.8,13-30.5,7.59-41.56a75.48,75.48,0,0,0-17.87-23.81c-3.48-3-8.66-1.59-11.08,2.37Q746.08,405,733,423.11c-2.7,3.76-1.47,8.31,2.06,11.25,6.39,5.25,13.46,15.56,1.25,30.49a607.82,607.82,0,0,1-50.25,55.31c-12.89,12.22-24,6.73-30.06,1.32-3.45-3-8.31-3.69-11.79-.64q-16.79,14.7-34.73,28.14c-3.71,2.78-4.62,8.07-1.29,11.25a75.13,75.13,0,0,0,25.4,15.51C645.16,580.05,664.26,572.93,674.27,564.21Z" style="fill: #4bd657"/>
            <path d="M764.48,381.88a6.51,6.51,0,0,1,4.32,1.61,75.48,75.48,0,0,1,17.87,23.81c5.39,11.06.13,30.76-7.59,41.56A633.64,633.64,0,0,1,674.27,564.21c-7.94,6.92-21.59,12.82-32.65,12.82a22.94,22.94,0,0,1-8-1.29,75.13,75.13,0,0,1-25.4-15.51c-3.33-3.18-2.42-8.47,1.29-11.25q17.93-13.41,34.73-28.14a7.83,7.83,0,0,1,5.25-2,10,10,0,0,1,6.54,2.63c3.4,3,8.32,6,14.25,6,4.72,0,10.09-1.94,15.81-7.36a607.82,607.82,0,0,0,50.25-55.31c12.21-14.93,5.14-25.24-1.25-30.49-3.53-2.94-4.76-7.49-2.06-11.25q13-18.12,24.68-37.25a8.09,8.09,0,0,1,6.76-4m0-3v0a11.09,11.09,0,0,0-9.32,5.42c-7.67,12.6-15.93,25.06-24.56,37.06-3.48,4.84-2.42,11.13,2.58,15.3,8.87,7.3,9.15,16.14.85,26.29A609.65,609.65,0,0,1,684,518c-4.55,4.31-9.18,6.51-13.72,6.51-5.2,0-9.54-2.88-12.26-5.29a13,13,0,0,0-8.53-3.38,10.82,10.82,0,0,0-7.22,2.73c-11.14,9.75-22.76,19.17-34.56,28a11.32,11.32,0,0,0-4.53,8.22,9.58,9.58,0,0,0,3,7.6,78.4,78.4,0,0,0,26.46,16.16,25.91,25.91,0,0,0,9,1.47c11,0,25.6-5.7,34.62-13.55a636.81,636.81,0,0,0,105.29-115.9C790,438.72,795.2,418,789.36,406a78.39,78.39,0,0,0-18.59-24.77,9.56,9.56,0,0,0-6.29-2.34Z" style="fill: #1d1e1b"/>
          </g>
          <path d="M711.41,492.67Z" style="fill: #fc611f"/>
        </g>
        <g>
          <g>
            <path d="M675.27,564.21A633.64,633.64,0,0,0,780.08,448.86c7.72-10.8,13-30.5,7.59-41.56a75.48,75.48,0,0,0-17.87-23.81c-3.48-3-8.66-1.59-11.08,2.37Q747.08,405,734,423.11c-2.7,3.76-1.47,8.31,2.06,11.25,6.39,5.25,13.46,15.56,1.25,30.49a607.82,607.82,0,0,1-50.25,55.31c-12.89,12.22-24,6.73-30.06,1.32-3.45-3-8.31-3.69-11.79-.64q-16.79,14.7-34.73,28.14c-3.71,2.78-4.62,8.07-1.29,11.25a75.13,75.13,0,0,0,25.4,15.51C646.16,580.05,665.26,572.93,675.27,564.21Z" style="fill: #4bd657"/>
            <path d="M765.48,381.88a6.51,6.51,0,0,1,4.32,1.61,75.48,75.48,0,0,1,17.87,23.81c5.39,11.06.13,30.76-7.59,41.56A633.64,633.64,0,0,1,675.27,564.21c-7.94,6.92-21.59,12.82-32.65,12.82a22.94,22.94,0,0,1-8-1.29,75.13,75.13,0,0,1-25.4-15.51c-3.33-3.18-2.42-8.47,1.29-11.25q17.93-13.41,34.73-28.14a7.83,7.83,0,0,1,5.25-2,10,10,0,0,1,6.54,2.63c3.4,3,8.32,6,14.25,6,4.72,0,10.09-1.94,15.81-7.36a607.82,607.82,0,0,0,50.25-55.31c12.21-14.93,5.14-25.24-1.25-30.49-3.53-2.94-4.76-7.49-2.06-11.25q13-18.12,24.68-37.25a8.09,8.09,0,0,1,6.76-4m0-3v0a11.09,11.09,0,0,0-9.32,5.42c-7.67,12.6-15.93,25.06-24.56,37.06-3.48,4.84-2.42,11.13,2.58,15.3,8.87,7.3,9.15,16.14.85,26.29A609.65,609.65,0,0,1,685,518c-4.55,4.31-9.18,6.51-13.72,6.51-5.2,0-9.54-2.88-12.26-5.29a13,13,0,0,0-8.53-3.38,10.82,10.82,0,0,0-7.22,2.73c-11.14,9.75-22.76,19.17-34.56,28a11.32,11.32,0,0,0-4.53,8.22,9.58,9.58,0,0,0,3,7.6,78.4,78.4,0,0,0,26.46,16.16,25.91,25.91,0,0,0,9,1.47c11,0,25.6-5.7,34.62-13.55a636.81,636.81,0,0,0,105.29-115.9C791,438.72,796.2,418,790.36,406a78.39,78.39,0,0,0-18.59-24.77,9.56,9.56,0,0,0-6.29-2.34Z" style="fill: #1d1e1b"/>
          </g>
          <path d="M712.41,492.67Z" style="fill: #fc611f"/>
        </g>
        <path d="M643.91,570.87h-.38a41.8,41.8,0,0,1-28.19-11.29,3,3,0,0,1,4.31-4.17,36.42,36.42,0,0,0,24,9.46h.21c12.6,0,25.55-6.56,38.48-19.49a3,3,0,0,1,4.24,4.24C672.52,563.72,658.15,570.87,643.91,570.87Z" style="fill: #fff"/>
        <path d="M618.77,570.37c-10.25-3.56-23.06.57-28.35,10.32-2.68,4.94-2.93,11,.93,15.44,3.25,3.7,9,5.06,12.92,1.52,2.94-2.68,4.35-8.37,1-11.35a10.32,10.32,0,0,0-3.35-1.58,21,21,0,0,0-3.75-.92,23.87,23.87,0,0,0-7.59.11,21.7,21.7,0,0,0-12.85,7.22,22.41,22.41,0,0,0-5.09,14.25,21.41,21.41,0,0,0,5.19,14.32c3.37,3.74,9.31,6.52,14,3.54,3.89-2.44,6-8.28,2.27-11.83-3.54-3.35-9.14-1.74-12.55.92-4.18,3.25-6.39,8.87-6.71,14A20.5,20.5,0,0,0,594,647.89a11,11,0,0,0,7.83-2.48,7.81,7.81,0,0,0,2.44-6.73,5.72,5.72,0,0,0-4.17-4.81,7.19,7.19,0,0,0-5.86,1.5,9,9,0,0,0-3.54,5.46,10.65,10.65,0,0,0,1.74,7.26,25.16,25.16,0,0,0,5.47,5.9,51,51,0,0,0,7,5.12c4.62,2.67,10.5,3.68,14.58-.49,3.18-3.26,3.91-9.21-.89-11.44-4.44-2-9.78,1-11.6,5.16A17.89,17.89,0,0,0,606,661.1a76.22,76.22,0,0,0,1.36,9c1.19,5.6,4,11.19,9.67,13.3a8.8,8.8,0,0,0,11.67-5.69,6.56,6.56,0,0,0-6.94-8.33,9.92,9.92,0,0,0-9.2,8.59c-.87,6,2.26,12.18,5.27,17.17,2.88,4.79,7.05,9.2,12.8,10.16,5,.85,10.34-1.14,12.1-6.22,1.46-4.17-.16-9.46-4.73-10.76-4.85-1.38-9.62,2.68-11.11,7-1.87,5.47,1.43,11.22,4.84,15.27,3.64,4.34,8.32,8.83,13.94,10.32,4.88,1.3,11,.16,13.75-4.5,2.31-4,1.59-10-2.9-12.12s-10,.49-12,4.73c-2.46,5.12-.86,11.35,2.28,15.81,5.12,7.26,14.51,11,23.25,9.94a22.62,22.62,0,0,0,11.88-5,1.52,1.52,0,0,0,0-2.12c-7.67-7.55-22.55-4.39-25.37,6.36a16.57,16.57,0,0,0,3.42,14.56,14,14,0,0,0,14.31,4.5c5.8-1.47,10.93-6.28,11.87-12.32.18-1.12-1-2.57-2.2-1.7A27.45,27.45,0,0,0,673,763.73c.49,4.64,2.24,10,6.69,12.23,4.12,2.1,9.66,1,11.26-3.71a9,9,0,0,0-4.19-10.37c-4.43-2.41-10.08-1.21-14,1.68a18.83,18.83,0,0,0-5.62,22.74c4.25,8.78,16,12.22,24.54,7.88a1.49,1.49,0,0,0,.69-1.69A23,23,0,0,0,680.76,780a22.37,22.37,0,0,0-17.42-.66,23.06,23.06,0,0,0-8.62,5.72c-1.32,1.41.8,3.53,2.12,2.12a19.53,19.53,0,0,1,32.62,6.16l.69-1.7c-6.1,3.11-14.06,1.25-18.5-3.84s-4.09-13.3-.18-18.72a12.81,12.81,0,0,1,9.18-5.41c3.59-.25,7.07,1.56,7.59,5.37a4.56,4.56,0,0,1-1.13,3.89,5,5,0,0,1-4.81.92c-4-1.12-5.68-5.6-6.26-9.34a24.42,24.42,0,0,1,9.37-22.71l-2.2-1.69c-1.35,8.69-13,14.16-19.86,7.87a13.6,13.6,0,0,1-4.25-11.54,11,11,0,0,1,7.33-9c4.49-1.61,9.84-1,13.31,2.45v-2.12c-5.44,4.47-13.14,5.19-19.7,3.12-7-2.21-13.63-8.35-13.78-16.14-.08-3.92,2.31-7.88,6.55-8.13,3.84-.22,5.57,3.58,4.61,6.9-1.17,4-5.69,5.38-9.46,4.88-4.68-.61-8.5-3.93-11.69-7.18s-6.48-7.11-6.87-11.76c-.31-3.6,2.06-7.6,5.81-8.3,3.47-.65,5.4,2.68,5,5.75-.59,4.05-4.37,5.94-8.19,5.59-4.58-.41-8.14-3.66-10.61-7.32A48.14,48.14,0,0,1,618,689.1a25,25,0,0,1-2.47-7.37c-.52-3.84.75-7.74,4.7-9,2.69-.87,6.26.22,5.71,3.69a5.85,5.85,0,0,1-3,4,6.27,6.27,0,0,1-5.4,0c-4.46-1.93-6.38-6.67-7.32-11.11a72.11,72.11,0,0,1-1.17-7.45,18.42,18.42,0,0,1,.31-7.17,6.91,6.91,0,0,1,3.32-4.33,5.44,5.44,0,0,1,4.56-.54c3.57,1.52,1.45,5.93-.81,7.53-3.77,2.66-8.54.24-11.85-2-3.52-2.4-7.52-5.29-9.72-9a7.12,7.12,0,0,1-1.12-5.31,6.23,6.23,0,0,1,2.86-3.61c1.1-.65,2.59-1,3.68-.15,1.35,1.06,1.28,3.06.6,4.48-2,4.15-7.84,3.51-11.38,2.25a17.64,17.64,0,0,1-11.21-20.39c.91-4,3.11-8,6.82-10,2.45-1.29,7.19-2,7.94,1.74.7,3.46-2.95,6.31-6.11,6.13-4.3-.26-7.69-4-9.45-7.65-3.56-7.29-1.94-16.88,4.08-22.37a19.34,19.34,0,0,1,10.64-4.77,19.68,19.68,0,0,1,6.08.17,19.41,19.41,0,0,1,2.69.72,5.62,5.62,0,0,1,2.53,1.27c1.88,2.33-.09,6.18-2.37,7.4-3.57,1.91-7.74-1.31-9.11-4.53-1.8-4.21.18-9.18,3-12.45a20.88,20.88,0,0,1,10.78-6.52,21.29,21.29,0,0,1,12.17.52c1.83.64,2.62-2.26.8-2.89Z"/>
      </g>
      <g id="a1d7fa0c-ec4b-4a10-b2ff-e1af6e60d464" data-name="phone">
        <g>
          <g>
            <path d="M674.5,836a151.3,151.3,0,0,0-51.62-82.33l-8.14-6.61v69.32a57.46,57.46,0,0,0,50.8,30.74h11.59Z" style="fill: #382256"/>
            <path d="M679,848.65H665.54a58.83,58.83,0,0,1-52.12-31.54l-.18-.33V743.94l10.59,8.59A152.84,152.84,0,0,1,676,835.69ZM616.24,816a55.84,55.84,0,0,0,49.3,29.61h9.69L673,836.38a149.88,149.88,0,0,0-51.11-81.52l-5.69-4.62Z" style="fill: #1d1e1b"/>
          </g>
          <g>
            <path d="M491.57,746.43l-8.94,7.26A151.38,151.38,0,0,0,431,836l-2.63,11.12H440a57.39,57.39,0,0,0,51.59-32.42Z" style="fill: #382256"/>
            <path d="M440,848.65H426.49l3.06-13a152.92,152.92,0,0,1,52.13-83.16l11.39-9.25v71.8l-.15.31A59.28,59.28,0,0,1,440,848.65Zm-9.7-3H440a56.25,56.25,0,0,0,50.09-31.26V749.58l-6.49,5.28a149.93,149.93,0,0,0-51.11,81.52Z" style="fill: #1d1e1b"/>
          </g>
        </g>
        <g>
          <path d="M616.86,782.74V729.51H488.65v53.23a56.5,56.5,0,0,1-56.5,56.5h-3.24a3,3,0,0,0-3,3v41.22a3,3,0,0,0,3,3H676.59a3,3,0,0,0,3-3V842.2a3,3,0,0,0-3-3h-3.22A56.51,56.51,0,0,1,616.86,782.74Z" style="fill: #4bd657"/>
          <path d="M616.86,729.51v53.23a56.51,56.51,0,0,0,56.51,56.5h3.22a3,3,0,0,1,3,3v41.23a3,3,0,0,1-3,3H428.91a3,3,0,0,1-3-3V842.2a3,3,0,0,1,3-3h3.24a56.5,56.5,0,0,0,56.5-56.5V729.51H616.86m3-3H485.65v56.23a53.56,53.56,0,0,1-53.5,53.5h-3.24a6,6,0,0,0-6,6v41.23a6,6,0,0,0,6,6H676.59a6,6,0,0,0,6-6V842.2a6,6,0,0,0-6-6h-3.22a53.56,53.56,0,0,1-53.51-53.5V726.51Z" style="fill: #1d1e1b"/>
        </g>
        <g>
          <path d="M552.76,846.06a46.78,46.78,0,1,1,46.77-46.78A46.82,46.82,0,0,1,552.76,846.06Z" style="fill: #fff"/>
          <path d="M552.76,847.56A48.28,48.28,0,1,1,601,799.28,48.33,48.33,0,0,1,552.76,847.56Zm0-93.55A45.28,45.28,0,1,0,598,799.28,45.32,45.32,0,0,0,552.76,754Z" style="fill: #1d1f1c"/>
        </g>
        <g>
          <path d="M519.59,731.58a11.15,11.15,0,0,1-11.16,11.16h0a11.15,11.15,0,0,1-11.17-11.16V710.17A11.16,11.16,0,0,1,508.43,699h0a11.16,11.16,0,0,1,11.16,11.17Z" style="fill: #382256"/>
          <path d="M508.43,744.24a12.68,12.68,0,0,1-12.67-12.66V710.17a12.67,12.67,0,1,1,25.33,0v21.41A12.68,12.68,0,0,1,508.43,744.24Zm0-43.74a9.68,9.68,0,0,0-9.67,9.67v21.41a9.67,9.67,0,0,0,19.33,0V710.17A9.68,9.68,0,0,0,508.43,700.5Z" style="fill: #1d1e1b"/>
        </g>
        <g>
          <path d="M608.24,731.58a11.16,11.16,0,0,1-11.16,11.16h0a11.15,11.15,0,0,1-11.16-11.16V710.17A11.16,11.16,0,0,1,597.08,699h0a11.17,11.17,0,0,1,11.16,11.17Z" style="fill: #382256"/>
          <path d="M597.08,744.24a12.68,12.68,0,0,1-12.66-12.66V710.17a12.66,12.66,0,1,1,25.32,0v21.41A12.68,12.68,0,0,1,597.08,744.24Zm0-43.74a9.68,9.68,0,0,0-9.66,9.67v21.41a9.66,9.66,0,1,0,19.32,0V710.17A9.68,9.68,0,0,0,597.08,700.5Z" style="fill: #1d1e1b"/>
        </g>
        <g>
          <path d="M558.7,797.81a5.35,5.35,0,1,1-5.35-5.35A5.35,5.35,0,0,1,558.7,797.81Z" style="fill: #382256"/>
          <path d="M553.35,804.67a6.86,6.86,0,1,1,6.85-6.86A6.86,6.86,0,0,1,553.35,804.67Zm0-10.71a3.86,3.86,0,1,0,3.85,3.85A3.85,3.85,0,0,0,553.35,794Z" style="fill: #1d1e1b"/>
        </g>
        <g>
          <circle cx="554.22" cy="769.78" r="8.7" style="fill: #382256"/>
          <path d="M554.22,780a10.21,10.21,0,1,1,10.2-10.2A10.21,10.21,0,0,1,554.22,780Zm0-17.41a7.21,7.21,0,1,0,7.2,7.21A7.21,7.21,0,0,0,554.22,762.57Z" style="fill: #1d1e1b"/>
        </g>
        <g>
          <circle cx="523.37" cy="797.46" r="8.7" style="fill: #382256"/>
          <path d="M523.37,807.66a10.2,10.2,0,1,1,10.2-10.2A10.2,10.2,0,0,1,523.37,807.66Zm0-17.4a7.2,7.2,0,1,0,7.2,7.2A7.21,7.21,0,0,0,523.37,790.26Z" style="fill: #1d1e1b"/>
        </g>
        <g>
          <circle cx="529.69" cy="818.82" r="8.7" style="fill: #382256"/>
          <path d="M529.69,829a10.2,10.2,0,1,1,10.21-10.2A10.22,10.22,0,0,1,529.69,829Zm0-17.4a7.2,7.2,0,1,0,7.21,7.2A7.21,7.21,0,0,0,529.69,811.62Z" style="fill: #1d1e1b"/>
        </g>
        <g>
          <circle cx="552.63" cy="829.89" r="8.7" style="fill: #382256"/>
          <path d="M552.63,840.1a10.21,10.21,0,1,1,10.21-10.21A10.22,10.22,0,0,1,552.63,840.1Zm0-17.41a7.21,7.21,0,1,0,7.21,7.2A7.21,7.21,0,0,0,552.63,822.69Z" style="fill: #1d1e1b"/>
        </g>
        <g>
          <circle cx="574.78" cy="820.4" r="8.7" style="fill: #382256"/>
          <path d="M574.78,830.6A10.2,10.2,0,1,1,585,820.4,10.21,10.21,0,0,1,574.78,830.6Zm0-17.4a7.2,7.2,0,1,0,7.21,7.2A7.21,7.21,0,0,0,574.78,813.2Z" style="fill: #1d1e1b"/>
        </g>
        <g>
          <circle cx="584.28" cy="799.04" r="8.7" style="fill: #382256"/>
          <path d="M584.28,809.25A10.21,10.21,0,1,1,594.48,799,10.21,10.21,0,0,1,584.28,809.25Zm0-17.41a7.21,7.21,0,1,0,7.2,7.2A7.21,7.21,0,0,0,584.28,791.84Z" style="fill: #1d1e1b"/>
        </g>
        <g>
          <circle cx="577.95" cy="778.48" r="8.7" style="fill: #382256"/>
          <path d="M578,788.68a10.2,10.2,0,1,1,10.2-10.2A10.21,10.21,0,0,1,578,788.68Zm0-17.4a7.2,7.2,0,1,0,7.2,7.2A7.21,7.21,0,0,0,578,771.28Z" style="fill: #1d1e1b"/>
        </g>
        <g>
          <circle cx="531.28" cy="776.1" r="8.7" style="fill: #382256"/>
          <path d="M531.28,786.3a10.2,10.2,0,1,1,10.2-10.2A10.2,10.2,0,0,1,531.28,786.3Zm0-17.4a7.2,7.2,0,1,0,7.2,7.2A7.21,7.21,0,0,0,531.28,768.9Z" style="fill: #1d1e1b"/>
        </g>
        <path d="M601.5,832.5a3,3,0,0,1-2.71-4.3c21.6-45.07-8.77-68.32-10.07-69.29a3,3,0,0,1,3.56-4.83,53.67,53.67,0,0,1,15.07,19.67c5.4,11.76,9.24,31.2-3.14,57A3,3,0,0,1,601.5,832.5Z" style="fill: #fff"/>
        <path d="M534,879H435a3,3,0,0,1,0-6h99a3,3,0,0,1,0,6Z" style="fill: #fff"/>
      </g>
      <g id="b37ef180-2402-48ec-b0cd-f76a61258b8e" data-name="message">
        <g>
          <path d="M529.63,185.85c0-46,49.74-83.38,111.09-83.38s111.1,37.33,111.1,83.38-49.74,83.38-111.1,83.38a148,148,0,0,1-22.42-1.69L593.11,292l-5.9-33C552.89,244.75,529.63,217.34,529.63,185.85Z" style="fill: #fff"/>
          <path d="M640.72,102.47c61.36,0,111.1,37.33,111.1,83.38s-49.74,83.38-111.1,83.38a148,148,0,0,1-22.42-1.69L593.11,292l-5.9-33c-34.32-14.19-57.58-41.6-57.58-73.09,0-46,49.74-83.38,111.09-83.38m0-3c-30.32,0-58.85,8.89-80.35,25-21.76,16.33-33.74,38.12-33.74,61.35,0,31.2,22.14,59.9,57.91,75.22l5.62,31.43a3,3,0,0,0,2,2.33,2.89,2.89,0,0,0,.92.14,3,3,0,0,0,2.09-.84l24.13-23.41a150.43,150.43,0,0,0,21.39,1.51c30.32,0,58.86-8.88,80.36-25,21.76-16.33,33.74-38.12,33.74-61.36s-12-45-33.74-61.35c-21.5-16.14-50-25-80.36-25Z"/>
        </g>
        <path d="M698.92,180.72h-109a1.5,1.5,0,0,1,0-3h109a1.5,1.5,0,0,1,0,3Z"/>
        <path d="M658.92,208.94H595.43a1.5,1.5,0,0,1,0-3h63.49a1.5,1.5,0,0,1,0,3Z"/>
        <path d="M564.79,225.64c-1.23-1.25-2.41-2.56-3.54-3.91l-.77-1c-.13-.16-.26-.32-.38-.49s0,0,0,0l-.25-.32c-.52-.68-1-1.37-1.5-2.07a62.32,62.32,0,0,1-5.09-8.86l-.5-1.1-.24-.55s-.13-.31,0-.13-.08-.2-.1-.23c-.33-.8-.64-1.61-.94-2.42-.57-1.56-1.07-3.15-1.5-4.75s-.81-3.28-1.11-4.94c-.07-.39-.13-.78-.19-1.17l-.09-.59c0-.1,0-.2,0-.29,0-.34,0,.28,0-.06q-.16-1.23-.27-2.46a55.23,55.23,0,0,1,.06-10c0-.4.09-.81.14-1.22,0-.18,0-.37.07-.56,0,.37,0-.19,0-.31.12-.77.25-1.55.4-2.32.3-1.54.66-3.08,1.09-4.59s.94-3.09,1.51-4.6c.13-.35.27-.71.41-1.06l.21-.53c0-.09.26-.62.13-.32.33-.76.67-1.51,1-2.26a62.53,62.53,0,0,1,4.87-8.43q.69-1,1.41-2l.35-.47c.05-.06.34-.44.17-.21.26-.34.52-.67.79-1,1.05-1.3,2.15-2.55,3.3-3.77a66.62,66.62,0,0,1,7.33-6.64l.35-.27.49-.36,1.06-.77a2,2,0,1,0-2-3.45A68.53,68.53,0,0,0,556.24,150a62.68,62.68,0,0,0-9.33,17.84,56.85,56.85,0,0,0-2.84,20,59.3,59.3,0,0,0,4.48,20.3,64.5,64.5,0,0,0,11.56,18.33c.6.67,1.22,1.32,1.85,2a2,2,0,1,0,2.83-2.83Z" style="fill: #fff"/>
        <path d="M678.15,138.39a1.5,1.5,0,0,1-.1-3c46.36-3.09,83.85-28.87,107.13-49.95a254.64,254.64,0,0,0,39.92-45.6,1.5,1.5,0,0,1,2.53,1.61,258,258,0,0,1-40.38,46.16c-23.64,21.42-61.75,47.62-109,50.78Z"/>
        <path d="M733.77,174.64c-2.72,0-5.5-.13-8.36-.4a1.5,1.5,0,1,1,.29-3c53,5.15,80.76-41.78,81-42.25a1.5,1.5,0,1,1,2.6,1.5,98.39,98.39,0,0,1-21.11,23.89C776.7,163.93,758.29,174.64,733.77,174.64Z"/>
      </g>
      <g id="bf1d4ce2-e017-4dcb-896f-54ce413f60ce" data-name="hand">
        <g>
          <path d="M697.8,547.93s22.56,21.57,49.43,2.33,45.76-45.44,42.1-70.74-19.76-37.09-34.05-39-24,8.85-22.78,27.18c0,0-25.15,1.55-21.14,33.67,0,0-36.45,16.84-6,36Z" style="fill: #ffcdb2"/>
          <path d="M780.8,515.41c-7.6,12.77-19.49,24.76-33.57,34.85-26.87,19.24-49.43-2.33-49.43-2.33l7.52-10.51c-13.44-8.48-13.82-16.51-10.06-22.82,4.74-8,16.1-13.22,16.1-13.22-1.3-10.38.45-17.56,3.41-22.54,6.21-10.42,17.73-11.13,17.73-11.13-.49-7.53.85-13.78,3.6-18.4,3.94-6.62,10.77-9.89,19.18-8.78,14.29,1.9,30.4,13.69,34.05,39,1.75,12-1.62,24.29-8.53,35.89m2.2,1.31c7.63-12.83,10.61-25.46,8.86-37.56s-6.5-22.37-13.75-29.7A39.14,39.14,0,0,0,755.62,438c-9.28-1.23-17.2,2.41-21.71,10-2.79,4.68-4.18,10.7-4.06,17.53a26,26,0,0,0-17.27,12c-3.49,5.85-4.81,13.36-4,22.35-3.5,1.86-11.56,6.67-15.57,13.4-3.64,6.12-4.92,15.26,8.64,24.79l-6,8.37-.12.18a2.55,2.55,0,0,0,.43,3.15,44.72,44.72,0,0,0,15.6,9c8.78,2.91,22.34,4.16,37.09-6.41,14.91-10.68,26.77-23,34.28-35.61Z"/>
        </g>
        <path d="M766.6,500.52a1.5,1.5,0,0,1-1.47-1.2h0c-.2-1-5.2-24.34-32.55-30a1.5,1.5,0,0,1-1.16-1.78,1.49,1.49,0,0,1,1.77-1.16c29.34,6.1,34.83,32.11,34.88,32.37a1.51,1.51,0,0,1-1.18,1.77Z" style="fill: #1d1d1b"/>
        <path d="M741.76,523.56a1.48,1.48,0,0,1-1.14-.53c-.15-.18-14.81-17.42-29.33-19.71a1.5,1.5,0,0,1,.47-3c15.63,2.46,30.53,20,31.15,20.74a1.5,1.5,0,0,1-.18,2.11A1.47,1.47,0,0,1,741.76,523.56Z" style="fill: #1d1d1b"/>
        <path d="M781.82,497.21a3.11,3.11,0,0,1-.67-.07,3,3,0,0,1-2.26-3.59h0c0-.15,3.4-15.87-4.82-28.76-5.1-8-13.64-13.33-25.36-15.9A3,3,0,0,1,750,443c13.37,2.92,23.18,9.18,29.17,18.59,9.56,15,5.75,32.52,5.58,33.25A3,3,0,0,1,781.82,497.21Z" style="fill: #fff"/>
      </g>
    </g>
  </g>
</svg>
