<svg xmlns="http://www.w3.org/2000/svg" width="1000" height="1000" viewBox="0 0 1000 1000">
  <g id="abe344e6-09d6-4f56-a63d-06ccaa554792" data-name="illustration">
    <g id="e6ed7eec-8c8f-4f13-aa05-cb4ef836f4c5" data-name="question">
      <g id="b0158cab-3db9-4331-9074-b71495757a59" data-name="line">
        <path d="M953.71,896.55H213.9a2,2,0,0,1,0-4H953.71a2,2,0,0,1,0,4Z" style="fill: #1d1d1b"/>
        <path d="M988.46,925.38H875a2,2,0,0,1,0-4H988.46a2,2,0,0,1,0,4Z" style="fill: #1d1d1b"/>
        <path d="M283.65,929.82H170.16a2,2,0,1,1,0-4H283.65a2,2,0,0,1,0,4Z" style="fill: #1d1d1b"/>
      </g>
      <g id="ace1e5d2-3479-4feb-8eaa-2c5161a4f7e3" data-name="woman">
        <path d="M729.35,547.08a70,70,0,0,1-9.56-.54,1.5,1.5,0,0,1,.45-3c.18,0,18.41,2.64,43.11-4.58,22.77-6.67,55.89-23.31,84.28-64.76a1.5,1.5,0,0,1,2.47,1.69c-28.94,42.25-62.77,59.21-86.07,66A125,125,0,0,1,729.35,547.08Z"/>
        <path d="M788.92,569.74c-16.85,0-27.88-4.22-28.35-4.41a1.5,1.5,0,1,1,1.09-2.79c.45.17,45.33,17,90.72-18.67a1.5,1.5,0,1,1,1.85,2.36c-24.43,19.2-48.56,23.38-64.5,23.51Z"/>
        <g>
          <path d="M627.84,499.12s-1.12,33.71,23.31,29.27,76.64-14.44,86.64,22.22,5.55,43.32,32.21,45.54,69.81,52.61,7.7,94.61S577.84,528.39,577.84,528.39l5.79-20.1Z" style="fill: #382256"/>
          <path d="M627.84,499.12s-1,29.68,19.07,29.68a23.24,23.24,0,0,0,4.24-.41c10.19-1.85,25.2-4.67,40-4.67,20.66,0,40.84,5.51,46.67,26.89,10,36.65,5.55,43.32,32.21,45.54s69.81,52.61,7.7,94.61a33.42,33.42,0,0,1-19.17,5.69c-67.43,0-180.69-168.06-180.69-168.06l5.79-20.1,44.21-9.17m0-3a3.08,3.08,0,0,0-.61.06L583,505.36a3,3,0,0,0-2.28,2.1L575,527.56a3,3,0,0,0,.39,2.51,971.92,971.92,0,0,0,65.29,84.33c49.36,56.44,89,85.05,117.89,85.05a36.51,36.51,0,0,0,20.85-6.2c35.44-24,35.09-49.12,31.73-62-5.55-21.22-25.61-36.83-40.86-38.1-19.5-1.63-20.14-4.36-25.15-25.66-1.19-5-2.53-10.78-4.42-17.68-5.26-19.31-21.94-29.1-49.56-29.1-14.59,0-29.62,2.74-39.57,4.55l-.93.17a20.57,20.57,0,0,1-3.71.36,12.38,12.38,0,0,1-9.37-3.81c-7.13-7.37-6.71-22.62-6.71-22.77a3,3,0,0,0-3-3.1Z"/>
        </g>
        <path d="M784.28,686c-2.39-55.68-87.59-117.58-115.36-127.58s-61.09-25.55-65.53-37.76S619.29,504,619.29,504l-5.92-1.91-29.74,6.17-5.79,20.1S715.58,732.77,777.7,690.76C780.05,689.17,782.23,687.57,784.28,686Z" style="fill: #050505"/>
        <g>
          <path d="M520.53,564.05s-21.11,8.89-8.89,21.11,31,4.12,40.51-1.83c0,0-2.74,15.16,17.25,12.93s35.54-7.77,33.32-32.21Z" style="fill: #fff"/>
          <path d="M602.72,564.05c2.22,24.44-13.33,30-33.32,32.21a32.66,32.66,0,0,1-3.79.23c-15.84,0-13.46-13.16-13.46-13.16-5.87,3.68-15.31,8.19-24.55,8.19a21.77,21.77,0,0,1-16-6.36c-12.22-12.22,8.89-21.11,8.89-21.11h82.19m0-3H520.53a3,3,0,0,0-1.17.24c-1.29.54-12.64,5.55-14.32,14.11-.81,4.11.7,8.1,4.48,11.88a24.65,24.65,0,0,0,18.08,7.24c8.31,0,16.44-3.35,21.76-6.13a13.23,13.23,0,0,0,2.77,5.91c2.88,3.44,7.41,5.19,13.48,5.19a37.45,37.45,0,0,0,4.12-.24c9-1,19.25-2.79,26.5-8.39,7.51-5.8,10.61-14.66,9.48-27.08a3,3,0,0,0-3-2.73Z"/>
        </g>
        <path d="M693,394.31a.86.86,0,0,1-.3-.09,1.38,1.38,0,0,1-.74-1.82c2.93-6.94,3.22-13.38.86-19.14-4.22-10.31-15.62-15.14-15.74-15.19a1.39,1.39,0,0,1,1.06-2.57c.51.21,12.57,5.29,17.25,16.68,2.66,6.48,2.37,13.65-.87,21.3A1.38,1.38,0,0,1,693,394.31Z"/>
        <path d="M660.48,390.05h-.11a1.5,1.5,0,0,1-1.39-1.61c.64-8.6-1.32-15.33-5.82-20-7.37-7.63-19.16-7.27-19.28-7.27a1.5,1.5,0,1,1-.11-3c.53,0,13.26-.41,21.55,8.18,5.12,5.31,7.36,12.81,6.66,22.31A1.5,1.5,0,0,1,660.48,390.05Z" style="fill: #fff"/>
        <g>
          <circle cx="645.89" cy="395.12" r="33.96" style="fill: #382256"/>
          <path d="M651.73,361.66a34,34,0,1,1-39.3,27.63,34,34,0,0,1,39.3-27.63m.47-2.73a36.74,36.74,0,1,0,29.89,42.51,36.78,36.78,0,0,0-29.89-42.51Z"/>
        </g>
        <g>
          <path d="M506.77,423.21s-6.72-30.55,14-41.56,24.07-6.24,34.61-12.76,34-3.47,45.94,12.19c0,0,29.27-.12,43,16.91S658,427.53,653,444.41s-4.6,26.37-7.74,38.36-16.83,42-67.14,34.27S506.77,423.21,506.77,423.21Z" style="fill: #382256"/>
          <path d="M576,366.3c9.27,1.61,19,6.38,25.36,14.78a75.49,75.49,0,0,1,12,1.19c9.69,1.69,23,5.79,31,15.72,13.75,17,13.66,29.54,8.62,46.42s-4.6,26.37-7.74,38.36-16.83,42-67.14,34.27l-.93-.15c-49.65-8.66-70.38-93.68-70.38-93.68s-6.72-30.55,14-41.56,24.07-6.24,34.61-12.76c4.89-3,12.57-4,20.58-2.59m.48-2.74c-8.66-1.51-17.07-.4-22.52,3-4.27,2.64-7.12,3.23-11.06,4-5.14,1.05-11.54,2.35-23.39,8.65-9.34,5-15,14.32-16.24,27.08a61.3,61.3,0,0,0,.81,17.52l0,.07a225.74,225.74,0,0,0,16.79,44.19c6.74,13.22,14.26,24.15,22.35,32.47,10.29,10.6,21.55,17,33.46,19.1l1,.16c22.5,3.47,40.47,0,53.42-10.31a49.45,49.45,0,0,0,16.84-26,133,133,0,0,0,2.81-14.9,152.9,152.9,0,0,1,4.9-23.36c5.2-17.43,5.38-31-9.11-49-8.55-10.59-22.5-14.93-32.7-16.71a82.54,82.54,0,0,0-11.12-1.2c-6.21-7.58-15.7-12.93-26.24-14.77Z"/>
        </g>
        <g>
          <g>
            <path d="M386,531.75c61.76-19.3,216.58,10.49,260.14,65.25,24.8,31.17,50,89.29,75,161.91,10.57,30.7,29.62,59.44,65.48,56,23.2-2.26,47.42,14,44.05,29.76-6.62,31-61.91,51.19-61.91,51.19L331.05,894s-50.66-100.67-2.53-201.83c0,0-95.12,40-134.09,22.64s-90-123.84-51.07-134.67l-7.67-26.41,60.56-34.44L209,535.47s19.67-23.4,33.46-6.37,35.6,51.7,35.6,51.7S293.14,560.79,386,531.75Z" style="fill: #07acee"/>
            <path d="M768.8,897.32h0l-437.75-1.81a1.51,1.51,0,0,1-1.34-.82c-.12-.26-12.84-25.8-19.45-63.4-6-33.95-8-84.83,15.28-136.27-14.24,5.71-66.88,25.7-105.57,25.71-9.93,0-18.94-1.32-26.15-4.54-30.29-13.51-68.4-80.8-65.77-116.13.81-10.86,5.45-18,13.46-20.9l-7.26-25a1.5,1.5,0,0,1,.7-1.72L195.51,518a1.48,1.48,0,0,1,1.91.38l11.67,14.77c3.18-3.37,12.06-11.76,21.57-11.76h.15c4.91.05,9.23,2.32,12.83,6.77,12,14.79,30.14,43.09,34.66,50.2,5.41-5.27,28.41-23.39,107.3-48l.44,1.43-.44-1.43c30-9.36,84-7.47,137.67,4.82,58.76,13.46,104,35.67,124.09,60.93,22.95,28.86,47.57,82,75.24,162.35,13.52,39.27,35,57.76,63.92,55,14.69-1.42,31.17,4.53,40.05,14.47,4.82,5.41,6.81,11.48,5.61,17.1-6.72,31.42-60.57,51.45-62.86,52.29A1.54,1.54,0,0,1,768.8,897.32ZM332,892.52l436.53,1.8c4-1.52,54.57-21.24,60.71-50,1.28-6-2-11.17-4.91-14.47-8.28-9.28-23.72-14.82-37.52-13.48-2,.2-4,.29-6,.3-27.43,0-47.94-19.23-61-57.26-27.57-80.06-52-132.87-74.76-161.46-19.68-24.74-64.3-46.57-122.41-59.88C469.41,525.88,416,524,386.49,533.18c-90.88,28.4-107.07,48.33-107.23,48.53a1.46,1.46,0,0,1-1.26.59,1.51,1.51,0,0,1-1.2-.7c-.22-.34-21.92-34.78-35.5-51.56-3-3.71-6.54-5.61-10.51-5.65h-.13c-10.24,0-20.4,11.93-20.5,12.05A1.41,1.41,0,0,1,209,537a1.46,1.46,0,0,1-1.16-.57l-12-15.15-58.41,33.21,7.34,25.27a1.53,1.53,0,0,1-.13,1.15,1.55,1.55,0,0,1-.91.72c-7.68,2.13-12,8.42-12.72,18.68-2.56,34.44,34.52,100,64,113.17C233,730.38,327,691.2,327.93,690.8a1.5,1.5,0,0,1,1.94,2c-24.67,51.86-22.68,103.59-16.67,137.84C319.07,864.12,329.8,887.89,332,892.52Z" style="fill: #1d1d1b"/>
          </g>
          <g>
            <path d="M517.71,527.83s-24,3.53-13,25.59,32.4,15.4,32.4,15.4,42.36,46,55.36-11.52Z" style="fill: #fff"/>
            <path d="M568.54,587.76c-14.29,0-28.69-14-31.87-17.27-4.38,1-23.11,3.87-33.26-16.4-3.52-7-4-13.06-1.47-17.93,4.2-8.06,15.09-9.74,15.56-9.81l.39-.06,76.37,30.08-.29,1.26c-3.83,17-10.65,26.9-20.26,29.46A19.83,19.83,0,0,1,568.54,587.76Zm-30.93-20.65.65.7c.19.2,19.15,20.54,34.69,16.38,8.21-2.19,14.2-10.93,17.81-26l-73.2-28.84c-1.84.36-9.88,2.23-13,8.18-2.06,4-1.56,9.08,1.5,15.19,10.36,20.69,29.79,14.9,30.62,14.64Z" style="fill: #1d1d1b"/>
          </g>
          <circle cx="571.99" cy="720.16" r="6.79" style="fill: #51cef4"/>
          <circle cx="443.09" cy="610.57" r="6.79" style="fill: #51cef4"/>
          <circle cx="398.07" cy="728.58" r="6.79" style="fill: #51cef4"/>
          <circle cx="470.43" cy="703.2" r="6.79" style="fill: #51cef4"/>
          <circle cx="622.98" cy="619.18" r="6.79" style="fill: #51cef4"/>
          <circle cx="548.11" cy="645.8" r="6.79" style="fill: #51cef4"/>
          <circle cx="442.21" cy="572.05" r="6.79" style="fill: #51cef4"/>
          <circle cx="298.17" cy="634.55" r="6.79" style="fill: #51cef4"/>
          <circle cx="227.36" cy="582.7" r="6.79" style="fill: #51cef4"/>
          <circle cx="175.66" cy="611.16" r="6.79" style="fill: #51cef4"/>
          <circle cx="633.9" cy="622.02" r="6.79" style="fill: #51cef4"/>
          <path d="M138.56,554.94,196,521.54,209,537.29s-16.18,38.7-63.77,42.83Z" style="fill: #0598c6"/>
          <path d="M322.15,708.51a1.4,1.4,0,0,1-.41-.06,1.49,1.49,0,0,1-1-1.85c8.74-30.66,46.84-87.62,48.45-90a1.5,1.5,0,0,1,2.49,1.68c-.39.58-39.44,59-48.06,89.17A1.5,1.5,0,0,1,322.15,708.51Z" style="fill: #1d1e1b"/>
          <path d="M306.35,586.78a3,3,0,0,1-1.78-5.41c45-33.2,87.3-41.67,114.85-42.93,30-1.37,49.05,5.1,49.85,5.37a3,3,0,1,1-2,5.67c-.23-.08-19.05-6.39-47.92-5-26.64,1.26-67.58,9.53-111.26,41.74A3,3,0,0,1,306.35,586.78Z" style="fill: #fff"/>
          <line x1="455.1" y1="640.46" x2="306.29" y2="639.26" style="fill: none"/>
          <g>
            <path d="M774.76,883.7s4.54-25.77,62.13-37.89,100,50,100,50H774.76Z" style="fill: #fff"/>
            <path d="M939.75,897.32H773.26l0-13.88c.19-1.1,5.39-26.9,63.3-39.1,24-5.05,49.18,2.13,72.84,20.75A153.2,153.2,0,0,1,938.14,895Zm-163.49-3H934A153.89,153.89,0,0,0,907.5,867.4c-16-12.57-41.15-26.26-70.3-20.12-54.07,11.38-60.53,34.79-60.94,36.57Z" style="fill: #1d1e1b"/>
          </g>
          <g>
            <path d="M861.13,821.57c12.13-6.07,40.92,0,47,12.12S903.57,854.9,893,857.93s-25.35-12-25.35-12Z" style="fill: #ffcdb2"/>
            <path d="M890,859.83c-10.7,0-22.86-12.25-23.43-12.83l-.27-.28-6.9-26,1.09-.55c6.09-3,16.35-3.37,26.79-.87,10.93,2.62,19.24,7.73,22.2,13.67a15.52,15.52,0,0,1,.68,13.53c-3,6.78-10.62,11.07-16.76,12.83A12.5,12.5,0,0,1,890,859.83Zm-21-14.66c2,2,14.71,13.86,23.59,11.32,5.49-1.57,12.26-5.32,14.83-11.15,1.52-3.44,1.31-7.14-.61-11-2.58-5.15-10.14-9.67-20.22-12.09-9-2.17-18.08-2.09-23.64.14Z" style="fill: #1d1d1b"/>
          </g>
          <g>
            <path d="M820.22,844.3s6.06-25.77,27.28-28.8,39.4,7.58,37.88,28.8S858.1,868.54,844.46,864,820.22,844.3,820.22,844.3Z" style="fill: #ffcdb2"/>
            <path d="M856.62,867.31A41,41,0,0,1,844,865.42c-14-4.65-24.56-19.63-25-20.26l-.39-.55.16-.66c.25-1.09,6.55-26.79,28.52-29.93,12.66-1.81,24.12,1.08,31.45,7.91,6,5.58,8.8,13.35,8.15,22.47a22.13,22.13,0,0,1-10,17.46C871.12,865.71,863.65,867.31,856.62,867.31ZM821.85,844c2,2.72,11.54,14.73,23.09,18.58,8.44,2.82,21.55,2.62,30.27-3.2a19,19,0,0,0,8.67-15.18c.59-8.19-1.9-15.13-7.19-20.06-6.68-6.22-17.24-8.82-29-7.14C829.58,819.58,823,840.05,821.85,844Z" style="fill: #1d1d1b"/>
          </g>
          <g>
            <path d="M773.24,864c-12.86,6.43-15.15,19.7-13.64,31.82s16.67,22.73,30.31,16.67,7.58-21.22,0-28.79,6.06-19.7,13.64-9.1,28.79,9.1,40.91,0,3-31.82-13.63-37.88-34.86-9.09-42.44,7.58S779.3,861,773.24,864Z" style="fill: #ffcdb2"/>
            <path d="M781.65,915.74A23.71,23.71,0,0,1,770,912.6c-6.53-3.69-11.09-10.05-11.91-16.6-1.4-11.21,0-26.1,14.46-33.35l1-.47c5-2.48,6.56-3.23,13.5-18.51,8.56-18.83,29.39-13.79,44.31-8.36,10.18,3.7,18.38,13.64,19.94,24.16,1,6.9-1.07,12.7-5.91,16.33a41.17,41.17,0,0,1-29.18,7.31c-6.18-1-11-3.59-13.86-7.63-2.41-3.37-5.11-3.75-7-3.46a7.59,7.59,0,0,0-5.9,4.94,5.31,5.31,0,0,0,1.5,5.68c5.12,5.12,9.68,13.59,8.31,21-.84,4.53-3.87,8.08-8.76,10.25A21.68,21.68,0,0,1,781.65,915.74Zm-7.74-50.4c-12.92,6.46-14.1,20-12.82,30.29.7,5.63,4.69,11.13,10.4,14.36a19.71,19.71,0,0,0,17.81,1.13c4-1.78,6.37-4.49,7-8.06,1.16-6.27-3.06-13.89-7.48-18.3a8.36,8.36,0,0,1-2.23-8.74,10.58,10.58,0,0,1,8.3-7c2.19-.34,6.38-.17,9.85,4.68,3,4.26,8.14,5.84,11.88,6.42a38,38,0,0,0,26.91-6.75c3.92-2.94,5.61-7.73,4.76-13.49-1.39-9.33-9-18.49-18-21.78-21.93-8-34.82-5.82-40.55,6.79-7.09,15.6-8.94,17-14.9,20Z" style="fill: #1d1d1b"/>
          </g>
          <g>
            <g>
              <path d="M71.82,467.78s-21.26,51.64,57.68,79.14c0,0,43.4,13.06,64.5-6.94v-5.55s31.1-18.89,25.55-40c0,0-22.22-7.77-47.77,17.77,0,0-13.32-38.87-54.42-38.87,0,0-16.66-10-23.33-1.11C94,472.23,86.26,462.23,71.82,467.78Z" style="fill: #ffcdb2"/>
              <path d="M80.28,466.1A18.13,18.13,0,0,1,94,472.23c2-2.74,5-3.69,8.22-3.69,7.12,0,15.11,4.8,15.11,4.8,41.1,0,54.42,38.87,54.42,38.87,15.89-15.88,30.48-18.88,39.25-18.88a28.25,28.25,0,0,1,8.52,1.11c5.55,21.1-25.55,40-25.55,40V540c-9.15,8.67-22.49,11.13-34.67,11.13a116.21,116.21,0,0,1-29.83-4.19c-78.94-27.5-57.68-79.14-57.68-79.14a23.63,23.63,0,0,1,8.46-1.68m0-3A26.74,26.74,0,0,0,70.74,465a3,3,0,0,0-1.7,1.66,52.14,52.14,0,0,0,1.9,38.87c8.56,19,27.92,33.91,57.57,44.24l.12,0a118.61,118.61,0,0,0,30.7,4.32c16,0,28.37-4,36.73-12A3,3,0,0,0,197,540v-3.91c6.38-4.21,30.84-21.91,25.45-42.39a3,3,0,0,0-1.91-2.07,31.29,31.29,0,0,0-9.51-1.28c-9.21,0-23.06,3-38.17,16.71a71.69,71.69,0,0,0-10.62-16.24,58,58,0,0,0-44.08-20.46c-2.27-1.25-9.29-4.79-15.91-4.8A13.55,13.55,0,0,0,94,468a21.41,21.41,0,0,0-13.75-4.93Z"/>
            </g>
            <path d="M166.23,531.48h-.08a1.5,1.5,0,0,1-1.42-1.57c0-.19.1-4.1-3.89-8-4.37-4.2-14.28-8.86-36.7-7.13a1.51,1.51,0,0,1-1.4-.72c-.15-.25-15.64-25.6-29.81-40.85a1.5,1.5,0,0,1,2.2-2c13,14,26.94,36.12,29.69,40.55,18.51-1.3,31.35,1.43,38.2,8.13,4.95,4.84,4.72,10,4.71,10.18A1.5,1.5,0,0,1,166.23,531.48Z"/>
            <path d="M145.13,507.05a1.52,1.52,0,0,1-1.4-.94c-.06-.17-6.8-16.52-27.3-32.71a1.5,1.5,0,1,1,1.86-2.35c21.17,16.72,28,33.25,28.23,33.94a1.5,1.5,0,0,1-.84,1.95A1.54,1.54,0,0,1,145.13,507.05Z"/>
            <path d="M127.8,539.76a2.07,2.07,0,0,1-.35,0C95.76,534.07,79,503.35,78.27,502.05a2,2,0,1,1,3.53-1.89c.16.3,16.6,30.32,46.35,35.63a2,2,0,0,1-.35,4Z" style="fill: #fff"/>
          </g>
        </g>
        <g>
          <path d="M536.76,505.63,514,540.32s16.42,43.61,75.21,12.07c0,0-21.46-26.73-4.77-62.47,0,0,15.33,7.9,22.88-5.41s-.16-23-8.28-24.43c0,0-34-2.8-18.78-66,0,0-30.73-9.54-55.07,10.24s-42.35,51.12-30.68,74.05S536.76,505.63,536.76,505.63Z" style="fill: #ffcdb2"/>
          <path d="M574.74,392.88a47.82,47.82,0,0,1,5.51,1.24c-13.88,57.67,13.25,65,18.07,65.86.46.08.71.1.71.1,8.12,1.42,15.83,11.12,8.28,24.43-4.4,7.76-11.46,8.31-16.57,7.42a24.41,24.41,0,0,1-6.31-2c-16.69,35.74,4.77,62.47,4.77,62.47-19.93,10.69-35,12.75-46.19,10.79-21.84-3.81-29-22.86-29-22.86l22.77-34.69s-.25,0-.72-.12c-4.69-.81-30.93-6.26-41.54-27.1-11.67-22.93,6.33-54.27,30.68-74.05,18.06-14.68,39.63-13.21,49.56-11.48m.48-2.74c-11.36-2-33.2-3.05-51.8,12.06-13,10.57-23.52,23.65-29.61,36.84-7,15.13-7.62,29.19-1.79,40.63,9.6,18.86,31,25.74,40.15,27.88l-20.5,31.24a2.77,2.77,0,0,0-.28,2.5,41.61,41.61,0,0,0,31.14,24.63c13.68,2.39,29.83-1.34,48-11.08a2.77,2.77,0,0,0,.85-4.19,54.49,54.49,0,0,1-8.2-17.1c-3.84-13.26-2.93-26.71,2.71-40a27.5,27.5,0,0,0,4.39,1.16c8.5,1.48,15.41-1.64,19.47-8.79,3.84-6.77,4.48-13.62,1.81-19.27a16.74,16.74,0,0,0-12-9.27l-.25,0-.46-.07c-2-.34-8.74-2.05-13.76-9.7-7.08-10.79-7.8-29-2.09-52.77a2.79,2.79,0,0,0-1.88-3.31,52.08,52.08,0,0,0-5.85-1.32Z"/>
        </g>
        <path d="M535.32,507.78c-.91-.16-1.82-.36-2.7-.6a1.39,1.39,0,1,1,.74-2.68c9,2.49,20.73-.23,20.85-.26a1.39,1.39,0,0,1,.63,2.71C554.38,507.06,544.37,509.36,535.32,507.78Z"/>
        <path d="M589.48,484.9a1.39,1.39,0,0,1-.22-2.68c5.23-1.85,8.21-4.27,8.86-7.18.93-4.16-3.11-8.2-3.15-8.24a1.39,1.39,0,0,1,1.95-2c.21.21,5.17,5.18,3.92,10.82-.88,3.91-4.46,7-10.66,9.2A1.4,1.4,0,0,1,589.48,484.9Z"/>
        <path d="M550.27,428.8c12,12.74,35.21,19.72,35,27s-7.37,12.29-16.14,8.67-16.18-9.09-30.81-21-28.07-24.75-20.57-31.8S532.65,410.05,550.27,428.8Z" style="fill: #ffb49f"/>
        <path d="M541.43,431a1.4,1.4,0,0,1-1.15-1.43c.2-4.14-.91-7.52-3.29-10-4.78-5.07-13.23-5.21-13.31-5.21a1.4,1.4,0,0,1-1.38-1.41,1.39,1.39,0,0,1,1.4-1.37c.39,0,9.69.14,15.3,6.07,2.93,3.1,4.3,7.17,4.06,12.1A1.39,1.39,0,0,1,541.6,431Z"/>
        <path d="M575,458.87a1.39,1.39,0,0,1-1.13-1.12c-3-15.8-17.09-14.8-17.68-14.75a1.39,1.39,0,0,1-.24-2.77c.17,0,17.21-1.3,20.65,17a1.38,1.38,0,0,1-1.11,1.62A1.61,1.61,0,0,1,575,458.87Z"/>
        <path d="M550.43,412.56a24.08,24.08,0,0,1-7.91-2.82,1.39,1.39,0,0,1,1.46-2.37,22.07,22.07,0,0,0,10.26,2.76,1.39,1.39,0,0,1,0,2.78A23.68,23.68,0,0,1,550.43,412.56Z"/>
        <path d="M543.74,481.07a18,18,0,0,1-10.92-6.47,1.39,1.39,0,1,1,2.27-1.6c.29.41,7.11,9.66,20.59,3.43a1.39,1.39,0,1,1,1.16,2.52C551.66,481.35,547.28,481.69,543.74,481.07Z"/>
        <path d="M602.22,460.83A33.71,33.71,0,0,1,587.64,455a1.4,1.4,0,0,1,1.69-2.22c11.16,8.52,31.3,5.63,31.5,5.59a1.39,1.39,0,1,1,.41,2.75A65.61,65.61,0,0,1,602.22,460.83Z"/>
        <path d="M603.25,453.87a1.38,1.38,0,0,1-.39-.13c-28.58-14.65-16.86-47-16.74-47.37a1.39,1.39,0,0,1,2.61,1c-.46,1.23-11,30.4,15.39,43.91a1.39,1.39,0,0,1-.87,2.61Z" style="fill: #fff"/>
        <path d="M528.42,451.13a1.42,1.42,0,0,1-.89-.55,1.38,1.38,0,0,1,.32-1.94l22.93-16.56a1.39,1.39,0,1,1,1.62,2.25l-22.93,16.56A1.37,1.37,0,0,1,528.42,451.13Z"/>
        <g>
          <circle cx="590.1" cy="493.87" r="5.56" style="fill: #07acee"/>
          <path d="M591.05,488.4a5.56,5.56,0,1,1-6.43,4.52,5.54,5.54,0,0,1,6.43-4.52m.48-2.74a8.34,8.34,0,1,0,6.78,9.65,8.35,8.35,0,0,0-6.78-9.65Z"/>
        </g>
      </g>
      <g id="e5df1c6c-c64d-4b22-ab2b-86e54f9785c1" data-name="computer">
        <circle cx="524.39" cy="821.59" r="5.95" style="fill: #51cef4"/>
        <circle cx="371.7" cy="815.75" r="5.95" style="fill: #51cef4"/>
        <circle cx="452.63" cy="808.35" r="5.95" style="fill: #51cef4"/>
        <g>
          <rect x="297.77" y="652" width="365.67" height="239.13" rx="23.5" transform="translate(961.21 1543.13) rotate(-180)" style="fill: #fff"/>
          <path d="M639.94,892.63H321.26a25,25,0,0,1-25-25V675.5a25,25,0,0,1,25-25H639.94a25,25,0,0,1,25,25V867.64A25,25,0,0,1,639.94,892.63ZM321.26,653.5a22,22,0,0,0-22,22V867.64a22,22,0,0,0,22,22H639.94a22,22,0,0,0,22-22V675.5a22,22,0,0,0-22-22Z" style="fill: #1d1e1b"/>
        </g>
        <g>
          <path d="M296.56,870.74H676.84a20.84,20.84,0,0,1,20.84,20.84v0a0,0,0,0,1,0,0H275.73a0,0,0,0,1,0,0v0A20.84,20.84,0,0,1,296.56,870.74Z" transform="translate(973.4 1762.31) rotate(180)" style="fill: #fff"/>
          <path d="M676.84,893.07H296.56a22.36,22.36,0,0,1-22.33-22.33v-1.5H699.17v1.5A22.35,22.35,0,0,1,676.84,893.07ZM277.28,872.24a19.37,19.37,0,0,0,19.28,17.83H676.84a19.36,19.36,0,0,0,19.28-17.83Z" style="fill: #1d1d1b"/>
        </g>
        <path d="M310.9,849.71a3,3,0,0,1-3-3V690.15a3,3,0,0,1,6,0V846.71A3,3,0,0,1,310.9,849.71Z" style="fill: #fff"/>
        <g>
          <rect x="453.1" y="754.86" width="40.18" height="40.18" rx="10.18" style="fill: #07acee"/>
          <path d="M483.1,796.54H463.28a11.69,11.69,0,0,1-11.68-11.68V765a11.69,11.69,0,0,1,11.68-11.68H483.1A11.69,11.69,0,0,1,494.78,765v19.82A11.69,11.69,0,0,1,483.1,796.54Zm-19.82-40.18A8.7,8.7,0,0,0,454.6,765v19.82a8.69,8.69,0,0,0,8.68,8.68H483.1a8.68,8.68,0,0,0,8.68-8.68V765a8.69,8.69,0,0,0-8.68-8.68Z" style="fill: #1d1d1b"/>
        </g>
      </g>
      <g id="a1110e53-7941-4836-9262-24ebbdc98d42" data-name="question">
        <g>
          <g>
            <path d="M261.45,133.09c-20.55-19.68-43.88-29.66-69.33-29.66-11.9,0-26.07,4.28-43.32,13.1-21,10.71-31.22,22.09-31.22,34.81a27.09,27.09,0,0,0,7.27,18.48,24.36,24.36,0,0,0,18.54,8.55c3.31,0,8-1,25.54-12.63,12.2-8.12,19.35-9.82,23.19-9.82,11.64,0,22.49,4.7,33.19,14.38,10.89,9.79,16.18,19.93,16.18,31,0,7.91-6.68,17.86-19.32,28.78L180.8,261.23l-.15.12c-17.38,13.71-25.48,25.21-25.48,36.18a27,27,0,0,0,26.33,26.34c7.19,0,13.74-3.4,19.4-10,6.51-7.49,18.51-17.59,35.6-30,18.41-13.08,30.78-23.6,37.79-32.11a77,77,0,0,0,18.3-50.45C292.59,175.81,282.12,152.87,261.45,133.09Z" style="fill: #fff"/>
            <path d="M181.5,325.37a28.52,28.52,0,0,1-27.83-27.84c0-11.47,8.28-23.34,26.05-37.36l.16-.13,41.35-31.13C233.5,218.29,240,208.74,240,201.29c0-10.61-5.13-20.38-15.69-29.88-10.4-9.41-20.93-14-32.18-14-3.64,0-10.47,1.66-22.36,9.57-17.89,11.9-22.68,12.88-26.37,12.88a25.85,25.85,0,0,1-19.66-9.05,28.52,28.52,0,0,1-7.65-19.48c0-13.33,10.48-25.16,32-36.15,17.47-8.92,31.86-13.26,44-13.26,25.85,0,49.53,10.12,70.37,30.07h0c21,20.08,31.6,43.39,31.6,69.29a78.42,78.42,0,0,1-18.65,51.41c-7.1,8.62-19.56,19.21-38.08,32.37-17,12.34-28.89,22.35-35.33,29.76C196.06,321.82,189.15,325.37,181.5,325.37Zm10.62-171c12,0,23.21,4.83,34.19,14.77,11.23,10.09,16.68,20.59,16.68,32.1,0,8.36-6.86,18.7-19.84,29.92l-.08.06-41.51,31.27c-17,13.39-24.89,24.52-24.89,35a25.52,25.52,0,0,0,24.83,24.84c6.74,0,12.88-3.2,18.26-9.5,6.59-7.59,18.65-17.76,35.85-30.23,18.32-13,30.59-23.43,37.52-31.85a75.52,75.52,0,0,0,18-49.5c0-25-10.32-47.63-30.67-67.12h0c-20.27-19.4-43.25-29.24-68.3-29.24-11.66,0-25.61,4.23-42.64,12.94-20.46,10.42-30.4,21.37-30.4,33.47A25.62,25.62,0,0,0,126,168.82a22.9,22.9,0,0,0,17.42,8.05c2.94,0,7.53-1,24.71-12.38C180.61,156.17,188.07,154.42,192.12,154.42Z" style="fill: #1d1e1b"/>
          </g>
          <g>
            <path d="M169.19,334.37c-6.66,0-16.16,2.35-23.55,13.52A43.09,43.09,0,0,0,138.51,372c0,7.36,3.19,13.9,9.21,18.91A29.41,29.41,0,0,0,166.93,398c6.19,0,15-2.26,21.68-13.18a41.65,41.65,0,0,0,5.7-21.51C194.31,337.19,176.74,334.37,169.19,334.37Z" style="fill: #fff"/>
            <path d="M166.93,399.5a30.9,30.9,0,0,1-20.17-7.42c-6.38-5.3-9.75-12.24-9.75-20.06a44.48,44.48,0,0,1,7.38-24.95c7.75-11.74,17.77-14.2,24.8-14.2,8,0,26.62,3,26.62,30.44a43.12,43.12,0,0,1-5.91,22.27C182.82,397.09,173.5,399.5,166.93,399.5Zm2.26-63.63c-6.3,0-15.28,2.23-22.29,12.85A41.55,41.55,0,0,0,140,372c0,6.9,3,13,8.67,17.75a27.89,27.89,0,0,0,18.25,6.73c5.81,0,14.06-2.16,20.41-12.47a40.19,40.19,0,0,0,5.47-20.72C192.81,338.54,176.29,335.87,169.19,335.87Z" style="fill: #1d1e1b"/>
          </g>
          <path d="M278.5,225.5a3.64,3.64,0,0,1-.56-.05,3,3,0,0,1-2.39-3.51c5.2-27.46,1.42-50.15-11.22-67.44-20-27.33-55.83-32-56.19-32a3,3,0,1,1,.72-6c1.57.19,38.72,5,60.28,34.39,13.69,18.69,17.83,43,12.31,72.15A3,3,0,0,1,278.5,225.5Z" style="fill: #fff"/>
        </g>
        <g>
          <g>
            <path d="M306.21,388.72c-3.39-11.08-9.7-19.25-18.74-24.31-4.23-2.36-10.11-3.65-18-4-9.59-.37-15.48,1.65-18,6.17a11,11,0,0,0-1.09,8,9.9,9.9,0,0,0,4.89,6.72c1.17.65,3,1.24,11.58.58,5.94-.46,8.82.35,10.19,1.12,4.13,2.31,7.05,6.13,8.93,11.7s1.79,10.29-.4,14.22c-1.57,2.81-5.92,5-12.58,6.39l-20.89,2.85H252c-8.89,1.42-14.05,3.9-16.23,7.8a11,11,0,0,0,4.12,14.58c2.56,1.43,5.56,1.52,8.89.29,3.8-1.37,10.06-2.58,18.6-3.59,9.13-1,15.62-2.26,19.8-3.9a31.34,31.34,0,0,0,16.52-14.28C308.79,410.08,309.62,399.84,306.21,388.72Z" style="fill: #fff"/>
            <path d="M244.39,443.26a10.49,10.49,0,0,1-5.2-1.34,12.51,12.51,0,0,1-4.7-16.63c2.42-4.33,7.92-7,17.31-8.54l.1,0,20.84-2.84c6.11-1.26,10.2-3.27,11.53-5.64,2-3.54,2.07-7.79.29-13s-4.45-8.75-8.25-10.87c-1-.55-3.47-1.38-9.34-.93-9,.69-11,0-12.42-.77a11.39,11.39,0,0,1-5.62-7.7,12.45,12.45,0,0,1,1.24-9.07c2.83-5.06,9.16-7.32,19.37-6.94,8.12.31,14.22,1.66,18.66,4.14,9.39,5.25,15.93,13.72,19.45,25.18h0c3.53,11.53,2.65,22.16-2.61,31.58a32.82,32.82,0,0,1-17.29,14.95c-4.31,1.68-10.91,3-20.18,4-8.42,1-14.57,2.17-18.26,3.5A14,14,0,0,1,244.39,443.26Zm25.72-62.95c3.38,0,5.95.48,7.67,1.44,4.47,2.5,7.62,6.6,9.62,12.53s1.9,11.11-.51,15.43c-1.82,3.25-6.39,5.65-13.59,7.13h-.1l-20.89,2.86c-8.45,1.34-13.26,3.58-15.2,7.05a9.49,9.49,0,0,0,3.55,12.54c2.15,1.2,4.72,1.27,7.63.19,3.91-1.41,10.28-2.64,18.94-3.66,9-1,15.37-2.23,19.43-3.81a29.87,29.87,0,0,0,15.76-13.63c4.85-8.68,5.64-18.51,2.36-29.23s-9.35-18.58-18-23.44c-4-2.24-9.68-3.47-17.32-3.76-9-.35-14.41,1.42-16.63,5.4a9.56,9.56,0,0,0-.94,6.95,8.47,8.47,0,0,0,4.16,5.74c1,.56,3,1,10.73.4C267.94,380.35,269.06,380.31,270.11,380.31Z" style="fill: #1d1e1b"/>
          </g>
          <g>
            <path d="M231.83,447.05c-2.37-1.33-6.21-2.38-11.05.12a17.47,17.47,0,0,0-7.32,7.16,9.78,9.78,0,0,0-.49,8.54,12,12,0,0,0,5.42,6.33c2.2,1.23,5.77,2.17,10.32-.38a17,17,0,0,0,6.29-6.5C240.19,453,234.51,448.55,231.83,447.05Z" style="fill: #fff"/>
            <path d="M223.05,471.94a11,11,0,0,1-5.39-1.43,13.45,13.45,0,0,1-6.09-7.1,11.23,11.23,0,0,1,.58-9.81,19,19,0,0,1,7.94-7.76c5.44-2.81,9.78-1.6,12.47-.1h0c2.4,1.34,9.76,6.55,3.75,17.31a18.46,18.46,0,0,1-6.84,7.07A13.11,13.11,0,0,1,223.05,471.94Zm3.53-24.78a11.09,11.09,0,0,0-5.11,1.35,16,16,0,0,0-6.7,6.55,8.32,8.32,0,0,0-.4,7.27,10.52,10.52,0,0,0,4.75,5.56c2.72,1.52,5.7,1.39,8.86-.37a15.65,15.65,0,0,0,5.72-5.94c4.36-7.8.24-11.63-2.6-13.22h0A9.13,9.13,0,0,0,226.58,447.16Z" style="fill: #1d1e1b"/>
          </g>
          <path d="M298.5,419.5a3,3,0,0,1-2.79-4.1c4.47-11.34,4.79-21,1-28.63-5.48-10.9-17.81-14.34-17.93-14.37a3,3,0,0,1,1.54-5.8c.61.16,15,4.1,21.71,17.41,4.69,9.27,4.45,20.57-.69,33.59A3,3,0,0,1,298.5,419.5Z" style="fill: #fff"/>
        </g>
      </g>
    </g>
  </g>
</svg>
