<svg xmlns="http://www.w3.org/2000/svg" width="1000" height="1000" viewBox="0 0 1000 1000">
  <g id="ed0dc311-a6d9-4960-9cbf-60f37a190f11" data-name="illustration">
    <g id="a97fb0c3-ac7f-417c-b388-2cfee2c54953" data-name="system error">
      <g id="b94d98f8-8e8d-4d40-84f1-31bcf59b9211" data-name="ERROR">
        <g>
          <g>
            <path d="M352,137.54l5.13-.89,5-.86c1.62-.27,2.42-.42,2.87-.51a20.68,20.68,0,0,0,5.36-1.15,15.12,15.12,0,0,0,4.22-2.32,10.54,10.54,0,0,0,3-3.64,9.44,9.44,0,0,0,1-4.09,8.74,8.74,0,0,0-1.14-4.34,9,9,0,0,0-3.89-3.53,17,17,0,0,0-4.74-1.44,37.66,37.66,0,0,0-6.26-.44c-2.38,0-4.77.11-7.11.31s-4.79.52-7.33,1-5.16,1-7.94,1.6-5.73,1.4-8.93,2.28l-.41.13c-.15.05-.62.21-1.72.47-.92.22-2,.45-3.09.68l-1.54.31a10.35,10.35,0,0,0-3.45-3.24,13.34,13.34,0,0,0-7.25-1.76,9.44,9.44,0,0,0-6.11,2.33,19.24,19.24,0,0,0-3.48,3.89,36.63,36.63,0,0,0-2.63,4.48c-.73,1.45-1.4,2.87-2,4.23l0,.09c-.95,2.25-1.83,4.55-2.63,6.85s-1.65,5-2.58,8.07-2,6.77-3.14,11-2.64,9.42-4.39,15.55-3.69,12.22-5.82,18.34c-2.22,6.35-4.18,12.94-5.82,19.54a26.36,26.36,0,0,0-.88,6.6c0,6.16,2.78,9.41,5.11,11.05,2.86,2,6.57,3,11.35,3a72.37,72.37,0,0,0,12.06-1.15,86.65,86.65,0,0,0,13.66-3.59c1.78-.63,3.78-1.36,6.1-2.22s4.73-1.85,7.16-2.91,4.82-2.21,7.15-3.4a61,61,0,0,0,6.66-3.93,29.88,29.88,0,0,0,5.46-4.7,13,13,0,0,0,3.35-6.83,7.25,7.25,0,0,0-1.55-5.73,9,9,0,0,0-3.24-2.45,12.18,12.18,0,0,0-3.23-1,17.37,17.37,0,0,0-2.45-.2h-.11a23.17,23.17,0,0,0-8,1.54,58.63,58.63,0,0,0-6.38,3q-3,1.62-6.38,3.5a46.23,46.23,0,0,1-7.07,3.08,70.44,70.44,0,0,1-8.9,2.47c-1.71.35-3.26.61-4.65.75l.09-.46c.34-1.78.77-3.74,1.27-5.82s1-4.15,1.6-6.12c.17-.6.32-1.12.46-1.56l1.38-.34c1.12-.26,2.16-.55,3.11-.85s2-.66,3.06-1.09,2.42-1,4.26-1.71,4.17-1.69,7.09-2.85,6.66-2.63,11.26-4.42l3.35-1.1,5.1-1.64c1.84-.59,3.58-1.17,5.17-1.74a32.69,32.69,0,0,0,3.78-1.51l.09,0a22.34,22.34,0,0,0,5.91-4.4,11.63,11.63,0,0,0,3.25-8.11,7.75,7.75,0,0,0-2.46-5.6c-1.6-1.53-3.88-2.28-7-2.28a28,28,0,0,0-6.68,1.14c-2.52.66-5.44,1.48-8.68,2.46s-6.56,2-10,3.1L316,165.51c-1.29.4-2.53.79-3.7,1.14l1.41-4c.53-1.49,1-2.9,1.48-4.23s.85-2.42,1.22-3.4c.45-1.21.65-1.7.73-1.89l.07-.15a17.35,17.35,0,0,1,3-4.88,12.05,12.05,0,0,1,4.66-3.07c.87-.28,2-.62,3.36-1s3-.92,4.75-1.41l5.32-1.55c1.75-.51,3.38-1,4.85-1.36s2.92-.79,4-1.11,1.51-.41,1.54-.42l-.08,0-.15-1.78.4,1.71C349.26,138.05,350.09,137.88,352,137.54Z" style="fill: #fff"/>
            <path d="M290.72,232.59c-5.1,0-9.09-1.07-12.21-3.27-2.63-1.85-5.75-5.48-5.75-12.28a28.45,28.45,0,0,1,.92-7c1.66-6.63,3.63-13.25,5.86-19.66,2.12-6.09,4.07-12.23,5.8-18.25s3.22-11.33,4.38-15.54,2.23-8,3.16-11,1.8-5.85,2.6-8.14,1.7-4.66,2.66-6.93l0-.1q.93-2.09,2-4.31a38.31,38.31,0,0,1,2.74-4.66,21.07,21.07,0,0,1,3.75-4.19,10.89,10.89,0,0,1,7.07-2.68,14.75,14.75,0,0,1,8,2,12.91,12.91,0,0,1,3.32,2.85l.58-.12c1.12-.23,2.14-.45,3-.67a15.64,15.64,0,0,0,1.55-.42l.48-.15c3.29-.9,6.31-1.67,9-2.31s5.5-1.19,8-1.62,5.09-.76,7.45-1,4.82-.32,7.24-.32a38.43,38.43,0,0,1,6.51.46,18.6,18.6,0,0,1,5.16,1.58,10.36,10.36,0,0,1,4.52,4.13,10.24,10.24,0,0,1,1.34,5.08,10.91,10.91,0,0,1-1.13,4.74,12,12,0,0,1-3.39,4.16,16.77,16.77,0,0,1-4.63,2.56,22.34,22.34,0,0,1-5.67,1.22c-.47.1-1.29.25-2.84.51l-5,.86c-1.8.31-3.51.6-5.12.89h0c-2,.35-2.74.51-3,.57l-.2,0h0c-.06,0-.39.09-1.43.39s-2.43.69-4,1.12c-1.46.38-3.08.84-4.82,1.35l-5.33,1.55q-2.55.74-4.72,1.4l-3.29,1a10.61,10.61,0,0,0-4,2.64,15.63,15.63,0,0,0-2.74,4.47l-.08.17c-.09.2-.28.67-.71,1.82-.36,1-.76,2.1-1.2,3.36s-.95,2.75-1.48,4.25l-.41,1.15.83-.26,9.73-3.09c3.48-1.1,6.86-2.15,10.05-3.11s6.19-1.81,8.74-2.47a29.4,29.4,0,0,1,7.05-1.19c3.51,0,6.13.88,8,2.7a9.24,9.24,0,0,1,2.92,6.68,13.12,13.12,0,0,1-3.65,9.14,24.16,24.16,0,0,1-6.31,4.7l-.11.06a35.3,35.3,0,0,1-4,1.59c-1.61.56-3.36,1.15-5.21,1.75l-5.1,1.64-3.33,1.09c-4.53,1.76-8.32,3.25-11.18,4.39s-5.28,2.11-7.08,2.85-3.28,1.33-4.29,1.72-2.16.81-3.15,1.12-2.07.61-3.21.88l-.54.13c-.07.23-.14.46-.21.72-.55,2-1.08,4-1.58,6.06-.35,1.46-.67,2.86-.94,4.17.78-.13,1.6-.28,2.46-.46a69.27,69.27,0,0,0,8.72-2.42,44.53,44.53,0,0,0,6.84-3q3.39-1.87,6.39-3.5a59.76,59.76,0,0,1,6.54-3.08,24.72,24.72,0,0,1,8.51-1.64h.13a18.91,18.91,0,0,1,2.67.22,13.27,13.27,0,0,1,3.65,1.08,10.46,10.46,0,0,1,3.76,2.85,8.71,8.71,0,0,1,1.88,6.9,14.39,14.39,0,0,1-3.71,7.62,31.81,31.81,0,0,1-5.73,4.94,63.14,63.14,0,0,1-6.83,4c-2.35,1.2-4.78,2.35-7.23,3.43s-4.88,2.07-7.23,2.94-4.34,1.6-6.13,2.23A88.76,88.76,0,0,1,303,231.42,74.18,74.18,0,0,1,290.72,232.59Zm23.06-115a7.94,7.94,0,0,0-5.14,2,17.75,17.75,0,0,0-3.21,3.6,34.86,34.86,0,0,0-2.53,4.29c-.72,1.44-1.38,2.84-2,4.17q-1.44,3.42-2.62,6.82c-.78,2.24-1.64,4.93-2.56,8s-2,6.76-3.13,11-2.65,9.46-4.4,15.56-3.71,12.27-5.85,18.42c-2.2,6.32-4.14,12.85-5.78,19.41a25.41,25.41,0,0,0-.83,6.24c0,5.51,2.43,8.39,4.48,9.83,2.59,1.83,6,2.72,10.48,2.72a70.26,70.26,0,0,0,11.8-1.13,85.52,85.52,0,0,0,13.42-3.53c1.78-.62,3.76-1.35,6.08-2.21s4.68-1.82,7.07-2.88,4.78-2.18,7.08-3.35a61.11,61.11,0,0,0,6.49-3.83,28.78,28.78,0,0,0,5.19-4.47,11.44,11.44,0,0,0,3-6,5.75,5.75,0,0,0-1.22-4.56,7.6,7.6,0,0,0-2.7-2.05,10.83,10.83,0,0,0-2.84-.83,14.35,14.35,0,0,0-2.22-.19h-.09A21.43,21.43,0,0,0,334.3,196a55.42,55.42,0,0,0-6.21,2.91c-2,1.08-4.12,2.25-6.37,3.5a46.75,46.75,0,0,1-7.3,3.18,69.87,69.87,0,0,1-9.1,2.53c-1.75.36-3.36.62-4.79.77l-2,.21.46-2.44c.35-1.8.78-3.78,1.29-5.89s1.05-4.19,1.61-6.18c.18-.61.33-1.14.47-1.59l.25-.82,2.22-.54c1.08-.25,2.09-.53,3-.82s1.92-.64,3-1,2.41-1,4.25-1.71,4.17-1.69,7.09-2.86,6.67-2.63,11.28-4.42c.79-.27,1.91-.63,3.43-1.12L342,178c1.82-.58,3.54-1.16,5.12-1.72a29.37,29.37,0,0,0,3.61-1.44l.08,0a21.12,21.12,0,0,0,5.5-4.1,10.15,10.15,0,0,0,2.84-7.08,6.27,6.27,0,0,0-2-4.52c-1.31-1.25-3.25-1.86-5.94-1.86a27,27,0,0,0-6.3,1.09c-2.51.65-5.41,1.48-8.62,2.44s-6.55,2-10,3.1l-9.74,3.09-3.71,1.15-2.84.86,2.4-6.76c.53-1.49,1-2.9,1.48-4.22s.85-2.45,1.22-3.44c.44-1.18.66-1.72.77-2l.06-.13a18.81,18.81,0,0,1,3.25-5.28,13.51,13.51,0,0,1,5.23-3.47l.11,0,3.37-1q2.19-.68,4.77-1.41l5.32-1.55c1.76-.52,3.4-1,4.89-1.37s2.89-.79,4-1.1l.28-.08-.05-.54,3-.46.07.29,1.7-.31h0l5.13-.89,5.05-.86c1.59-.27,2.38-.41,2.82-.5l.16,0a19,19,0,0,0,5-1.05,13.74,13.74,0,0,0,3.81-2.09,9.15,9.15,0,0,0,2.57-3.12,8,8,0,0,0,.83-3.44,7.26,7.26,0,0,0-.95-3.6,7.4,7.4,0,0,0-3.26-2.93,15.49,15.49,0,0,0-4.32-1.3,35.54,35.54,0,0,0-6-.42c-2.33,0-4.68.1-7,.3s-4.71.52-7.21.94-5.11,1-7.85,1.59-5.68,1.38-8.87,2.25l-.36.12a16.68,16.68,0,0,1-1.82.5c-.93.22-2,.46-3.14.69l-1.55.31-1,.2-.54-.88a9.16,9.16,0,0,0-3-2.76A11.94,11.94,0,0,0,313.78,117.56Z"/>
          </g>
          <g>
            <path d="M462.23,128.75a21.39,21.39,0,0,0-4-7.63,25.21,25.21,0,0,0-5.84-5.12,29.77,29.77,0,0,0-6.81-3.17,49,49,0,0,0-6.66-1.65,52.35,52.35,0,0,0-6.27-.71c-1.9-.1-3.58-.15-5-.15-2.52,0-4.66.05-6.36.15s-3.08.2-4.27.29-2.29.2-3.24.3a15.55,15.55,0,0,1-4.75-.14,29.68,29.68,0,0,1-2.92-.74l-.08,0c-1.12-.32-2.27-.61-3.41-.84a20.66,20.66,0,0,0-4.26-.44c-4.18,0-7.49,1.3-9.82,3.85a19.69,19.69,0,0,0-4.27,8.81v.07a20.63,20.63,0,0,0-.57,4.69,25.89,25.89,0,0,0,.28,3.9,14.26,14.26,0,0,1,.15,2.2,27.37,27.37,0,0,1-.21,3.46c-.14,1.16-.35,2.31-.59,3.44s-.57,2.45-.89,3.69-.69,2.74-1,4.18c-2.69,10.81-5.52,21.68-8.41,32.31s-5.76,21.61-8.48,32.57l0,.09c-.18.78-.33,1.59-.44,2.43a19.82,19.82,0,0,0-.2,2.76,13.13,13.13,0,0,0,2,7.23c1,1.61,3.53,4.31,8.76,4.31a10.93,10.93,0,0,0,6.24-1.94,13.39,13.39,0,0,0,4.18-4.61l.34-.61.17-.67c.14-.56.35-1.38.65-2.49s.66-2.4,1.06-3.82.84-3,1.3-4.6.88-3.15,1.31-4.61.83-2.92,1.17-4.19l.79-3,2.92-11.51.25.09,1.29.46,1.35-.24c1.16-.2,2.39-.45,3.65-.73a12.94,12.94,0,0,1,2.83-.27h1.08a13.23,13.23,0,0,1,5.37,1.19,28.15,28.15,0,0,1,6.11,3.67,37.9,37.9,0,0,1,5.82,5.68,63.26,63.26,0,0,1,5.25,7.27,54.27,54.27,0,0,1,3.62,7c1.11,2.61,2.2,5,3.25,7.11a27.68,27.68,0,0,0,3.91,6,10.5,10.5,0,0,0,8.06,3.63,11.81,11.81,0,0,0,5.51-1.35,13.76,13.76,0,0,0,4-3.21,15.47,15.47,0,0,0,2.52-4.16,13.2,13.2,0,0,0-.4-10.91c-2.3-4.85-4.55-9.13-6.69-12.73a106.42,106.42,0,0,0-6.34-9.56,66.81,66.81,0,0,0-6.08-7.05,50.18,50.18,0,0,0-5.94-5.06c-.76-.54-1.52-1.06-2.28-1.54,1.82-1,3.7-2,5.6-3,2.07-1.14,3.93-2.27,5.54-3.35a71.55,71.55,0,0,0,10.68-8.55,41.43,41.43,0,0,0,7.73-10.3,23.62,23.62,0,0,0,2.82-11,25.94,25.94,0,0,0-.23-3.34A23.54,23.54,0,0,0,462.23,128.75Zm-60,30.74q1.14-4,2.29-7.92c.76-2.62,1.47-5.09,2.14-7.38s1.27-4.32,1.81-6.12c.17-.56.33-1.09.48-1.57a42.12,42.12,0,0,1,6.75-1.43,78.18,78.18,0,0,1,9.66-.61c1.77,0,3.72.08,5.81.24a25.82,25.82,0,0,1,5.09.86,7.61,7.61,0,0,1,2.71,1.3,1,1,0,0,1,0,.2,4.58,4.58,0,0,1-1.14,2.45,30.57,30.57,0,0,1-4.93,5,68.73,68.73,0,0,1-7.45,5.26c-2.87,1.77-5.79,3.44-8.66,5s-5.64,2.88-8.25,4-4.78,2.06-6.51,2.68l-.41.15Z" style="fill: #fff"/>
            <path d="M374.66,230.37c-5.94,0-8.83-3.13-10-5a14.65,14.65,0,0,1-2.28-8,21.29,21.29,0,0,1,.21-3c.12-.88.28-1.74.47-2.56l0-.1c2.73-11,5.58-21.94,8.49-32.62s5.72-21.46,8.41-32.27c.33-1.44.68-2.85,1-4.19s.61-2.46.87-3.65.43-2.19.58-3.3a26.28,26.28,0,0,0,.19-3.27,12.66,12.66,0,0,0-.13-2,26.17,26.17,0,0,1-.3-4.13,23.13,23.13,0,0,1,.6-5,21.39,21.39,0,0,1,4.64-9.56c2.63-2.87,6.31-4.33,10.93-4.33a22.28,22.28,0,0,1,4.57.47c1.17.24,2.36.54,3.51.87l.1,0c.9.27,1.83.51,2.79.7a14.27,14.27,0,0,0,4.29.12c1-.1,2.05-.2,3.28-.3s2.6-.2,4.3-.3,3.9-.15,6.45-.15c1.45,0,3.16.05,5.08.15a57.48,57.48,0,0,1,6.44.73,49.9,49.9,0,0,1,6.87,1.7,31.27,31.27,0,0,1,7.15,3.33,26.48,26.48,0,0,1,6.19,5.43,22.75,22.75,0,0,1,4.29,8.16,26.56,26.56,0,0,1,.9,4.06,26.85,26.85,0,0,1,.24,3.53,25.19,25.19,0,0,1-3,11.74,43.12,43.12,0,0,1-8,10.67,72.33,72.33,0,0,1-10.91,8.73c-1.62,1.1-3.53,2.25-5.64,3.41-1.14.63-2.28,1.25-3.4,1.84l.23.17a50.52,50.52,0,0,1,6.12,5.21,67.87,67.87,0,0,1,6.23,7.22,107.86,107.86,0,0,1,6.43,9.69c2.16,3.64,4.44,8,6.76,12.85a14.72,14.72,0,0,1,.43,12.12,16.62,16.62,0,0,1-2.77,4.57,15,15,0,0,1-4.45,3.56,13.27,13.27,0,0,1-6.21,1.53,11.92,11.92,0,0,1-9.18-4.14,28.8,28.8,0,0,1-4.13-6.32c-1.06-2.13-2.17-4.55-3.29-7.2a53.12,53.12,0,0,0-3.52-6.79,62.21,62.21,0,0,0-5.12-7.09,36.68,36.68,0,0,0-5.59-5.45,26.89,26.89,0,0,0-5.78-3.49,11.94,11.94,0,0,0-4.78-1.06h-1.08a11.3,11.3,0,0,0-2.51.24c-1.27.28-2.52.53-3.72.74l-1.73.3-.36-.13-3.31,12.88c-.35,1.29-.74,2.7-1.18,4.22s-.86,3-1.31,4.6-.89,3.17-1.3,4.61-.75,2.68-1.05,3.8-.51,1.91-.65,2.46l-.21.87-.44.78a15,15,0,0,1-4.65,5.13A12.48,12.48,0,0,1,374.66,230.37Zm23.7-120c-3.74,0-6.68,1.13-8.71,3.36a18.26,18.26,0,0,0-3.92,8.15,19.72,19.72,0,0,0-.54,4.41,23.94,23.94,0,0,0,.26,3.66,15.07,15.07,0,0,1,.17,2.44,28.41,28.41,0,0,1-.22,3.65c-.15,1.2-.36,2.41-.62,3.57s-.57,2.49-.9,3.75-.68,2.71-1,4.14c-2.7,10.86-5.53,21.74-8.42,32.36s-5.76,21.6-8.47,32.54c-.19.8-.33,1.57-.44,2.36a18.58,18.58,0,0,0-.18,2.56,11.68,11.68,0,0,0,1.81,6.42c.86,1.35,3,3.62,7.5,3.62a9.54,9.54,0,0,0,5.4-1.68,11.85,11.85,0,0,0,3.71-4.1l.24-.44.12-.48c.14-.56.36-1.39.67-2.51s.66-2.41,1.06-3.83.83-3,1.29-4.61.89-3.15,1.31-4.62.83-2.9,1.17-4.16l.79-2.95,3.33-13.12,2.71,1,1-.16c1.15-.2,2.35-.44,3.58-.72a14.7,14.7,0,0,1,3.16-.31h1.08a14.78,14.78,0,0,1,6,1.31,30.11,30.11,0,0,1,6.43,3.87,39,39,0,0,1,6.05,5.9,64,64,0,0,1,5.37,7.43,56.32,56.32,0,0,1,3.73,7.2c1.1,2.59,2.18,5,3.22,7a25.63,25.63,0,0,0,3.69,5.67,9,9,0,0,0,6.93,3.13,10.28,10.28,0,0,0,4.81-1.18,11.93,11.93,0,0,0,3.57-2.86,13.71,13.71,0,0,0,2.27-3.74,11.74,11.74,0,0,0-.35-9.69c-2.29-4.83-4.52-9.07-6.64-12.63a103,103,0,0,0-6.25-9.41,62.86,62.86,0,0,0-5.94-6.89,47.93,47.93,0,0,0-5.75-4.91c-.74-.53-1.49-1-2.22-1.5L428,172l2.3-1.19c1.81-.95,3.68-1.95,5.57-3s3.85-2.22,5.42-3.28a69.84,69.84,0,0,0,10.47-8.37,40.18,40.18,0,0,0,7.45-9.92,22.16,22.16,0,0,0,2.65-10.35,24.35,24.35,0,0,0-.21-3.14,23.93,23.93,0,0,0-.8-3.58h0a19.81,19.81,0,0,0-3.72-7.1,23.11,23.11,0,0,0-5.49-4.81,28.45,28.45,0,0,0-6.46-3,47.15,47.15,0,0,0-6.46-1.59,53.41,53.41,0,0,0-6.09-.7c-1.87-.09-3.52-.14-4.92-.14-2.49,0-4.6.05-6.27.15s-3.05.19-4.24.29l-3.2.29a16.76,16.76,0,0,1-5.21-.16,30.89,30.89,0,0,1-3.05-.77c-1.15-.33-2.26-.6-3.37-.84A19.75,19.75,0,0,0,398.36,110.38Zm1,53.61,1.42-4.92q1.14-4,2.29-7.92c.76-2.62,1.47-5.09,2.14-7.38s1.27-4.33,1.82-6.13l.7-2.34.78-.23a43,43,0,0,1,7-1.49,79.3,79.3,0,0,1,9.85-.62c1.8,0,3.79.09,5.92.25a26.67,26.67,0,0,1,5.39.91,9,9,0,0,1,3.24,1.57l.48.38.07.61a3.18,3.18,0,0,1,0,.38,5.92,5.92,0,0,1-1.45,3.37,32.34,32.34,0,0,1-5.17,5.19,70.89,70.89,0,0,1-7.62,5.38c-2.9,1.79-5.84,3.47-8.74,5s-5.7,2.91-8.34,4.09-4.85,2.1-6.61,2.73Zm10.78-26.27-.24.78c-.54,1.8-1.15,3.84-1.81,6.11s-1.38,4.75-2.14,7.38c-.69,2.36-1.37,4.72-2.06,7.1,1.2-.49,2.55-1.07,4-1.73,2.57-1.16,5.32-2.51,8.16-4s5.72-3.15,8.57-4.91A66.75,66.75,0,0,0,432,143.3a29.19,29.19,0,0,0,4.69-4.7,6.37,6.37,0,0,0,.66-1,8.29,8.29,0,0,0-1.45-.56,24.61,24.61,0,0,0-4.81-.8c-2.05-.16-4-.24-5.69-.24a75.3,75.3,0,0,0-9.48.6A38.3,38.3,0,0,0,410.15,137.72Z"/>
          </g>
          <g>
            <path d="M564.5,128.75a21.23,21.23,0,0,0-4-7.63,25,25,0,0,0-5.84-5.12,29.77,29.77,0,0,0-6.81-3.17,48.31,48.31,0,0,0-6.66-1.65,52.19,52.19,0,0,0-6.26-.71c-1.9-.1-3.59-.15-5-.15-2.53,0-4.67.05-6.37.15s-3.07.2-4.27.29-2.29.2-3.24.3a15.48,15.48,0,0,1-4.74-.14,29,29,0,0,1-2.92-.74l-.09,0c-1.12-.32-2.27-.61-3.41-.84a20.56,20.56,0,0,0-4.25-.44c-4.19,0-7.5,1.3-9.83,3.85a19.58,19.58,0,0,0-4.26,8.81l0,.07a21.18,21.18,0,0,0-.56,4.69,26,26,0,0,0,.27,3.9,13,13,0,0,1,.16,2.2,27.37,27.37,0,0,1-.21,3.46c-.15,1.16-.35,2.32-.6,3.44s-.57,2.44-.89,3.69-.69,2.75-1,4.18c-2.69,10.8-5.52,21.67-8.42,32.31s-5.75,21.61-8.48,32.57l0,.09c-.18.77-.33,1.59-.44,2.42a20,20,0,0,0-.19,2.77,13.21,13.21,0,0,0,2,7.23c1,1.61,3.54,4.31,8.76,4.31a10.93,10.93,0,0,0,6.24-1.94,13.29,13.29,0,0,0,4.18-4.61l.34-.61.17-.67c.14-.56.36-1.38.66-2.49s.65-2.4,1.05-3.82.84-3,1.3-4.6.88-3.15,1.31-4.61.83-2.92,1.17-4.2l.79-2.94,2.92-11.51.26.09,1.29.46,1.34-.24c1.17-.2,2.4-.45,3.65-.73a13,13,0,0,1,2.84-.27h1.07a13.31,13.31,0,0,1,5.38,1.19A28.39,28.39,0,0,1,519,191a38.82,38.82,0,0,1,5.82,5.68,63.18,63.18,0,0,1,5.24,7.27,53.14,53.14,0,0,1,3.63,7c1.1,2.61,2.2,5,3.25,7.11a27.44,27.44,0,0,0,3.91,6,10.47,10.47,0,0,0,8.06,3.63,11.8,11.8,0,0,0,5.5-1.35,13.93,13.93,0,0,0,4-3.21,15.44,15.44,0,0,0,2.51-4.16,13.19,13.19,0,0,0,1-5,13.42,13.42,0,0,0-1.38-5.94c-2.31-4.85-4.56-9.13-6.7-12.73a106.42,106.42,0,0,0-6.34-9.56,65.67,65.67,0,0,0-6.08-7.05,49.39,49.39,0,0,0-5.94-5.06c-.76-.54-1.52-1.06-2.28-1.54,1.82-1,3.7-2,5.6-3,2.07-1.14,3.94-2.27,5.55-3.36A70.78,70.78,0,0,0,555,157.25a41.43,41.43,0,0,0,7.73-10.3,23.62,23.62,0,0,0,2.82-11,25.88,25.88,0,0,0-.22-3.34A24.74,24.74,0,0,0,564.5,128.75Zm-60,30.74c.76-2.65,1.53-5.29,2.29-7.92s1.48-5.09,2.15-7.38,1.26-4.32,1.81-6.12c.17-.56.33-1.08.47-1.57a42.35,42.35,0,0,1,6.75-1.43,78.34,78.34,0,0,1,9.67-.61c1.76,0,3.71.08,5.8.24a26.05,26.05,0,0,1,5.1.86,7.69,7.69,0,0,1,2.71,1.3s0,.11,0,.2a4.67,4.67,0,0,1-1.15,2.46,31,31,0,0,1-4.93,4.94,68.73,68.73,0,0,1-7.45,5.26c-2.87,1.77-5.78,3.44-8.65,5s-5.65,2.88-8.26,4-4.78,2.06-6.51,2.68l-.41.15Z" style="fill: #fff"/>
            <path d="M476.93,230.37c-5.94,0-8.83-3.13-10-5a14.65,14.65,0,0,1-2.28-8,22.91,22.91,0,0,1,.2-3c.13-.88.28-1.74.47-2.56l0-.11c2.72-11,5.58-21.94,8.49-32.61s5.72-21.47,8.4-32.27c.33-1.42.68-2.84,1-4.19s.61-2.46.87-3.65.44-2.19.58-3.3a26.23,26.23,0,0,0,.2-3.27,12.55,12.55,0,0,0-.14-2,27.49,27.49,0,0,1-.29-4.13,22.53,22.53,0,0,1,.6-5,21.28,21.28,0,0,1,4.63-9.56c2.63-2.87,6.31-4.33,10.94-4.33a22.19,22.19,0,0,1,4.56.47c1.18.24,2.36.54,3.51.87l.1,0c.9.27,1.84.51,2.8.7a14.25,14.25,0,0,0,4.29.12c1-.1,2-.2,3.27-.3s2.61-.2,4.3-.3,3.9-.15,6.46-.15c1.44,0,3.15.05,5.08.15a57.31,57.31,0,0,1,6.43.73,49.9,49.9,0,0,1,6.87,1.7,31.5,31.5,0,0,1,7.15,3.33,26.48,26.48,0,0,1,6.19,5.43,22.83,22.83,0,0,1,4.29,8.16,25.42,25.42,0,0,1,.9,4.06,26.85,26.85,0,0,1,.24,3.53,25.07,25.07,0,0,1-3,11.74,43.07,43.07,0,0,1-8,10.67A71.67,71.67,0,0,1,545.18,167c-1.63,1.11-3.53,2.26-5.65,3.42-1.14.63-2.28,1.25-3.4,1.84l.23.17a49.83,49.83,0,0,1,6.13,5.21,67.86,67.86,0,0,1,6.22,7.22,105.76,105.76,0,0,1,6.43,9.69c2.17,3.65,4.44,8,6.76,12.85a14.72,14.72,0,0,1,.43,12.12,16.74,16.74,0,0,1-2.76,4.57,15.12,15.12,0,0,1-4.46,3.56,13.23,13.23,0,0,1-6.2,1.53,11.94,11.94,0,0,1-9.19-4.14,28.79,28.79,0,0,1-4.12-6.32c-1.07-2.14-2.18-4.56-3.3-7.2a51.24,51.24,0,0,0-3.52-6.79,63.38,63.38,0,0,0-5.11-7.09,36.68,36.68,0,0,0-5.59-5.45,27.19,27.19,0,0,0-5.79-3.49,11.9,11.9,0,0,0-4.78-1.06h-1.07a11.24,11.24,0,0,0-2.51.24c-1.27.28-2.52.53-3.72.74l-1.74.3-.36-.13-3.31,12.88c-.34,1.29-.74,2.7-1.18,4.22s-.86,3-1.31,4.6-.88,3.17-1.29,4.61-.75,2.68-1.06,3.8-.51,1.91-.64,2.46l-.22.87-.44.78a14.85,14.85,0,0,1-4.65,5.13A12.46,12.46,0,0,1,476.93,230.37Zm23.71-120c-3.75,0-6.68,1.13-8.72,3.36a18.26,18.26,0,0,0-3.92,8.15,19.68,19.68,0,0,0-.53,4.41,22.73,22.73,0,0,0,.26,3.66,16.29,16.29,0,0,1,.17,2.44,28.37,28.37,0,0,1-.23,3.65c-.15,1.2-.36,2.41-.62,3.57s-.57,2.48-.9,3.75-.68,2.72-1,4.14c-2.7,10.85-5.53,21.73-8.43,32.36s-5.75,21.6-8.47,32.54c-.18.8-.32,1.57-.43,2.36a18.36,18.36,0,0,0-.18,2.56,11.67,11.67,0,0,0,1.8,6.42c.87,1.35,3,3.62,7.5,3.62a9.55,9.55,0,0,0,5.41-1.68,11.93,11.93,0,0,0,3.7-4.1l.25-.43.12-.49c.14-.56.36-1.39.66-2.51s.66-2.41,1.06-3.83.84-3,1.29-4.61.89-3.15,1.32-4.62.82-2.9,1.16-4.16l.79-2.95L496,184.87l2.72,1,.95-.16c1.15-.2,2.36-.45,3.58-.72a14.79,14.79,0,0,1,3.17-.31h1.07a14.75,14.75,0,0,1,6,1.31,30.17,30.17,0,0,1,6.44,3.87,39.46,39.46,0,0,1,6.05,5.9,66.46,66.46,0,0,1,5.37,7.43,57,57,0,0,1,3.73,7.2c1.09,2.59,2.17,5,3.21,7a26,26,0,0,0,3.69,5.67,9,9,0,0,0,6.94,3.13,10.31,10.31,0,0,0,4.81-1.18,11.88,11.88,0,0,0,3.56-2.85,13.92,13.92,0,0,0,2.27-3.75,11.74,11.74,0,0,0-.35-9.69c-2.29-4.82-4.52-9.06-6.64-12.63a105.23,105.23,0,0,0-6.24-9.41,62.86,62.86,0,0,0-5.94-6.89,48,48,0,0,0-5.76-4.91c-.74-.53-1.49-1-2.22-1.5l-2.17-1.4,2.29-1.19c1.81-.94,3.68-1.95,5.57-3s3.86-2.22,5.42-3.28A69.46,69.46,0,0,0,554,156.18a39.8,39.8,0,0,0,7.45-9.93,22.09,22.09,0,0,0,2.65-10.34,24.35,24.35,0,0,0-.21-3.14,21.67,21.67,0,0,0-.8-3.58h0a20,20,0,0,0-3.72-7.1,23.51,23.51,0,0,0-5.49-4.81,28.52,28.52,0,0,0-6.47-3,47,47,0,0,0-6.45-1.59,53.92,53.92,0,0,0-6.09-.7c-1.88-.09-3.53-.14-4.92-.14-2.5,0-4.61.05-6.28.15s-3,.19-4.24.29l-3.2.29a16.68,16.68,0,0,1-5.2-.16c-1.05-.21-2.08-.47-3.06-.77-1.15-.33-2.26-.6-3.37-.84A19.72,19.72,0,0,0,500.64,110.38Zm1,53.61,1.42-4.92q1.14-4,2.29-7.92l2.15-7.38c.66-2.28,1.27-4.33,1.81-6.13l.71-2.34.77-.23a43.2,43.2,0,0,1,7-1.49,79.46,79.46,0,0,1,9.86-.62c1.8,0,3.79.09,5.91.25a26.55,26.55,0,0,1,5.39.91,9.12,9.12,0,0,1,3.25,1.57l.46.37.08.6a3.13,3.13,0,0,1,0,.4,5.88,5.88,0,0,1-1.46,3.37,31.93,31.93,0,0,1-5.17,5.19,70.72,70.72,0,0,1-7.61,5.38c-2.9,1.79-5.84,3.47-8.74,5s-5.7,2.91-8.34,4.09-4.86,2.1-6.62,2.73Zm10.78-26.27-.24.78q-.81,2.7-1.8,6.11L508.23,152c-.69,2.36-1.37,4.72-2.05,7.1,1.2-.49,2.55-1.07,4-1.73,2.58-1.16,5.33-2.51,8.17-4s5.72-3.15,8.56-4.91a65.8,65.8,0,0,0,7.29-5.14,29.19,29.19,0,0,0,4.69-4.7,5.74,5.74,0,0,0,.66-1,8,8,0,0,0-1.45-.56,24.51,24.51,0,0,0-4.8-.8c-2.05-.16-4-.24-5.69-.24a75.3,75.3,0,0,0-9.48.6A38.42,38.42,0,0,0,512.42,137.72Z"/>
          </g>
          <g>
            <path d="M660.05,123.06a21.72,21.72,0,0,0-7-4.38,22.09,22.09,0,0,0-8.14-1.55,37.52,37.52,0,0,0-4,.21,14.38,14.38,0,0,0-4.49,1.19,7.16,7.16,0,0,0-.78.4,14.27,14.27,0,0,0-3.53-2,16.59,16.59,0,0,0-5.93-1,21.77,21.77,0,0,0-5.4.67,18.67,18.67,0,0,0-5.86,2.83l-.26.19c-3.36,2.62-6.74,5.54-10.07,8.67s-6.59,6.5-9.71,10-6.11,7.21-8.89,11a129.17,129.17,0,0,0-7.65,11.63,113.86,113.86,0,0,0-6,11.85,72.56,72.56,0,0,0-4,11.85,49.64,49.64,0,0,0-1.16,6.26,54.64,54.64,0,0,0-.35,6.1,38.07,38.07,0,0,0,2.3,13.46,30.29,30.29,0,0,0,17.91,18,39.13,39.13,0,0,0,14.08,2.42A56.83,56.83,0,0,0,617,228.55a69,69,0,0,0,14.71-6.16A76.74,76.74,0,0,0,644.93,213a83.62,83.62,0,0,0,11.15-12,85.87,85.87,0,0,0,8.69-14,77.55,77.55,0,0,0,5.72-15.52,70,70,0,0,0,2.31-17.07,46.4,46.4,0,0,0-3.2-17.22A38.89,38.89,0,0,0,660.05,123.06Zm-12.72,19.81a13.73,13.73,0,0,1,2.22,4.9,28.25,28.25,0,0,1,.78,6.72,42.12,42.12,0,0,1-.28,4.78,30.31,30.31,0,0,1-.89,4.59l0,.06a68.87,68.87,0,0,1-4.55,12.47,72.53,72.53,0,0,1-6.47,10.9,59.86,59.86,0,0,1-7.81,8.84,55.14,55.14,0,0,1-8.7,6.62,38.74,38.74,0,0,1-8.94,4.06,29.8,29.8,0,0,1-8.69,1.35,22.5,22.5,0,0,1-6.3-.83,12.42,12.42,0,0,1-4.29-2.14,8.57,8.57,0,0,1-2.46-3.2,11.63,11.63,0,0,1-.93-4.89,25.29,25.29,0,0,1,.67-5.31,55.29,55.29,0,0,1,4-11.28,107.38,107.38,0,0,1,6.79-12.13,134.27,134.27,0,0,1,8.58-11.77c3.12-3.81,6.28-7.38,9.41-10.6l.16-.17a9,9,0,0,1,1-1c.58-.48,1.2-.95,1.84-1.41l.16-.11a12.66,12.66,0,0,0,1.27.84,9.38,9.38,0,0,0,4.75,1.24,12.82,12.82,0,0,0,4.64-.78,11.14,11.14,0,0,0,3.48-2.11,11.29,11.29,0,0,0,2.31-2.93l.49-.94a11.81,11.81,0,0,1,3.94,1.08A10.15,10.15,0,0,1,647.33,142.87Z" style="fill: #fff"/>
            <path d="M601.19,232.3a40.78,40.78,0,0,1-14.62-2.52A32.6,32.6,0,0,1,575,222.35,32.27,32.27,0,0,1,567.8,211a39.44,39.44,0,0,1-2.4-14,55.18,55.18,0,0,1,.36-6.27,52,52,0,0,1,1.19-6.45A74.44,74.44,0,0,1,571,172.16a114,114,0,0,1,6.09-12,128.18,128.18,0,0,1,7.75-11.77c2.8-3.8,5.82-7.53,9-11.09s6.45-6.95,9.8-10.11,6.78-6.11,10.18-8.76l.29-.22a20.17,20.17,0,0,1,6.38-3.07,22.86,22.86,0,0,1,5.77-.72,18.18,18.18,0,0,1,6.46,1.12,15.12,15.12,0,0,1,3.12,1.65l0,0a15.66,15.66,0,0,1,5-1.31,37.59,37.59,0,0,1,4.11-.22,23.78,23.78,0,0,1,8.69,1.65,23.09,23.09,0,0,1,7.43,4.69h0A40.22,40.22,0,0,1,671,136.58a47.86,47.86,0,0,1,3.31,17.77,71.58,71.58,0,0,1-2.36,17.44,79.58,79.58,0,0,1-5.82,15.81,88.48,88.48,0,0,1-8.84,14.29,85,85,0,0,1-11.36,12.23,78.24,78.24,0,0,1-13.44,9.58,70.34,70.34,0,0,1-15,6.29A58.23,58.23,0,0,1,601.19,232.3Zm25.07-114.89a20.13,20.13,0,0,0-5,.62,17.29,17.29,0,0,0-5.39,2.62l-.22.16c-3.29,2.56-6.64,5.45-9.93,8.55s-6.52,6.44-9.62,9.92-6.05,7.15-8.8,10.88a128.24,128.24,0,0,0-7.56,11.49,110,110,0,0,0-5.93,11.7,70.49,70.49,0,0,0-3.92,11.6,48.75,48.75,0,0,0-1.13,6.09,51.21,51.21,0,0,0-.34,5.92,36.7,36.7,0,0,0,2.2,12.93,28.68,28.68,0,0,0,17,17.08,37.49,37.49,0,0,0,13.54,2.33,55.3,55.3,0,0,0,15.42-2.19,67.37,67.37,0,0,0,14.4-6,75,75,0,0,0,12.92-9.21,81.76,81.76,0,0,0,11-11.8,85.42,85.42,0,0,0,8.54-13.8,76.14,76.14,0,0,0,5.6-15.22,68.07,68.07,0,0,0,2.27-16.7,44.66,44.66,0,0,0-3.1-16.66A37.24,37.24,0,0,0,659,124.16h0a20.25,20.25,0,0,0-6.48-4.09,20.8,20.8,0,0,0-7.59-1.44,37.2,37.2,0,0,0-3.8.2,12.82,12.82,0,0,0-4,1.06,6.59,6.59,0,0,0-.65.33l-.87.52-.8-.61a12.77,12.77,0,0,0-3.15-1.8A15.26,15.26,0,0,0,626.26,117.41ZM604,209.66a24,24,0,0,1-6.73-.89,13.8,13.8,0,0,1-4.8-2.41,10,10,0,0,1-2.89-3.75,13.21,13.21,0,0,1-1.06-5.51,26.87,26.87,0,0,1,.7-5.63,57.23,57.23,0,0,1,4.14-11.6,107.47,107.47,0,0,1,6.89-12.31,131.55,131.55,0,0,1,8.67-11.89c3.14-3.85,6.33-7.45,9.49-10.71l.14-.14a10.65,10.65,0,0,1,1.18-1.09c.61-.51,1.26-1,1.93-1.48l1.06-.74.86.65a9.51,9.51,0,0,0,1.13.74,7.85,7.85,0,0,0,4,1,11.15,11.15,0,0,0,4.1-.68,9.43,9.43,0,0,0,5-4.36c.16-.3.32-.6.47-.9l.47-.93,1,.12a13.23,13.23,0,0,1,4.44,1.23,11.71,11.71,0,0,1,4.32,3.56h0a15.21,15.21,0,0,1,2.47,5.44,29.58,29.58,0,0,1,.82,7.07,45.17,45.17,0,0,1-.29,4.95,32.36,32.36,0,0,1-.93,4.82A70.93,70.93,0,0,1,645.94,177a72.94,72.94,0,0,1-6.61,11.13,61.73,61.73,0,0,1-8,9.06,57,57,0,0,1-8.94,6.8,40.2,40.2,0,0,1-9.28,4.21A31.47,31.47,0,0,1,604,209.66Zm18.71-64.46c-.37.27-.72.55-1.06.84a7.12,7.12,0,0,0-.89.8l-.17.19c-3.12,3.22-6.26,6.75-9.35,10.53a132.6,132.6,0,0,0-8.48,11.63,105.2,105.2,0,0,0-6.69,12,53.53,53.53,0,0,0-3.92,11,23.48,23.48,0,0,0-.63,5,10.25,10.25,0,0,0,.79,4.26,7.11,7.11,0,0,0,2,2.66,10.91,10.91,0,0,0,3.77,1.87,21,21,0,0,0,5.88.77,28.27,28.27,0,0,0,8.26-1.29,37.35,37.35,0,0,0,8.59-3.9A54.17,54.17,0,0,0,629.3,195a59,59,0,0,0,7.6-8.62,70,70,0,0,0,6.34-10.67,66.93,66.93,0,0,0,4.45-12.2,29.28,29.28,0,0,0,.87-4.44,41.45,41.45,0,0,0,.27-4.61,26.77,26.77,0,0,0-.73-6.36,12.28,12.28,0,0,0-2-4.38h0a8.75,8.75,0,0,0-3.24-2.65,9.72,9.72,0,0,0-2.44-.78h0a12.61,12.61,0,0,1-2.62,3.33,12.46,12.46,0,0,1-4,2.39,14,14,0,0,1-5.18.89,10.78,10.78,0,0,1-5.5-1.44Z"/>
          </g>
          <g>
            <path d="M751.05,165.79a70.88,70.88,0,0,0,10.68-8.54,41.43,41.43,0,0,0,7.73-10.3,23.62,23.62,0,0,0,2.82-11,25.94,25.94,0,0,0-.23-3.34,23.54,23.54,0,0,0-.85-3.82,21.39,21.39,0,0,0-4-7.63,25.05,25.05,0,0,0-5.85-5.12,29.5,29.5,0,0,0-6.8-3.17,48.8,48.8,0,0,0-6.67-1.65,52,52,0,0,0-6.26-.71c-1.9-.1-3.58-.15-5-.15-2.52,0-4.66.05-6.36.15s-3.08.2-4.27.29-2.29.2-3.24.3a15.55,15.55,0,0,1-4.75-.14,29.68,29.68,0,0,1-2.92-.74l-.09,0c-1.12-.32-2.26-.61-3.4-.84a20.66,20.66,0,0,0-4.26-.44c-4.18,0-7.49,1.3-9.82,3.85a19.69,19.69,0,0,0-4.27,8.81l0,.07a21.18,21.18,0,0,0-.56,4.69,25.89,25.89,0,0,0,.28,3.9,14.26,14.26,0,0,1,.15,2.2,27.37,27.37,0,0,1-.21,3.46c-.14,1.16-.35,2.32-.6,3.44s-.56,2.45-.88,3.69-.69,2.74-1,4.18c-2.68,10.81-5.52,21.68-8.41,32.31s-5.76,21.61-8.48,32.57l0,.09c-.18.77-.33,1.59-.44,2.43a19.82,19.82,0,0,0-.2,2.76,13.13,13.13,0,0,0,2,7.23c1,1.61,3.53,4.31,8.75,4.31a10.94,10.94,0,0,0,6.25-1.94,13.39,13.39,0,0,0,4.18-4.61l.34-.61.17-.67c.13-.56.35-1.38.65-2.49s.66-2.4,1.06-3.82.84-3,1.29-4.6.89-3.15,1.31-4.61.84-2.92,1.18-4.19l.79-3,2.92-11.51.25.09,1.29.46,1.35-.24c1.16-.2,2.39-.45,3.65-.73a12.94,12.94,0,0,1,2.83-.27h1.08a13.23,13.23,0,0,1,5.37,1.19,28.15,28.15,0,0,1,6.11,3.67,37.9,37.9,0,0,1,5.82,5.68,64.49,64.49,0,0,1,5.25,7.27,54.27,54.27,0,0,1,3.62,7c1.11,2.61,2.2,5,3.25,7.11a27.44,27.44,0,0,0,3.91,6,10.49,10.49,0,0,0,8.06,3.63,11.81,11.81,0,0,0,5.51-1.35,13.76,13.76,0,0,0,4-3.21,15.47,15.47,0,0,0,2.52-4.16,13.3,13.3,0,0,0-.4-10.91c-2.3-4.85-4.55-9.13-6.69-12.73a106.42,106.42,0,0,0-6.34-9.56,66.81,66.81,0,0,0-6.08-7.05,50.18,50.18,0,0,0-5.94-5.06c-.76-.54-1.52-1.06-2.28-1.54,1.81-1,3.69-2,5.6-3C747.58,168,749.44,166.88,751.05,165.79Zm-39.85-6.3q1.14-4,2.28-7.92c.77-2.62,1.48-5.09,2.15-7.38s1.27-4.32,1.81-6.12c.17-.56.33-1.09.48-1.57a41.89,41.89,0,0,1,6.75-1.43,78.18,78.18,0,0,1,9.66-.61c1.77,0,3.72.08,5.8.24a25.92,25.92,0,0,1,5.1.86,7.61,7.61,0,0,1,2.71,1.3,1,1,0,0,1,0,.2,4.64,4.64,0,0,1-1.14,2.46,31,31,0,0,1-4.93,4.94,68.73,68.73,0,0,1-7.45,5.26c-2.87,1.77-5.79,3.44-8.66,5s-5.64,2.88-8.25,4-4.78,2.06-6.51,2.68l-.41.15Z" style="fill: #fff"/>
            <path d="M683.62,230.37c-5.93,0-8.82-3.13-10-5a14.65,14.65,0,0,1-2.28-8,21.29,21.29,0,0,1,.21-3c.12-.88.28-1.74.47-2.56l0-.11c2.73-11,5.58-21.93,8.49-32.61s5.72-21.46,8.41-32.27c.33-1.43.68-2.85,1-4.19s.62-2.46.88-3.65.43-2.18.58-3.3a26.28,26.28,0,0,0,.19-3.27,12.66,12.66,0,0,0-.13-2,26.35,26.35,0,0,1-.3-4.13,22.53,22.53,0,0,1,.6-5,21.29,21.29,0,0,1,4.64-9.56c2.63-2.87,6.31-4.33,10.93-4.33a22.28,22.28,0,0,1,4.57.47c1.16.24,2.34.53,3.51.87l.1,0c.9.27,1.83.51,2.79.7a14.26,14.26,0,0,0,4.29.12q1.44-.15,3.27-.3c1.21-.1,2.61-.2,4.31-.3s3.9-.15,6.45-.15c1.45,0,3.16.05,5.08.15a57.48,57.48,0,0,1,6.44.73,49.9,49.9,0,0,1,6.87,1.7,31.27,31.27,0,0,1,7.15,3.33,26.68,26.68,0,0,1,6.19,5.43,22.83,22.83,0,0,1,4.29,8.16,26.3,26.3,0,0,1,.9,4.06,26.85,26.85,0,0,1,.24,3.53,25.19,25.19,0,0,1-3,11.74,43.12,43.12,0,0,1-8,10.67,72.69,72.69,0,0,1-10.9,8.72c-1.63,1.11-3.54,2.26-5.65,3.42-1.15.63-2.29,1.25-3.4,1.84l.23.17a50.52,50.52,0,0,1,6.12,5.21,67.87,67.87,0,0,1,6.23,7.22,107.86,107.86,0,0,1,6.43,9.69c2.16,3.64,4.44,8,6.76,12.86a14.8,14.8,0,0,1,.43,12.11,16.77,16.77,0,0,1-2.77,4.57,15,15,0,0,1-4.45,3.56,13.27,13.27,0,0,1-6.21,1.53,11.9,11.9,0,0,1-9.18-4.14,28.8,28.8,0,0,1-4.13-6.32c-1.06-2.13-2.17-4.56-3.29-7.2a53.12,53.12,0,0,0-3.52-6.79,63.11,63.11,0,0,0-5.12-7.09,36.68,36.68,0,0,0-5.59-5.45,26.89,26.89,0,0,0-5.78-3.49,11.94,11.94,0,0,0-4.78-1.06h-1.08a11.3,11.3,0,0,0-2.51.24c-1.27.28-2.52.53-3.72.74l-1.73.3-.36-.13-3.31,12.88c-.35,1.29-.74,2.7-1.19,4.22s-.85,3-1.3,4.6-.89,3.17-1.3,4.61-.75,2.68-1.05,3.8-.51,1.91-.65,2.46l-.22.87-.43.78a15,15,0,0,1-4.65,5.13A12.51,12.51,0,0,1,683.62,230.37Zm23.71-120c-3.75,0-6.68,1.13-8.72,3.36a18.37,18.37,0,0,0-3.91,8.15,19.79,19.79,0,0,0-.54,4.41,23.94,23.94,0,0,0,.26,3.66,16.29,16.29,0,0,1,.17,2.44,28.64,28.64,0,0,1-.22,3.65c-.15,1.21-.36,2.41-.62,3.57s-.58,2.49-.9,3.75-.69,2.72-1,4.14c-2.7,10.86-5.53,21.74-8.42,32.36s-5.76,21.61-8.48,32.54c-.18.8-.32,1.57-.43,2.36a18.58,18.58,0,0,0-.18,2.56,11.68,11.68,0,0,0,1.81,6.42c.86,1.35,3,3.62,7.49,3.62a9.55,9.55,0,0,0,5.41-1.68,11.85,11.85,0,0,0,3.71-4.1l.24-.43.12-.49c.14-.56.36-1.39.66-2.51s.66-2.41,1.07-3.84l1.29-4.6c.45-1.61.89-3.15,1.31-4.62s.83-2.9,1.17-4.16l.79-2.95,3.33-13.12,2.71,1,1-.16c1.15-.2,2.35-.44,3.58-.72a14.7,14.7,0,0,1,3.16-.31h1.08a14.78,14.78,0,0,1,6,1.31,30.11,30.11,0,0,1,6.43,3.87,39,39,0,0,1,6,5.9,65.76,65.76,0,0,1,5.37,7.43,56.32,56.32,0,0,1,3.73,7.2c1.1,2.59,2.18,5,3.22,7a25.63,25.63,0,0,0,3.69,5.67,9,9,0,0,0,6.93,3.13,10.28,10.28,0,0,0,4.81-1.18,11.93,11.93,0,0,0,3.57-2.86,13.71,13.71,0,0,0,2.27-3.74,11.84,11.84,0,0,0-.35-9.69c-2.29-4.82-4.52-9.06-6.64-12.63a103,103,0,0,0-6.25-9.41,62.86,62.86,0,0,0-5.94-6.89,47.17,47.17,0,0,0-5.75-4.91c-.74-.53-1.49-1-2.22-1.5l-2.18-1.4,2.3-1.19c1.79-.94,3.66-1.94,5.56-3s3.87-2.22,5.43-3.28h0a69.48,69.48,0,0,0,10.45-8.36,40.18,40.18,0,0,0,7.45-9.92,22.16,22.16,0,0,0,2.65-10.35,24.35,24.35,0,0,0-.21-3.14,22.84,22.84,0,0,0-.81-3.58,19.77,19.77,0,0,0-3.72-7.11,23.11,23.11,0,0,0-5.49-4.81,28.45,28.45,0,0,0-6.46-3,47.15,47.15,0,0,0-6.46-1.59,53.41,53.41,0,0,0-6.09-.7c-1.87-.09-3.53-.14-4.92-.14-2.49,0-4.6.05-6.27.15s-3.05.19-4.24.29l-3.2.29a16.75,16.75,0,0,1-5.21-.16c-1.05-.21-2.08-.47-3.06-.77-1.15-.33-2.26-.61-3.36-.84A19.75,19.75,0,0,0,707.33,110.38Zm1,53.61,1.41-4.92q1.15-4,2.29-7.92l2.15-7.38c.67-2.28,1.27-4.33,1.82-6.14l.7-2.33.78-.23a43,43,0,0,1,7-1.49,79.3,79.3,0,0,1,9.85-.62c1.8,0,3.79.09,5.92.25a26.67,26.67,0,0,1,5.39.91,9,9,0,0,1,3.24,1.57l.47.37.08.6a3.59,3.59,0,0,1,0,.4,5.92,5.92,0,0,1-1.45,3.37,32.34,32.34,0,0,1-5.17,5.19,70.89,70.89,0,0,1-7.62,5.38c-2.9,1.79-5.84,3.47-8.74,5s-5.69,2.91-8.34,4.09-4.85,2.1-6.61,2.73Zm10.78-26.27-.24.78c-.54,1.8-1.15,3.84-1.81,6.11L714.92,152l-2,7.1c1.2-.49,2.55-1.07,4-1.73,2.58-1.16,5.33-2.51,8.16-4s5.72-3.15,8.57-4.91a66.75,66.75,0,0,0,7.29-5.14,29.19,29.19,0,0,0,4.69-4.7,6.37,6.37,0,0,0,.66-1,8.29,8.29,0,0,0-1.45-.56,24.61,24.61,0,0,0-4.81-.8c-2-.16-4-.24-5.69-.24a75.3,75.3,0,0,0-9.48.6A38.3,38.3,0,0,0,719.12,137.72Z"/>
          </g>
        </g>
        <path d="M452.28,151a2.56,2.56,0,0,1-1.24-.33,2.51,2.51,0,0,1-.93-3.41c4.27-7.48,5.24-13.74,2.9-18.63-4.07-8.49-17-10.64-17.09-10.66a2.5,2.5,0,1,1,.78-4.94c.63.1,15.58,2.55,20.81,13.42,3.11,6.45,2.08,14.29-3.06,23.29A2.49,2.49,0,0,1,452.28,151Z" style="fill: #fff"/>
        <path d="M556.12,153a2.53,2.53,0,0,1-1.24-.33,2.49,2.49,0,0,1-.93-3.41c4.26-7.48,5.24-13.74,2.9-18.63-4.08-8.49-17-10.64-17.1-10.66a2.5,2.5,0,0,1,.78-4.94c.64.1,15.59,2.55,20.81,13.42,3.11,6.45,2.08,14.29-3.05,23.29A2.49,2.49,0,0,1,556.12,153Z" style="fill: #fff"/>
        <path d="M761.79,152a2.51,2.51,0,0,1-2.17-3.74c4.27-7.48,5.24-13.74,2.9-18.63-4.07-8.49-17-10.64-17.09-10.66a2.5,2.5,0,1,1,.78-4.94c.63.1,15.58,2.55,20.81,13.42,3.11,6.45,2.08,14.29-3,23.29A2.51,2.51,0,0,1,761.79,152Z" style="fill: #fff"/>
        <path d="M657,190a2.5,2.5,0,0,1-2.31-3.46c8.56-20.49,10.21-37.26,4.79-48.49-4.65-9.64-12.79-12-13.13-12.14a2.5,2.5,0,0,1,1.32-4.82c.43.12,10.56,3,16.25,14.65,6.22,12.75,4.67,30.48-4.61,52.72A2.5,2.5,0,0,1,657,190Z" style="fill: #fff"/>
      </g>
      <g id="e8773405-7b97-4c03-977e-681da62d203e" data-name="woman">
        <g id="a2fcfb52-6392-4ab3-92c5-2e4f679630a1" data-name="woman">
          <g>
            <path d="M584.46,525.51s79.34-6.56,147.77,32S904.16,656.31,878.5,712,806.11,782.51,769,782.49c-23.91,0-59.74-21-59.74-21S730.53,820.35,709,913l-372,.15s-23.13-280.21,84.67-361.8" style="fill: #07acee"/>
            <path d="M335.63,914.65l-.11-1.37a958.76,958.76,0,0,1,1.91-150.58C341.91,716,350,675.32,361.56,641.81,376,599.79,396,569,420.78,550.15l1.81,2.4c-24.35,18.42-43.92,48.78-58.19,90.22-11.46,33.27-19.52,73.71-24,120.18-7,73.09-2.76,138.49-2,148.7l369.41-.15c20.72-90.42.26-148.9.05-149.49l-1.41-3.89,3.57,2.09c.36.21,35.76,20.78,59,20.78h0c28.41,0,80.18-9,108.09-69.61,11-24-1.22-50.75-37.47-81.91-30.21-26-71.68-50.1-108.18-70.66-67.22-37.87-146.11-31.87-146.9-31.81l-.25-3c.8-.07,80.58-6.15,148.63,32.19,36.62,20.63,78.23,44.83,108.66,71,17.08,14.68,29.12,28.79,35.8,41.92,7.83,15.39,8.65,30,2.43,43.52C851.26,774.71,798.18,784,769.05,784h0c-20,0-47.7-14.13-57.19-19.33,4.12,14.32,17,69.57-1.36,148.68l-.27,1.16Z"/>
          </g>
          <path d="M706,546.92S639.49,573,684.42,632c34.74,45.63,44,48.47,44,48.47l9-118.33Z" style="fill: #0598c6"/>
          <g>
            <path d="M478.87,473.89s-.84,34.74-25.67,28.72-77.83-19.37-90.26,17.73-8.25,44.22-35.75,44.93-74.78,50-13.48,96.83S528.46,506.94,528.46,506.94l-4.75-21Z" style="fill: #382256"/>
            <path d="M478.87,473.89l44.84,12.05,4.75,21S405.25,669.16,335.53,669.16a34.94,34.94,0,0,1-21.82-7.06c-61.3-46.86-14-96.12,13.48-96.83s23.33-7.83,35.75-44.93c6.54-19.52,24.32-25.07,43.31-25.07,17.1,0,35.19,4.5,46.95,7.34a23.26,23.26,0,0,0,5.49.7c19.46,0,20.18-29.42,20.18-29.42m0-3a3,3,0,0,0-1.8.6,3,3,0,0,0-1.2,2.33c0,.41-.92,26.49-17.18,26.49a20.27,20.27,0,0,1-4.78-.61l-1-.23c-11.83-2.87-29.7-7.2-46.71-7.2-24.59,0-40.12,9.12-46.15,27.12-2.34,7-4.06,12.79-5.57,17.91-6.41,21.66-7.24,24.45-27.42,25-15.7.4-37.18,15.25-44.11,36.71-4.2,13-6,38.8,28.89,65.51a38,38,0,0,0,23.64,7.67c16.54,0,37.16-8.72,61.29-25.91,19-13.55,40.39-32.43,63.46-56.1a996.59,996.59,0,0,0,70.57-81.39,3,3,0,0,0,.54-2.48l-4.76-21a3,3,0,0,0-2.14-2.23L479.64,471a2.91,2.91,0,0,0-.77-.1Z"/>
          </g>
          <path d="M307.23,656.78C313,599.66,404.09,541,433.19,532.4s64.22-22.66,69.51-35-15.35-18-15.35-18l6.19-1.62,30.17,8.11,4.75,21S375,709,313.71,662.1C311.39,660.33,309.24,658.55,307.23,656.78Z" style="fill: #050505"/>
          <g>
            <path d="M527.05,531.88s-81.37.63-147.26,58.63c-55,48.37-115.73,168.42-111.2,219.83s36.28,70.68,104.29,60,122.43-25.7,113.36-62.11l18.14-10.71-29.47-79.26-11.34,4.29S450,696.81,411.43,714s-68,27.85-68,27.85" style="fill: #07acee"/>
            <path d="M340.12,874.66c-21.68,0-38.18-4.59-50-13.83-13.44-10.52-21-27-23-50.36-2.15-24.4,10.35-66.22,33.44-111.86s52.3-86.39,78.26-109.23c34.26-30.16,72.72-44.59,99-51.39,28.43-7.37,49.08-7.61,49.28-7.61a1.5,1.5,0,0,1,0,3c-.81,0-81.6,1.31-146.29,58.25C355.09,614.24,326.1,654.74,303.21,700S268,786.34,270.08,810.21c2,22.49,9.15,38.27,21.9,48.25,16.51,12.93,42.9,16.32,80.67,10.37,45.81-7.21,94.57-17.5,108.85-39.09,4.19-6.33,5.26-13.26,3.29-21.18a1.51,1.51,0,0,1,.69-1.66l17.06-10.07L474,720.17l-9.93,3.75a1.49,1.49,0,0,1-1.85-.7c-.53-1-13.49-24.23-50.22-7.9-38.15,17-67.82,27.78-68.11,27.89a1.5,1.5,0,0,1-1-2.83c.29-.1,29.87-10.89,67.92-27.8,34.58-15.37,50,3.18,53.37,8.1l10.19-3.85a1.48,1.48,0,0,1,1.15,0,1.5,1.5,0,0,1,.78.84L505.79,797a1.51,1.51,0,0,1-.65,1.82L488,808.93A28.36,28.36,0,0,1,484,831.4c-14.93,22.56-64.43,33.08-110.88,40.4A214.57,214.57,0,0,1,340.12,874.66Z"/>
          </g>
          <g>
            <path d="M735.11,694.1c-6.31-20.46-31.61-38.64-43.52-81.59S734.8,555.2,734.8,555.2l-1.72-14.26s36.11,10.88,75.26-16L819,542.16S864,556,863.8,594.64s34.9,74,14.29,118.89" style="fill: #07acee"/>
            <path d="M734.61,695.51a1.5,1.5,0,0,1-.93-1c-2.45-7.94-8-15.71-14.37-24.72-9.78-13.75-21.94-30.86-29.16-56.9-3.13-11.29-2-21.69,3.27-30.9,10.5-18.25,34-26.19,39.74-27.91l-1.57-13a1.51,1.51,0,0,1,1.92-1.62c.36.11,35.92,10.33,74-15.83a1.54,1.54,0,0,1,1.16-.23,1.49,1.49,0,0,1,1,.68L820,540.91c5.19,1.77,45.52,16.82,45.35,53.74-.06,14.46,4.85,28.3,10.05,42.94,8.41,23.7,17.11,48.2,4.1,76.56a1.49,1.49,0,0,1-2,.74,1.51,1.51,0,0,1-.74-2c12.5-27.25,4-51.17-4.21-74.3-5-14.25-10.28-29-10.21-44,.16-37.07-43.35-50.91-43.79-51a1.41,1.41,0,0,1-.83-.64L807.88,527c-33.34,22.25-64.68,17.67-73,15.87L736.28,555a1.5,1.5,0,0,1-1.11,1.64c-.28.07-28,7.51-39.16,26.87-4.88,8.49-5.88,18.1-3,28.58,7.08,25.54,19.08,42.42,28.72,56,6.55,9.22,12.2,17.18,14.79,25.58a1.5,1.5,0,0,1-1,1.88A1.53,1.53,0,0,1,734.61,695.51Z"/>
          </g>
          <g>
            <path d="M508.81,532.87s-13.21,26.64,17.75,33.64,36.94-9,36.94-9,21,20,39.93,3-4-35-4-35Z" style="fill: #fff"/>
            <path d="M541,569.79A67.21,67.21,0,0,1,526.23,568c-10-2.25-16.59-6.74-19.72-13.32-4.92-10.36.72-22,1-22.45a1.52,1.52,0,0,1,1.22-.83L599.32,524a1.49,1.49,0,0,1,1,.31c.48.38,11.69,9.29,12.07,20.9.19,5.95-2.5,11.47-8,16.4-16.81,15.07-35.21,2.47-40.49-1.76C561.84,563.17,555.8,569.79,541,569.79Zm-31.2-35.5c-1.09,2.61-4.23,11.45-.6,19.09,2.72,5.7,8.66,9.63,17.67,11.66,29.13,6.59,35-7.47,35.21-8.07a1.5,1.5,0,0,1,2.43-.55c.82.77,20.21,18.83,37.91,3,4.8-4.31,7.16-9,7-14.06-.29-9-8.49-16.56-10.49-18.28Z"/>
          </g>
          <path d="M817.73,543.15c.08-.11-10.07-16.36-10.07-16.36-39.15,26.91-73,15.76-73,15.76L736,556.84l-.31-.64S782.26,587,817.73,543.15Z" style="fill: #0598c6"/>
          <path d="M462.66,724.51s-12,38,22,82l18-10-28.95-76Z" style="fill: #0598c6"/>
          <ellipse cx="460.13" cy="582.5" rx="8.12" ry="8.14" style="fill: #51cef4"/>
          <ellipse cx="356.29" cy="670.5" rx="8.12" ry="8.14" style="fill: #51cef4"/>
          <ellipse cx="482.09" cy="673.5" rx="8.12" ry="8.14" style="fill: #51cef4"/>
          <ellipse cx="651.83" cy="590.5" rx="8.12" ry="8.14" style="fill: #51cef4"/>
          <ellipse cx="582.93" cy="635.5" rx="8.12" ry="8.14" style="fill: #51cef4"/>
          <ellipse cx="335.33" cy="777.5" rx="8.12" ry="8.14" style="fill: #51cef4"/>
          <ellipse cx="372.27" cy="832.5" rx="8.12" ry="8.14" style="fill: #51cef4"/>
          <ellipse cx="430.18" cy="766.5" rx="8.12" ry="8.14" style="fill: #51cef4"/>
          <ellipse cx="740.69" cy="632.5" rx="8.12" ry="8.14" style="fill: #51cef4"/>
          <ellipse cx="788.61" cy="610.5" rx="8.12" ry="8.14" style="fill: #51cef4"/>
          <ellipse cx="843.52" cy="673.5" rx="8.12" ry="8.14" style="fill: #51cef4"/>
          <ellipse cx="796.6" cy="747.5" rx="8.12" ry="8.14" style="fill: #51cef4"/>
          <ellipse cx="536.01" cy="876.5" rx="8.12" ry="8.14" style="fill: #51cef4"/>
          <ellipse cx="635.85" cy="777.5" rx="8.12" ry="8.14" style="fill: #51cef4"/>
          <ellipse cx="676.79" cy="882.5" rx="8.12" ry="8.14" style="fill: #51cef4"/>
          <g>
            <path d="M853.54,460.76s23.63,50.94-54.35,82.1c0,0-43,15.06-65-4.09l-.24-5.58s-32-17.59-27.42-39c0,0,22-8.81,48.72,15.72,0,0,11.64-39.66,52.87-41.49,0,0,16.27-10.79,23.36-2.16C831.45,466.22,838.8,455.83,853.54,460.76Z" style="fill: #ffcdb2"/>
            <path d="M845,459.45a23.69,23.69,0,0,1,8.57,1.31s23.63,50.94-54.35,82.1a116.59,116.59,0,0,1-29.74,5.54c-12.22.54-25.72-1.33-35.29-9.63l-.24-5.58s-32-17.59-27.42-39a27.91,27.91,0,0,1,8.5-1.5c8.8-.4,23.57,2,40.22,17.22,0,0,11.64-39.66,52.87-41.49,0,0,7.8-5.17,14.95-5.49,3.18-.14,6.23.67,8.41,3.33A18.2,18.2,0,0,1,845,459.45m-.13-3A21.46,21.46,0,0,0,831.26,462a13.53,13.53,0,0,0-8.35-2.14c-6.65.3-13.53,4.18-15.76,5.53a58.29,58.29,0,0,0-43.32,22.53,71.86,71.86,0,0,0-9.92,16.8c-15.77-13.12-29.8-15.51-39-15.1a31.43,31.43,0,0,0-9.49,1.71,3,3,0,0,0-1.82,2.17C699.06,514.33,724.39,531,731,535l.17,3.93a3.05,3.05,0,0,0,1,2.15c8.75,7.59,21.33,11.08,37.39,10.37a119.16,119.16,0,0,0,30.61-5.71l.12-.05c29.28-11.7,48.05-27.52,55.79-47,8.35-21.06.51-38.41.17-39.14a3,3,0,0,0-1.78-1.59,26.59,26.59,0,0,0-9.65-1.46Z"/>
          </g>
          <path d="M761.65,527h.08a1.52,1.52,0,0,0,1.35-1.65c0-.19-.28-4.12,3.56-8.17,4.19-4.42,13.92-9.54,36.5-8.8a1.52,1.52,0,0,0,1.37-.79c.14-.26,14.55-26.42,28.08-42.38a1.51,1.51,0,1,0-2.29-2c-12.38,14.6-25.42,37.51-28,42.08-18.63-.48-31.4,2.84-38,9.88-4.74,5.08-4.29,10.22-4.27,10.44A1.5,1.5,0,0,0,761.65,527Z"/>
          <path d="M781.73,503.49a1.51,1.51,0,0,0,1.36-1c.06-.17,6.09-16.91,25.94-34.09a1.51,1.51,0,0,0-2-2.28c-20.5,17.74-26.57,34.66-26.82,35.37a1.51,1.51,0,0,0,.93,1.92A1.55,1.55,0,0,0,781.73,503.49Z"/>
          <g>
            <g>
              <path d="M530.18,478.45s7.81,35.9-4.57,53.36c0,0,36.5,34.69,60.84-4.78,0,0-24.31-39.31-19-51.51S530.18,478.45,530.18,478.45Z" style="fill: #ffcdb2"/>
              <path d="M557.46,547.41c-17.4,0-32.21-13.87-32.88-14.51l-.94-.89.75-1.06c11.85-16.72,4.4-51.83,4.32-52.18l-.28-1.29,1.25-.44c5.55-2,33.51-11.54,38.71-6,.81.87,1.54,2.46.41,5.06-4.08,9.41,12.28,39.37,18.93,50.12l.49.79-.49.79c-7.08,11.49-15.9,18-26.21,19.33A31.08,31.08,0,0,1,557.46,547.41Zm-29.87-15.85c3.77,3.23,18.29,14.6,33.56,12.61,9.13-1.19,17-7,23.54-17.15-4.08-6.69-23.82-40.14-18.64-52.09.27-.62.51-1.43.15-1.82-2.51-2.68-19.17,1.06-34.29,6.32C533.18,486,538,515.21,527.59,531.56Z" style="fill: #1d1d1b"/>
            </g>
            <g>
              <ellipse cx="536.01" cy="347.74" rx="38.67" ry="38.73" style="fill: #382256"/>
              <path d="M535.94,388A40.18,40.18,0,0,1,496,351.63a40.17,40.17,0,1,1,43.88,36.15C538.58,387.91,537.25,388,535.94,388Zm.14-77.47c-1.22,0-2.44.06-3.67.18a37.25,37.25,0,0,0-20,65.81,36.84,36.84,0,0,0,27.21,8.3,37.23,37.23,0,0,0-3.53-74.29Z" style="fill: #1d1e1b"/>
            </g>
            <g>
              <path d="M576,359.75c-18.48-26.5-61.21-16.22-70.92-2.81-24.14,33.31-52.31,21.46-53.84,54.78-.77,16.73,14.46,21.59,10.75,52.46-1.91,15.92,26.8,37.19,50.59,34.87s78.69,14.29,105.55-17.46c12.14-14.34,30.94-57.21,5.83-88.37C598.63,361.72,584,371.24,576,359.75Z" style="fill: #382256"/>
              <path d="M563.17,502.84c-9.3,0-18.43-.75-26.61-1.43-9.49-.79-17.69-1.47-23.79-.87-16.7,1.63-34.25-7.8-43.48-17.24-6.35-6.5-9.46-13.35-8.75-19.3,2.15-17.83-2.15-26.69-5.93-34.5-2.66-5.47-5.16-10.64-4.83-17.85.89-19.34,10.51-24.23,22.7-30.42,9.78-5,20.88-10.62,31.42-25.17,6-8.3,22.25-14.44,37.8-14.3,15.33.14,28,6.22,35.57,17.13h0c2.77,4,6.44,5.19,11.53,6.87,8.61,2.83,20.41,6.71,36.37,26.52,25.74,32,6.76,75.38-5.85,90.28C605.31,499.12,583.81,502.84,563.17,502.84Zm-45.11-5.53c5.39,0,11.72.53,18.74,1.11,25.71,2.13,60.91,5,80.23-17.79,6.12-7.24,13.61-21.55,16.55-37.19,2.49-13.3,2.65-32.65-10.75-49.28-15.4-19.11-26.71-22.84-35-25.55-5.21-1.72-9.71-3.2-13.06-8-7-10.09-18.8-15.72-33.13-15.85-16.07-.15-30.6,6.52-35.34,13.06-11,15.14-22.9,21.21-32.5,26.08-11.75,6-20.24,10.29-21.05,27.89-.3,6.45,1.94,11.06,4.53,16.4,4,8.18,8.46,17.46,6.21,36.17-.6,5,2.21,11,7.91,16.84,8.76,8.95,25.33,17.89,41.05,16.35C514.2,497.39,516.07,497.31,518.06,497.31Z" style="fill: #1d1e1b"/>
            </g>
            <path d="M557.8,426.6c-19.29,5.25-46.07-1.85-50.2,5.38s-.17,16.4,10.53,18.12,21.18.82,42.56-2.08,42.12-7.33,39-18.69S586.16,418.87,557.8,426.6Z" style="fill: #ffb49f"/>
            <g>
              <path d="M540.94,371.14c-4.66,31.26-34,48.25-50.59,51.42-2.77,9.66.33,22,1.39,33,3.91,40.17,28.6,67.09,66.83,60.7,37.32-6.22,55-29.68,50.22-73.88-1.12-10.43-1.72-20.83-5.95-29.48C570.91,415.84,540.94,371.14,540.94,371.14Z" style="fill: #ffcdb2"/>
              <path d="M547.73,518.66c-12.12,0-23.07-3.55-32.12-10.5-14.12-10.82-23.12-29.46-25.36-52.48-.26-2.71-.65-5.46-1.05-8.37-1.21-8.66-2.45-17.62-.29-25.17l.25-.88.91-.18c17.91-3.42,45.08-21.24,49.38-50.17l.57-3.83,2.16,3.22c.29.43,28,41.21,57.6,41.21a28.68,28.68,0,0,0,2.92-.14l1-.09.46.93c3.84,7.86,4.79,17.21,5.71,26.26.12,1.24.25,2.48.38,3.72,2.37,22.1-.86,39.67-9.6,52.2-8.55,12.27-22.63,20.11-41.86,23.32A66.55,66.55,0,0,1,547.73,518.66Zm-56.17-94.82c-1.65,6.78-.5,15.05.61,23.06.39,2.81.8,5.72,1.07,8.49,2.15,22.18,10.75,40.08,24.19,50.39,11.07,8.49,25.21,11.59,40.9,9,37.49-6.26,53.51-29.89,49-72.25l-.39-3.74c-.89-8.81-1.73-17.15-5-24.33-.73.05-1.46.07-2.19.07-26.68,0-50.82-29.89-58-39.59C535.56,404.17,508.47,420.23,491.56,423.84Z" style="fill: #1d1d1b"/>
            </g>
            <path d="M554.05,429.38c-22.95,6.49-55-1.67-59.82,7s0,19.57,12.77,21.5,25.27.72,50.75-3,50.15-9.24,46.34-22.75S587.79,419.83,554.05,429.38Z" style="fill: #ffb49f"/>
            <path d="M550.44,465.9a1.5,1.5,0,0,1-1.49-1.35L545.89,433a1.5,1.5,0,1,1,3-.29l3.07,31.54a1.51,1.51,0,0,1-1.35,1.64Z"/>
            <path d="M508.24,340.16a2.71,2.71,0,0,1-.79-.12,2.5,2.5,0,0,1-1.58-3.16c.25-.76,6.36-18.48,28-22.05a2.5,2.5,0,1,1,.81,4.93c-18.73,3.09-24.05,18.53-24.11,18.69A2.48,2.48,0,0,1,508.24,340.16Z" style="fill: #fff"/>
            <path d="M514.37,436.85a20.37,20.37,0,0,1-7.54-1.43,1.51,1.51,0,0,1-.85-1.95,1.49,1.49,0,0,1,1.94-.84c13.16,5.17,26.3-8.17,26.43-8.31a1.5,1.5,0,0,1,2.16,2.08C536,426.91,526.26,436.85,514.37,436.85Z"/>
            <path d="M567.53,416.2c-5.18,0-12.34-1.66-18.9-8.87a1.5,1.5,0,1,1,2.21-2c10.64,11.69,22.45,7.11,22.95,6.91a1.51,1.51,0,0,1,2,.83,1.49,1.49,0,0,1-.81,1.95A21.66,21.66,0,0,1,567.53,416.2Z"/>
            <ellipse cx="523.29" cy="446.48" rx="3.91" ry="3.92"/>
            <ellipse cx="572.54" cy="439.2" rx="3.91" ry="3.92"/>
          </g>
          <path d="M711.87,764a1.5,1.5,0,0,1-.81-.24c-25-16-42.72-51.1-43.46-52.59a1.5,1.5,0,0,1,2.68-1.34c.18.36,18.09,35.82,42.4,51.41a1.5,1.5,0,0,1-.81,2.76Z"/>
          <g>
            <path d="M531.49,693.41c8-20.16.68-29.67-17.57-21.08s-35.76,54-35.76,54l27.7,67.67" style="fill: #ffcdb2"/>
            <path d="M504,794.8l-28-68.4.28-.74c.73-1.88,18-46.31,36.77-55.14,11.49-5.4,17.32-3.31,20.2-.6,4.56,4.29,4.6,12.9.09,24.23l-3.72-1.48c3.75-9.42,4.08-16.84.89-19.84-2.79-2.62-8.38-2.16-15.75,1.31-16.1,7.57-32.12,46.39-34.45,52.23l27.39,66.92Z" style="fill: #1d1e1b"/>
          </g>
          <g>
            <path d="M506.2,790.5l9.42-4.08s11.18,6.28,40.53-.1c46.38-10.08,31.64-44.3,31.64-44.3,8.27-20.52-6.63-30.8-6.63-30.8s4.11-25-15.06-29.72c-20.82-5.08-42.2,9.37-58.9,25.34" style="fill: #ffcdb2"/>
            <path d="M506.79,791.88l-1.19-2.76,10.11-4.37.64.37c.1,0,11.23,5.88,39.48-.26,15.17-3.3,25.21-9.53,29.83-18.52,5.91-11.47.81-23.61.76-23.73l-.25-.57.23-.58c7.73-19.19-5.95-28.91-6.09-29l-.78-.54.15-.94c.16-1,3.65-23.72-13.93-28-16.6-4.05-36,4.35-57.51,25l-2.07-2.17c22.34-21.37,42.63-30,60.29-25.72,18.15,4.43,16.81,25.87,16.29,30.53,3,2.52,13.72,13.15,6.66,31.44,1,2.75,4.76,14.35-1.08,25.71-5.05,9.82-15.77,16.57-31.86,20.07-25.89,5.63-38,1.56-40.88.28Z" style="fill: #1d1e1b"/>
          </g>
          <path d="M538.34,722.63a1.5,1.5,0,0,1-.86-2.74c21.34-14.76,42.9-9.91,43.81-9.69a1.5,1.5,0,0,1-.69,2.92,56.41,56.41,0,0,0-41.41,9.24A1.5,1.5,0,0,1,538.34,722.63Z" style="fill: #1d1d1b"/>
          <path d="M549.91,753.22c-1.87,0-3.75-.08-5.66-.26a1.5,1.5,0,0,1,.29-3c21.59,2,42.32-9.45,42.53-9.56a1.5,1.5,0,1,1,1.47,2.61C587.74,743.47,570.18,753.22,549.91,753.22Z" style="fill: #1d1d1b"/>
          <path d="M572.09,490a1.51,1.51,0,0,1-1.32-.79c-2.19-4.12-4.58-6.29-7.08-6.43-3.88-.22-7.3,4.52-7.34,4.57a1.5,1.5,0,1,1-2.46-1.7c.17-.26,4.34-6.19,10-5.86,3.62.2,6.84,2.9,9.56,8a1.5,1.5,0,0,1-.62,2A1.53,1.53,0,0,1,572.09,490Z"/>
        </g>
        <g>
          <path d="M796.74,539a2.5,2.5,0,0,1-1-4.81c52.55-22,53.38-57.34,53.38-57.7a2.5,2.5,0,0,1,5,0c0,1.58-.64,38.93-56.45,62.31A2.49,2.49,0,0,1,796.74,539Z" style="fill: #fff"/>
          <path d="M327,867.5h-.27c-19.68-2.15-34.95-13.31-44.16-32.27a85.37,85.37,0,0,1-8-28,2.5,2.5,0,1,1,5-.38,82.09,82.09,0,0,0,7.56,26.36c8.55,17.5,22.06,27.38,40.14,29.34a2.5,2.5,0,0,1-.27,5Z" style="fill: #fff"/>
          <path d="M864.13,723.5a2.6,2.6,0,0,1-1.25-.33,2.51,2.51,0,0,1-.91-3.42c19.52-33.87,2.59-68.79,2.42-69.14a2.5,2.5,0,1,1,4.47-2.23c.76,1.52,18.34,37.62-2.56,73.87A2.52,2.52,0,0,1,864.13,723.5Z" style="fill: #fff"/>
          <path d="M547.14,727a2.5,2.5,0,0,1-1.28-4.65c.95-.56,23.47-13.68,38.57-4a2.5,2.5,0,1,1-2.71,4.2c-12.53-8.07-33.11,3.93-33.31,4A2.46,2.46,0,0,1,547.14,727Z" style="fill: #fff"/>
          <path d="M551.82,761.09c-1,0-1.91,0-2.86-.1a2.5,2.5,0,1,1,.34-5c14.2.94,32.62-6.74,32.81-6.81a2.5,2.5,0,1,1,1.94,4.6C583.3,754.12,566.6,761.09,551.82,761.09Z" style="fill: #fff"/>
        </g>
        <g>
          <path d="M542.14,683h-.07a1.51,1.51,0,0,1-1.43-1.57c0-.17.39-14.21-13.6-27-15.29-14-50.08-28.41-129-18a174.49,174.49,0,0,1-22.88,1.5c-68,0-126.38-39.62-136.74-81-7-28.17,9.39-52,45.07-65.35,55.54-20.8,95.81-18.35,119.81-12.63,26.15,6.22,38.93,17.29,39.46,17.76a1.5,1.5,0,0,1-2,2.25c-.13-.11-12.89-11.12-38.39-17.15-23.56-5.57-63.13-7.91-117.84,12.57-34.1,12.77-49.85,35.3-43.22,61.82,11.19,44.77,80.42,87.34,156.31,77.29,80.16-10.61,115.75,4.37,131.49,18.81,15,13.76,14.51,28.62,14.48,29.25A1.5,1.5,0,0,1,542.14,683Z"/>
          <path d="M799.73,697a1.73,1.73,0,0,1-.49-.08,1.5,1.5,0,0,1-.92-1.91c6.12-17.71,6.72-31.57,7.35-46.25,1.19-27.3,2.41-55.52,42.29-108.66,6.56-8.75,8.29-16.33,5.13-22.55-12.31-24.23-91.84-23.46-92.64-23.45-11.89.74-21.29-1.55-23.89-5.83a4.24,4.24,0,0,1,0-4.57c3.22-5.35,17.58-7.82,38.41-6.6a1.5,1.5,0,1,1-.18,3c-24.83-1.45-34.1,2.56-35.66,5.15a1.26,1.26,0,0,0,0,1.47c1.62,2.67,9.6,5.12,21.21,4.4,3.42-.05,82.27-.8,95.42,25.08,3.72,7.32,1.9,16-5.4,25.71-39.32,52.4-40.53,80.15-41.69,107-.62,14.25-1.26,29-7.52,47.1A1.49,1.49,0,0,1,799.73,697Z"/>
          <path d="M863.66,580.05l-1.92-2.3c31.82-26.47,45.6-48.52,41-65.55-6.08-22.31-42.63-28.49-43-28.55l.48-3c1.58.26,38.82,6.55,45.42,30.71C910.58,529.67,896.47,552.76,863.66,580.05Z"/>
          <path d="M610.55,651.29a160.29,160.29,0,0,1-19.67-1.3c-32.08-4-57.3-12.82-75-26.26-15.19-11.56-24.18-26.21-26-42.38-2.93-26.13,13.78-51.9,39.72-61.26l1,2.82c-24.65,8.9-40.53,33.34-37.76,58.11,1.71,15.33,10.29,29.27,24.82,40.32,17.24,13.12,42,21.75,73.52,25.67,34.27,4.26,58.59-2.23,70.35-18.78,13.37-18.81,8-46.06-1.5-65.3-10.25-20.77-26.12-35-39.49-35.52l.1-3c14.67.53,31.19,15.13,42.08,37.19,9.88,20,15.39,48.48,1.26,68.37C656.77,640.21,641.69,651.28,610.55,651.29Z"/>
          <path d="M713.78,534.05c-12.18,0-27.51-12.31-45.71-26.92L665,504.67c-20.51-16.44-44.91.23-66.43,14.93-3.72,2.54-7.24,4.95-10.7,7.16l-1.62-2.52c3.43-2.2,6.93-4.59,10.63-7.12,22.38-15.29,47.75-32.62,70-14.79l3.07,2.46c23.13,18.57,41.39,33.24,52.89,22.61l2,2.2A15.77,15.77,0,0,1,713.78,534.05Z"/>
          <path d="M581.08,838a1.52,1.52,0,0,1-.93-.32c-24.31-19.28-22-51.84-22-52.17a1.51,1.51,0,0,1,1.62-1.37,1.49,1.49,0,0,1,1.37,1.61c0,.31-2.15,31.31,20.88,49.57a1.5,1.5,0,0,1,.24,2.11A1.46,1.46,0,0,1,581.08,838Z"/>
          <path d="M516,817.44c-10.1,0-20.76-4-30.25-11.53-14.76-11.7-26.83-31.75-34.91-58-15.44-50.12-35.16-65.54-48.47-63.27-12.75,2.18-21.37,19.9-20.49,42.14a1.5,1.5,0,1,1-3,.12c-.95-24.15,8.5-42.74,23-45.22,18.87-3.22,38.25,21.21,51.85,65.35,16.39,53.22,46.8,71.78,69.67,66.56,13.11-3,21-13.27,19.26-25a1.5,1.5,0,1,1,3-.45c2,13.13-7.09,25.06-21.56,28.37A36.64,36.64,0,0,1,516,817.44Z"/>
          <path d="M611.38,850.31l-4.81-5.25,0,0a4.55,4.55,0,0,0,.91-6.42c-4.07-5.42-12.74-13.69-23.44-5.12-10.9,8.74-4.34,18.53,0,23.21a4.52,4.52,0,0,0,6,.53l.36-.26,5.23,5.71a2.5,2.5,0,0,0,3.69-3.38L594.52,854l8-5.93,5.16,5.64a2.5,2.5,0,0,0,3.69-3.38Z"/>
          <path d="M799.72,695.07c-18.18-6.11-20.19,16.61-20.19,16.61l3.74,1.42-2.12,8.1a2.51,2.51,0,0,0,1.79,3.06,2.72,2.72,0,0,0,.63.08,2.52,2.52,0,0,0,2.42-1.87l2-7.59,8.24,3.13-1.87,7.13a2.5,2.5,0,0,0,1.78,3.05,2.39,2.39,0,0,0,.64.08,2.48,2.48,0,0,0,2.41-1.87l1.74-6.61,5.31,2S817.91,701.18,799.72,695.07Z"/>
        </g>
        <g>
          <path d="M268.35,816.66h-.13c-49.1-4.28-81.67-28.56-82-28.81a1.5,1.5,0,1,1,1.82-2.39c.31.24,32.24,24,80.44,28.21a1.5,1.5,0,0,1-.13,3Z"/>
          <path d="M621.52,304a2,2,0,0,1-1.35-.52,2,2,0,0,1-.13-2.83l22-24a2,2,0,1,1,3,2.7l-22,24A2,2,0,0,1,621.52,304Z" style="fill: #1d1d1b"/>
          <path d="M632.5,318a2,2,0,0,1-.56-3.92l24-7a2,2,0,1,1,1.12,3.84l-24,7A2.23,2.23,0,0,1,632.5,318Z" style="fill: #1d1d1b"/>
          <path d="M436.81,304a2,2,0,0,1-1.23-.42l-30.95-24a2,2,0,0,1,2.45-3.16l30.95,24a2,2,0,0,1,.36,2.81A2,2,0,0,1,436.81,304Z" style="fill: #1d1d1b"/>
          <path d="M429.82,318l-.28,0-28-4a2,2,0,1,1,.57-4l28,4a2,2,0,0,1-.28,4Z" style="fill: #1d1d1b"/>
          <path d="M285.6,783.65c-30.4,0-60-10.84-80.73-20.84a276.91,276.91,0,0,1-45.14-27.13,1.5,1.5,0,0,1,1.84-2.37c.72.56,72.78,55.9,140.38,46.2a1.5,1.5,0,1,1,.43,3A118.43,118.43,0,0,1,285.6,783.65Z"/>
          <path d="M822.82,785h-.16l.08-3c1.5,0,37.06.46,51.47-38L877,745C862.35,784.21,825.61,785,822.82,785Z"/>
          <path d="M771.5,915h-469a1.5,1.5,0,0,1,0-3h469a1.5,1.5,0,0,1,0,3Z"/>
          <path d="M824.5,937h-84a1.5,1.5,0,0,1,0-3h84a1.5,1.5,0,0,1,0,3Z"/>
          <path d="M326.5,937h-99a1.5,1.5,0,0,1,0-3h99a1.5,1.5,0,0,1,0,3Z"/>
        </g>
      </g>
    </g>
  </g>
</svg>
