<svg xmlns="http://www.w3.org/2000/svg" width="1000" height="1000" viewBox="0 0 1000 1000">
  <g id="bc725350-2ca1-4d57-80f6-46598b13c2bc" data-name="illustration">
    <g id="bbf41699-7c49-4b86-a5df-536fc6bc4a5a" data-name="to remove">
      <g id="a8b0c45f-2d70-4ef2-8b09-5564119806c8" data-name="line">
        <path d="M921,901.08h0l-795-3.73a2,2,0,0,1,0-4h0l795,3.73a2,2,0,0,1,0,4Z"/>
        <path d="M146.13,917.86H29a1.5,1.5,0,0,1,0-3H146.13a1.5,1.5,0,0,1,0,3Z"/>
        <path d="M979.15,927.92H862a1.5,1.5,0,0,1,0-3H979.15a1.5,1.5,0,0,1,0,3Z"/>
      </g>
      <g id="a4916d76-5de0-49dc-a56a-8868892c5e8c" data-name="woman">
        <g>
          <path d="M346.41,326.83s-5.94,46.58-38.53,35.05-84.69-26.37-106.56,21.77S169.11,465.9,132,463s-89,107,8.95,143.12C301.39,665.4,433.22,376.48,433.22,376.48l-28.11-27.23Z" style="fill: #382256"/>
          <path d="M346.41,326.83l58.7,22.42,28.11,27.23S324.78,614.17,184.87,614.17a125.93,125.93,0,0,1-43.93-8C44.29,570.48,93.57,463,130.56,463c.48,0,1,0,1.43.06,1.46.11,2.87.17,4.25.17,33.69,0,44.07-33.31,65.08-79.56,11.59-25.52,31.67-33.34,52.84-33.34,18.77,0,38.4,6.15,53.72,11.57a29.4,29.4,0,0,0,9.82,1.83c24,0,28.71-36.88,28.71-36.88m0-3a3,3,0,0,0-3,2.62c-.06.46-4.7,34.26-25.73,34.26a26.48,26.48,0,0,1-8.82-1.66c-16.41-5.8-35.75-11.74-54.72-11.74-26.3,0-45,11.81-55.57,35.1-2.41,5.3-4.67,10.41-6.86,15.35-16.62,37.6-27.6,62.45-55.49,62.45-1.3,0-2.65-.06-4-.16-.55-.05-1.11-.07-1.66-.07-9.76,0-20.19,6.32-29.39,17.8A92.3,92.3,0,0,0,83,518.66c-3.25,18.21-.78,35.68,7.16,50.52,9.47,17.72,26.21,31.11,49.73,39.79a129.43,129.43,0,0,0,45,8.2c32.58,0,66.09-12.7,99.63-37.74,26.63-19.88,53.35-47.58,79.41-82.3,44.28-59,71.77-118.81,72-119.4a3,3,0,0,0-.64-3.4L407.2,347.1a2.82,2.82,0,0,0-1-.65L347.48,324a3.07,3.07,0,0,0-1.07-.2Z"/>
        </g>
        <path d="M405.11,349.25l-58.7-22.42s-2.93,23-16,32.65L348,383.09S306.64,401,299.93,431.17c-6.42,28.87-112,32.2-158.39,175.2,79.09,28.79,151.18-26.89,203.91-90.64,27-60.7,58.17-130.78,69.61-156.84Z" style="fill: #050505"/>
        <g>
          <g>
            <path d="M390.68,411.18C444.35,396.32,739.7,475.24,761,505S654.16,891.76,619.9,891.76c-39.14,0-319.79,0-377.94,1.25-51,1.1-88.33-137.49-71.56-169.69S311.29,431,352.66,426.05,390.68,411.18,390.68,411.18Z" style="fill: #07acee"/>
            <path d="M241.37,894.52c-14.86,0-29.76-11.37-43.16-32.92-25.81-41.53-41.33-115.56-29.14-139,2-3.89,5.58-11,10.49-20.89,58.28-117.07,139.62-273.18,172.92-277.17,26.7-3.2,34.06-8.35,36.07-11.14.82-1.13.69-1.81.68-1.84a1.21,1.21,0,0,1,0-1.14,1.42,1.42,0,0,1,1-.7c29.21-8.09,125,11.19,198.07,30.16,78.18,20.29,162.25,48,173.82,64.2C780,529,702.44,755.42,654.84,848c-15.69,30.48-27.12,45.3-34.94,45.3-75,0-324,.09-377.9,1.25ZM392.2,412.34a6,6,0,0,1-.93,2.41c-2.54,4-11.28,9.53-38.43,12.79-10.33,1.23-33.5,21.77-85.2,112.57-34,59.68-67.43,126.87-85.39,163-4.92,9.88-8.48,17-10.52,20.94-10.81,20.76,1.56,91.81,29,136,9,14.42,23.24,31.5,40.6,31.5h.57c54-1.16,302.94-1.25,378-1.25,3.66,0,12.72-5.68,32.27-43.68,23.72-46.11,54.53-124,78.49-198.47,25-77.81,36.18-132.32,29.07-142.27-9.49-13.28-80.27-39.2-172.13-63C515.76,424.17,422.12,405.18,392.2,412.34Z"/>
          </g>
          <path d="M733.39,524.45s-351.1-6.71-362.28,4.47C366,534,365.52,648.56,361.05,729.07c-5.44,97.85-82.75,163.25-82.75,163.25H419.19Z" style="fill: #0598c6"/>
          <g>
            <path d="M422.42,417.13c67.81-33.57,254.32-5.28,343,69.95S801.2,622.37,780,617.9" style="fill: #07acee"/>
            <path d="M782.29,619.63a13.28,13.28,0,0,1-2.64-.26,1.5,1.5,0,1,1,.62-2.94c7.57,1.59,20.32-6.08,27.76-21.27,4.55-9.27,8.64-24.62,2.31-45.07-6.37-20.63-21.81-41.45-45.89-61.87-40.56-34.41-105.67-61.91-178.63-75.44-67.85-12.59-130.21-10.41-162.74,5.7a1.5,1.5,0,1,1-1.33-2.69c33.08-16.38,96.16-18.66,164.62-6,73.46,13.63,139.07,41.37,180,76.1,24.52,20.8,40.27,42.09,46.82,63.28,6.61,21.38,2.3,37.51-2.48,47.27C803.32,611.6,791.1,619.63,782.29,619.63Z"/>
          </g>
          <circle cx="502" cy="455.35" r="7.9" style="fill: #51cef4"/>
          <circle cx="583.9" cy="430.23" r="7.9" style="fill: #51cef4"/>
          <circle cx="653.84" cy="466.8" r="7.9" style="fill: #51cef4"/>
          <circle cx="557.21" cy="499.39" r="7.9" style="fill: #51cef4"/>
          <circle cx="725.94" cy="500.32" r="7.9" style="fill: #51cef4"/>
          <circle cx="662.08" cy="524.93" r="7.9" style="fill: #51cef4"/>
          <path d="M754.24,428.2a1.52,1.52,0,0,1-.94-.33c-.2-.17-20.68-16.59-51.62-31.16-28.49-13.41-71.95-28-117.17-21.08a1.5,1.5,0,0,1-.45-3c46-7,90.09,7.77,119,21.37,31.25,14.72,52,31.34,52.15,31.5a1.5,1.5,0,0,1-.94,2.67Z"/>
          <path d="M63.23,561.26a1.5,1.5,0,0,1-1.39-.93c-14.85-36-15.91-65.54-3.16-87.78,17.48-30.49,55.39-36.1,55.77-36.16a1.5,1.5,0,1,1,.42,3c-.37.06-36.87,5.49-53.6,34.7-12.25,21.4-11.13,50,3.34,85.12a1.5,1.5,0,0,1-.81,2A1.46,1.46,0,0,1,63.23,561.26Z"/>
          <path d="M104.26,855.33a1.51,1.51,0,0,1-1.26-.68c-26.88-40.9-22.69-85.41-14.45-115.55A212.69,212.69,0,0,1,113.07,683a1.5,1.5,0,0,1,2.49,1.67A209.37,209.37,0,0,0,91.42,740c-8.06,29.52-12.16,73.09,14.09,113a1.5,1.5,0,0,1-.43,2.07A1.46,1.46,0,0,1,104.26,855.33Z"/>
        </g>
      </g>
      <g id="e0c14a91-117f-49cb-a62c-2a1aff2fbe1a" data-name="hand">
        <path d="M810,561.49c1.29-35-1.92-61.54-21.16-61.83-30.94-.45-25.21,63.46-69.59,83.66-25.44,11.58-45.73,46.78-36.44,73.91S808.46,603.38,810,561.49Z" style="fill: #ffcdb2"/>
        <path d="M692.28,664.17c-7,0-9.82-3.36-10.88-6.45-9.82-28.65,12-64.25,37.24-75.76,22.41-10.2,31.69-31.7,39.88-50.67,7.67-17.77,14.31-33.13,30-33.13h.36a17.42,17.42,0,0,1,12.81,5.47c8,8.4,11,26.26,9.82,57.91-.84,22.79-32.21,51.45-45.66,62.72-25.42,21.29-53.36,37.21-69.52,39.59A27.51,27.51,0,0,1,692.28,664.17Zm96.24-163c-13.72,0-19.69,13.84-27.24,31.32-8.4,19.46-17.93,41.53-41.4,52.21-24.13,11-45,44.85-35.64,72.06,1.27,3.7,5.19,5.08,11.64,4.14,15.66-2.32,43-18,68-38.93,27.36-22.93,44-45.55,44.59-60.53.76-20.72.43-45.79-9-55.73a14.3,14.3,0,0,0-10.67-4.54Z"/>
      </g>
      <g id="ae80af1c-7e80-47b4-8f05-32439edda0cb" data-name="computer">
        <g>
          <rect x="391.78" y="538.98" width="435.61" height="353.33" transform="translate(1219.16 1431.3) rotate(-180)" style="fill: #fff"/>
          <path d="M827.39,539V892.32H391.78V539H827.39m0-3H391.78a3,3,0,0,0-3,3V892.32a3,3,0,0,0,3,3H827.39a3,3,0,0,0,3-3V539a3,3,0,0,0-3-3Z"/>
        </g>
        <g>
          <rect x="419.56" y="570.69" width="381.32" height="283.44" transform="translate(1220.43 1424.82) rotate(-180)" style="fill: #4bd657"/>
          <path d="M800.88,570.69V854.13H419.56V570.69H800.88m0-3H419.56a3,3,0,0,0-3,3V854.13a3,3,0,0,0,3,3H800.88a3,3,0,0,0,3-3V570.69a3,3,0,0,0-3-3Z"/>
        </g>
        <g>
          <path d="M404.82,853h424a39.3,39.3,0,0,1,39.3,39.3v0a0,0,0,0,1,0,0H365.52a0,0,0,0,1,0,0v0A39.3,39.3,0,0,1,404.82,853Z" transform="translate(1233.69 1745.33) rotate(-180)" style="fill: #fff"/>
          <path d="M868.17,853a39.31,39.31,0,0,1-39.3,39.31h-424A39.31,39.31,0,0,1,365.52,853H868.17m3-3H362.52v3a42.36,42.36,0,0,0,42.3,42.31H828.87A42.36,42.36,0,0,0,871.17,853v-3Z"/>
        </g>
        <g>
          <rect x="642.71" y="658.07" width="114.53" height="106.72" rx="26.56" style="fill: #382256"/>
          <path d="M730.67,658.07a26.57,26.57,0,0,1,26.57,26.56v53.59a26.58,26.58,0,0,1-26.57,26.57h-61.4a26.57,26.57,0,0,1-26.56-26.57V684.63a26.56,26.56,0,0,1,26.56-26.56h61.4m0-3h-61.4a29.59,29.59,0,0,0-29.56,29.56v53.59a29.6,29.6,0,0,0,29.56,29.57h61.4a29.61,29.61,0,0,0,29.57-29.57V684.63a29.6,29.6,0,0,0-29.57-29.56Z"/>
        </g>
        <g>
          <line x1="603.29" y1="663.74" x2="457.93" y2="663.74" style="fill: #382256"/>
          <path d="M603.29,665.25H457.93a1.5,1.5,0,0,1,0-3H603.29a1.5,1.5,0,0,1,0,3Z"/>
        </g>
        <g>
          <line x1="599.94" y1="702.88" x2="457.93" y2="699.53" style="fill: #382256"/>
          <path d="M599.94,704.38h0L457.9,701a1.5,1.5,0,0,1,0-3h0l142,3.35a1.5,1.5,0,0,1,0,3Z"/>
        </g>
        <g>
          <line x1="603.29" y1="747.61" x2="509.37" y2="747.61" style="fill: #382256"/>
          <path d="M603.29,749.11H509.37a1.5,1.5,0,0,1,0-3h93.92a1.5,1.5,0,0,1,0,3Z"/>
        </g>
        <path d="M358.42,559a1.51,1.51,0,0,1-1.49-1.29c-2.41-17.21.68-29.8,9.17-37.44,14.06-12.65,37.53-7,38.53-6.71a1.5,1.5,0,0,1-.73,2.91c-.23-.06-22.94-5.54-35.81,6-7.69,6.93-10.45,18.63-8.19,34.78a1.5,1.5,0,0,1-1.27,1.7Z"/>
        <path d="M423.1,554.46a1.5,1.5,0,0,1,0-3l142-1.12h0a1.5,1.5,0,0,1,0,3l-142,1.12Z" style="fill: #fff"/>
        <path d="M834.58,874.25h-161a1.5,1.5,0,0,1,0-3h161a1.5,1.5,0,0,1,0,3Z" style="fill: #fff"/>
        <path d="M631.08,687.52h0a1.5,1.5,0,0,1-1.47-1.53c.38-20,5.79-33.87,16.06-41.12,13.4-9.47,29.94-4.11,30.64-3.88a1.5,1.5,0,1,1-.95,2.84c-.16-.05-15.84-5.09-28,3.5-9.44,6.68-14.41,19.71-14.77,38.72A1.5,1.5,0,0,1,631.08,687.52Z"/>
        <path d="M670.38,751.11a3.46,3.46,0,0,1-2.41-1,3.5,3.5,0,0,1-.13-4.95l63.74-67.08a3.5,3.5,0,1,1,5.07,4.82L672.92,750A3.52,3.52,0,0,1,670.38,751.11Z" style="fill: #fff"/>
        <path d="M734.11,751.11a3.52,3.52,0,0,1-2.39-1l-71.56-67.09A3.5,3.5,0,1,1,665,678l71.56,67.09a3.5,3.5,0,0,1-2.4,6.06Z" style="fill: #fff"/>
        <g>
          <line x1="754.24" y1="783.39" x2="702.81" y2="783.39" style="fill: #382256"/>
          <path d="M754.24,784.89H702.81a1.5,1.5,0,0,1,0-3h51.43a1.5,1.5,0,0,1,0,3Z"/>
        </g>
      </g>
      <g id="f69f7c5d-878f-40f6-870b-113bcab83c29" data-name="hand">
        <g>
          <path d="M341.48,424.37c-59.26,55.91-140,57.12-211.89,287.93-29.72,95.34,2.26,141.94,29.07,162.13,36.51,27.48,225.47,35.31,230.34-35.78l31.31-1.12,8.94-88.34h-24.6s-10.63-38.32-56.3-43c-77.15-7.82-137.14,27.31-147.2,30.66" style="fill: #07acee"/>
          <path d="M262.47,895.82c-45.39,0-89-8.38-104.71-20.19-24.4-18.37-60.68-64.07-29.6-163.78C153,632.16,181.07,572.76,214,530.26c28.82-37.22,57.77-56.85,83.31-74.17,15.32-10.38,29.78-20.19,43.16-32.81a1.5,1.5,0,0,1,2.06,2.18C329,438.25,314.39,448.12,299,458.58c-52.73,35.75-112.5,76.28-168,254.16-30.53,98,4.78,142.6,28.54,160.49,13.19,9.93,47.08,17.46,86.33,19.18,43.64,1.91,83.33-3.69,108.88-15.36,20.62-9.42,31.63-22.38,32.73-38.51a1.5,1.5,0,0,1,1.45-1.39l30-1.07,8.64-85.39H404.65a1.49,1.49,0,0,1-1.44-1.09c-.11-.38-10.95-37.4-55-41.87-65.41-6.64-118.77,18-138.86,27.23-3.58,1.65-6.16,2.84-7.71,3.36a1.5,1.5,0,1,1-.95-2.85c1.4-.47,3.91-1.63,7.4-3.23,20.29-9.36,74.2-34.21,140.42-27.5,41.76,4.24,55,36.55,57.24,43h23.51a1.5,1.5,0,0,1,1.12.5,1.52,1.52,0,0,1,.38,1.16l-8.95,88.33a1.51,1.51,0,0,1-1.44,1.35l-30,1.07c-1.68,16.68-13.24,30-34.36,39.68C331.12,891.15,296.3,895.82,262.47,895.82Z"/>
        </g>
        <path d="M383.41,844.82c.45-26,14.88-72.82,21.62-93.3H425.9l-8.47,83.65-29.65,1.06A69.17,69.17,0,0,1,383.41,844.82Z" style="fill: #0598c6"/>
        <circle cx="315.27" cy="501.2" r="7.9" style="fill: #51cef4"/>
        <circle cx="233.65" cy="614.13" r="7.9" style="fill: #51cef4"/>
        <circle cx="307.45" cy="663.33" r="7.9" style="fill: #51cef4"/>
        <circle cx="149.79" cy="705.82" r="7.9" style="fill: #51cef4"/>
        <circle cx="225.82" cy="833.28" r="7.9" style="fill: #51cef4"/>
        <circle cx="299.62" cy="771.79" r="7.9" style="fill: #51cef4"/>
        <circle cx="315.27" cy="845.58" r="7.9" style="fill: #51cef4"/>
        <path d="M201.71,753.49a1.5,1.5,0,0,1-.68-2.84c55.21-27.89,89.39-31,108.34-28.66,20.92,2.56,28.5,11.9,28.81,12.3a1.5,1.5,0,1,1-2.35,1.86c-.08-.11-7.37-8.91-27.23-11.23-18.52-2.17-52,1-106.21,28.41A1.51,1.51,0,0,1,201.71,753.49Z" style="fill: #fff"/>
        <g>
          <g>
            <path d="M428.86,749.84s36.57-108,75.38-42.81l63.81-8.87s25.94,26.13-21,49.39c0,0,5.12,23.45-9.26,40.31,0,0,11.65,17-22.28,40.27s-92.92,9.16-92.92,9.16Z" style="fill: #ffcdb2"/>
            <path d="M462,843.12a186.11,186.11,0,0,1-39.72-4.38,1.49,1.49,0,0,1-1.14-1.56l6.27-87.45a1.63,1.63,0,0,1,.08-.37c.85-2.52,21.21-61.77,48.53-64.65,10.25-1.08,20,5.88,29,20.7l62.84-8.73a1.48,1.48,0,0,1,1.27.43c.38.38,9.37,9.61,7.26,22.28-1.8,10.84-11.1,20.59-27.66,29,.84,5,3.15,24.47-9.13,39.65,2.07,4.15,7.28,20.38-23.25,41.34C500.64,840.15,479.94,843.12,462,843.12Zm-37.78-7c8.63,1.83,60.17,11.6,90.48-9.21,32.12-22.06,22.32-37.54,21.88-38.18a1.53,1.53,0,0,1,.1-1.82c13.72-16.08,9-38.8,8.94-39a1.52,1.52,0,0,1,.8-1.67c16.26-8.05,25.36-17.23,27-27.27,1.6-9.54-4.2-17.13-5.95-19.17l-63,8.76a1.51,1.51,0,0,1-1.49-.72c-8.52-14.31-17.5-21.08-26.66-20.11-24.73,2.61-44.69,58.84-46,62.46Z"/>
          </g>
          <g>
            <line x1="483.27" y1="711.96" x2="504.3" y2="707.08" style="fill: #07acee"/>
            <path d="M483.26,713.46a1.5,1.5,0,0,1-.33-3l21-4.88a1.5,1.5,0,0,1,.68,2.92l-21,4.88A1.27,1.27,0,0,1,483.26,713.46Z"/>
          </g>
          <path d="M498.17,763.64a56.93,56.93,0,0,1-6.81-.35,1.5,1.5,0,0,1,.39-3c.28,0,28,3.42,54-14.29a1.5,1.5,0,1,1,1.69,2.47A88.49,88.49,0,0,1,498.17,763.64Z"/>
          <path d="M493.74,802.29c-3.23,0-5.3-.16-5.62-.19a1.5,1.5,0,0,1-1.37-1.63,1.52,1.52,0,0,1,1.63-1.36c.31,0,31.25,2.5,49.28-13.45a1.5,1.5,0,1,1,2,2.24C525.25,800.65,503.84,802.29,493.74,802.29Z"/>
          <path d="M473.37,835.6c-12.83,0-20.81-4-21.15-4.12a1.5,1.5,0,0,1,1.35-2.68c.36.18,32.7,15.75,71-18.24a1.5,1.5,0,1,1,2,2.24c-20.82,18.47-39.86,22.59-52.17,22.79Z" style="fill: #fff"/>
          <path d="M492.16,794.37c-1.39,0-2.27,0-2.49,0a1.49,1.49,0,0,1-1.45-1.54,1.47,1.47,0,0,1,1.55-1.45c.41,0,40.67,1.17,48.34-15.48a1.5,1.5,0,1,1,2.72,1.25C533.43,793.18,501.47,794.37,492.16,794.37Z" style="fill: #fff"/>
          <path d="M498.9,754.23a1.5,1.5,0,0,1-.19-3c.51-.06,50.55-6.62,64-28.83A1.5,1.5,0,0,1,565.3,724c-14.23,23.45-64.1,30-66.21,30.25Z" style="fill: #fff"/>
        </g>
      </g>
      <g id="f9509bf9-9d3c-4092-819d-dc000fa228cb" data-name="woman">
        <g>
          <circle cx="404" cy="204.04" r="42.21" style="fill: #382256"/>
          <path d="M404,161.82a42.22,42.22,0,1,1-35.62,19.51A42.07,42.07,0,0,1,404,161.82m0-3a45.22,45.22,0,1,0,24.29,7.11A45,45,0,0,0,404,158.82Z"/>
        </g>
        <g>
          <path d="M508,346.51s31.78-22.38,22-49.87-16.84-25.92-21-40.74-28.31-31.73-52.35-27.35c0,0-26.75-24.67-53.64-20.58s-37.3,15.64-46.85,35.35-17.89,28-25.08,41.66-19.82,52.67,32.83,87.76S508,346.51,508,346.51Z" style="fill: #382256"/>
          <path d="M409.16,207.51c24.67,0,47.49,21,47.49,21a43.79,43.79,0,0,1,7.87-.71c21.21,0,40.74,14.86,44.48,28.06,4.2,14.82,11.27,13.26,21,40.74s-22,49.87-22,49.87-55.3,37.08-104.65,37.08c-14.12,0-27.76-3-39.47-10.85-52.65-35.09-40-74.14-32.83-87.76s15.54-22,25.08-41.66,20-31.27,46.85-35.35a40,40,0,0,1,6.15-.46m0-3a43.54,43.54,0,0,0-6.6.49c-28.14,4.27-39.31,16.8-49.1,37a189.25,189.25,0,0,1-15.13,25.59,166.58,166.58,0,0,0-9.9,16,61.1,61.1,0,0,0-6.33,37.7c3.21,20.19,16.72,38.34,40.15,54,11.29,7.53,25.13,11.35,41.13,11.35,26,0,53.58-10.24,72.09-18.82A274,274,0,0,0,509.7,349l.06,0a75.84,75.84,0,0,0,15.34-15.28c9.43-12.66,12.11-25.81,7.76-38-5.56-15.66-10.31-22.19-14.13-27.44-3-4.08-5.12-7-6.84-13.12-4.05-14.3-24.5-30.23-47.37-30.24a47.2,47.2,0,0,0-6.95.52c-5-4.31-25.7-20.85-48.41-20.85Z"/>
        </g>
        <path d="M407.35,307.58h-.13c-18.75-1.68-35.11-21.63-35.8-22.48a1.5,1.5,0,0,1,2.33-1.89c.16.2,16.26,19.81,33.73,21.38a1.5,1.5,0,0,1-.13,3Z"/>
        <path d="M407,295.45a47.75,47.75,0,0,1-12.61-1.77,1.5,1.5,0,1,1,.8-2.9c35.71,9.78,50.61-26,51.23-27.49a1.5,1.5,0,1,1,2.78,1.13C449,264.77,436.28,295.45,407,295.45Z" style="fill: #fff"/>
        <g>
          <path d="M427.58,394.18s69.32,66-29.08,54.79c0,0-20.12,32.43-54.79,14.54s-19-50.32,5.59-58.15C370.64,398.57,427.58,394.18,427.58,394.18Z" style="fill: #fff"/>
          <path d="M364,470.37a45.45,45.45,0,0,1-21-5.53c-14.47-7.47-21.87-18.32-20.84-30.55,1.12-13.23,12.08-25.72,26.66-30.36,21.26-6.76,76.28-11.06,78.61-11.24a1.49,1.49,0,0,1,1.15.41c1.26,1.2,30.8,29.59,22.8,46.71-4.86,10.41-22.41,14-52.17,10.75C396.56,454.36,384.09,470.37,364,470.37Zm63-74.64c-6.48.52-57.57,4.8-77.25,11.06-13.24,4.22-23.58,15.89-24.58,27.75-.92,10.95,5.9,20.76,19.22,27.63,13.87,7.16,27,7,38.91-.49a47.86,47.86,0,0,0,13.92-13.5,1.48,1.48,0,0,1,1.44-.7c28.48,3.24,45.78.15,50-8.94C455.28,424.44,430.77,399.44,427,395.73Z"/>
        </g>
        <path d="M362.36,163.79a1.51,1.51,0,0,1-1.41-2c3.44-9.68,9.15-16.45,17-20.13,13.76-6.48,29-1.06,29.64-.82a1.5,1.5,0,0,1-1,2.82c-.14-.06-14.73-5.23-27.35.73-7.06,3.33-12.24,9.52-15.39,18.41A1.52,1.52,0,0,1,362.36,163.79Z"/>
        <path d="M376.06,192.26a1.5,1.5,0,0,1-1.32-2.22c5.17-9.59,11.94-15.45,20.14-17.41,13.28-3.18,25.3,5,25.81,5.38a1.5,1.5,0,0,1-1.71,2.47c-.11-.08-11.48-7.8-23.43-4.92-7.32,1.76-13.43,7.11-18.17,15.91A1.51,1.51,0,0,1,376.06,192.26Z" style="fill: #fff"/>
        <g>
          <path d="M423.72,404.14v16.77s-29.07,43.61-85,7.83c0,0,27.42-39.42,42.1-86.2,0,0-20.69-5.62-16.45-24.16s19.46-21,28.09-15.46c0,0,33.51,25.95,72.57-44.73,0,0,36.17,17,41.91,55.59s-4,82.41-34,93.65S423.72,404.14,423.72,404.14Z" style="fill: #ffcdb2"/>
          <path d="M465.05,258.19s36.17,17,41.91,55.59-4,82.41-34,93.65a63.48,63.48,0,0,1-22.38,4.26c-16.83,0-26.87-7.55-26.87-7.55v16.77s-14.62,21.93-43.06,21.93c-11.67,0-25.66-3.69-41.92-14.1,0,0,27.42-39.42,42.1-86.2,0,0-20.69-5.62-16.45-24.16,3-13,11.31-18.05,19-18.05a17,17,0,0,1,9.08,2.59s6,4.65,15.9,4.65c13.47,0,34.15-8.62,56.67-49.38m0-3a3,3,0,0,0-2.63,1.55c-21.84,39.53-41.45,47.83-54,47.83a25.06,25.06,0,0,1-14.08-4l-.21-.15a20.12,20.12,0,0,0-10.69-3.06c-8.35,0-18.49,5.35-21.93,20.38-2,8.78.64,16.4,7.68,22a33.11,33.11,0,0,0,8,4.64C362.54,389,336.54,426.64,336.27,427a3,3,0,0,0-.47,2.3,3,3,0,0,0,1.32,1.94c15.11,9.67,29.76,14.57,43.54,14.57,29.7,0,44.92-22.31,45.55-23.26a3,3,0,0,0,.51-1.67V409.36a54.12,54.12,0,0,0,23.87,5.33A66.87,66.87,0,0,0,474,410.24c14.8-5.56,25.93-18.87,32.17-38.48,5.45-17.13,6.78-37.88,3.72-58.42-2.44-16.45-10.75-31.67-24-44a84.6,84.6,0,0,0-19.57-13.85,2.87,2.87,0,0,0-1.27-.29Z"/>
        </g>
        <path d="M424.28,407.32a1.61,1.61,0,0,1-.48-.08c-17.05-5.69-29.41-23.63-29.93-24.39a1.5,1.5,0,1,1,2.48-1.69c.12.18,12.32,17.87,28.4,23.23a1.5,1.5,0,0,1-.47,2.93Z"/>
        <path d="M381.35,333.74A1.51,1.51,0,0,1,380,333c-3.8-7.14-4.49-12.91-2-17.16,3.52-6.12,12.11-6.51,12.48-6.52a1.48,1.48,0,0,1,1.55,1.44,1.51,1.51,0,0,1-1.44,1.56c-.09,0-7.32.36-10,5-1.88,3.29-1.17,8.08,2.11,14.24a1.48,1.48,0,0,1-.62,2A1.46,1.46,0,0,1,381.35,333.74Z"/>
        <path d="M463.44,315.14c-21.68,1.64-48.84-11.45-54.74-4.59s-3.55,17.46,7.53,21.5,22.46,5.23,45.9,6.54,46.51.85,45.54-11.91S495.33,312.73,463.44,315.14Z" style="fill: #ffb49f"/>
        <path d="M488.39,319.79h-.15c-9.34-.91-14.86-10.06-15.09-10.45a1.5,1.5,0,0,1,2.58-1.53c.07.11,5,8.23,12.81,9a1.5,1.5,0,0,1-.15,3Z"/>
        <path d="M465.67,354a1.51,1.51,0,0,1-1.47-1.2l-7.14-34.42a1.5,1.5,0,0,1,2.94-.61l7.14,34.42A1.5,1.5,0,0,1,466,354Z"/>
        <g>
          <circle cx="372.32" cy="341.41" r="6.91" style="fill: #07acee"/>
          <path d="M372.33,334.5a6.84,6.84,0,0,1,3.71,1.09,6.91,6.91,0,0,1-3.72,12.73,6.81,6.81,0,0,1-3.71-1.09,6.91,6.91,0,0,1,3.72-12.73m0-3a9.91,9.91,0,1,0,5.33,1.56,9.87,9.87,0,0,0-5.33-1.56Z"/>
        </g>
        <circle cx="428.86" cy="328.3" r="3.91"/>
        <circle cx="482.53" cy="331.66" r="3.91"/>
        <path d="M450.11,381.24a1.5,1.5,0,0,1-1.23-.64c-7.26-10.38-28.94-9.56-29.15-9.54a1.5,1.5,0,0,1-.13-3c.95-.05,23.53-.91,31.73,10.82A1.48,1.48,0,0,1,451,381,1.44,1.44,0,0,1,450.11,381.24Z"/>
        <path d="M434.18,314.52a1.5,1.5,0,0,1-.25-3c.12,0,12.22-2.16,13.51-9.61a1.5,1.5,0,0,1,3,.52c-1.66,9.53-15.39,11.95-16,12.05A1.06,1.06,0,0,1,434.18,314.52Z"/>
        <path d="M348.19,425.87a1.47,1.47,0,0,1-1-.37,1.5,1.5,0,0,1-.14-2.12c15.31-17.49,30.89-55.11,31.05-55.49a1.5,1.5,0,0,1,2.77,1.15c-.64,1.56-15.93,38.45-31.56,56.32A1.51,1.51,0,0,1,348.19,425.87Z" style="fill: #fff"/>
      </g>
      <g id="b951ba76-2ae0-40f0-aa9f-b9609b7d3d1c" data-name="hand">
        <g>
          <path d="M825.07,641.64s-44.83,26.65-22.28,54.93,58.1,5.76,58.28-26.94-25.19-45.55-37.29-58.15" style="fill: #ffcdb2"/>
          <path d="M826.74,711c-9.26,0-18.08-4.64-25.12-13.46-5.57-7-7.66-14.48-6.24-22.3C799,655.62,823.27,641,824.3,640.35a1.5,1.5,0,1,1,1.53,2.58c-.24.14-24.17,14.58-27.5,32.82-1.26,6.92.64,13.61,5.64,19.88,8.63,10.82,20.12,14.76,31.52,10.81,14.09-4.89,24-20,24.08-36.82.13-25.15-15.34-38.3-27.77-48.86-3.35-2.85-6.52-5.55-9.11-8.24a1.5,1.5,0,0,1,2.17-2.08c2.48,2.59,5.59,5.23,8.89,8,12.9,11,29,24.62,28.82,51.16-.1,18-10.83,34.34-26.1,39.64A29.62,29.62,0,0,1,826.74,711Z"/>
        </g>
        <g>
          <path d="M830.61,589.53s-44.83,26.65-22.27,54.93,58.1,5.76,58.28-26.94-25.19-45.55-37.3-58.15" style="fill: #ffcdb2"/>
          <path d="M832.29,658.85c-9.27,0-18.08-4.63-25.12-13.46-5.57-7-7.67-14.48-6.24-22.29,3.57-19.59,27.88-34.24,28.92-34.86a1.5,1.5,0,0,1,1.53,2.58c-.24.15-24.18,14.58-27.5,32.82-1.26,6.92.63,13.61,5.63,19.88,8.64,10.83,20.12,14.76,31.52,10.81,14.09-4.89,24-20,24.09-36.82.13-25.14-15.34-38.29-27.77-48.86-3.35-2.85-6.52-5.54-9.11-8.24a1.51,1.51,0,0,1,0-2.12,1.49,1.49,0,0,1,2.12,0c2.49,2.59,5.6,5.23,8.89,8,12.91,11,29,24.62,28.83,51.17-.1,18-10.83,34.34-26.11,39.64A29.55,29.55,0,0,1,832.29,658.85Z"/>
        </g>
        <g>
          <path d="M827.8,545.51S783,572.15,805.52,600.43s58.1,5.76,58.28-26.94-21.33-32.28-36.88-36.1" style="fill: #ffcdb2"/>
          <path d="M829.47,614.83c-9.26,0-18.08-4.64-25.12-13.46-5.57-7-7.67-14.48-6.24-22.3,3.58-19.59,27.89-34.24,28.92-34.85a1.5,1.5,0,1,1,1.53,2.58c-.24.14-24.17,14.57-27.5,32.82-1.26,6.92.64,13.61,5.64,19.88,8.63,10.82,20.12,14.76,31.51,10.8,14.1-4.88,24-20,24.09-36.81.14-27.32-14.94-30.36-29.54-33.3-2.16-.44-4.2-.85-6.2-1.34a1.5,1.5,0,1,1,.72-2.91c1.94.47,4,.88,6.08,1.31,14.3,2.88,32.1,6.46,31.94,36.25-.1,18-10.83,34.34-26.1,39.64A29.62,29.62,0,0,1,829.47,614.83Z"/>
        </g>
        <path d="M826.83,693.48a1.5,1.5,0,0,1,0-3h0c1.09,0,26.89-.68,28.36-32.4a1.53,1.53,0,0,1,1.57-1.43,1.51,1.51,0,0,1,1.43,1.57c-1.61,34.61-31,35.26-31.34,35.26Z" style="fill: #fff"/>
        <path d="M829.38,652.83a1.5,1.5,0,0,1-.21-3c1.05-.15,25.93-4,30.36-31.78a1.5,1.5,0,1,1,3,.47c-4.8,30-32.63,34.24-32.91,34.28Z" style="fill: #fff"/>
        <path d="M822.09,601.91h-.32a1.5,1.5,0,0,1-1.45-1.55,1.48,1.48,0,0,1,1.55-1.44c1.28,0,31.11.69,35.17-29.55a1.5,1.5,0,1,1,3,.4C855.82,601,825.56,601.91,822.09,601.91Z" style="fill: #fff"/>
        <path d="M879.47,575.79a1.37,1.37,0,0,1-.4,0,1.5,1.5,0,0,1-1-1.85c4.92-17.45.82-32-12.18-43.26a64.07,64.07,0,0,0-21.45-11.92,1.5,1.5,0,1,1,.82-2.88c.49.13,48.26,14.34,35.7,58.87A1.51,1.51,0,0,1,879.47,575.79Z"/>
      </g>
    </g>
  </g>
</svg>
