<svg xmlns="http://www.w3.org/2000/svg" width="1000" height="1000" viewBox="0 0 1000 1000">
  <g id="ee54bbf7-02b2-4d3d-a546-cae072819453" data-name="illustration">
    <g id="be97688a-7eb5-4833-861f-218de7dcfd63" data-name="to add">
      <g>
        <path d="M461.94,357.07s37.55,22.94,48.21-7.65,32.87-96.26,80.89-84,52.73,21.53,72.38-7.29,142.87-14.39,111.94,78.4c-50.67,152.06-328,113.16-328,113.16l-3.45-36.51Z" style="fill: #382256"/>
        <path d="M701.64,244.77c41.07,0,95.45,26.51,73.72,91.72C741.84,437.08,609.13,454.11,523.14,454.11c-44,0-75.75-4.46-75.75-4.46l-3.45-36.51,18-56.07s13.52,8.26,26.63,8.26c8.75,0,17.31-3.67,21.58-15.91,9.77-28,29.24-85.54,69.4-85.54a46.46,46.46,0,0,1,11.49,1.5c24.6,6.25,37.83,11.75,47.53,11.75,9.24,0,15.27-5,24.85-19,5.85-8.57,20.85-13.32,38.22-13.32m0-3c-19.24,0-34.45,5.47-40.69,14.63-9.27,13.59-14.5,17.73-22.38,17.73-5.73,0-13.36-2.23-23.92-5.32-6.49-1.9-13.84-4.05-22.87-6.34a49.5,49.5,0,0,0-12.23-1.59c-18.19,0-34.4,11.08-48.17,32.93-11.25,17.83-18.72,39.27-23.66,53.46l-.4,1.17c-3.26,9.34-9.39,13.89-18.75,13.89-12.13,0-24.94-7.74-25.07-7.82a3,3,0,0,0-1.56-.44,3,3,0,0,0-1.05.19,3,3,0,0,0-1.81,1.89l-18,56.07a2.89,2.89,0,0,0-.13,1.2l3.44,36.52a3,3,0,0,0,2.57,2.69,615,615,0,0,0,76.17,4.48c39.24,0,96.55-3.69,146.78-21.26,56.7-19.83,93.14-53,108.29-98.41,4.38-13.14,5.95-25.45,4.68-36.6a57.82,57.82,0,0,0-10.56-27.6c-7.33-10.18-18.4-18.48-32-24a105.26,105.26,0,0,0-38.68-7.46Z"/>
      </g>
      <path d="M716.79,410C579,371.52,463,426.6,463,426.6a54.2,54.2,0,0,0-1.25,24.65C504.9,455.37,635.94,462.62,716.79,410Z" style="fill: #050505"/>
      <path d="M714.07,329.08a1.5,1.5,0,0,1-.57-2.89c102.78-41.43,142.63-107.69,158-156,16.63-52.37,8.86-95.51,8.78-95.94a1.49,1.49,0,0,1,1.19-1.75,1.5,1.5,0,0,1,1.76,1.19c.08.44,8,44.21-8.82,97.27a224.73,224.73,0,0,1-48.58,83.94c-27.91,30.64-65.31,55.55-111.17,74A1.64,1.64,0,0,1,714.07,329.08Z"/>
      <path d="M707.78,298.69a1.5,1.5,0,0,1-.54-2.9c42.43-16.28,66.65-50.65,72-102.15,4-38.58-4.7-72.82-4.79-73.16a1.5,1.5,0,1,1,2.9-.75c.09.34,8.93,35,4.89,74.14-2.38,23-8.7,43.1-18.76,59.63-12.62,20.72-31.18,35.89-55.15,45.09A1.47,1.47,0,0,1,707.78,298.69Z"/>
      <g id="a5ce53d6-fa87-4a3b-b72d-00e309c7dc16" data-name="line">
        <path d="M910.39,924.79h0l-745-3.49a2,2,0,0,1,0-4h0l745,3.49a2,2,0,0,1,0,4Z"/>
        <path d="M184.22,940.48H74.43a1.5,1.5,0,0,1,0-3H184.22a1.5,1.5,0,1,1,0,3Z"/>
        <path d="M984.78,895.42H875a1.5,1.5,0,0,1,0-3H984.78a1.5,1.5,0,0,1,0,3Z"/>
      </g>
      <g id="adcec6b9-852e-4d44-bb27-e38e83fd3003" data-name="woman">
        <g>
          <path d="M376.66,466.11C427,452.18,735,507.9,754.93,535.76S623.58,916.47,591.47,916.47c-36.68,0-299.69,0-354.18,1.17-47.83,1-82.78-128.84-67.06-159S302.26,484.68,341,480,376.66,466.11,376.66,466.11Z" style="fill: #07acee"/>
          <path d="M236.74,919.15c-14,0-28-10.66-40.53-30.89C172,849.32,157.46,779.89,168.9,757.93c1.9-3.65,5.22-10.33,9.83-19.57,54.62-109.74,130.86-256.07,162.12-259.81,24.93-3,31.83-7.78,33.72-10.37a2.38,2.38,0,0,0,.64-1.68,1.24,1.24,0,0,1,0-1.14,1.4,1.4,0,0,1,1-.69c26.49-7.34,120.14,4.31,201.2,19.12,75.43,13.78,167.49,35.42,178.69,51.09,9.05,12.67-14.55,81.37-29.43,121.2-22.94,61.42-53.92,132.08-80.84,184.41C619.43,891.9,601.12,918,591.47,918c-70.3,0-303.6.09-354.14,1.17ZM378.17,467.27a5.84,5.84,0,0,1-.87,2.23c-3.44,5.46-15.92,9.61-36.09,12-9.66,1.16-31.34,20.39-79.78,105.45-31.84,55.93-63.18,118.89-80,152.72-4.61,9.25-7.94,15.94-9.85,19.61-10.12,19.44,1.47,86,27.2,127.37,8.48,13.64,22,29.81,38.5,29.46,50.57-1.08,283.9-1.17,354.21-1.17,3.82,0,16.52-7.39,51.74-75.86C670.08,786.88,701,716.35,723.91,655c24.59-65.84,35.73-110.1,29.8-118.4-8.65-12.11-79.7-32.16-176.79-49.89C497.31,472.2,405.65,460.67,378.17,467.27Z"/>
        </g>
        <path d="M697.82,572.25s-329-6.28-339.5,4.19C353.55,581.22,351,688.56,346.79,764c-5.09,91.7-75.44,153-75.44,153h132Z" style="fill: #0598c6"/>
        <g>
          <path d="M330.55,478.47C275,530.86,229.81,534,132,748.29c-38.86,85.14,0,136.22,27.25,151.94S302.78,939,333.17,866.7l29.34-1.05,8.38-82.78H347.84s-5.24-33.53-48.2-35.63-91.16,21-100.59,24.1" style="fill: #07acee"/>
          <path d="M238.24,918.07c-33.72,0-66.21-8.72-79.76-16.54-6.52-3.76-28.59-18.53-39.09-50.77-9.76-30-5.88-65.62,11.23-103.09C209.5,574.87,254.4,539,297.82,504.28c10.28-8.22,20.91-16.72,31.7-26.9a1.5,1.5,0,0,1,2.06,2.18c-10.88,10.27-21.56,18.81-31.89,27.06-43.14,34.49-87.75,70.15-166.34,242.3-17,37.3-20.77,71.25-11.11,100.91,10.17,31.22,31.46,45.48,37.74,49.1,19.56,11.29,79.44,24.47,124.16,9.41,23.11-7.79,39.15-22,47.65-42.22a1.49,1.49,0,0,1,1.33-.92l28-1,8.08-79.83H347.84a1.5,1.5,0,0,1-1.48-1.27c-.21-1.32-5.62-32.35-46.79-34.36C263.65,747,223.72,763.1,206.68,770c-3.28,1.33-5.64,2.28-7.16,2.79a1.5,1.5,0,1,1-1-2.85c1.43-.47,3.88-1.46,7-2.72,17.22-7,57.56-23.24,94.15-21.45,38.87,1.89,47.8,29.35,49.34,35.62h21.84a1.51,1.51,0,0,1,1.5,1.65L364,865.8a1.5,1.5,0,0,1-1.44,1.35l-28.38,1c-8.95,20.59-25.45,35.06-49.08,43C270.46,916.11,254.21,918.07,238.24,918.07Z"/>
        </g>
        <path d="M329,872.75c.42-24.4,13.95-68.24,20.26-87.43H368.8l-7.94,78.39-27.79,1A63.26,63.26,0,0,1,329,872.75Z" style="fill: #0598c6"/>
        <g>
          <g>
            <path d="M376.93,823.71s41.25,26.21,19.33,52.07-54.59,3.78-53.84-26.86,24.87-42,36.56-53.43" style="fill: #ffcdb2"/>
            <path d="M374.2,888.7a27.48,27.48,0,0,1-9.87-1.87c-14.2-5.4-23.82-21-23.41-38,.61-24.91,16.06-37.26,28.46-47.19,3.17-2.53,6.16-4.92,8.55-7.27a1.5,1.5,0,0,1,2.1,2.14c-2.5,2.46-5.55,4.9-8.77,7.48-11.92,9.53-26.76,21.4-27.34,44.92-.38,15.69,8.45,30.11,21.47,35.07,10.53,4,21.36.65,29.73-9.22,4.84-5.71,6.79-11.9,5.81-18.39-2.6-17.13-24.58-31.3-24.81-31.44a1.5,1.5,0,0,1,1.61-2.53c1,.6,23.35,15,26.16,33.51,1.13,7.39-1.06,14.39-6.49,20.79C390.75,884.6,382.63,888.7,374.2,888.7Z"/>
          </g>
          <g>
            <path d="M373.19,774.75s41.25,26.21,19.33,52.07-54.59,3.77-53.84-26.86,24.87-42,36.56-53.43" style="fill: #ffcdb2"/>
            <path d="M370.46,839.74a27.69,27.69,0,0,1-9.87-1.87c-14.2-5.41-23.82-21-23.41-38,.61-24.91,16.06-37.27,28.47-47.19,3.16-2.53,6.14-4.92,8.54-7.27a1.5,1.5,0,1,1,2.1,2.14c-2.5,2.46-5.55,4.89-8.77,7.47-11.92,9.54-26.76,21.41-27.34,44.92-.38,15.69,8.45,30.12,21.47,35.07,10.53,4,21.36.65,29.73-9.21,4.84-5.71,6.79-11.9,5.81-18.39-2.6-17.14-24.58-31.31-24.81-31.45a1.5,1.5,0,0,1,1.61-2.53c1,.61,23.35,15,26.16,33.52,1.13,7.39-1.06,14.38-6.49,20.79C387,835.64,378.89,839.74,370.46,839.74Z"/>
          </g>
          <g>
            <path d="M377.06,733.59s41.25,26.21,19.33,52.07-54.59,3.77-53.84-26.86,16.29-29.89,31-33" style="fill: #ffcdb2"/>
            <path d="M374.33,798.58a27.69,27.69,0,0,1-9.87-1.87c-14.2-5.41-23.82-21-23.41-38,.7-28.6,14.33-31.12,27.51-33.56,1.53-.28,3.1-.57,4.64-.9a1.5,1.5,0,1,1,.63,2.93c-1.58.34-3.18.63-4.72.92-13.1,2.42-24.42,4.52-25.06,30.68-.38,15.69,8.45,30.11,21.47,35.07,10.53,4,21.36.65,29.72-9.21,4.85-5.72,6.8-11.91,5.81-18.4-2.6-17.15-24.58-31.3-24.8-31.44a1.5,1.5,0,0,1,1.61-2.53c.95.6,23.35,15,26.16,33.52,1.12,7.39-1.06,14.38-6.49,20.79C390.88,794.48,382.76,798.58,374.33,798.58Z"/>
          </g>
          <path d="M373.87,872.32h-.06c-.28,0-27.92-1.44-28.45-34a1.5,1.5,0,0,1,1.47-1.53h0a1.51,1.51,0,0,1,1.5,1.48c.49,29.66,24.55,31,25.57,31.05a1.5,1.5,0,0,1-.06,3Z" style="fill: #fff"/>
          <path d="M372.62,834.17a1.07,1.07,0,0,1-.25,0c-.27,0-26.29-4.81-29.95-33.11a1.5,1.5,0,1,1,3-.38c3.38,26.06,26.5,30.37,27.49,30.54a1.5,1.5,0,0,1-.26,3Z" style="fill: #fff"/>
          <path d="M381.13,786.67c-.56,0-31.8-.29-35-31.26a1.5,1.5,0,0,1,3-.31c2.93,28.16,30.45,28.57,32,28.57h0a1.5,1.5,0,0,1,0,3Z" style="fill: #fff"/>
        </g>
        <g>
          <path d="M411.24,450.18S476.2,512,384,501.52c0,0-18.86,30.39-51.34,13.63s-17.82-47.16,5.24-54.49C357.88,454.29,411.24,450.18,411.24,450.18Z" style="fill: #fff"/>
          <path d="M351.66,521.67a42.67,42.67,0,0,1-19.7-5.19c-13.59-7-20.55-17.22-19.57-28.73,1.05-12.43,11.34-24.16,25-28.52,19.93-6.34,71.51-10.38,73.69-10.55a1.48,1.48,0,0,1,1.15.41c1.18,1.13,28.91,27.78,21.39,43.89-4.57,9.78-21,13.19-48.94,10.13C382.14,506.77,370.45,521.67,351.66,521.67Zm59-69.94c-6.26.5-53.95,4.5-72.34,10.36-12.37,3.93-22,14.83-23,25.92-.87,10.22,5.51,19.38,17.95,25.8,13,6.69,25.21,6.54,36.37-.46a44.82,44.82,0,0,0,13-12.62,1.47,1.47,0,0,1,1.44-.7c26.65,3,42.82.15,46.78-8.32C437.07,478.59,414.29,455.3,410.68,451.73Z"/>
        </g>
        <circle cx="480.99" cy="507.5" r="7.4" style="fill: #51cef4"/>
        <circle cx="306" cy="550.46" r="7.4" style="fill: #51cef4"/>
        <circle cx="229.5" cy="656.3" r="7.4" style="fill: #51cef4"/>
        <circle cx="298.66" cy="702.4" r="7.4" style="fill: #51cef4"/>
        <circle cx="150.91" cy="742.22" r="7.4" style="fill: #51cef4"/>
        <circle cx="222.17" cy="861.68" r="7.4" style="fill: #51cef4"/>
        <circle cx="291.33" cy="804.04" r="7.4" style="fill: #51cef4"/>
        <circle cx="306" cy="873.2" r="7.4" style="fill: #51cef4"/>
        <path d="M199.57,787a1.5,1.5,0,0,1-.68-2.84c41.56-21,75.73-30,101.59-26.87,19.64,2.41,26.77,11.19,27.06,11.56a1.5,1.5,0,0,1-2.35,1.87h0c-.07-.09-6.88-8.33-25.48-10.5-17.34-2-48.67,1-99.46,26.62A1.51,1.51,0,0,1,199.57,787Z" style="fill: #fff"/>
        <path d="M205.86,688.49a1.5,1.5,0,0,1-1.47-1.2c-9.8-47.92,3.86-116.57,17.05-165.72a978.39,978.39,0,0,1,31.23-96.05,1.5,1.5,0,1,1,2.78,1.11c-.67,1.69-66.68,169.35-48.12,260.06a1.5,1.5,0,0,1-1.17,1.77Z"/>
        <path d="M180.71,699a1.51,1.51,0,0,1-1.2-.59c-20-26.28-22.22-105.44-22.3-108.8a1.49,1.49,0,0,1,1.46-1.54h0a1.49,1.49,0,0,1,1.49,1.46c0,.82,2.31,81.55,21.7,107.06a1.51,1.51,0,0,1-.28,2.11A1.53,1.53,0,0,1,180.71,699Z"/>
      </g>
      <g id="f55c58e9-f664-4b65-aec2-6dd3368309fb" data-name="computer">
        <g>
          <rect x="377.69" y="585.88" width="408.22" height="331.12" transform="translate(1163.6 1502.87) rotate(-180)" style="fill: #fff"/>
          <path d="M785.91,585.88V917H377.69V585.88H785.91m0-3H377.69a3,3,0,0,0-3,3V917a3,3,0,0,0,3,3H785.91a3,3,0,0,0,3-3V585.88a3,3,0,0,0-3-3Z"/>
        </g>
        <g>
          <rect x="403.72" y="615.59" width="357.35" height="265.62" transform="translate(1164.79 1496.8) rotate(-180)" style="fill: #4bd657"/>
          <path d="M761.07,615.59V881.21H403.72V615.59H761.07m0-3H403.72a3,3,0,0,0-3,3V881.21a3,3,0,0,0,3,3H761.07a3,3,0,0,0,3-3V615.59a3,3,0,0,0-3-3Z"/>
        </g>
        <path d="M707.08,711.11H561.85a1.5,1.5,0,0,1,0-3H707.08a1.5,1.5,0,0,1,0,3Z"/>
        <path d="M703.26,748.37H561.85a1.5,1.5,0,0,1,0-3H703.26a1.5,1.5,0,0,1,0,3Z"/>
        <g>
          <path d="M389.91,880.16H787.3A36.83,36.83,0,0,1,824.13,917v0a0,0,0,0,1,0,0H353.08a0,0,0,0,1,0,0v0A36.83,36.83,0,0,1,389.91,880.16Z" transform="translate(1177.21 1797.16) rotate(180)" style="fill: #fff"/>
          <path d="M824.13,880.16A36.83,36.83,0,0,1,787.3,917H389.91a36.83,36.83,0,0,1-36.83-36.84H824.13m3-3h-477v3A39.88,39.88,0,0,0,389.91,920H787.3a39.88,39.88,0,0,0,39.83-39.84v-3Z"/>
        </g>
        <path d="M622.05,779.9h-60.2a1.5,1.5,0,0,1,0-3h60.2a1.5,1.5,0,0,1,0,3Z"/>
        <g>
          <rect x="435.76" y="694.33" width="107.33" height="100.01" rx="24.89" style="fill: #fff"/>
          <path d="M518.19,795.84H460.65a26.42,26.42,0,0,1-26.39-26.4V719.22a26.42,26.42,0,0,1,26.39-26.39h57.54a26.42,26.42,0,0,1,26.39,26.39v50.22A26.42,26.42,0,0,1,518.19,795.84Zm-57.54-100a23.41,23.41,0,0,0-23.39,23.39v50.22a23.42,23.42,0,0,0,23.39,23.4h57.54a23.42,23.42,0,0,0,23.39-23.4V719.22a23.41,23.41,0,0,0-23.39-23.39Z"/>
        </g>
        <path d="M489.83,774.32h-.22a3.51,3.51,0,0,1-2.85-1.79l-27.24-49.25a3.5,3.5,0,1,1,6.12-3.39l24.59,44.44L510.11,737a3.5,3.5,0,1,1,5.66,4.12l-23.11,31.74A3.52,3.52,0,0,1,489.83,774.32Z" style="fill: #382256"/>
        <path d="M352.56,591a1.5,1.5,0,0,1-1.5-1.46c-.3-13.1,3.44-22.73,11.11-28.62,14.9-11.45,39-4.59,40.06-4.29a1.5,1.5,0,1,1-.84,2.88c-.24-.07-23.71-6.73-37.4,3.79-6.87,5.28-10.21,14.08-9.93,26.17a1.5,1.5,0,0,1-1.47,1.53Z"/>
        <path d="M407,600.47a1.5,1.5,0,0,1-1.5-1.48,1.52,1.52,0,0,1,1.49-1.52l133.08-1h0a1.49,1.49,0,0,1,1.5,1.48,1.51,1.51,0,0,1-1.49,1.52l-133.07,1Z" style="fill: #fff"/>
        <path d="M792.65,900.16H641.76a1.5,1.5,0,0,1,0-3H792.65a1.5,1.5,0,0,1,0,3Z" style="fill: #fff"/>
        <path d="M424.86,722h0a1.49,1.49,0,0,1-1.47-1.52c.36-18.81,5.44-31.8,15.09-38.62,12.6-8.89,28.14-3.86,28.8-3.64a1.5,1.5,0,1,1-.95,2.84c-.15-.05-14.8-4.76-26.14,3.27-8.82,6.24-13.46,18.42-13.8,36.2A1.5,1.5,0,0,1,424.86,722Z"/>
        <path d="M531.74,806.9H494a1.5,1.5,0,0,1,0-3h37.72a1.5,1.5,0,0,1,0,3Z"/>
      </g>
      <g id="fdc1b59a-ec37-42b5-abdb-5657329d8058" data-name="hand">
        <g>
          <path d="M705.68,668.19s-103.62-52.09-91.15,17.93l-50.68,32.82s-2.37,34.42,45.16,22.14c0,0,10.75,19.76,31.28,22.9,0,0,2.14,19.17,40.48,14.89s71.47-50.45,71.47-50.45Z" style="fill: #ffcdb2"/>
          <path d="M670.19,781c-10.94,0-19.31-2.28-25-6.8a17.48,17.48,0,0,1-6.18-8.91c-17.93-3.24-28.24-18.36-30.75-22.48-16.88,4.17-29.46,3-37.4-3.64-9.29-7.72-8.57-19.82-8.53-20.33a1.46,1.46,0,0,1,.68-1.15l49.84-32.29c-2.5-15.16.29-25.87,8.31-31.86,23.37-17.41,82.65,12.05,85.16,13.31a1.63,1.63,0,0,1,.52.42l46.56,60.23a1.49,1.49,0,0,1,0,1.79c-1.37,1.91-34,46.77-72.53,51.07A96.26,96.26,0,0,1,670.19,781ZM609,739.58a1.51,1.51,0,0,1,1.32.78c.11.19,10.66,19.15,30.19,22.14a1.49,1.49,0,0,1,1.26,1.31c.09.71,2.63,17.61,38.82,13.57,34.32-3.83,64.92-42.54,69.76-49l-45.65-59c-4.63-2.27-60.64-29.15-81.72-13.43-7.21,5.38-9.56,15.44-7,29.91a1.49,1.49,0,0,1-.66,1.52l-50,32.39c0,2.57.6,11.39,7.5,17.11,7.33,6.07,19.38,7,35.81,2.74A1.55,1.55,0,0,1,609,739.58Z"/>
        </g>
        <g>
          <path d="M406.4,471.69C470,440.22,743.13,389,826.24,459.49s10.66,208.72-4.1,230.59-46.44,15.25-46.44,15.25l-23.52,24-68-70.1,12.22-12.78s-61.1-12.66,17.52-106.76" style="fill: #07acee"/>
          <path d="M752.18,730.82h0a1.52,1.52,0,0,1-1.08-.46l-68-70.09a1.5,1.5,0,0,1,0-2.08l10.5-11c-4.81-1.63-15.2-6.48-19.48-18.76C667,608.09,680,577.9,712.78,538.72a1.5,1.5,0,0,1,2.3,1.92c-39.84,47.69-42.73,73.52-38.13,86.78,4.95,14.28,19.61,17.52,19.76,17.55a1.49,1.49,0,0,1,.78,2.5l-11.21,11.74,65.91,68,22.44-22.89a1.5,1.5,0,0,1,1.38-.42c.3.06,30.87,6.14,44.89-14.62,6.93-10.27,28.87-50,38.52-96.53,12.08-58.17.59-102.61-34.15-132.08-47.74-40.5-155.91-37.3-216.14-31.79-86.63,7.93-170.77,28.7-202.06,44.19a1.5,1.5,0,1,1-1.33-2.69c31.54-15.61,116.14-36.52,203.11-44.48,60.7-5.56,169.78-8.73,218.36,32.48,19.38,16.44,31.83,37.82,37,63.55,4.24,21.08,3.61,45.11-1.85,71.43-9.75,47-32,87.2-39,97.6-13.79,20.44-42,16.88-47.16,16l-23,23.43A1.53,1.53,0,0,1,752.18,730.82Z"/>
        </g>
        <path d="M774.07,703.85l-.25-.05L751.4,726.93l-65-67.76,11.64-12.32a28,28,0,0,1-6.69-2.64h0C725.59,651,759.73,687.06,774.07,703.85Z" style="fill: #0598c6"/>
        <g>
          <line x1="632.41" y1="676.76" x2="614.51" y2="686.19" style="fill: #07acee"/>
          <path d="M614.51,687.7a1.5,1.5,0,0,1-.7-2.83l17.9-9.44a1.5,1.5,0,1,1,1.4,2.66l-17.9,9.43A1.46,1.46,0,0,1,614.51,687.7Z"/>
        </g>
        <path d="M609.14,742.1a1.5,1.5,0,0,1-.17-3,80.11,80.11,0,0,0,47-22.93,1.5,1.5,0,1,1,2.24,2c-.74.83-18.48,20.43-48.89,23.92Z"/>
        <path d="M639.45,765.25H639a1.5,1.5,0,0,1,0-3h.44c22.36,0,42.49-20.43,42.7-20.64a1.5,1.5,0,1,1,2.15,2.09C683.43,744.59,663.08,765.25,639.45,765.25Z"/>
        <circle cx="571.35" cy="460.9" r="7.4" style="fill: #51cef4"/>
        <circle cx="623.28" cy="518.23" r="7.4" style="fill: #51cef4"/>
        <circle cx="748.58" cy="479.61" r="7.4" style="fill: #51cef4"/>
        <circle cx="828.11" cy="556.98" r="7.4" style="fill: #51cef4"/>
        <circle cx="795.51" cy="631.39" r="7.4" style="fill: #51cef4"/>
        <path d="M838.88,620.84a1.51,1.51,0,0,1-.46-.07,1.49,1.49,0,0,1-1-1.89c16.74-51.52,10.74-86.45,2.77-106.67-8.62-21.88-21.36-31.76-21.49-31.86a1.5,1.5,0,0,1-.28-2.1,1.52,1.52,0,0,1,2.1-.29c.54.42,13.43,10.37,22.38,32.94,8.21,20.71,14.42,56.42-2.63,108.9A1.49,1.49,0,0,1,838.88,620.84Z" style="fill: #fff"/>
        <path d="M665,774.9h-1.45a1.5,1.5,0,0,1,0-3H665c46.91,0,59.89-30.23,60-30.54a1.5,1.5,0,1,1,2.78,1.14C727.62,742.83,713.87,774.9,665,774.9Z" style="fill: #fff"/>
        <path d="M638.85,759.81a17.69,17.69,0,0,1-7.36-1.49,1.5,1.5,0,0,1,1.24-2.73c15.6,7.09,43.38-18.38,43.66-18.64a1.5,1.5,0,0,1,2,2.2C677.39,740.11,655.88,759.81,638.85,759.81Z" style="fill: #fff"/>
        <path d="M591.94,737.14a33.55,33.55,0,0,1-10.36-1.5,1.5,1.5,0,1,1,.93-2.85c23.12,7.47,62.58-18.53,63-18.79a1.5,1.5,0,1,1,1.66,2.49C645.7,717.46,615.83,737.14,591.94,737.14Z" style="fill: #fff"/>
        <path d="M898.05,529.68a1.36,1.36,0,0,1-.29,0,1.49,1.49,0,0,1-1.19-1.76c7.62-38.76-.51-69.06-24.16-90.06a92.79,92.79,0,0,0-38.12-20.09,1.5,1.5,0,1,1,.61-2.94,94.26,94.26,0,0,1,39.41,20.7c16.89,15,35,43.23,25.21,93A1.5,1.5,0,0,1,898.05,529.68Z"/>
      </g>
      <g>
        <circle cx="389.14" cy="271.99" r="39.56" style="fill: #382256"/>
        <path d="M389.18,232.43a39.56,39.56,0,1,1-33.38,18.28,39.38,39.38,0,0,1,33.38-18.28m0-3A42.57,42.57,0,1,0,412,236.12a42.4,42.4,0,0,0-22.86-6.69Z"/>
      </g>
      <g>
        <path d="M486.63,405.5s29.78-21,20.63-46.73-15.78-24.29-19.72-38.18S461,290.85,438.48,295c0,0-25.06-23.12-50.26-19.29s-35,14.66-43.91,33.13-16.77,26.27-23.5,39-18.58,49.36,30.76,82.25S486.63,405.5,486.63,405.5Z" style="fill: #382256"/>
        <path d="M394,275.24c23.12,0,44.5,19.72,44.5,19.72a41.16,41.16,0,0,1,7.38-.66c19.88,0,38.18,13.92,41.68,26.29,3.94,13.89,10.56,12.43,19.72,38.18s-20.63,46.73-20.63,46.73-51.82,34.75-98.07,34.75c-13.23,0-26-2.85-37-10.16-49.34-32.89-37.49-69.48-30.76-82.25s14.56-20.58,23.5-39,18.71-29.31,43.91-33.13a38.71,38.71,0,0,1,5.76-.43m0-3a42.32,42.32,0,0,0-6.21.46c-26.46,4-37,15.8-46.16,34.79a178.23,178.23,0,0,1-14.16,24,156.16,156.16,0,0,0-9.29,15,57.48,57.48,0,0,0-6,35.45c3,19,15.71,36,37.71,50.69,10.62,7.08,23.62,10.67,38.65,10.67,24.44,0,50.27-9.6,67.64-17.65A256.92,256.92,0,0,0,488.3,408l.06,0a71.19,71.19,0,0,0,14.42-14.37c8.87-11.92,11.4-24.3,7.3-35.82-5.22-14.7-9.68-20.84-13.27-25.77-2.77-3.81-4.77-6.56-6.38-12.23-3.81-13.47-23.06-28.47-44.57-28.47a44.76,44.76,0,0,0-6.46.47c-4.82-4.14-24.18-19.53-45.42-19.53Z"/>
      </g>
      <path d="M392.29,369.12h-.14c-17.61-1.58-33-20.3-33.61-21.1a1.5,1.5,0,1,1,2.33-1.89c.15.19,15.21,18.54,31.55,20a1.5,1.5,0,0,1-.13,3Z"/>
      <path d="M391.92,357.75a44.63,44.63,0,0,1-11.84-1.67,1.5,1.5,0,0,1,.79-2.89c33.38,9.14,47.32-24.28,47.9-25.71a1.5,1.5,0,1,1,2.78,1.13C431.42,328.94,419.45,357.75,391.92,357.75Z" style="fill: #fff"/>
      <path d="M350.12,234.36a1.51,1.51,0,0,1-.5-.09,1.49,1.49,0,0,1-.91-1.91c3.23-9.1,8.6-15.46,16-18.92,12.92-6.09,27.24-1,27.84-.78a1.5,1.5,0,0,1-1,2.82c-.13,0-13.77-4.88-25.56.68-6.59,3.11-11.42,8.9-14.37,17.2A1.5,1.5,0,0,1,350.12,234.36Z"/>
      <path d="M363,261a1.5,1.5,0,0,1-1.32-2.21c4.85-9,11.23-14.52,18.93-16.37,12.48-3,23.79,4.73,24.26,5.06a1.5,1.5,0,0,1-1.7,2.47c-.11-.08-10.72-7.29-21.88-4.6-6.83,1.64-12.54,6.64-17,14.86A1.49,1.49,0,0,1,363,261Z" style="fill: #fff"/>
      <g>
        <path d="M407.62,459.51v15.72s-27.24,40.86-79.64,7.33c0,0,25.7-36.94,39.46-80.78,0,0-19.39-5.26-15.41-22.64s18.23-19.65,26.31-14.48c0,0,31.41,24.31,68-41.92,0,0,33.9,15.95,39.28,52.09s-3.79,77.23-31.85,87.76S407.62,459.51,407.62,459.51Z" style="fill: #ffcdb2"/>
        <path d="M446.35,322.74s33.9,15.95,39.28,52.09-3.79,77.23-31.85,87.76a59.38,59.38,0,0,1-21,4c-15.77,0-25.18-7.08-25.18-7.08v15.72s-13.7,20.55-40.35,20.55c-10.93,0-24-3.46-39.29-13.22,0,0,25.7-36.94,39.46-80.78,0,0-19.39-5.26-15.41-22.64,2.78-12.15,10.59-16.91,17.8-16.91a15.79,15.79,0,0,1,8.51,2.43,25.94,25.94,0,0,0,14.9,4.35c12.63,0,32-8.08,53.11-46.27m0-3a3,3,0,0,0-2.63,1.55C423.3,358.25,405,366,393.24,366a23.25,23.25,0,0,1-13.07-3.74l-.21-.14a19,19,0,0,0-10.13-2.9c-7.89,0-17.48,5-20.73,19.24-1.9,8.31.61,15.51,7.27,20.85a31.06,31.06,0,0,0,7.33,4.3c-13.66,41.72-37.93,76.87-38.18,77.23a3,3,0,0,0,.85,4.24c14.19,9.08,27.95,13.69,40.9,13.69,27.93,0,42.25-21,42.85-21.89a3,3,0,0,0,.5-1.66V464.7a51,51,0,0,0,22.18,4.89,62.62,62.62,0,0,0,22-4.19c13.94-5.23,24.4-17.74,30.27-36.18,5.12-16.08,6.36-35.55,3.49-54.83C486.3,358.93,478.49,344.63,466,333a80,80,0,0,0-18.39-13,3.06,3.06,0,0,0-1.28-.29Z"/>
      </g>
      <path d="M408.14,462.58a1.33,1.33,0,0,1-.47-.08c-16-5.33-27.61-22.18-28.1-22.89a1.5,1.5,0,1,1,2.48-1.69c.12.17,11.53,16.72,26.57,21.74a1.5,1.5,0,0,1-.48,2.92Z"/>
      <path d="M367.92,393.63a1.51,1.51,0,0,1-1.33-.79c-3.58-6.72-4.23-12.16-1.92-16.17,3.32-5.78,11.42-6.15,11.77-6.16A1.47,1.47,0,0,1,378,372a1.51,1.51,0,0,1-1.44,1.56c-.11,0-6.81.34-9.29,4.66-1.75,3.06-1.08,7.52,2,13.25a1.51,1.51,0,0,1-1.32,2.21Z"/>
      <path d="M444.85,376.11c-20.32,1.53-45.77-10.74-51.3-4.31s-3.33,16.36,7.05,20.15,21,4.9,43,6.13,43.58.8,42.68-11.16S474.73,373.85,444.85,376.11Z" style="fill: #ffb49f"/>
      <path d="M469.47,366.39a1.49,1.49,0,0,1-1.14-.52h0c-.06-.07-5.88-6.78-13.19-6.23a1.5,1.5,0,0,1-.22-3c8.83-.65,15.41,6.94,15.69,7.27a1.5,1.5,0,0,1-1.14,2.47Z"/>
      <path d="M446.93,412.61a1.49,1.49,0,0,1-1.46-1.19l-6.69-32.26a1.5,1.5,0,0,1,2.94-.61l6.69,32.26a1.5,1.5,0,0,1-1.17,1.77A1.55,1.55,0,0,1,446.93,412.61Z"/>
      <g>
        <circle cx="359.46" cy="400.72" r="6.48" style="fill: #07acee"/>
        <path d="M359.46,394.25a6.47,6.47,0,1,1-5.46,3,6.43,6.43,0,0,1,5.46-3m0-3a9.47,9.47,0,1,0,5.1,1.49,9.42,9.42,0,0,0-5.1-1.49Z"/>
      </g>
      <circle cx="411.37" cy="382.78" r="3.67"/>
      <circle cx="465.01" cy="386.47" r="3.67"/>
      <path d="M423.81,440a23.84,23.84,0,0,1-9.15-1.8c-13.72-5.64-19.29-22.44-19.52-23.16a1.5,1.5,0,0,1,2.85-.92c.06.16,5.4,16.21,17.83,21.31,6.5,2.67,13.89,1.91,22-2.27a1.5,1.5,0,1,1,1.38,2.66A33.61,33.61,0,0,1,423.81,440Z"/>
      <path d="M431.56,357.5a1.49,1.49,0,0,1-1.09-.47h0c-1-1-4.22-3.75-6.37-3a1.5,1.5,0,1,1-1-2.83c4.36-1.52,9,3.21,9.54,3.76a1.49,1.49,0,0,1-1.08,2.53Z"/>
      <path d="M336.84,480a1.5,1.5,0,0,1-1.13-2.49c14.34-16.39,28.94-51.62,29.08-52a1.5,1.5,0,1,1,2.78,1.14c-.61,1.46-14.94,36.05-29.6,52.81A1.49,1.49,0,0,1,336.84,480Z" style="fill: #fff"/>
    </g>
  </g>
</svg>
