<svg xmlns="http://www.w3.org/2000/svg" width="1000" height="1000" viewBox="0 0 1000 1000">
  <g id="ab07721d-8feb-4d31-b79f-202f1c10e0c8" data-name="illustration">
    <g id="b49a8693-c118-46b8-aa36-469b04a10419" data-name="video">
      <g id="e1c06b64-e546-479d-9dee-b6c5827fce18" data-name="line">
        <path d="M840,865H107a2,2,0,0,1,0-4H840a2,2,0,0,1,0,4Z" style="fill: #1d1d1b"/>
        <path d="M914,892H801a2,2,0,0,1,0-4H914a2,2,0,0,1,0,4Z" style="fill: #1d1d1b"/>
        <path d="M182,892H52a2,2,0,0,1,0-4H182a2,2,0,0,1,0,4Z" style="fill: #1d1d1b"/>
      </g>
      <g id="ac5c5a61-acb6-40c9-80c4-329a3dab3da7" data-name="image">
        <g>
          <g>
            <rect x="122.5" y="333.5" width="445" height="347" rx="63.04" style="fill: #4bd657"/>
            <path d="M504.46,333.5a63,63,0,0,1,63,63V617.46a63,63,0,0,1-63,63H185.54a63,63,0,0,1-63-63V396.54a63,63,0,0,1,63-63H504.46m0-3H185.54a66.12,66.12,0,0,0-66,66V617.46a66.12,66.12,0,0,0,66,66H504.46a66.12,66.12,0,0,0,66-66V396.54a66.12,66.12,0,0,0-66-66Z" style="fill: #1d1e1b"/>
          </g>
          <g>
            <path d="M122.5,617.46V573l109-85.47,76,47,93-116,167,133.23v65.73a63,63,0,0,1-63,63H185.54A63,63,0,0,1,122.5,617.46Z" style="fill: #fff"/>
            <path d="M504.46,682H185.54A64.61,64.61,0,0,1,121,617.46V572.25l.57-.46L231.4,485.67l75.76,46.86,93.11-116.14,1.17.94L569,551v66.45A64.61,64.61,0,0,1,504.46,682ZM124,573.7v43.76A61.61,61.61,0,0,0,185.54,679H504.46A61.61,61.61,0,0,0,566,617.46v-65L400.73,420.61,307.84,536.47,231.6,489.33Z" style="fill: #1d1f1c"/>
          </g>
          <path d="M597,410.51c-.4-46.41-16.67-80.74-47-99.28A99.64,99.64,0,0,0,503.5,297v-3c1,0,24.19.17,47.9,14.59,21.89,13.32,48.08,41.8,48.6,101.9Z" style="fill: #1d1f1c"/>
          <path d="M134.49,413a3,3,0,0,1-3-2.95c-.37-21.48,5.4-38.48,17.14-50.5,17.26-17.68,41-18,42-18.05h0a3,3,0,0,1,0,6c-.37,0-22.37.45-37.78,16.29-10.55,10.83-15.73,26.37-15.39,46.16a3,3,0,0,1-2.94,3.05Z" style="fill: #fff"/>
        </g>
        <g>
          <circle cx="271.5" cy="408.5" r="26" style="fill: #fff"/>
          <path d="M271.5,436A27.5,27.5,0,1,1,299,408.5,27.54,27.54,0,0,1,271.5,436Zm0-52A24.5,24.5,0,1,0,296,408.5,24.53,24.53,0,0,0,271.5,384Z" style="fill: #1d1f1c"/>
        </g>
      </g>
      <g id="bab7c911-d5db-4c84-9301-0ae32afadbff" data-name="woman">
        <g>
          <path d="M632,556.69c-51.87-16.21-181.92,8.81-218.51,54.81-20.83,26.18-42,75-63,136-8.88,25.79-24.88,49.92-55,47-19.49-1.89-39.83,11.77-37,25,5.56,26,52,43,52,43L678.2,861s42.56-84.56,2.13-169.53c0,0,79.9,33.62,112.63,19s75.63-104,42.9-113.12l6.44-22.19-50.87-28.92-10.72,13.58s-16.52-19.66-28.1-5.36-29.91,43.43-29.91,43.43S710.05,581.08,632,556.69Z" style="fill: #07acee"/>
          <path d="M310.5,864a1.54,1.54,0,0,1-.52-.09c-1.92-.71-47.28-17.58-53-44.1-1-4.8.67-10,4.77-14.57,7.5-8.41,21.42-13.44,33.84-12.23,24.15,2.35,42.13-13.13,53.44-46,23.26-67.55,43.94-112.18,63.25-136.44,16.91-21.27,54.95-40,104.36-51.27,45.12-10.33,90.56-11.92,115.77-4,65.24,20.39,85,35.49,90,40.21,4-6.35,19-29.68,29-42,3.07-3.79,6.76-5.73,11-5.77h.13c7.89,0,15.25,6.78,18.1,9.75l9.63-12.19a1.48,1.48,0,0,1,1.91-.38L843,573.86a1.49,1.49,0,0,1,.7,1.72l-6,20.79c6.69,2.47,10.57,8.55,11.25,17.68,2.21,29.75-29.88,86.41-55.39,97.79-29.37,13.1-94.23-11.17-110.28-17.57,19.36,43.08,17.61,85.64,12.61,114.07-5.56,31.61-16.25,53.1-16.36,53.32a1.49,1.49,0,0,1-1.33.82L310.51,864Zm-18.63-68.17c-10.56,0-21.61,4.44-27.83,11.41-2.44,2.73-5.13,7-4.07,12,5.12,23.95,47.17,40.43,50.8,41.81l366.49-1.51A215.17,215.17,0,0,0,693,807.72c5-28.74,6.71-72.13-14-115.63a1.49,1.49,0,0,1,1.93-2c.8.33,79.68,33.2,111.44,19,24.7-11,55.76-66,53.62-94.83-.64-8.51-4.17-13.72-10.51-15.48a1.51,1.51,0,0,1-.91-.71,1.54,1.54,0,0,1-.13-1.15l6.11-21-48.72-27.7-9.92,12.57a1.52,1.52,0,0,1-1.15.57h0a1.48,1.48,0,0,1-1.14-.54c-.09-.1-8.56-10-17-10h-.11c-3.31,0-6.13,1.56-8.65,4.66-11.39,14.07-29.61,43-29.8,43.28a1.48,1.48,0,0,1-1.2.7,1.46,1.46,0,0,1-1.26-.59c-.13-.16-13.76-16.87-90-40.68-24.73-7.73-69.56-6.12-114.2,4.11-48.76,11.17-86.19,29.47-102.69,50.2-19.08,24-39.61,68.34-62.75,135.56-11,32-28.34,48.25-51.49,48.25-1.66,0-3.35-.08-5.07-.25C294.21,795.88,293,795.83,291.87,795.83Z" style="fill: #1d1d1b"/>
        </g>
        <path d="M259.43,571.66a291.55,291.55,0,0,1-55.5-5.39,287.63,287.63,0,0,1-85.18-31.08c-33.09-18.44-62.83-43.69-88.4-75a2,2,0,0,1,3.1-2.53c57.12,70,124.56,95.58,171.07,104.69,50.46,9.88,87.9,3.09,88.27,3a2,2,0,1,1,.74,3.93C293.31,569.3,280.33,571.66,259.43,571.66Z" style="fill: #1d1d1b"/>
        <g>
          <path d="M408.42,505.49s-10.79,29.35-30.24,17-60.8-39.13-82.17-11.12-19.87,35.27-43.54,27.88-86,55-27.77,93.1c95.35,62.36,232.69-81.71,232.69-81.71L443.2,528.78Z" style="fill: #382256"/>
          <path d="M278.64,649.5c-20.24,0-38.59-5.31-54.76-15.89-23.55-15.4-30.76-37.58-19.77-60.87,10.21-21.65,34.84-39.26,48.8-34.91,18.21,5.68,20.31,2.72,32-13.75,2.78-3.92,5.92-8.36,9.93-13.61,21.94-28.75,63.47-2.38,83.43,10.3l.74.47c4.33,2.75,8.53,3.47,12.48,2.13C401.36,520,407,505.12,407,505l.66-1.79,36.62,24.53,15,23.12-.82.85c-.34.37-35,36.49-80.89,64.49-27,16.48-52.6,27-76,31.21A130.06,130.06,0,0,1,278.64,649.5Zm-30.3-109.32c-12.16,0-32.21,14.12-41.52,33.84-6,12.8-11.64,37.24,18.7,57.08,48.58,31.77,108.63,8,150.45-17.46,41.67-25.41,74-57.58,79.51-63.18l-13.37-20.6-33-22.11c-1.9,4.34-7.51,15.36-16.67,18.46-4.85,1.64-9.92.82-15.06-2.44l-.74-.47c-19.21-12.2-59.17-37.57-79.43-11-4,5.21-7.11,9.63-9.87,13.52C275.49,542.53,272.3,547,252,540.7A12.31,12.31,0,0,0,248.34,540.18Z"/>
        </g>
        <path d="M289.79,647.47c59.78-82.26,148.75-102.79,148.75-102.79a38.51,38.51,0,0,1,11.58,13.18C427.87,579.22,358.06,641.09,289.79,647.47Z" style="fill: #050505"/>
        <g>
          <circle cx="414.24" cy="439.65" r="29.25" style="fill: #382256"/>
          <path d="M397.13,415.92A29.25,29.25,0,1,1,385,441.32a29.07,29.07,0,0,1,12.09-25.4m-1.3-1.8a31.49,31.49,0,1,0,16.6-5.89,31.35,31.35,0,0,0-16.6,5.89Z"/>
        </g>
        <g>
          <path d="M530.47,477.45s8.76-25.46-7.87-36.93-20-7.73-28.35-14.35-28.77-6.34-40.5,5.88c0,0-25-3-38.47,10.2s-14.61,23.92-12,38.86,1.32,23,2.82,33.57,10.23,37.63,54,36S530.47,477.45,530.47,477.45Z" style="fill: #382256"/>
          <path d="M456.37,552.23c-43,0-50.46-28.41-51.73-37.34a115.93,115.93,0,0,1-.91-12.92,133.81,133.81,0,0,0-1.9-20.6c-2.67-15.13-1.49-26.55,12.4-40.19,12.64-12.42,34.57-11.1,39-10.7,12.06-12,32.67-12.86,42-5.49a26,26,0,0,0,9.34,4.69c4.24,1.39,9.52,3.11,18.93,9.6,17.37,12,8.81,37.57,8.43,38.66v0A197,197,0,0,1,513,514.27c-16.1,24.09-34.35,37.19-52.76,37.88C458.91,552.2,457.62,552.23,456.37,552.23Zm-8.72-119c-8,0-22.45,1.34-31.32,10.05-13,12.78-14.1,23.05-11.54,37.53a135.73,135.73,0,0,1,1.93,21,113.83,113.83,0,0,0,.89,12.6c1.21,8.56,8.6,36.34,52.5,34.69,42.08-1.59,68.39-70.75,68.94-72.21.25-.73,8-24.63-7.31-35.2-9-6.24-14.1-7.89-18.15-9.22a28.53,28.53,0,0,1-10.27-5.19c-7.55-6-27-6.18-38.49,5.74l-.51.54-.75-.08A56.29,56.29,0,0,0,447.65,433.27Z"/>
        </g>
        <path d="M458.17,496.49l-.08.06c-11.24,6.67-28.55,2.1-29.28,1.9a1.11,1.11,0,1,1,.58-2.14c.17.05,17.14,4.52,27.57-1.67a1.11,1.11,0,0,1,1.21,1.85Z"/>
        <g>
          <path d="M521.41,553.4s20.17,3,10.89,21.49-27.22,12.94-27.22,12.94-35.58,38.67-46.5-9.68Z" style="fill: #fff"/>
          <path d="M478.71,604a16.91,16.91,0,0,1-4.4-.56c-8.16-2.18-13.95-10.57-17.19-24.93l-.29-1.25,64.4-25.37.4,0c.39.06,9.66,1.5,13.25,8.37,2.17,4.17,1.75,9.31-1.24,15.28-8.5,17-24.12,14.8-28.07,13.94C502.7,592.43,490.67,604,478.71,604Zm-18.37-24.9c3,12.42,8,19.63,14.74,21.44C488,604,503.82,587,504,586.82l.64-.7.91.28c.68.21,16.85,5,25.43-12.18,2.53-5.06,3-9.29,1.26-12.55-2.53-4.85-9-6.4-10.65-6.72Z" style="fill: #1d1d1b"/>
        </g>
        <g>
          <path d="M453,489.84a33.07,33.07,0,0,1-7.82,4.13,1.11,1.11,0,0,1-.77-2.08c24-9,17.84-35,17.57-36.15a1.11,1.11,0,0,1,2.16-.53C464.23,455.47,469.53,477.92,453,489.84Z" style="fill: #fff"/>
          <path d="M444.83,494.54a1.61,1.61,0,0,1-1.51-1.05,1.59,1.59,0,0,1,0-1.23,1.61,1.61,0,0,1,.9-.84c23.54-8.82,17.53-34.47,17.27-35.56a1.56,1.56,0,0,1,.18-1.21,1.62,1.62,0,0,1,2.21-.55,1.56,1.56,0,0,1,.73,1c.06.23,5.5,23-11.32,35.15a33.42,33.42,0,0,1-7.94,4.19A1.64,1.64,0,0,1,444.83,494.54Zm18.26-39.67-.15,0a.61.61,0,0,0-.37.28.55.55,0,0,0-.07.45c.27,1.13,6.48,27.61-17.89,36.74a.61.61,0,0,0-.34.31.64.64,0,0,0,0,.47.62.62,0,0,0,.79.36,32.91,32.91,0,0,0,7.7-4.07h0c16.26-11.74,11-33.88,10.94-34.1a.58.58,0,0,0-.28-.37A.56.56,0,0,0,463.09,454.87Z" style="fill: #fff"/>
        </g>
        <g>
          <path d="M393.81,444.42a1.14,1.14,0,0,1-.51.2,1.11,1.11,0,0,1-1.24-.95c-1-7.51.44-13.57,4.26-18,6.18-7.19,16.3-7.47,16.73-7.47a1.1,1.1,0,0,1,1.13,1.08,1.11,1.11,0,0,1-1.09,1.13c-.09,0-9.58.28-15.1,6.72-3.38,3.94-4.64,9.41-3.73,16.26A1.12,1.12,0,0,1,393.81,444.42Z" style="fill: #fff"/>
          <path d="M393.15,445.13a1.56,1.56,0,0,1-1-.33,1.62,1.62,0,0,1-.62-1.07c-1-7.65.46-13.84,4.38-18.4,6.31-7.34,16.66-7.64,17.1-7.64a1.74,1.74,0,0,1,1.14.44,1.61,1.61,0,0,1-1.08,2.77c-.09,0-9.37.3-14.73,6.55-3.29,3.83-4.5,9.16-3.62,15.86a1.61,1.61,0,0,1-.65,1.52h0a1.78,1.78,0,0,1-.73.29Zm19.92-26.44h0c-.42,0-10.33.29-16.36,7.3-3.72,4.33-5.12,10.25-4.15,17.61a.58.58,0,0,0,.24.4.6.6,0,0,0,.45.13.66.66,0,0,0,.27-.12.59.59,0,0,0,.25-.57c-.92-7,.37-12.59,3.85-16.65,5.68-6.61,15.37-6.88,15.47-6.89a.6.6,0,0,0,.41-1A.59.59,0,0,0,413.07,418.69Z" style="fill: #fff"/>
        </g>
        <g>
          <path d="M506.5,544l13.37,9.72s-7.18,45.51-56.53,21.09c0,0,4.82-15.78-5.91-48,0,0-13.91,5.24-19-6.89s2.42-19.67,9.5-20.08c0,0,29.35,1,22.6-54.56,0,0,27.23-5.12,46.1,14.21s31.16,47.93,18.91,66.39S506.5,544,506.5,544Z" style="fill: #ffcdb2"/>
          <path d="M478.8,444.67c9.54,0,25.45,2.19,37.79,14.83,18.86,19.34,31.16,47.93,18.91,66.39C523.65,543.72,507.62,544,506.55,544h-.05l13.37,9.72S515.41,582,489.33,582c-7,0-15.55-2-26-7.2,0,0,4.82-15.78-5.91-48a21,21,0,0,1-6.7,1.13c-4.3,0-9.59-1.51-12.34-8-5.14-12.13,2.42-19.67,9.5-20.08H448c1.85,0,29-.9,22.51-54.56a49.2,49.2,0,0,1,8.31-.62m0-3v0h0a51.64,51.64,0,0,0-8.86.67l-2.76.52.33,2.79c3.25,26.69-2.17,39.18-7.29,45-5.38,6.08-11.55,6.25-12.24,6.25h-.27a15,15,0,0,0-11.68,7c-2.95,4.74-3.1,10.86-.4,17.22s8.05,9.85,15.1,9.85a24.38,24.38,0,0,0,4.72-.49c9.1,28.89,5.06,43.37,5,43.51l-.71,2.42,2.25,1.13c10.08,5,19.27,7.51,27.32,7.51,11.75,0,21.3-5.38,27.6-15.56a45.74,45.74,0,0,0,5.91-15.26l.28-1.82-1.48-1.08-7.55-5.48c6.54-1.84,16.08-6.5,23.9-18.29,6.23-9.37,7.11-21.63,2.57-35.45-3.93-12-11.68-24.29-21.83-34.68-13.36-13.69-30.75-15.74-39.93-15.74Z" style="fill: #1d1d1b"/>
        </g>
        <path d="M508.14,545.64a1.37,1.37,0,0,1-.32.16c-11.9,3.73-26.15-1.34-26.75-1.56a1.11,1.11,0,0,1,.76-2.09c.14.06,14.15,5,25.33,1.53a1.11,1.11,0,0,1,1,2Z"/>
        <path d="M454.18,521.73a1.11,1.11,0,0,1-1.14.1c-5.05-2.47-7.79-5.45-8.15-8.86-.51-4.9,4.19-8.63,4.39-8.78a1.09,1.09,0,0,1,1.56.19,1.1,1.1,0,0,1-.2,1.55c-.06.06-3.93,3.16-3.54,6.82.27,2.59,2.6,5,6.92,7.09a1.11,1.11,0,0,1,.51,1.48A1.08,1.08,0,0,1,454.18,521.73Z"/>
        <path d="M492.7,477.92c-11.52,9.72-32.08,13.39-32.61,19.63s5.09,11.25,13,9,14.74-6.17,28.44-14.95,26.46-18.39,20.74-25.16S509.63,463.63,492.7,477.92Z" style="fill: #ffb49f"/>
        <path d="M503.25,461.44a1.13,1.13,0,0,1-.91.18h0c-.07,0-6.46-1.52-10.6,2a1.11,1.11,0,0,1-1.43-1.7c5-4.21,12.24-2.51,12.55-2.44a1.12,1.12,0,0,1,.39,2Z"/>
        <path d="M509.76,498.9a1.12,1.12,0,0,1-1.4-.08l-18-16.44a1.11,1.11,0,0,1-.08-1.57,1.13,1.13,0,0,1,1.57-.07l18,16.44a1.12,1.12,0,0,1,.07,1.57Z"/>
        <g>
          <circle cx="452.18" cy="529.64" r="4.79" style="fill: #07acee"/>
          <path d="M449.38,525.76a4.79,4.79,0,1,1-2,4.16,4.8,4.8,0,0,1,2-4.16m-1.3-1.8a7,7,0,1,0,3.7-1.31,7,7,0,0,0-3.7,1.31Z"/>
        </g>
        <path d="M476.68,472.53a1.1,1.1,0,0,1-.85.19h0c-1-.19-4.16-.42-5.12,1a1.11,1.11,0,0,1-1.82-1.26c1.95-2.8,6.8-2,7.34-1.88a1.11,1.11,0,0,1,.89,1.29A1.15,1.15,0,0,1,476.68,472.53Z"/>
        <path d="M192.69,618.34A237.65,237.65,0,0,1,61.38,578.73a2,2,0,0,1,2.21-3.34,233.69,233.69,0,0,0,129.09,39h.21c34.77,0,58.29-7.81,58.53-7.89a2,2,0,0,1,1.28,3.79c-1,.33-24.26,8-59.65,8.1Z" style="fill: #1d1d1b"/>
        <circle cx="475.82" cy="714.95" r="5.7" style="fill: #51cef4"/>
        <circle cx="618.09" cy="599.89" r="5.7" style="fill: #51cef4"/>
        <circle cx="621.91" cy="722.02" r="5.7" style="fill: #51cef4"/>
        <circle cx="561.12" cy="700.7" r="5.7" style="fill: #51cef4"/>
        <circle cx="432.99" cy="630.13" r="5.7" style="fill: #51cef4"/>
        <circle cx="495.87" cy="652.49" r="5.7" style="fill: #51cef4"/>
        <circle cx="551.83" cy="609.55" r="5.7" style="fill: #51cef4"/>
        <circle cx="705.82" cy="643.04" r="5.7" style="fill: #51cef4"/>
        <circle cx="765.3" cy="599.49" r="5.7" style="fill: #51cef4"/>
        <circle cx="786.72" cy="672.39" r="5.7" style="fill: #51cef4"/>
        <circle cx="423.81" cy="632.52" r="5.7" style="fill: #51cef4"/>
        <path d="M839.89,576.17l-48.28-28.06-10.85,13.23s13.59,32.51,53.57,36Z" style="fill: #0598c6"/>
        <g>
          <path d="M792.44,545.37s-40.67-81.76,12.44-74.11l23.49-39s25.89-2.65,17.81,33.5c0,0,15.17,7.61,18.05,23,0,0,18.55,4,12.23,30.15-6.84,28.29-36.26,55.15-36.26,55.15Z" style="fill: #ffcdb2"/>
          <path d="M840.38,575.92l-49.09-29.49-.19-.4c-1-2-24.54-49.87-10.68-69,4.55-6.29,12.52-8.76,23.68-7.35l23.37-38.83.74-.08c.39,0,9.68-.9,15.86,6.06,5.21,5.87,6.5,15.34,3.81,28.16,3.51,2,14.73,9.42,17.63,22.6a19.64,19.64,0,0,1,10.35,8.17c3.71,5.92,4.4,13.83,2.06,23.52-6.87,28.41-35.5,54.8-36.71,55.91ZM793.6,544.31,840,572.18c4.75-4.55,29-28.73,35-53.63,2.14-8.85,1.59-16-1.65-21.18a16.56,16.56,0,0,0-9.45-7.15l-1-.22-.19-1c-2.71-14.51-17.1-21.88-17.24-21.95l-1-.52.25-1.15c2.77-12.37,1.8-21.31-2.87-26.6-4.23-4.79-10.52-5.16-12.6-5.11l-23.59,39.19-1-.14c-10.5-1.51-17.84.5-21.82,6C770.66,495.6,791.37,539.69,793.6,544.31Z" style="fill: #1d1d1b"/>
        </g>
        <g>
          <path d="M875.68,524.32c-4.9,12.18-23.24,19.29-27.59,7.23-3.61-10-.13-15.68-.13-15.68s-16.9,14.2-24.24-4.34,21.07-45.16,21.07-45.16" style="fill: #ffcdb2"/>
          <path d="M857.05,539.28h-.26a10.36,10.36,0,0,1-10.11-7.22,24.67,24.67,0,0,1-1.46-12.52c-3.25,1.86-8.2,3.87-13,2.66-4.32-1.09-7.64-4.5-9.86-10.12-7.63-19.26,20.25-45.69,21.44-46.8a1.49,1.49,0,0,1,2.12.07,1.51,1.51,0,0,1-.07,2.12c-.28.25-27.59,26.14-20.7,43.51,1.84,4.67,4.47,7.46,7.79,8.31,6.55,1.67,14-4.5,14.08-4.57a1.51,1.51,0,0,1,2.25,1.94c-.12.2-3,5.26.26,14.38a7.46,7.46,0,0,0,7.35,5.24H857c5.93,0,14.21-5,17.24-12.52a1.5,1.5,0,0,1,2.79,1.12C873.86,532.88,864.92,539.28,857.05,539.28Z" style="fill: #1d1d1b"/>
        </g>
        <g>
          <line x1="864.46" y1="488.96" x2="846.21" y2="517.15" style="fill: #ffcdb2"/>
          <path d="M846.21,518.66a1.46,1.46,0,0,1-.82-.25,1.5,1.5,0,0,1-.44-2.07l18.25-28.19a1.5,1.5,0,1,1,2.52,1.63L847.47,518A1.52,1.52,0,0,1,846.21,518.66Z" style="fill: #1d1d1b"/>
        </g>
        <g>
          <path d="M804.93,471.25s28.31-.66,30.66,15.21-41.77,17.26-41.77,17.26" style="fill: #ffcdb2"/>
          <path d="M793.82,505.22a1.5,1.5,0,0,1-.05-3c.31,0,31-1.09,38.79-10.39a6.25,6.25,0,0,0,1.55-5.15c-2.13-14.37-28.87-14-29.14-13.93a1.53,1.53,0,0,1-1.54-1.47,1.51,1.51,0,0,1,1.47-1.53c1.2,0,29.66-.49,32.18,16.49a9.25,9.25,0,0,1-2.22,7.52c-8.62,10.32-39.68,11.42-41,11.46Z" style="fill: #1d1d1b"/>
        </g>
        <path d="M685.68,705.4a1.49,1.49,0,0,1-1.44-1.09C677,679,644.23,630,643.9,629.48a1.5,1.5,0,0,1,2.49-1.67c1.36,2,33.37,49.89,40.73,75.68a1.5,1.5,0,0,1-1,1.86A1.92,1.92,0,0,1,685.68,705.4Z" style="fill: #1d1e1b"/>
        <g>
          <path d="M378.29,657.74s-1.16,50.86,4.58,84.69" style="fill: #07acee"/>
          <path d="M382.87,743.93a1.51,1.51,0,0,1-1.48-1.25c-5.7-33.58-4.61-84.47-4.6-85a1.5,1.5,0,0,1,1.5-1.47h0a1.5,1.5,0,0,1,1.47,1.53c0,.51-1.09,51.12,4.56,84.41a1.5,1.5,0,0,1-1.23,1.73Z" style="fill: #1d1d1b"/>
        </g>
        <path d="M699,603.39a3,3,0,0,1-1.78-.58c-36.57-27-70.84-33.91-93.15-35-24.19-1.16-40,4.15-40.12,4.2a3,3,0,0,1-2-5.67c.68-.24,16.78-5.69,42.06-4.54,23.2,1.06,58.83,8.19,96.73,36.15a3,3,0,0,1-1.78,5.41Z" style="fill: #fff"/>
        <path d="M499.6,525.81a23,23,0,0,1-10.86-3,1.5,1.5,0,0,1,1.51-2.6c.11.07,11,6.27,17.12-.69a1.5,1.5,0,0,1,2.26,2A12.81,12.81,0,0,1,499.6,525.81Z"/>
        <circle cx="480.5" cy="493.5" r="2.5"/>
        <circle cx="514.5" cy="472.5" r="2.5"/>
        <line x1="574" y1="648" x2="699" y2="647" style="fill: none"/>
        <path d="M378,413.5a1.5,1.5,0,0,1-1.34-2.18c.29-.57,7.28-14.05,21.23-18.4,8.37-2.61,17.39-1.34,26.82,3.76a1.5,1.5,0,1,1-1.42,2.64c-8.7-4.7-17-5.9-24.51-3.53-12.75,4-19.38,16.76-19.44,16.89A1.51,1.51,0,0,1,378,413.5Z" style="fill: #1d1f1c"/>
        <g>
          <path d="M305.5,852.32s-3.82-21.64-52.19-31.83-84,42-84,42H305.5Z" style="fill: #382256"/>
          <path d="M307,864H166.46l1.6-2.35a126.3,126.3,0,0,1,24.18-25.15c19.93-15.69,41.16-21.73,61.38-17.47,48.8,10.27,53.19,32.1,53.36,33l0,.26Zm-134.73-3H304v-8.52c-.4-1.62-6.17-21.08-51-30.52C212,813.34,179.92,851.05,172.27,861Z" style="fill: #1d1e1b"/>
        </g>
        <g>
          <path d="M232.94,800.13c-10.18-5.09-34.36,0-39.46,10.18s3.82,17.82,12.73,20.37,21.29-10.07,21.29-10.07Z" style="fill: #ffcdb2"/>
          <path d="M208.71,832.51a10.58,10.58,0,0,1-2.91-.39c-5.21-1.49-11.69-5.14-14.23-10.91a13.29,13.29,0,0,1,.57-11.57c2.53-5,9.56-9.39,18.82-11.61,8.81-2.11,17.5-1.82,22.66.76l1.09.54-5.86,22-.28.28C228.09,822.15,217.81,832.51,208.71,832.51Zm13.64-32.88A46.54,46.54,0,0,0,211.66,801c-8.28,2-14.73,5.83-16.83,10a10.24,10.24,0,0,0-.51,9c2.12,4.82,7.75,7.93,12.31,9.24,6.43,1.84,16-5.92,19.53-9.4l5-18.86A25.56,25.56,0,0,0,222.35,799.63Z" style="fill: #1d1d1b"/>
        </g>
        <g>
          <path d="M267.31,819.22S262.22,797.58,244.4,795s-33.09,6.36-31.82,24.18,22.91,20.37,34.37,16.55S267.31,819.22,267.31,819.22Z" style="fill: #ffcdb2"/>
          <path d="M236.74,838.79c-6,0-12.28-1.36-17.15-4.61a18.83,18.83,0,0,1-8.51-14.85c-.55-7.74,1.84-14.34,6.92-19.07,6.22-5.79,15.92-8.23,26.61-6.71,18.62,2.66,23.95,24.4,24.16,25.33l.16.65-.39.55c-.37.54-9.33,13.18-21.12,17.11A34.49,34.49,0,0,1,236.74,838.79Zm1.72-42.69c-7.45,0-14,2.22-18.42,6.36s-6.45,9.85-6,16.66a15.74,15.74,0,0,0,7.19,12.56c7.25,4.85,18.18,5,25.21,2.67,9.51-3.17,17.36-13,19.21-15.43-1-3.54-6.6-20.27-21.49-22.4A40.5,40.5,0,0,0,238.46,796.1Z" style="fill: #1d1d1b"/>
        </g>
        <g>
          <path d="M306.77,835.77c10.8,5.4,12.73,16.55,11.46,26.73s-14,19.09-25.46,14-6.36-17.82,0-24.18-5.09-16.55-11.46-7.64-24.18,7.64-34.36,0S244.4,818,258.4,812.86s29.28-7.64,35.64,6.36S301.68,833.22,306.77,835.77Z" style="fill: #ffcdb2"/>
          <path d="M299.71,879.47a18.55,18.55,0,0,1-7.55-1.6c-4.18-1.86-6.77-4.89-7.49-8.79-1.17-6.28,2.69-13.48,7-17.82a4.24,4.24,0,0,0,1.2-4.53,6.15,6.15,0,0,0-4.76-4c-1.49-.22-3.66.08-5.61,2.81-2.47,3.45-6.55,5.7-11.81,6.51a34.87,34.87,0,0,1-24.68-6.18c-4.14-3.11-5.94-8.06-5.07-14a27,27,0,0,1,16.91-20.48c12.62-4.59,30.25-8.85,37.52,7.15,5.79,12.75,7,13.37,11.22,15.43l.81.4c9.6,4.79,14,14.83,12.28,28.26-.7,5.57-4.58,11-10.12,14.11A20.05,20.05,0,0,1,299.71,879.47Zm-12.33-39.79a7.26,7.26,0,0,1,1.22.1,9.13,9.13,0,0,1,7.16,6,7.27,7.27,0,0,1-1.93,7.59c-3.67,3.67-7.18,10-6.21,15.16.54,2.91,2.48,5.13,5.76,6.59a16.27,16.27,0,0,0,14.74-.94c4.74-2.67,8-7.22,8.62-11.88,1.07-8.53.09-19.84-10.64-25.2l-.79-.39c-5-2.45-6.66-3.74-12.63-16.88-4.75-10.45-15.48-12.22-33.76-5.57-7.53,2.73-13.82,10.35-15,18.11-.71,4.74.68,8.69,3.9,11.1a31.65,31.65,0,0,0,22.42,5.62c3.1-.48,7.32-1.79,9.82-5.29A9,9,0,0,1,287.38,839.68Z" style="fill: #1d1d1b"/>
        </g>
      </g>
      <g id="a88a7fce-863c-4334-bcdd-19544df50c5b" data-name="computer">
        <circle cx="589.05" cy="792.44" r="5.7" style="fill: #51cef4"/>
        <circle cx="442.76" cy="786.84" r="5.7" style="fill: #51cef4"/>
        <circle cx="520.3" cy="779.75" r="5.7" style="fill: #51cef4"/>
        <g>
          <rect x="371.92" y="629.95" width="350.36" height="229.12" rx="22.51" transform="translate(1094.2 1489.01) rotate(-180)" style="fill: #fff"/>
          <path d="M699.77,860.57H394.43a24,24,0,0,1-24-24V652.46a24,24,0,0,1,24-24H699.77a24,24,0,0,1,24,24V836.55A24,24,0,0,1,699.77,860.57ZM394.43,631.45a21,21,0,0,0-21,21V836.55a21,21,0,0,0,21,21H699.77a21,21,0,0,0,21-21V652.46a21,21,0,0,0-21-21Z" style="fill: #1d1e1b"/>
        </g>
        <g>
          <path d="M370.77,839.52H735.12a20,20,0,0,1,20,20v0a0,0,0,0,1,0,0H350.8a0,0,0,0,1,0,0v0A20,20,0,0,1,370.77,839.52Z" transform="translate(1105.89 1699.01) rotate(180)" style="fill: #fff"/>
          <path d="M735.12,861H370.77a21.49,21.49,0,0,1-21.47-21.47V838H756.58v1.5A21.49,21.49,0,0,1,735.12,861ZM352.36,841a18.5,18.5,0,0,0,18.41,17H735.12a18.49,18.49,0,0,0,18.4-17Z" style="fill: #1d1d1b"/>
        </g>
        <path d="M384.5,819.5a3,3,0,0,1-3-3v-150a3,3,0,0,1,6,0v150A3,3,0,0,1,384.5,819.5Z" style="fill: #fff"/>
        <g>
          <rect x="542.1" y="737.85" width="21.8" height="21.8" rx="5.52" style="fill: #07acee"/>
          <path d="M558.38,760.5H547.62a6.38,6.38,0,0,1-6.37-6.37V743.37a6.38,6.38,0,0,1,6.37-6.37h10.76a6.38,6.38,0,0,1,6.37,6.37v10.76A6.38,6.38,0,0,1,558.38,760.5Zm-10.76-21.8a4.68,4.68,0,0,0-4.67,4.67v10.76a4.68,4.68,0,0,0,4.67,4.67h10.76a4.68,4.68,0,0,0,4.67-4.67V743.37a4.68,4.68,0,0,0-4.67-4.67Z" style="fill: #1d1d1b"/>
        </g>
      </g>
      <g id="a59a0d73-1038-43e8-914c-eec8f080b2ad" data-name="video">
        <g>
          <rect x="735.86" y="317" width="207.28" height="136.5" rx="32.67" style="fill: #fff"/>
          <path d="M910.47,455H768.53a34.21,34.21,0,0,1-34.17-34.17V349.67a34.21,34.21,0,0,1,34.17-34.17H910.47a34.21,34.21,0,0,1,34.17,34.17v71.16A34.21,34.21,0,0,1,910.47,455ZM768.53,318.5a31.2,31.2,0,0,0-31.17,31.17v71.16A31.2,31.2,0,0,0,768.53,452H910.47a31.2,31.2,0,0,0,31.17-31.17V349.67a31.2,31.2,0,0,0-31.17-31.17Z" style="fill: #1d1d1b"/>
        </g>
        <path d="M755.5,472.88h-.11a41.26,41.26,0,0,1-38-41V339.62a1.5,1.5,0,0,1,3,0v92.26a38.25,38.25,0,0,0,35.25,38,1.5,1.5,0,0,1-.11,3Z" style="fill: #1d1d1b"/>
        <path d="M921.88,473H919.5a1.5,1.5,0,0,1,0-3h2.38A38.16,38.16,0,0,0,960,431.88V339.62a38.16,38.16,0,0,0-38.12-38.12H781a1.5,1.5,0,0,1,0-3H921.88A41.17,41.17,0,0,1,963,339.62v92.26A41.17,41.17,0,0,1,921.88,473Z" style="fill: #1d1d1b"/>
        <g>
          <path d="M852.48,347.89l-55.06,36.38a5.49,5.49,0,0,0,.18,9.26L852.66,427a5.48,5.48,0,0,0,8.33-4.68V352.47A5.49,5.49,0,0,0,852.48,347.89Z" style="fill: #4bd657"/>
          <path d="M855.5,429.27a6.91,6.91,0,0,1-3.62-1l-55.06-33.43A7,7,0,0,1,796.6,383l55.06-36.38a7,7,0,0,1,10.83,5.83v69.81a7,7,0,0,1-7,7Zm-2.19-80.12-55.06,36.38a4,4,0,0,0,.13,6.72l55.06,33.43a4,4,0,0,0,6-3.4V352.47a3.94,3.94,0,0,0-2.1-3.51,3.9,3.9,0,0,0-4.08.19Z" style="fill: #1d1e1b"/>
        </g>
        <path d="M786.5,342a1.51,1.51,0,0,1-1.35-.84c-28.23-58-83.26-98.2-124.46-121.7C616,194,577.45,182.05,577.06,181.93a1.5,1.5,0,0,1,.88-2.86c.38.11,39.18,12.09,84.18,37.75,41.58,23.72,97.15,64.31,125.73,123a1.51,1.51,0,0,1-.69,2A1.55,1.55,0,0,1,786.5,342Z" style="fill: #1d1e1b"/>
        <path d="M757.5,348a1.5,1.5,0,0,1-1.33-.8c-19.5-37.05-90.46-63-91.18-63.29a1.5,1.5,0,1,1,1-2.82c3,1.07,72.78,26.63,92.82,64.71a1.51,1.51,0,0,1-.63,2A1.57,1.57,0,0,1,757.5,348Z" style="fill: #1d1e1b"/>
      </g>
    </g>
  </g>
</svg>
